<svg width="232" height="87" viewBox="0 0 232 87" fill="none" xmlns="http://www.w3.org/2000/svg">
<g clip-path="url(#clip0_1312_12857)">
<path d="M64.2405 0H167.68V0.02C177.58 0.02 186.58 4.06 193.09 10.57C199.6 17.08 203.64 26.08 203.64 35.98C203.64 45.89 199.6 54.88 193.09 61.38C186.58 67.9 177.58 71.94 167.68 71.94V71.96H64.2405V71.94C54.3305 71.94 45.3405 67.9 38.8305 61.38C32.3205 54.88 28.2805 45.88 28.2805 35.98C28.2805 26.07 32.3205 17.08 38.8305 10.56C45.3405 4.06 54.3305 0.02 64.2405 0.02V0ZM167.68 8.23H64.2405C56.6305 8.22 49.6905 11.35 44.6505 16.38C39.6105 21.42 36.4805 28.36 36.4805 35.98C36.4805 43.59 39.6105 50.53 44.6505 55.57C49.6905 60.6 56.6305 63.74 64.2405 63.74V63.72H167.68V63.74C175.3 63.74 182.23 60.6 187.27 55.57C192.31 50.53 195.45 43.59 195.45 35.98C195.45 28.36 192.32 21.43 187.27 16.38C182.23 11.35 175.29 8.22 167.68 8.22V8.23Z" fill="#004A8F"/>
<path d="M134.44 42.57C133.68 47.82 131.62 51.89 128.24 54.77C124.86 57.67 120.5 59.11 115.15 59.11C108.75 59.11 103.58 57.02 99.6605 52.84C95.7305 48.66 93.7805 43.16 93.7805 36.35C93.7805 29.54 95.7705 23.6 99.7605 19.38C103.76 15.16 109.11 13.05 115.79 13.05C121.1 13.05 125.44 14.45 128.8 17.24C132.16 20.03 134.08 23.84 134.55 28.68H124.03C123.51 26.59 122.54 24.99 121.1 23.94C119.67 22.88 117.78 22.35 115.44 22.35C112.31 22.35 109.84 23.59 108.02 26.07C106.19 28.54 105.28 31.93 105.28 36.23C105.28 40.53 106.14 43.84 107.86 46.2C109.59 48.56 112.01 49.75 115.14 49.75C117.65 49.75 119.67 49.14 121.19 47.91C122.7 46.68 123.65 44.9 124.03 42.57H134.44Z" fill="#004A8F"/>
<path d="M146.93 36.05C146.93 40.51 147.83 43.93 149.65 46.31C151.46 48.7 154.06 49.88 157.45 49.88C160.84 49.88 163.48 48.7 165.31 46.31C167.15 43.93 168.06 40.52 168.06 36.05C168.06 31.58 167.15 28.2 165.31 25.81C163.47 23.43 160.85 22.23 157.45 22.23C154.05 22.23 151.46 23.42 149.65 25.8C147.84 28.17 146.93 31.59 146.93 36.04V36.05ZM135.55 36.05C135.55 28.94 137.52 23.33 141.45 19.19C145.38 15.07 150.71 13 157.45 13C164.19 13 169.57 15.07 173.55 19.2C177.52 23.35 179.5 28.96 179.5 36.05C179.5 43.14 177.52 48.76 173.55 52.91C169.57 57.05 164.21 59.12 157.45 59.12C150.69 59.12 145.38 57.05 141.45 52.93C137.51 48.8 135.55 43.18 135.55 36.06V36.05Z" fill="#004A8F"/>
<path d="M89.8905 30.84H72.0005V39.6H89.8905V30.84Z" fill="#ED1C24"/>
<path fill-rule="evenodd" clip-rule="evenodd" d="M58.5405 57.9V14.13H91.8005V23.11H69.7405V48.96H92.5105V57.9H58.5405Z" fill="#004A8F"/>
<path d="M231.6 77.7299H191.25V86.4999H231.6V77.7299Z" fill="#ED1C24"/>
<path fill-rule="evenodd" clip-rule="evenodd" d="M193.63 71.9599C204.69 63.6599 211.95 50.5699 212.28 35.8499H231.61V71.9599H193.63Z" fill="#004A8F"/>
<path d="M40.35 77.7299H0V86.4999H40.35V77.7299Z" fill="#ED1C24"/>
<path fill-rule="evenodd" clip-rule="evenodd" d="M0 71.9599H37.97C26.91 63.6599 19.65 50.5699 19.32 35.8499H0V71.9599Z" fill="#004A8F"/>
<path d="M53.1896 86.47H51.3596V77.73H55.3596C56.2096 77.73 56.8796 77.98 57.3596 78.48C57.8396 78.98 58.0797 79.66 58.0797 80.53C58.0797 81.14 57.9096 81.7 57.5696 82.21C57.0796 82.94 56.3096 83.3 55.2796 83.3H53.1896V86.47ZM54.8896 81.8C55.4696 81.8 55.8697 81.62 56.0797 81.26C56.1997 81.07 56.2496 80.79 56.2496 80.43C56.2496 80.01 56.1296 79.71 55.8696 79.52C55.6196 79.33 55.2096 79.24 54.6396 79.24H53.1796V81.8H54.8896Z" fill="#004A8F"/>
<path d="M65.3496 82.56H61.9396V86.48H60.1096V77.74H61.9396V81.05H65.3496V77.74H67.1796V86.48H65.3496V82.56Z" fill="#004A8F"/>
<path d="M71.2796 84.68L70.6696 86.48H68.7396L71.8697 77.74H73.9996L77.0396 86.48H75.0696L74.5097 84.68H71.2796ZM71.7696 83.16H74.0097L72.9196 79.7L71.7796 83.16H71.7696Z" fill="#004A8F"/>
<path d="M78.5996 86.48V77.74H83.0296C84.0396 77.74 84.7897 78.05 85.2597 78.68C85.5997 79.13 85.7696 79.63 85.7696 80.2C85.7696 80.7 85.6497 81.13 85.4097 81.51C85.1697 81.88 84.8297 82.15 84.4097 82.29C84.8197 82.47 85.0896 82.67 85.2396 82.9C85.4296 83.22 85.5296 83.75 85.5296 84.51C85.5296 85.11 85.5296 85.53 85.5596 85.76C85.5796 85.99 85.6996 86.15 85.9196 86.23V86.47H83.8997C83.8297 86.24 83.7796 86.01 83.7496 85.75C83.7196 85.5 83.7096 85.14 83.7096 84.69C83.7096 84.03 83.6396 83.61 83.4996 83.41C83.3196 83.16 82.9096 83.03 82.2696 83.03H80.3896V86.46H78.5996V86.48ZM80.3896 81.58H82.5296C83.0196 81.58 83.3796 81.49 83.6096 81.3C83.8296 81.11 83.9496 80.81 83.9496 80.38C83.9496 80.08 83.8696 79.83 83.7096 79.64C83.4896 79.37 83.1397 79.24 82.6597 79.24H80.3896V81.58Z" fill="#004A8F"/>
<path d="M96.4697 77.74V86.48H94.7696V79.18L93.1096 86.48H91.3096L89.7297 79.18L89.7096 86.48H87.9996V77.74H90.6497L92.2297 84.63L93.8297 77.74H96.4697Z" fill="#004A8F"/>
<path d="M100.57 84.68L99.9596 86.48H98.0396L101.17 77.74H103.3L106.34 86.48H104.37L103.81 84.68H100.57ZM101.06 83.16H103.3L102.2 79.7L101.06 83.16Z" fill="#004A8F"/>
<path d="M115.29 80.58H113.46C113.34 80.16 113.19 79.85 113.02 79.64C112.68 79.26 112.2 79.07 111.54 79.07C110.98 79.07 110.5 79.27 110.13 79.66C109.62 80.19 109.38 81.01 109.38 82.13C109.38 82.98 109.54 83.67 109.87 84.19C110.26 84.79 110.81 85.09 111.54 85.09C112.05 85.09 112.47 84.95 112.81 84.67C113.14 84.39 113.37 83.99 113.46 83.46H115.29C115.1 84.45 114.69 85.23 114.08 85.79C113.42 86.4 112.55 86.7 111.49 86.7C110.29 86.7 109.35 86.31 108.63 85.53C107.87 84.71 107.49 83.56 107.49 82.09C107.49 80.62 107.88 79.46 108.66 78.64C109.39 77.86 110.34 77.47 111.51 77.47C112.68 77.47 113.67 77.82 114.38 78.53C114.98 79.13 115.28 79.81 115.28 80.56V80.58H115.29Z" fill="#004A8F"/>
<path d="M123.8 77.74V79.27H119.17V81.12H123.43V82.65H119.17V84.92H124.02V86.48H117.37V77.74H123.8Z" fill="#004A8F"/>
<path d="M133.1 77.74V83.41C133.1 84.54 132.78 85.38 132.15 85.94C131.54 86.46 130.66 86.73 129.5 86.73C129.01 86.73 128.54 86.66 128.11 86.52C127.54 86.33 127.07 86.04 126.72 85.65C126.27 85.12 126.04 84.42 126.04 83.54V77.74H127.91V83.41C127.91 83.99 128.06 84.42 128.35 84.72C128.64 85.02 129.02 85.16 129.47 85.16C130.07 85.16 130.51 85.02 130.8 84.73C131.08 84.45 131.22 84.03 131.22 83.48V77.74H133.1Z" fill="#004A8F"/>
<path d="M138.98 79.27V86.48H137.15V79.27H134.5V77.74H141.6V79.27H138.97H138.98Z" fill="#004A8F"/>
<path d="M145.06 77.74V86.48H143.23V77.74H145.06Z" fill="#004A8F"/>
<path d="M154.67 80.58H152.84C152.73 80.16 152.57 79.85 152.39 79.64C152.07 79.26 151.57 79.07 150.92 79.07C150.35 79.07 149.88 79.27 149.5 79.66C149 80.19 148.75 81.01 148.75 82.13C148.75 82.98 148.91 83.67 149.24 84.19C149.62 84.79 150.18 85.09 150.91 85.09C151.41 85.09 151.84 84.95 152.17 84.67C152.5 84.39 152.73 83.99 152.83 83.46H154.66C154.46 84.45 154.06 85.23 153.45 85.79C152.78 86.4 151.92 86.7 150.86 86.7C149.67 86.7 148.71 86.31 148 85.53C147.25 84.71 146.87 83.56 146.87 82.09C146.87 80.62 147.26 79.46 148.03 78.64C148.77 77.86 149.71 77.47 150.88 77.47C152.05 77.47 153.05 77.82 153.76 78.53C154.36 79.13 154.66 79.81 154.66 80.56V80.58H154.67Z" fill="#004A8F"/>
<path d="M158.38 84.68L157.77 86.48H155.85L158.99 77.74H161.11L164.16 86.48H162.18L161.62 84.68H158.38ZM158.86 83.16H161.1L160.01 79.7L158.86 83.16Z" fill="#004A8F"/>
<path d="M167.52 77.74V84.9H171.88V86.48H165.7V77.74H167.52Z" fill="#004A8F"/>
<path d="M173.37 83.77H175.12C175.12 84.13 175.23 84.42 175.44 84.66C175.76 85.01 176.27 85.18 176.98 85.18C177.51 85.18 177.92 85.11 178.21 84.98C178.6 84.79 178.8 84.49 178.8 84.07C178.8 83.76 178.66 83.52 178.36 83.35C178.15 83.23 177.77 83.1 177.21 82.97L176.26 82.75C175.33 82.53 174.69 82.31 174.35 82.08C173.77 81.68 173.48 81.05 173.48 80.19C173.48 79.52 173.69 78.95 174.11 78.48C174.68 77.82 175.59 77.49 176.84 77.49C178.09 77.49 178.93 77.83 179.54 78.5C180.01 79.02 180.25 79.62 180.25 80.32H178.5C178.45 79.97 178.36 79.71 178.2 79.52C177.91 79.18 177.41 79.01 176.73 79.01C176.31 79.01 175.97 79.09 175.69 79.24C175.36 79.43 175.19 79.7 175.19 80.06C175.19 80.36 175.29 80.59 175.51 80.74C175.63 80.82 175.83 80.91 176.12 80.98L178.25 81.49C178.97 81.67 179.5 81.9 179.85 82.19C180.31 82.58 180.54 83.13 180.54 83.85C180.54 84.74 180.25 85.42 179.67 85.91C179.02 86.45 178.16 86.72 177.09 86.72C175.68 86.72 174.66 86.37 174.02 85.66C173.58 85.16 173.36 84.53 173.36 83.78L173.37 83.77Z" fill="#004A8F"/>
</g>
<defs>
<clipPath id="clip0_1312_12857">
<rect width="231.61" height="86.73" fill="white"/>
</clipPath>
</defs>
</svg>
