<svg xmlns="http://www.w3.org/2000/svg" width="21" height="20" viewBox="0 0 21 20" fill="none">
  <path fill-rule="evenodd" clip-rule="evenodd" d="M10.4993 3.54175C10.8445 3.54175 11.1243 3.82157 11.1243 4.16675V9.37507H16.3327C16.6779 9.37507 16.9577 9.65489 16.9577 10.0001C16.9577 10.3452 16.6779 10.6251 16.3327 10.6251H11.1243V15.8334C11.1243 16.1786 10.8445 16.4584 10.4993 16.4584C10.1542 16.4584 9.87434 16.1786 9.87434 15.8334V10.6251H4.66602C4.32084 10.6251 4.04102 10.3452 4.04102 10.0001C4.04102 9.65489 4.32084 9.37507 4.66602 9.37507H9.87434V4.16675C9.87434 3.82157 10.1542 3.54175 10.4993 3.54175Z" fill="#00538F"/>
</svg>