<svg width="20" height="20" viewBox="0 0 20 20" fill="none" xmlns="http://www.w3.org/2000/svg">
<g id="Icon/Add">
<mask id="mask0_891_2159" style="mask-type:alpha" maskUnits="userSpaceOnUse" x="1" y="1" width="18" height="18">
<path id="Shape" d="M11.0837 2.75322C11.0837 2.15291 10.597 1.66626 9.99674 1.66626C9.39643 1.66626 8.90978 2.15291 8.90978 2.75322V8.91263H2.75036C2.15005 8.91263 1.66341 9.39928 1.66341 9.99959C1.66341 10.5999 2.15005 11.0865 2.75036 11.0865H8.90978V17.246C8.90978 17.8463 9.39643 18.3329 9.99674 18.3329C10.597 18.3329 11.0837 17.8463 11.0837 17.246V11.0865H17.2431C17.8434 11.0865 18.3301 10.5999 18.3301 9.99959C18.3301 9.39928 17.8434 8.91264 17.2431 8.91264H11.0837V2.75322Z" fill="#006FFD"/>
</mask>
<g mask="url(#mask0_891_2159)">
<rect id="Fill" width="20" height="20" fill="white"/>
</g>
</g>
</svg>
