<svg width="80" height="102" viewBox="0 0 80 102" fill="none" xmlns="http://www.w3.org/2000/svg">
<path d="M79.0665 88.7928C74.5511 79.6941 70.058 70.5841 65.4248 61.547C64.5733 59.8866 64.5789 58.9049 65.8898 57.452C71.6883 51.0234 74.4054 43.3326 74.6127 34.0768C74.5398 33.3083 74.439 31.9115 74.2653 30.5259C72.4446 15.5988 61.3967 3.58303 46.8306 0.671643C32.3094 -2.23413 17.4631 4.46934 10.0568 17.2817C2.60012 30.1781 4.12956 46.216 14.0121 57.3959C15.2614 58.8095 15.4575 59.78 14.5835 61.4853C9.86637 70.6907 5.30606 79.9746 0.678519 89.2248C0.168705 90.2457 -0.447553 91.2499 0.476834 92.3101C1.44044 93.4208 2.5385 92.7644 3.56373 92.3886C6.70664 91.2274 9.86076 90.0887 12.9589 88.8153C14.5723 88.1534 15.5023 87.9851 16.1074 90.1335C16.9925 93.2637 18.3035 96.2704 19.4968 99.3052C19.917 100.382 20.0346 101.835 21.5865 101.987C23.3512 102.161 23.6201 100.601 24.1355 99.4679C28.3541 90.1279 32.5671 80.7823 36.7072 71.4087C37.3851 69.8773 38.119 69.1312 39.9678 69.1536C41.7493 69.1761 42.5561 69.7539 43.2507 71.3358C47.3349 80.6309 51.5142 89.8867 55.7104 99.1369C56.2538 100.326 56.4219 102.093 58.3155 101.981C60.0074 101.88 60.097 100.27 60.5508 99.1089C61.7665 95.9844 62.9654 92.8486 64.0579 89.6736C64.5173 88.3385 65.0215 87.9963 66.4277 88.5853C69.5986 89.9204 72.8479 91.0872 76.0861 92.2596C77.1674 92.6523 78.3438 93.5274 79.4475 92.3605C80.6352 91.0872 79.6212 89.9092 79.0665 88.7928ZM33.4018 69.9109C29.6314 78.1907 25.9283 86.5041 21.9506 95.3729C20.7461 92.2203 19.7769 89.7016 18.8301 87.1717C17.3903 83.3291 17.3231 83.2954 13.3958 84.7708C10.97 85.6851 8.55542 86.6051 5.55816 87.7326C6.80749 85.1747 7.81591 83.0655 8.85794 80.9731C11.76 75.1391 14.7012 69.3219 17.5696 63.4711C18.1802 62.2314 18.6284 61.7995 19.9506 62.7924C23.6425 65.5635 27.8163 67.3754 32.315 68.4076C33.1385 68.5983 34.0349 68.5198 33.4018 69.9109ZM39.923 65.5972C22.8414 65.5803 9.08204 51.7414 9.08764 34.5873C9.09884 17.4612 22.875 3.70644 40.0294 3.68961C57.0997 3.67839 70.8535 17.5061 70.8647 34.6883C70.8759 51.7807 57.0269 65.614 39.923 65.5972ZM65.4472 84.3332C63.352 83.4693 62.1755 83.9518 61.4528 86.1732C60.5116 89.0845 59.3239 91.9174 58.0129 95.3953C54.0409 86.5434 50.3601 78.3197 46.6458 70.1073C46.2032 69.1312 46.1584 68.6824 47.4189 68.4244C52.1305 67.4539 56.4275 65.4681 60.2987 62.6128C61.2231 61.9341 61.6489 62.0294 62.1475 63.0448C66.1363 71.1058 70.17 79.1556 74.4558 87.7439C71.1 86.4817 68.2372 85.4832 65.4472 84.3332Z" fill="#D51F27"/>
<path d="M39.9846 9.11409C25.9619 9.11409 14.4995 20.5577 14.4995 34.5648C14.4995 48.8188 25.8499 60.1278 40.1078 60.0941C54.1865 60.0605 65.4641 48.701 65.4416 34.5817C65.4248 20.5296 54.0185 9.11409 39.9846 9.11409ZM39.9061 56.5208C27.9956 56.4928 18.2027 46.6984 18.1522 34.778C18.1018 22.6388 27.8107 12.8445 39.9118 12.822C52.0296 12.7996 61.7833 22.5154 61.8057 34.6434C61.8337 46.6816 51.9512 56.5545 39.9061 56.5208Z" fill="#D51F27"/>
<path d="M54.3546 21.5786C52.9092 20.4904 51.5478 20.8774 50.433 22.2069C50.0128 22.7062 49.671 23.2671 49.2901 23.7944C45.1667 29.5274 41.049 35.2604 36.8024 41.1561C34.2982 38.3794 31.9284 35.7597 29.5642 33.14C28.3093 31.7488 26.8471 31.373 25.4129 32.6856C24.1019 33.8861 24.2084 35.3221 25.3905 36.646C28.5614 40.1913 31.6875 43.7814 34.9257 47.265C36.3094 48.7571 38.0182 48.7964 39.2451 47.1135C44.5281 39.8884 49.7327 32.6071 54.9148 25.309C55.856 23.9907 55.6711 22.5771 54.3546 21.5786Z" fill="#D51F27"/>
</svg>
