<svg width="80" height="80" viewBox="0 0 80 80" fill="none" xmlns="http://www.w3.org/2000/svg">
<circle cx="40" cy="40" r="40" fill="#D62027"/>
<path d="M38.5664 24.9443C38.1618 25.2446 37.8625 25.6648 37.7109 26.1452C37.5592 26.6256 37.5631 27.1416 37.7221 27.6197C37.881 28.0977 38.1867 28.5134 38.5958 28.8075C39.0048 29.1015 39.4962 29.2588 40 29.2571H46.0256L50.1992 34.2627C50.8494 35.0469 51.4167 35.8962 51.892 36.7971C51.9403 36.8911 52.0068 36.9746 52.0876 37.0427C52.1683 37.1109 52.2618 37.1623 52.3626 37.1942C52.4634 37.2259 52.5694 37.2375 52.6747 37.2281C52.78 37.2187 52.8823 37.1885 52.9758 37.1393C53.0694 37.0901 53.1522 37.0229 53.2196 36.9415C53.287 36.8601 53.3376 36.7661 53.3685 36.6651C53.3994 36.564 53.4099 36.4579 53.3996 36.3527C53.3892 36.2475 53.3581 36.1455 53.308 36.0523C52.781 35.0524 52.1515 34.11 51.4296 33.2403L47.756 28.8339C48.0314 28.6471 48.2646 28.4046 48.4403 28.1219C48.616 27.8393 48.7304 27.5229 48.776 27.1932C48.8217 26.8636 48.7975 26.528 48.7052 26.2083C48.6128 25.8885 48.4543 25.5918 48.24 25.3371L49.0352 24.5419C49.9614 23.6096 50.632 22.4545 50.9822 21.1879C51.3326 19.9212 51.3508 18.5857 51.0352 17.31C50.9341 16.9073 50.7282 16.5386 50.4382 16.2414C50.1483 15.9442 49.7848 15.7291 49.3848 15.6181C48.9847 15.507 48.5624 15.504 48.1608 15.6092C47.7591 15.7144 47.3926 15.9242 47.0984 16.2172L46.9304 16.3844C46.7896 16.5248 46.5989 16.6036 46.4 16.6036C46.2011 16.6036 46.0104 16.5248 45.8696 16.3844L45.0296 15.5452C44.7914 15.3071 44.5049 15.123 44.1893 15.0053C43.8738 14.8876 43.5366 14.8391 43.2007 14.8631C42.8648 14.8871 42.5379 14.983 42.2423 15.1443C41.9467 15.3055 41.6892 15.5285 41.4872 15.798L41.2328 16.1372C41.1686 16.2237 41.0863 16.2952 40.9917 16.3467C40.897 16.3983 40.7923 16.4286 40.6848 16.4356C40.5778 16.4425 40.4704 16.4267 40.3699 16.3892C40.2694 16.3517 40.1779 16.2933 40.1016 16.218C39.8076 15.9238 39.4409 15.7129 39.0387 15.6068C38.6366 15.5007 38.2134 15.5033 37.8126 15.6143C37.4118 15.7253 37.0476 15.9406 36.7573 16.2384C36.467 16.5362 36.2608 16.9057 36.16 17.3092C35.8444 18.5849 35.8626 19.9204 36.213 21.1871C36.5632 22.4537 37.2338 23.6088 38.16 24.5411L38.5664 24.9443ZM39.2 26.8571C39.2 26.645 39.2843 26.4415 39.4343 26.2915C39.5843 26.1415 39.7878 26.0571 40 26.0571H46.4C46.6122 26.0571 46.8157 26.1415 46.9657 26.2915C47.1157 26.4415 47.2 26.645 47.2 26.8571C47.2 27.0693 47.1157 27.2728 46.9657 27.4228C46.8157 27.5729 46.6122 27.6571 46.4 27.6571H40C39.7878 27.6571 39.5843 27.5729 39.4343 27.4228C39.2843 27.2728 39.2 27.0693 39.2 26.8571ZM37.712 17.698C37.7442 17.5692 37.81 17.4512 37.9027 17.3561C37.9954 17.2611 38.1116 17.1923 38.2395 17.1568C38.3675 17.1214 38.5026 17.1205 38.631 17.1543C38.7594 17.1881 38.8765 17.2553 38.9704 17.3492C39.2086 17.5873 39.495 17.7715 39.8106 17.8892C40.1261 18.0069 40.4632 18.0555 40.7991 18.0316C41.135 18.0077 41.4619 17.9119 41.7575 17.7507C42.0532 17.5895 42.3108 17.3666 42.5128 17.0972L42.7672 16.758C42.8318 16.6721 42.9142 16.601 43.0086 16.5496C43.103 16.4983 43.2074 16.4677 43.3146 16.4602C43.4218 16.4526 43.5294 16.4681 43.6302 16.5057C43.7309 16.5432 43.8223 16.602 43.8984 16.678L44.7384 17.5188C45.1794 17.9587 45.777 18.2058 46.4 18.2058C47.023 18.2058 47.6206 17.9587 48.0616 17.5188L48.2296 17.3508C48.3235 17.2569 48.4406 17.1897 48.569 17.1559C48.6974 17.1221 48.8325 17.123 48.9605 17.1584C49.0884 17.1939 49.2046 17.2627 49.2973 17.3577C49.39 17.4528 49.4558 17.5708 49.488 17.6996C49.7367 18.7076 49.7218 19.7627 49.4445 20.7633C49.1672 21.7639 48.637 22.6762 47.9048 23.4123L46.816 24.5011C46.6789 24.4743 46.5397 24.4596 46.4 24.4571H40.3416L39.2944 23.4099C38.5626 22.6738 38.0326 21.7615 37.7554 20.7611C37.4782 19.7607 37.4633 18.7058 37.712 17.698Z" fill="white"/>
<path d="M43.2 37.2571C43.5182 37.2571 43.8235 37.3835 44.0486 37.6086C44.2736 37.8336 44.4 38.1389 44.4 38.4571C44.4 38.6693 44.4843 38.8728 44.6343 39.0228C44.7843 39.1728 44.9878 39.2571 45.2 39.2571C45.4122 39.2571 45.6157 39.1728 45.7657 39.0228C45.9158 38.8728 46 38.6693 46 38.4571C45.9978 37.8563 45.8021 37.2722 45.4418 36.7913C45.0816 36.3104 44.576 35.9585 44 35.7875V34.8571C44 34.645 43.9158 34.4415 43.7657 34.2915C43.6157 34.1415 43.4122 34.0571 43.2 34.0571C42.9878 34.0571 42.7843 34.1415 42.6343 34.2915C42.4843 34.4415 42.4 34.645 42.4 34.8571V35.7875C41.7555 35.9779 41.2013 36.3944 40.8391 36.9605C40.477 37.5266 40.3311 38.2043 40.4284 38.8692C40.5256 39.5342 40.8594 40.1417 41.3686 40.5803C41.8778 41.0191 42.528 41.2593 43.2 41.2571C43.4374 41.2571 43.6694 41.3275 43.8667 41.4594C44.064 41.5912 44.2178 41.7787 44.3086 41.9979C44.3995 42.2172 44.4233 42.4585 44.377 42.6912C44.3306 42.924 44.2163 43.1379 44.0486 43.3057C43.8807 43.4735 43.6669 43.5878 43.4341 43.6341C43.2014 43.6804 42.9601 43.6566 42.7408 43.5658C42.5215 43.475 42.3341 43.3211 42.2022 43.1239C42.0704 42.9265 42 42.6945 42 42.4571C42 42.245 41.9158 42.0415 41.7657 41.8915C41.6157 41.7415 41.4122 41.6571 41.2 41.6571C40.9878 41.6571 40.7843 41.7415 40.6343 41.8915C40.4843 42.0415 40.4 42.245 40.4 42.4571C40.4022 43.0579 40.5979 43.6421 40.9582 44.123C41.3184 44.6039 41.824 44.9558 42.4 45.1267V46.0571C42.4 46.2693 42.4843 46.4728 42.6343 46.6228C42.7843 46.7728 42.9878 46.8571 43.2 46.8571C43.4122 46.8571 43.6157 46.7728 43.7657 46.6228C43.9158 46.4728 44 46.2693 44 46.0571V45.1267C44.6445 44.9363 45.1987 44.5199 45.5609 43.9538C45.923 43.3877 46.0689 42.71 45.9716 42.0451C45.8744 41.3801 45.5406 40.7726 45.0314 40.3339C44.5223 39.8952 43.872 39.655 43.2 39.6571C42.8818 39.6571 42.5766 39.5307 42.3514 39.3057C42.1264 39.0807 42 38.7754 42 38.4571C42 38.1389 42.1264 37.8336 42.3514 37.6086C42.5766 37.3835 42.8818 37.2571 43.2 37.2571Z" fill="white"/>
<path d="M24.8 57.2571C24.8 56.7825 24.6593 56.3184 24.3955 55.9238C24.1318 55.5291 23.757 55.2215 23.3185 55.0399C22.8799 54.8582 22.3973 54.8107 21.9318 54.9032C21.4662 54.9959 21.0386 55.2244 20.7029 55.5601C20.3673 55.8957 20.1387 56.3234 20.0461 56.7889C19.9535 57.2545 20.001 57.7371 20.1827 58.1755C20.3643 58.6141 20.672 58.989 21.0666 59.2527C21.4613 59.5164 21.9253 59.6571 22.4 59.6571C23.0366 59.6571 23.647 59.4043 24.097 58.9542C24.5471 58.5041 24.8 57.8937 24.8 57.2571ZM21.6 57.2571C21.6 57.0989 21.6469 56.9443 21.7348 56.8127C21.8227 56.6811 21.9477 56.5786 22.0939 56.518C22.24 56.4575 22.4009 56.4416 22.5561 56.4725C22.7113 56.5034 22.8538 56.5795 22.9657 56.6915C23.0776 56.8033 23.1538 56.9459 23.1846 57.1011C23.2155 57.2563 23.1997 57.4171 23.1391 57.5633C23.0786 57.7095 22.976 57.8344 22.8445 57.9223C22.7129 58.0103 22.5582 58.0571 22.4 58.0571C22.1878 58.0571 21.9843 57.9728 21.8343 57.8228C21.6843 57.6728 21.6 57.4693 21.6 57.2571Z" fill="white"/>
<path d="M49.1248 51.2659C49.0422 51.3398 48.9456 51.3962 48.8407 51.4318C48.7358 51.4674 48.6249 51.4815 48.5144 51.4731L46.892 51.3323C46.8729 50.5945 46.5998 49.8858 46.1188 49.3259C45.6379 48.7659 44.9786 48.3891 44.252 48.2587L36.3728 46.8699C36.3258 46.8614 36.2782 46.8571 36.2304 46.8571H33.3248C32.982 45.8249 32.8048 44.7448 32.8 43.6571C32.8045 42.9657 32.8579 42.2755 32.96 41.5915C34.4117 40.8073 35.656 39.689 36.59 38.3288C37.5241 36.9687 38.1211 35.4059 38.3318 33.7694C38.5426 32.1329 38.3609 30.4699 37.8018 28.9175C37.2427 27.3651 36.3223 25.968 35.1166 24.8416C33.911 23.7153 32.4546 22.8919 30.8678 22.4397C29.281 21.9874 27.6094 21.9191 25.991 22.2406C24.3726 22.562 22.854 23.2639 21.5605 24.2882C20.267 25.3125 19.2358 26.6299 18.552 28.1315C18.4701 28.3234 18.4664 28.5396 18.5416 28.7342C18.6169 28.9287 18.7652 29.0863 18.9549 29.1731C19.1445 29.2599 19.3606 29.2691 19.5571 29.1989C19.7535 29.1287 19.9147 28.9845 20.0064 28.7971C20.9278 26.8047 22.564 25.2309 24.5908 24.3875C26.6176 23.5442 28.8872 23.4928 30.9501 24.2435C33.013 24.9943 34.7187 26.4924 35.7294 28.4411C36.7401 30.3899 36.982 32.6471 36.4073 34.7659C35.8326 36.8846 34.4831 38.7101 32.6262 39.881C30.7693 41.0519 28.5403 41.4827 26.3808 41.088C24.2214 40.6934 22.2888 39.5021 20.966 37.7502C19.6432 35.9982 19.0266 33.8134 19.2384 31.6283C19.2499 31.5229 19.2404 31.4162 19.2103 31.3144C19.1802 31.2127 19.1302 31.1179 19.0632 31.0357C18.9961 30.9535 18.9134 30.8855 18.8198 30.8355C18.7262 30.7855 18.6236 30.7547 18.518 30.7447C18.4123 30.7348 18.3058 30.746 18.2045 30.7777C18.1033 30.8093 18.0093 30.8608 17.9281 30.9291C17.8469 30.9974 17.7801 31.0812 17.7316 31.1755C17.6831 31.2699 17.6539 31.373 17.6456 31.4787C17.4807 33.1993 17.7479 34.9339 18.4231 36.525C19.0982 38.1162 20.16 39.5135 21.512 40.5905C22.864 41.6674 24.4634 42.3897 26.1653 42.6919C27.8671 42.9941 29.6175 42.8667 31.2576 42.3211C31.22 42.7691 31.2 43.2155 31.2 43.6571C31.2041 44.1926 31.2447 44.7272 31.3216 45.2571H28V44.4571C28 44.245 27.9157 44.0415 27.7657 43.8915C27.6157 43.7415 27.4122 43.6571 27.2 43.6571H16.8C16.5878 43.6571 16.3843 43.7415 16.2343 43.8915C16.0843 44.0415 16 44.245 16 44.4571C16 44.6693 16.0843 44.8728 16.2343 45.0228C16.3843 45.1728 16.5878 45.2571 16.8 45.2571H26.4V50.0571C26.4 50.2693 26.4843 50.4728 26.6343 50.6228C26.7843 50.7728 26.9878 50.8571 27.2 50.8571C27.4122 50.8571 27.6157 50.7728 27.7657 50.6228C27.9157 50.4728 28 50.2693 28 50.0571V46.8571H31.3976V59.6571H28V53.2571C28 53.045 27.9157 52.8415 27.7657 52.6915C27.6157 52.5415 27.4122 52.4571 27.2 52.4571C26.9878 52.4571 26.7843 52.5415 26.6343 52.6915C26.4843 52.8415 26.4 53.045 26.4 53.2571V61.2571H16.8C16.5878 61.2571 16.3843 61.3415 16.2343 61.4915C16.0843 61.6415 16 61.845 16 62.0571C16 62.2693 16.0843 62.4728 16.2343 62.6228C16.3843 62.7728 16.5878 62.8571 16.8 62.8571H27.2C27.4122 62.8571 27.6157 62.7728 27.7657 62.6228C27.9157 62.4728 28 62.2693 28 62.0571V61.2571H32.1976C32.4098 61.2571 32.6133 61.1728 32.7633 61.0228C32.9133 60.8728 32.9976 60.6693 32.9976 60.4571V48.4571H36.16L43.9704 49.834C44.1802 49.8722 44.3804 49.952 44.559 50.0687C44.7375 50.1855 44.891 50.3367 45.0102 50.5135C45.1295 50.6904 45.2122 50.8894 45.2534 51.0987C45.2946 51.308 45.2937 51.5235 45.2504 51.7323L45.2152 51.8603C45.1055 52.2369 44.8609 52.5599 44.5281 52.7675C44.1953 52.9752 43.7977 53.0529 43.4112 52.9859L37.9328 52.0195C37.7238 51.9827 37.5087 52.0303 37.3348 52.1519C37.161 52.2736 37.0425 52.4594 37.0056 52.6683C36.9687 52.8773 37.0163 53.0924 37.138 53.2663C37.2597 53.4402 37.4454 53.5587 37.6544 53.5955L43.1328 54.5619C43.7983 54.6798 44.484 54.5827 45.0907 54.2848C45.6974 53.987 46.1934 53.5038 46.5072 52.9051L48.3728 53.0651C48.7042 53.0947 49.0382 53.0548 49.3533 52.9477C49.6684 52.8407 49.9576 52.669 50.2024 52.4436L54.9432 48.0971C55.1035 47.9499 55.2922 47.8368 55.4978 47.765C55.7033 47.6931 55.9214 47.6639 56.1386 47.6793C56.3557 47.6947 56.5675 47.7542 56.7609 47.8543C56.9542 47.9543 57.1252 48.0927 57.2632 48.2612C57.516 48.6045 57.6302 49.0305 57.5828 49.4543C57.5355 49.878 57.3303 50.2683 57.008 50.5475L49.968 57.0035C49.2309 57.6817 48.2656 58.0579 47.264 58.0571H35.3968C35.1846 58.0571 34.9811 58.1415 34.8311 58.2915C34.6811 58.4415 34.5968 58.645 34.5968 58.8571C34.5968 59.0693 34.6811 59.2728 34.8311 59.4228C34.9811 59.5728 35.1846 59.6571 35.3968 59.6571H47.264C48.665 59.6584 50.0154 59.133 51.0472 58.1851L58.0872 51.7299C58.7164 51.1769 59.1094 50.4036 59.1855 49.5695C59.2616 48.7352 59.0148 47.9036 58.496 47.2459C58.0726 46.7283 57.4969 46.3574 56.8505 46.186C56.2041 46.0147 55.5202 46.0516 54.896 46.2915C55.0957 45.4275 55.1977 44.5439 55.2 43.6571C55.2 42.1387 54.9845 40.6279 54.56 39.1699C54.532 39.0675 54.4839 38.9717 54.4186 38.888C54.3531 38.8043 54.2718 38.7346 54.1791 38.6827C54.0865 38.6308 53.9844 38.5979 53.8789 38.5859C53.7734 38.5738 53.6666 38.5829 53.5646 38.6126C53.4626 38.6423 53.3677 38.6919 53.2851 38.7587C53.2026 38.8255 53.1341 38.9081 53.0838 39.0015C53.0334 39.0951 53.0022 39.1976 52.992 39.3034C52.9818 39.4091 52.9926 39.5157 53.024 39.6171C53.4058 40.9299 53.5997 42.29 53.6 43.6571C53.6011 45.1472 53.277 46.6196 52.6504 47.9715L49.1248 51.2659Z" fill="white"/>
<path d="M29.6968 34.1547C29.3612 34.4904 29.1326 34.9181 29.0401 35.3836C28.9475 35.8491 28.995 36.3317 29.1767 36.7702C29.3584 37.2087 29.666 37.5835 30.0606 37.8472C30.4554 38.1109 30.9194 38.2517 31.394 38.2517C31.8686 38.2517 32.3326 38.1109 32.7274 37.8472C33.122 37.5835 33.4296 37.2087 33.6113 36.7702C33.793 36.3317 33.8405 35.8491 33.7479 35.3836C33.6554 34.9181 33.4268 34.4904 33.0912 34.1547C32.8683 33.9319 32.6038 33.7551 32.3126 33.6344C32.0214 33.5138 31.7092 33.4517 31.394 33.4517C31.0788 33.4517 30.7666 33.5138 30.4754 33.6344C30.1842 33.7551 29.9197 33.9319 29.6968 34.1547ZM31.96 36.4171C31.8482 36.5291 31.7056 36.6053 31.5504 36.6362C31.3952 36.6671 31.2343 36.6512 31.0882 36.5907C30.9419 36.5302 30.817 36.4276 30.729 36.296C30.6411 36.1645 30.5942 36.0098 30.5942 35.8515C30.5942 35.6933 30.6411 35.5387 30.729 35.4071C30.817 35.2755 30.9419 35.173 31.0882 35.1124C31.2343 35.0519 31.3952 35.0361 31.5504 35.067C31.7056 35.0979 31.8482 35.174 31.96 35.2859C32.11 35.4359 32.1942 35.6395 32.1942 35.8515C32.1942 36.0637 32.11 36.2671 31.96 36.4171Z" fill="white"/>
<path d="M31.96 27.3659L22.9088 36.4171C22.8324 36.4909 22.7714 36.5792 22.7295 36.6768C22.6876 36.7744 22.6655 36.8794 22.6646 36.9856C22.6637 37.0919 22.6839 37.1972 22.7242 37.2955C22.7644 37.3938 22.8238 37.4831 22.8989 37.5583C22.974 37.6334 23.0634 37.6927 23.1617 37.733C23.2599 37.7732 23.3653 37.7935 23.4715 37.7925C23.5778 37.7916 23.6827 37.7695 23.7803 37.7276C23.8779 37.6857 23.9662 37.6247 24.04 37.5483L33.0912 28.4971C33.237 28.3463 33.3176 28.1442 33.3158 27.9344C33.3139 27.7247 33.2298 27.524 33.0814 27.3757C32.9331 27.2274 32.7325 27.1432 32.5227 27.1414C32.313 27.1395 32.1109 27.2202 31.96 27.3659Z" fill="white"/>
<path d="M22.9088 27.3659C22.5732 27.7016 22.3447 28.1292 22.2521 28.5948C22.1595 29.0603 22.2071 29.5429 22.3887 29.9814C22.5704 30.4199 22.878 30.7947 23.2727 31.0584C23.6674 31.3221 24.1314 31.4628 24.606 31.4628C25.0806 31.4628 25.5446 31.3221 25.9394 31.0584C26.334 30.7947 26.6416 30.4199 26.8233 29.9814C27.005 29.5429 27.0525 29.0603 26.9599 28.5948C26.8674 28.1292 26.6388 27.7016 26.3032 27.3659C26.0803 27.1431 25.8158 26.9662 25.5246 26.8455C25.2334 26.725 24.9212 26.6628 24.606 26.6628C24.2908 26.6628 23.9787 26.725 23.6874 26.8455C23.3962 26.9662 23.1317 27.1431 22.9088 27.3659ZM25.172 29.6283C25.0602 29.7403 24.9176 29.8165 24.7624 29.8474C24.6072 29.8783 24.4463 29.8624 24.3002 29.8019C24.1539 29.7413 24.029 29.6388 23.941 29.5072C23.8532 29.3756 23.8062 29.221 23.8062 29.0627C23.8062 28.9045 23.8532 28.7499 23.941 28.6183C24.029 28.4867 24.1539 28.3842 24.3002 28.3236C24.4463 28.2631 24.6072 28.2472 24.7624 28.2781C24.9176 28.309 25.0602 28.3852 25.172 28.4971C25.322 28.6471 25.4062 28.8506 25.4062 29.0627C25.4062 29.2749 25.322 29.4783 25.172 29.6283Z" fill="white"/>
<path d="M60 27.6571C59.7878 27.6571 59.5843 27.7415 59.4343 27.8915C59.2843 28.0415 59.2 28.245 59.2 28.4571V32.4571H56V25.2571C56 25.045 55.9158 24.8415 55.7657 24.6915C55.6157 24.5415 55.4122 24.4571 55.2 24.4571H54.16L57.6 21.5107L61.04 24.4571H60C59.7878 24.4571 59.5843 24.5415 59.4343 24.6915C59.2843 24.8415 59.2 25.045 59.2 25.2571C59.2 25.4694 59.2843 25.6728 59.4343 25.8228C59.5843 25.9729 59.7878 26.0571 60 26.0571H63.2C63.3634 26.057 63.5227 26.0068 63.6567 25.9134C63.7907 25.8199 63.8929 25.6877 63.9495 25.5345C64.0062 25.3812 64.0146 25.2143 63.9735 25.0563C63.9325 24.8981 63.844 24.7563 63.72 24.6499L58.12 19.85C57.9751 19.726 57.7907 19.6579 57.6 19.6579C57.4094 19.6579 57.2249 19.726 57.08 19.85L51.48 24.6499C51.356 24.7563 51.2676 24.8981 51.2266 25.0563C51.1855 25.2143 51.1938 25.3812 51.2505 25.5345C51.3071 25.6877 51.4093 25.8199 51.5433 25.9134C51.6773 26.0068 51.8366 26.057 52 26.0571H54.4V33.2571C54.4 33.4694 54.4843 33.6728 54.6343 33.8228C54.7843 33.9729 54.9878 34.0571 55.2 34.0571H60C60.2122 34.0571 60.4157 33.9729 60.5657 33.8228C60.7158 33.6728 60.8 33.4694 60.8 33.2571V28.4571C60.8 28.245 60.7158 28.0415 60.5657 27.8915C60.4157 27.7415 60.2122 27.6571 60 27.6571Z" fill="white"/>
<path d="M60 35.6571C59.7878 35.6571 59.5843 35.7415 59.4343 35.8915C59.2843 36.0415 59.2 36.245 59.2 36.4571V44.4571C59.2 44.6693 59.2843 44.8728 59.4343 45.0228C59.5843 45.1728 59.7878 45.2571 60 45.2571C60.2122 45.2571 60.4157 45.1728 60.5657 45.0228C60.7157 44.8728 60.8 44.6693 60.8 44.4571V36.4571C60.8 36.245 60.7157 36.0415 60.5657 35.8915C60.4157 35.7415 60.2122 35.6571 60 35.6571Z" fill="white"/>
<path d="M63.2 41.2571C62.9878 41.2571 62.7843 41.3415 62.6343 41.4915C62.4843 41.6415 62.4 41.845 62.4 42.0571V51.6571C62.4 51.8693 62.4843 52.0728 62.6343 52.2228C62.7843 52.3728 62.9878 52.4571 63.2 52.4571C63.4122 52.4571 63.6157 52.3728 63.7657 52.2228C63.9157 52.0728 64 51.8693 64 51.6571V42.0571C64 41.845 63.9157 41.6415 63.7657 41.4915C63.6157 41.3415 63.4122 41.2571 63.2 41.2571Z" fill="white"/>
<path d="M57.6 38.8571V36.4571C57.6 36.245 57.5157 36.0415 57.3657 35.8915C57.2157 35.7415 57.0122 35.6571 56.8 35.6571C56.5878 35.6571 56.3843 35.7415 56.2343 35.8915C56.0843 36.0415 56 36.245 56 36.4571V38.8571C56 39.0693 56.0843 39.2728 56.2343 39.4228C56.3843 39.5728 56.5878 39.6571 56.8 39.6571C57.0122 39.6571 57.2157 39.5728 57.3657 39.4228C57.5157 39.2728 57.6 39.0693 57.6 38.8571Z" fill="white"/>
</svg>
