<svg width="84" height="102" viewBox="0 0 84 102" fill="none" xmlns="http://www.w3.org/2000/svg">
<path d="M74.8143 41.5713C74.5301 51.9612 70.4655 60.5555 62.2496 67.1237C58.7923 69.8885 56.5238 73.2677 56.0235 77.7166C55.9589 78.2889 56.0937 78.5796 56.5995 78.8795C59.2261 80.4375 60.4684 83.3028 59.9331 86.4278C59.4384 89.3133 57.3544 91.4692 54.3789 92.0763C53.7605 92.2024 53.5483 92.4694 53.4043 93.0472C52.0679 98.4123 47.4772 101.978 41.9323 102C36.607 102.022 31.985 98.4031 30.6043 93.1021C30.4529 92.5225 30.2554 92.1933 29.5799 92.058C26.656 91.4747 24.5794 89.3737 24.1088 86.4571C23.6178 83.4125 24.465 80.8105 27.1599 79.0642C27.9167 78.5742 28.0681 78.1152 27.9518 77.2905C27.3722 73.189 25.4507 69.9287 22.1134 67.4016C2.30555 52.4074 6.06186 21.6948 28.8914 11.8462C49.1736 3.09648 72.3077 16.5127 74.5947 38.3549C74.7054 39.4136 74.7423 40.4797 74.8143 41.5713ZM51.7633 77.8628C51.8205 77.6434 51.8538 77.5575 51.8648 77.4697C52.4703 71.814 55.2501 67.4327 59.6857 63.9018C66.7424 58.2844 70.5596 50.9098 70.5892 41.9535C70.6242 31.1284 65.729 22.7755 56.389 17.1856C42.5784 8.91863 24.1512 14.163 16.7013 28.3362C10.1615 40.7759 13.5006 55.6988 24.7659 64.2473C28.9984 67.4583 31.4165 71.6786 32.0607 76.8919C32.1604 77.6928 32.4114 77.8811 33.183 77.8775C39.0583 77.8482 44.9337 77.8628 50.809 77.8647C51.1117 77.8628 51.4163 77.8628 51.7633 77.8628ZM42.0135 81.9607C38.4769 81.9607 34.9421 81.957 31.4054 81.9625C29.3344 81.9643 28.1198 83.1127 28.1179 85.0601C28.1161 87.0185 29.3177 88.1686 31.3906 88.1686C38.4621 88.1723 45.5354 88.1723 52.6069 88.1686C54.6945 88.1686 55.8833 87.0404 55.8925 85.071C55.8999 83.1072 54.7093 81.9661 52.6216 81.9625C49.0868 81.9552 45.5502 81.9588 42.0135 81.9607ZM34.7187 92.3048C35.4755 95.7736 39.0029 98.1782 42.7371 97.8673C45.8437 97.6095 49.0887 94.8429 49.2087 92.3048C44.4021 92.3048 39.5991 92.3048 34.7187 92.3048Z" fill="#D51F27"/>
<path d="M3.51273 39.9987C4.03326 39.9987 4.55748 39.9658 5.07617 40.0061C6.23721 40.0993 7.0217 40.935 7.0217 42.0358C7.02354 43.1311 6.23906 44.0051 5.07986 44.0691C4.01111 44.1276 2.93129 44.1295 1.86254 44.06C0.745799 43.9869 -0.0442254 43.0305 0.00192087 41.9498C0.0462213 40.9075 0.858396 40.0792 1.9493 40.0061C2.46798 39.9695 2.9922 39.9987 3.51273 39.9987Z" fill="#D51F27"/>
<path d="M65.8361 15.4631C65.8453 14.0148 68.6566 11.2299 69.9671 11.2756C70.7516 11.3031 71.5158 11.6139 71.717 12.371C71.8886 13.011 71.944 13.9289 71.6007 14.408C70.8845 15.4045 69.9154 16.2402 68.9667 17.0466C68.3631 17.5586 67.5952 17.5056 66.8901 17.1234C66.1813 16.7394 65.8509 16.1268 65.8361 15.4631Z" fill="#D51F27"/>
<path d="M43.6065 3.48962C43.6065 4.00527 43.6342 4.52276 43.601 5.03841C43.5327 6.1191 42.7039 6.91635 41.6407 6.96206C40.6033 7.00778 39.6195 6.25075 39.5401 5.19018C39.4552 4.04367 39.4552 2.88071 39.5419 1.7342C39.6231 0.677287 40.6033 -0.0486538 41.6684 0.00254605C42.7039 0.0537459 43.5142 0.808943 43.5936 1.85123C43.636 2.39431 43.601 2.94288 43.601 3.48962C43.6028 3.48962 43.6046 3.48962 43.6065 3.48962Z" fill="#D51F27"/>
<path d="M80.4626 43.1933C79.9107 43.1933 79.3551 43.2353 78.8087 43.1841C77.7455 43.0835 76.961 42.1784 76.9777 41.1361C76.9924 40.0865 77.788 39.2033 78.866 39.1503C79.9366 39.0973 81.0127 39.0973 82.0833 39.1466C83.1723 39.196 83.9734 40.0591 83.9993 41.1032C84.027 42.2058 83.2536 43.089 82.1165 43.1896C81.5683 43.2371 81.0145 43.1987 80.4626 43.1987C80.4626 43.1951 80.4626 43.1933 80.4626 43.1933Z" fill="#D51F27"/>
<path d="M11.3964 14.1264C11.4185 13.1298 11.7618 12.5172 12.4743 12.146C13.2164 11.7584 14.0064 11.7584 14.6321 12.296C15.5311 13.0676 16.3931 13.8978 17.1628 14.7938C17.8052 15.5435 17.6612 16.6919 16.9985 17.3831C16.334 18.0761 15.1508 18.2809 14.4033 17.6573C13.449 16.8619 12.5888 15.9476 11.7471 15.0315C11.5016 14.7646 11.4647 14.3147 11.3964 14.1264Z" fill="#D51F27"/>
<path d="M41.9932 62.086C41.6942 62.3402 41.3989 62.5962 41.0961 62.8448C36.8451 66.3337 30.3367 64.5856 28.5111 59.4254C28.2102 58.577 27.7691 58.1509 26.9348 57.7925C23.8282 56.4522 22.202 54.0147 22.0322 50.6702C22.0008 50.0485 21.7941 49.8053 21.244 49.553C18.0507 48.0938 16.2602 45.6143 16.2343 42.1053C16.2085 38.5578 17.9824 36.0344 21.2034 34.5368C21.7756 34.2699 22.0082 34.0139 22.0359 33.3519C22.1761 29.9014 24.2195 27.2226 27.4774 26.0157C27.7894 25.9005 28.153 25.575 28.2416 25.2751C30.0192 19.2756 37.4506 17.4434 41.7533 21.8118C41.816 21.8758 41.9028 21.9161 42.0357 22.0057C43.2447 20.8134 44.6457 19.9211 46.3568 19.5792C50.4509 18.76 54.4195 21.0731 55.6636 25.0667C55.839 25.6317 56.0992 25.9023 56.653 26.098C59.8426 27.2335 61.897 30.0367 61.9838 33.3976C62.0004 34.0285 62.2219 34.268 62.7683 34.5185C65.9653 35.9796 67.7595 38.4682 67.7798 41.9699C67.8001 45.5466 66.0133 48.0975 62.724 49.5731C62.2108 49.8035 61.9986 50.0467 61.982 50.6337C61.8897 54.0586 59.85 56.8051 56.6197 58.0284C56.2764 58.1582 55.8574 58.4874 55.7633 58.8092C53.9968 64.8325 46.4897 66.6153 42.2572 62.2506C42.1981 62.1847 42.1058 62.1518 41.9932 62.086ZM39.9259 42.0431C39.9259 37.1992 39.9425 32.3572 39.9185 27.5133C39.9074 25.2002 38.2314 23.5106 36.0237 23.5033C33.8807 23.4959 32.2305 25.1618 32.1253 27.4347C32.057 28.9103 31.3814 29.4735 29.9343 29.7442C29.015 29.916 28.0275 30.311 27.3242 30.9035C26.1226 31.9147 25.9029 33.3391 26.3736 34.8349C26.9772 36.7494 26.2906 37.7935 24.3136 37.9489C24.0995 37.9654 23.8854 37.9946 23.675 38.0367C21.6722 38.4244 20.1919 40.3005 20.3358 42.2607C20.489 44.3452 22.1337 45.9818 24.2084 46.1171C26.2536 46.2488 26.9883 47.3057 26.3755 49.2312C25.5799 51.7308 27.1932 54.1281 29.8254 54.3566C31.4645 54.4993 32.0478 55.0972 32.1234 56.7155C32.2028 58.4124 33.2291 59.8369 34.7446 60.3543C37.3361 61.2375 39.9019 59.3907 39.9185 56.5747C39.9462 51.7308 39.9259 46.887 39.9259 42.0431ZM44.0827 42.001C44.0827 46.8742 44.068 51.7473 44.0901 56.6204C44.1012 59.0049 45.984 60.7219 48.3226 60.5518C50.3088 60.4074 51.7818 58.8019 51.8759 56.6753C51.9368 55.3038 52.6327 54.4974 53.8713 54.364C57.0314 54.022 58.4527 51.9082 57.5298 48.9185C57.0664 47.4209 57.91 46.214 59.4845 46.1208C61.9487 45.9727 63.6801 44.2831 63.6783 42.0266C63.6764 39.7574 61.9986 38.1281 59.4716 37.9434C57.8786 37.8264 57.0757 36.6598 57.5408 35.1384C58.4379 32.2054 56.9871 30.0056 53.9488 29.6966C52.6069 29.5595 51.97 28.85 51.8685 27.484C51.8261 26.9172 51.7338 26.3229 51.5141 25.8036C50.8219 24.167 49.0204 23.2473 47.3 23.5764C45.4025 23.9385 44.103 25.4324 44.0938 27.3798C44.068 32.2548 44.0846 37.1279 44.0827 42.001Z" fill="#D51F27"/>
<path d="M30.9052 41.7743C29.2384 41.7578 28.3173 40.4413 28.7732 39.0314C29.6334 36.3727 32.6034 34.2113 35.4238 34.1931C36.5701 34.1857 37.458 34.9428 37.5761 36.0253C37.6887 37.0456 36.991 37.9709 35.913 38.2232C35.7044 38.2726 35.4866 38.2799 35.278 38.3256C34.0616 38.5871 33.146 39.2216 32.6643 40.3955C32.3025 41.2733 31.6509 41.7395 30.9052 41.7743Z" fill="#D51F27"/>
<path d="M53.8916 45.3491C53.8122 45.8118 53.7365 46.6346 53.5187 47.4191C53.2271 48.4705 52.1989 49.041 51.1597 48.8344C50.0928 48.6223 49.3157 47.6293 49.5391 46.5377C49.9618 44.4623 49.5907 42.7142 47.8963 41.2751C47.0527 40.5583 47.1118 39.2637 47.8483 38.4792C48.5848 37.6948 49.7956 37.585 50.6816 38.3018C52.8062 40.0262 53.8214 42.2899 53.8916 45.3491Z" fill="#D51F27"/>
</svg>
