<svg width="17" height="16" viewBox="0 0 17 16" fill="none" xmlns="http://www.w3.org/2000/svg">
<path fill-rule="evenodd" clip-rule="evenodd" d="M7.99746 1.07998C8.27591 0.919462 8.59167 0.834961 8.91309 0.834961C9.23449 0.834961 9.55024 0.919455 9.82868 1.07996C9.82904 1.08017 9.82939 1.08037 9.82975 1.08058L14.4964 3.74724C14.7267 3.8802 14.9247 4.06131 15.0773 4.27745C15.1113 4.3097 15.1413 4.34729 15.1659 4.38989C15.1874 4.42711 15.2036 4.46595 15.2147 4.50552C15.3446 4.76158 15.4128 5.04503 15.4131 5.33308V10.6669C15.4128 10.9884 15.3279 11.3047 15.167 11.583C15.0061 11.8614 14.7748 12.0925 14.4964 12.2533L14.4945 12.2544L9.82975 14.9199C9.8294 14.9201 9.82905 14.9203 9.82869 14.9206C9.62611 15.0373 9.40377 15.1139 9.17388 15.1469C9.09795 15.1934 9.00865 15.2202 8.91309 15.2202C8.81752 15.2202 8.72822 15.1934 8.65229 15.1469C8.42238 15.1139 8.20004 15.0373 7.99745 14.9205C7.9971 14.9203 7.99676 14.9201 7.99642 14.9199L3.33168 12.2544L3.32975 12.2533C3.05133 12.0925 2.82007 11.8614 2.65918 11.583C2.49828 11.3047 2.41342 10.9889 2.41309 10.6674L2.41309 5.33359C2.41338 5.0455 2.48156 4.76151 2.61149 4.50543C2.62259 4.46589 2.63878 4.42708 2.66029 4.38989C2.68492 4.34732 2.71485 4.30975 2.74878 4.27751C2.90141 4.06134 3.09945 3.88021 3.32975 3.74725L3.33168 3.74613L7.99746 1.07998ZM3.41309 5.40298V10.6667C3.41328 10.8127 3.45185 10.9561 3.52494 11.0826C3.59791 11.2088 3.70272 11.3137 3.82889 11.3868C3.82918 11.3869 3.82947 11.3871 3.82975 11.3872L8.41309 14.0063V8.29531L3.41309 5.40298ZM9.41309 8.29532V14.0063L13.9964 11.3872C13.9967 11.3871 13.997 11.3869 13.9973 11.3867C14.1235 11.3137 14.2283 11.2088 14.3012 11.0826C14.3744 10.9561 14.4129 10.8126 14.4131 10.6664V5.40299L9.41309 8.29532ZM13.8881 4.5514L9.32975 1.94661C9.20307 1.87347 9.05937 1.83496 8.91309 1.83496C8.76681 1.83496 8.6231 1.87347 8.49642 1.94661L8.49449 1.94772L3.93805 4.5514L8.9131 7.42929L13.8881 4.5514Z" fill="#00538F"/>
</svg>
