<svg width="80" height="80" viewBox="0 0 80 80" fill="none" xmlns="http://www.w3.org/2000/svg">
<circle cx="40" cy="40" r="40" fill="#D62027"/>
<path d="M60.2864 56.6492L58.7999 48.7212C58.4039 46.5893 57.1143 44.8085 55.2968 43.7525L55.4738 40.9618C55.5943 38.9787 55.0831 37.0868 53.9883 35.4809C53.9014 35.3551 53.826 35.2179 53.7485 35.0838C54.5876 34.5192 55.1407 33.5606 55.1407 32.4754V30.3802C55.1407 29.1923 54.4702 28.1688 53.4949 27.6345L53.5903 27.0982C53.739 26.3596 53.7883 25.7017 53.7443 25.092C53.2655 18.0712 47.4368 12.5714 40.4736 12.5714C33.5103 12.5714 27.6827 18.0722 27.205 25.0879C27.1599 25.7028 27.2102 26.3596 27.3548 27.0762L27.4543 27.6356C26.479 28.1698 25.8086 29.1933 25.8086 30.3813V32.4764C25.8086 33.5617 26.3617 34.5192 27.1997 35.0849C27.1201 35.2221 27.0437 35.3614 26.9536 35.4903C25.8651 37.0868 25.3539 38.9798 25.4744 40.966L25.6514 43.7536C23.8349 44.8095 22.5454 46.5893 22.1494 48.7201L20.6608 56.6513C20.3748 58.1881 20.7823 59.7605 21.7827 60.9652C22.7811 62.1678 24.2487 62.8571 25.8075 62.8571H55.1396C56.6984 62.8571 58.1661 62.1678 59.1644 60.9652C60.1649 59.7616 60.5734 58.1891 60.2853 56.6503L60.2864 56.6492ZM27.6984 42.926L27.5654 40.8361C27.4732 39.3202 27.8597 37.8798 28.6779 36.6793C28.9083 36.3482 29.1042 35.9921 29.2865 35.6202H30.4755C31.014 37.4356 31.9966 39.1002 33.3731 40.4767L33.6884 40.7921C33.2778 41.0267 32.8933 41.2991 32.5392 41.6081L27.6984 42.926ZM51.998 29.3337C52.5762 29.3337 53.0455 29.804 53.0455 30.3813V32.4764C53.0455 33.0536 52.5762 33.524 51.998 33.524H50.8865C50.9273 33.129 50.9504 32.7299 50.9504 32.3277V29.3337H51.998ZM50.4727 35.6191H50.9514C50.9514 36.1199 50.5911 36.52 50.1207 36.6227C50.2527 36.2938 50.3721 35.9596 50.4727 35.6191ZM48.8552 29.0645V32.3277C48.8552 33.8634 48.4854 35.3415 47.7972 36.6667H45.4904C45.085 35.7438 44.1652 35.0953 43.0936 35.0953H40.9984C39.5538 35.0953 38.3795 36.2707 38.3795 37.7143C38.3795 39.1578 39.5538 40.3332 40.9984 40.3332H43.0936C44.1652 40.3332 45.085 39.6848 45.4904 38.7619H46.3044C46.2331 38.8383 46.1682 38.92 46.0938 38.9944L45.0986 39.9896C43.8625 41.2247 42.2209 41.9046 40.4746 41.9046C38.7283 41.9046 37.0868 41.2247 35.8506 39.9896L34.8554 38.9944C33.0756 37.2135 32.094 34.846 32.094 32.3277V29.2541C34.6354 28.988 39.6376 27.9792 42.7803 24.1807C43.8122 25.7112 45.7911 28.0106 48.8552 29.0655V29.0645ZM43.6174 37.7143C43.6174 38.0034 43.3816 38.2381 43.0936 38.2381H40.9984C40.7103 38.2381 40.4746 38.0034 40.4746 37.7143C40.4746 37.4252 40.7103 37.1905 40.9984 37.1905H43.0936C43.3816 37.1905 43.6174 37.4252 43.6174 37.7143ZM40.4746 48.19C38.1637 48.19 36.2843 46.3107 36.2843 43.9997V42.9124C37.5529 43.6184 38.9829 43.9997 40.4746 43.9997C41.9664 43.9997 43.3963 43.6184 44.6649 42.9124V43.9997C44.6649 46.3107 42.7856 48.19 40.4746 48.19ZM30.0628 33.524H28.9513C28.373 33.524 27.9037 33.0536 27.9037 32.4764V30.3813C27.9037 29.804 28.373 29.3337 28.9513 29.3337H29.9989V32.3277C29.9989 32.7299 30.0219 33.129 30.0628 33.524ZM33.6371 43.4351C33.8079 43.2612 33.9954 43.1062 34.1892 42.9595V43.9997C34.1892 45.6109 34.8031 47.0765 35.8024 48.19H33.1416C32.5633 48.19 32.094 47.7197 32.094 47.1425C32.094 45.7377 32.6388 44.424 33.6371 43.4351ZM46.7601 43.9997V42.9553C48.0517 43.9212 48.8552 45.4611 48.8552 47.1425C48.8552 47.4222 48.7473 47.6799 48.5347 47.8883C48.344 48.0832 48.0863 48.19 47.8077 48.19H45.1468C46.1462 47.0765 46.7601 45.6109 46.7601 43.9997ZM48.3901 41.6018C48.0392 41.3001 47.6652 41.0246 47.2577 40.7931L47.5751 40.4757C48.1052 39.9446 48.5755 39.3705 48.9872 38.7619H49.9039C51.0436 38.7619 52.0336 38.1469 52.5846 37.2366C53.1733 38.3208 53.4614 39.5454 53.3839 40.8319L53.2509 42.9249L48.3912 41.6008L48.3901 41.6018ZM40.4746 14.6676C46.34 14.6676 51.251 19.3094 51.6554 25.2408C51.6858 25.664 51.647 26.1365 51.5328 26.7095L51.4385 27.2385H50.0589C45.8613 26.0977 43.8352 21.8561 43.8164 21.8142C43.654 21.4612 43.3104 21.2275 42.9218 21.2066C42.5174 21.1888 42.1665 21.3815 41.9664 21.7136C39.0531 26.5702 32.3832 27.1662 31.0182 27.2385H29.5117L29.4133 26.6865C29.3033 26.1365 29.2635 25.663 29.2959 25.2356C29.6993 19.3094 34.6093 14.6676 40.4746 14.6676ZM23.395 59.6264C22.7947 58.9025 22.5485 57.9587 22.7203 57.0368L24.2089 49.1046C24.5777 47.1236 26.0223 45.5596 27.9791 45.0211L30.5593 44.3182C30.1916 45.1992 29.9989 46.1556 29.9989 47.1425C29.9989 48.8751 31.4089 50.2852 33.1416 50.2852H39.427V60.7609H25.8086C24.8741 60.7609 23.9952 60.3471 23.395 59.6264ZM57.5532 59.6264C56.954 60.3471 56.0741 60.7609 55.1396 60.7609H41.5212V50.2852H47.8066C48.6562 50.2852 49.4461 49.9531 50.0138 49.3696C50.6173 48.783 50.9493 47.992 50.9493 47.1425C50.9493 46.1452 50.7283 45.1908 50.3585 44.3098L52.967 45.0201C54.9249 45.5585 56.3705 47.1236 56.7403 49.1056L58.2268 57.0347C58.3997 57.9576 58.1546 58.9025 57.5532 59.6264Z" fill="white"/>
</svg>
