<svg width="80" height="80" viewBox="0 0 80 80" fill="none" xmlns="http://www.w3.org/2000/svg">
<circle cx="40" cy="40" r="40" fill="#D62027"/>
<path d="M27.5785 28.4952H25.8823V30.1714H27.5785V28.4952Z" fill="white"/>
<path d="M32.6671 28.4952H30.9709V30.1714H32.6671V28.4952Z" fill="white"/>
<path d="M66.2516 42.3154C66.3119 41.9554 66.2922 41.5867 66.1938 41.235C66.0954 40.8831 65.9207 40.5568 65.6818 40.2784C65.4429 40.0001 65.1456 39.7765 64.8105 39.6232C64.4754 39.4698 64.1105 39.3905 63.7412 39.3905H50.0869C49.2844 39.3891 48.5075 39.6701 47.8953 40.1829C47.2831 40.6957 46.8755 41.4071 46.7454 42.1897L45.2358 51.1238H41.7417L39.2907 44.461C39.0146 43.7228 38.5927 43.0464 38.0497 42.4709C37.5066 41.8954 36.8531 41.4322 36.1273 41.1086L30.9709 38.8457V38.1082C32.4576 37.5899 33.7452 36.629 34.6565 35.3578C35.5677 34.0865 36.0579 32.5675 36.0595 31.0095V20.1143C36.0595 19.892 35.9701 19.6788 35.8111 19.5217C35.652 19.3645 35.4363 19.2762 35.2114 19.2762H25.0343C23.9096 19.2762 22.831 19.7177 22.0358 20.5036C21.2406 21.2894 20.7938 22.3553 20.7938 23.4667V26.8609C20.0728 26.9611 19.4146 27.3211 18.9457 27.8715C18.4768 28.4221 18.2303 29.1243 18.2534 29.8435C18.2765 30.5627 18.5677 31.248 19.071 31.768C19.5744 32.288 20.2543 32.6058 20.9804 32.6606C21.4184 34.5456 22.5642 36.1961 24.1862 37.2785V38.8038L19.8863 40.3543C18.4131 40.8808 17.1399 41.8432 16.24 43.1104C15.3401 44.3776 14.8572 45.8881 14.8571 47.4362V51.9619C14.8597 52.8722 15.1668 53.7563 15.7307 54.4762H15.7052C15.4803 54.4762 15.2646 54.5645 15.1055 54.7217C14.9465 54.8788 14.8571 55.092 14.8571 55.3143V58.6667C14.8571 58.8889 14.9465 59.1021 15.1055 59.2593C15.2646 59.4164 15.4803 59.5048 15.7052 59.5048H17.4014V62.019C17.4014 62.2413 17.4908 62.4545 17.6498 62.6117C17.8089 62.7688 18.0246 62.8571 18.2495 62.8571H62.3503C62.5752 62.8571 62.791 62.7688 62.95 62.6117C63.109 62.4545 63.1984 62.2413 63.1984 62.019V59.5048H64.8946C65.1195 59.5048 65.3353 59.4164 65.4943 59.2593C65.6533 59.1021 65.7427 58.8889 65.7427 58.6667V55.3143C65.7427 55.092 65.6533 54.8788 65.4943 54.7217C65.3353 54.5645 65.1195 54.4762 64.8946 54.4762H64.1568C64.2113 54.3388 64.2484 54.1952 64.267 54.0488L66.2516 42.3154ZM20.7938 30.9341C20.5459 30.8483 20.3311 30.6884 20.1792 30.4767C20.0272 30.265 19.9456 30.0119 19.9456 29.7524C19.9456 29.4928 20.0272 29.2397 20.1792 29.028C20.3311 28.8163 20.5459 28.6565 20.7938 28.5707V30.9341ZM48.4162 42.4663C48.4805 42.0746 48.6842 41.7186 48.9904 41.4621C49.2967 41.2055 49.6854 41.0653 50.0869 41.0667H50.3244L48.06 54.4762H46.3892L48.4162 42.4663ZM44.956 52.8L44.6676 54.4762H38.6037C38.3788 54.4762 38.1631 54.3879 38.0041 54.2307C37.845 54.0736 37.7556 53.8604 37.7556 53.6381V52.8H44.956ZM22.49 23.4667C22.492 22.8005 22.7607 22.1621 23.2374 21.691C23.7141 21.2199 24.3601 20.9544 25.0343 20.9524H34.3633V23.6427C33.8629 23.7181 33.4049 23.8103 32.9639 23.8941C31.7525 24.1604 30.5157 24.298 29.2747 24.3048C28.5072 24.3468 27.7398 24.2209 27.0273 23.936C26.1236 23.5857 25.156 23.4258 24.1862 23.4667C23.9613 23.4667 23.7455 23.555 23.5865 23.7121C23.4275 23.8693 23.3381 24.0825 23.3381 24.3048V25.9809C23.3381 26.2032 23.2487 26.4164 23.0897 26.5736C22.9306 26.7307 22.7149 26.819 22.49 26.819V23.4667ZM22.49 31.0095V28.4952C23.1641 28.4932 23.8101 28.2277 24.2868 27.7566C24.7635 27.2855 25.0322 26.6472 25.0343 25.9809V25.1764C25.5161 25.2119 25.9888 25.3252 26.4336 25.5116C27.3373 25.8619 28.3049 26.0218 29.2747 25.9809C30.624 25.9745 31.9689 25.8256 33.2862 25.5368C33.6339 25.4697 33.9901 25.4027 34.3633 25.3356V31.0095C34.3633 32.5654 33.7378 34.0577 32.6244 35.1578C31.5111 36.2581 30.0011 36.8762 28.4266 36.8762C26.8521 36.8762 25.3421 36.2581 24.2288 35.1578C23.1154 34.0577 22.49 32.5654 22.49 31.0095ZM29.2747 38.5021V39.3905C29.2747 39.835 29.096 40.2613 28.7779 40.5757C28.4598 40.8901 28.0284 41.0667 27.5785 41.0667C27.1287 41.0667 26.6973 40.8901 26.3792 40.5757C26.061 40.2613 25.8823 39.835 25.8823 39.3905V38.1082C26.6979 38.4012 27.5589 38.5515 28.4266 38.5524C28.7101 38.5525 28.9933 38.5358 29.2747 38.5021ZM16.5533 47.4362C16.5535 46.2326 16.9289 45.0583 17.6285 44.0731C18.328 43.0878 19.3178 42.3395 20.463 41.9299L24.3982 40.5135C24.628 41.1594 25.0534 41.7197 25.6166 42.1184C26.1799 42.5172 26.8535 42.7349 27.5463 42.7423C28.239 42.7496 28.9173 42.5461 29.489 42.1593C30.0607 41.7726 30.4981 41.2214 30.7419 40.5806L35.4319 42.6423C35.9529 42.8711 36.4219 43.2013 36.8109 43.613C37.1999 44.0249 37.501 44.5099 37.6963 45.0392L39.9352 51.1238H36.9754L35.152 46.6232C35.0855 46.4664 34.9735 46.3326 34.8301 46.2386C34.6867 46.1447 34.5184 46.0947 34.3463 46.0952C34.1214 46.0952 33.9056 46.1836 33.7466 46.3407C33.5876 46.4979 33.4982 46.7111 33.4982 46.9333V54.4762H30.1228C30.1205 53.7393 29.9208 53.016 29.5439 52.38C29.1671 51.7441 28.6264 51.2181 27.9771 50.8556L27.5701 47.6709L25.8908 47.872L26.1961 50.3192C26.0944 50.3109 25.9926 50.2857 25.8823 50.2857H20.7938V46.0952H19.0976V51.1238C19.0976 51.3461 19.187 51.5593 19.346 51.7164C19.5051 51.8736 19.7208 51.9619 19.9457 51.9619H24.1862V54.4762H19.0976C18.4234 54.4742 17.7775 54.2087 17.3008 53.7376C16.8241 53.2665 16.5553 52.6281 16.5533 51.9619V47.4362ZM36.2121 54.4762H35.1944V51.2411L36.0595 53.3783V53.6381C36.0618 53.924 36.1134 54.2074 36.2121 54.4762ZM28.4266 54.4762H25.8823V51.9619C26.5565 51.9639 27.2025 52.2294 27.6792 52.7005C28.1559 53.1716 28.4246 53.81 28.4266 54.4762ZM61.5022 61.181H19.0976V59.5048H61.5022V61.181ZM64.0465 57.8286H16.5533V56.1524H64.0465V57.8286ZM62.5963 53.7722C62.566 53.9685 62.4655 54.1475 62.3129 54.2766C62.1604 54.4059 61.9661 54.4766 61.7651 54.4762H49.7816L52.046 41.0667H63.7412C63.8643 41.0663 63.986 41.0924 64.0977 41.1432C64.2095 41.194 64.3088 41.2682 64.3887 41.3607C64.4686 41.4532 64.5272 41.5617 64.5604 41.6789C64.5935 41.796 64.6005 41.9188 64.5808 42.0389L62.5963 53.7722Z" fill="white"/>
<path d="M57.2618 45.2571C56.7586 45.2571 56.2666 45.4046 55.8483 45.6809C55.4298 45.9571 55.1037 46.3498 54.9112 46.8093C54.7186 47.2687 54.6682 47.7742 54.7663 48.262C54.8646 48.7497 55.1069 49.1977 55.4627 49.5493C55.8185 49.9009 56.2719 50.1404 56.7654 50.2374C57.259 50.3344 57.7705 50.2846 58.2354 50.0943C58.7003 49.904 59.0977 49.5818 59.3773 49.1683C59.6569 48.7548 59.806 48.2687 59.806 47.7714C59.806 47.1046 59.538 46.4651 59.0608 45.9936C58.5837 45.5221 57.9366 45.2571 57.2618 45.2571ZM57.2618 48.6095C57.094 48.6095 56.9301 48.5604 56.7906 48.4683C56.6511 48.3762 56.5424 48.2453 56.4782 48.0922C56.414 47.939 56.3972 47.7705 56.43 47.6079C56.4627 47.4453 56.5434 47.296 56.6621 47.1788C56.7807 47.0616 56.9318 46.9818 57.0963 46.9494C57.2608 46.9171 57.4314 46.9337 57.5863 46.9971C57.7413 47.0606 57.8738 47.168 57.967 47.3058C58.0602 47.4436 58.1099 47.6057 58.1099 47.7714C58.1099 47.9937 58.0205 48.2069 57.8615 48.364C57.7024 48.5212 57.4867 48.6095 57.2618 48.6095Z" fill="white"/>
<path d="M53.0213 34.3619C54.8664 34.3619 56.6701 33.8212 58.2043 32.8082C59.7384 31.7952 60.9341 30.3554 61.6402 28.6708C62.3463 26.9862 62.5311 25.1326 62.171 23.3443C61.8111 21.556 60.9226 19.9133 59.6179 18.624C58.3132 17.3347 56.651 16.4567 54.8413 16.101C53.0317 15.7452 51.1559 15.9278 49.4513 16.6256C47.7466 17.3233 46.2896 18.505 45.2645 20.021C44.2394 21.5371 43.6923 23.3195 43.6923 25.1429C43.6952 27.587 44.679 29.9302 46.4279 31.6585C48.1768 33.3868 50.548 34.3591 53.0213 34.3619ZM45.4385 24.3048C45.5985 22.8904 46.162 21.5502 47.0635 20.4403L48.2236 21.5868L49.4229 20.4017L48.2627 19.2552C49.3858 18.3644 50.742 17.8075 52.1732 17.6495V19.2762H53.8694V17.6495C55.3006 17.8075 56.6568 18.3644 57.78 19.2552L56.6198 20.4017L57.819 21.5868L58.9792 20.4403C59.8806 21.5502 60.4442 22.8904 60.6041 24.3048H58.958V25.9809H60.6041C60.4442 27.3953 59.8806 28.7355 58.9792 29.8454L57.819 28.6989L56.6198 29.884L57.78 31.0305C56.6568 31.9213 55.3006 32.4782 53.8694 32.6363V31.0095H52.1732V32.6363C50.742 32.4782 49.3858 31.9213 48.2627 31.0305L49.4229 29.884L48.2236 28.6989L47.0635 29.8454C46.162 28.7355 45.5985 27.3953 45.4385 25.9809H47.0847V24.3048H45.4385Z" fill="white"/>
<path d="M53.6209 25.7354C53.7799 25.5782 53.8693 25.3651 53.8694 25.1429V20.9524H52.1732V24.7959L50.7255 26.2265L51.9247 27.4116L53.6209 25.7354Z" fill="white"/>
<path d="M53.0213 37.7143C55.5373 37.7143 57.9969 36.977 60.089 35.5956C62.181 34.2142 63.8115 32.2508 64.7743 29.9538C65.7372 27.6566 65.9892 25.1289 65.4983 22.6903C65.0074 20.2516 63.7958 18.0117 62.0167 16.2535C60.2376 14.4954 57.9709 13.2981 55.5032 12.813C53.0354 12.3279 50.4775 12.5769 48.1531 13.5284C45.8286 14.4799 43.8417 16.0912 42.4439 18.1585C41.046 20.2259 40.2999 22.6565 40.2999 25.1429C40.3037 28.4759 41.6453 31.6713 44.0302 34.028C46.415 36.3848 49.6485 37.7105 53.0213 37.7143ZM53.0213 14.2476C55.2019 14.2476 57.3335 14.8866 59.1466 16.0838C60.9597 17.281 62.3728 18.9826 63.2072 20.9734C64.0418 22.9643 64.2601 25.1549 63.8347 27.2684C63.4093 29.3819 62.3592 31.3232 60.8173 32.847C59.2754 34.3707 57.3109 35.4083 55.1722 35.8287C53.0335 36.2491 50.8168 36.0334 48.8021 35.2087C46.7876 34.3841 45.0657 32.9877 43.8542 31.1959C42.6427 29.4042 41.9961 27.2978 41.9961 25.1429C41.9995 22.2543 43.1621 19.485 45.229 17.4424C47.2959 15.3999 50.0983 14.251 53.0213 14.2476Z" fill="white"/>
</svg>
