<svg width="108" height="44" viewBox="0 0 108 44" fill="none" xmlns="http://www.w3.org/2000/svg">
<path d="M108 43.5H0V16H12.5C15.5 2 26 0.5 30 0.5H77.5C89.5 0.5 94.1667 11.1667 95 16.5H108V43.5Z" fill="white"/>
<path d="M32.0411 3.16406H76.1534C80.2171 3.1742 84.1115 4.81978 86.985 7.74093C89.8585 10.6621 91.4772 14.6211 91.4872 18.7522C91.4772 22.8833 89.8585 26.8424 86.985 29.7635C84.1115 32.6847 80.2171 34.3302 76.1534 34.3404H32.0411C27.9774 34.3302 24.083 32.6847 21.2095 29.7635C18.336 26.8424 16.7173 22.8833 16.7073 18.7522C16.7173 14.6211 18.336 10.6621 21.2095 7.74093C24.083 4.81978 27.9774 3.1742 32.0411 3.16406ZM76.1849 6.74902H32.0411C30.4878 6.74754 28.9498 7.06101 27.5171 7.67107C26.0845 8.28113 24.7858 9.17554 23.6973 10.302C22.5921 11.4174 21.7144 12.7437 21.1147 14.2048C20.5149 15.6659 20.2048 17.233 20.2023 18.8162C20.2008 20.3953 20.5092 21.9588 21.1093 23.4153C21.7094 24.8717 22.5892 26.1919 23.6973 27.2985C24.7901 28.4191 26.0896 29.3096 27.5213 29.9193C28.953 30.5289 30.4889 30.8457 32.0411 30.8515H76.1534C77.7067 30.8529 79.2447 30.5395 80.6774 29.9294C82.1101 29.3193 83.4087 28.4249 84.4973 27.2985C85.5996 26.1875 86.4756 24.8665 87.0753 23.411C87.675 21.9556 87.9866 20.3942 87.9922 18.8162C87.9907 17.2329 87.6811 15.6655 87.0813 14.2042C86.4815 12.743 85.6033 11.4168 84.4973 10.302C83.4212 9.16765 82.1293 8.26773 80.7003 7.65693C79.2713 7.04614 77.735 6.73724 76.1849 6.74902Z" fill="#004A8F"/>
<path d="M61.9846 21.633C61.6697 23.9056 60.7881 25.6661 59.3397 26.9144C57.8914 28.1627 56.0337 28.8029 53.7667 28.8029C51.0274 28.8029 48.8233 27.9067 47.1545 26.0822C45.4858 24.2577 44.6356 21.8891 44.6356 18.9443C44.6356 15.8715 45.4858 13.4068 47.186 11.5823C48.8863 9.75782 51.1848 8.82958 54.0186 8.82958C56.2856 8.82958 58.1433 9.43774 59.5601 10.6541C60.977 11.8704 61.8272 13.5028 62.0161 15.6154H57.5135C57.3546 14.7988 56.9065 14.0699 56.2541 13.5668C55.5409 13.0743 54.6911 12.8275 53.8296 12.8627C53.2116 12.8471 52.5991 12.9847 52.0451 13.2635C51.4911 13.5423 51.0121 13.954 50.6495 14.4631C49.8624 15.5194 49.4845 16.9918 49.4845 18.8803C49.4845 20.7688 49.8624 22.1771 50.5865 23.2014C50.9374 23.703 51.4069 24.1067 51.9517 24.3752C52.4965 24.6437 53.099 24.7684 53.7037 24.7378C54.6301 24.7877 55.5441 24.5044 56.2856 23.9376C56.9596 23.3532 57.3878 22.5285 57.482 21.633H61.9846Z" fill="#004A8F"/>
<path d="M67.3058 18.7842C67.3058 20.7047 67.6836 22.2092 68.4708 23.2334C69.2579 24.2577 70.3599 24.7698 71.8083 24.7698C73.2567 24.7698 74.3902 24.2577 75.1773 23.2334C75.9645 22.2092 76.3423 20.7047 76.3423 18.7842C76.3423 16.8637 75.9645 15.3913 75.1773 14.335C74.3902 13.2788 73.2882 12.7986 71.8083 12.7986C70.3284 12.7986 69.2579 13.3108 68.4708 14.335C67.6836 15.3593 67.3058 16.8637 67.3058 18.7842ZM62.4569 18.7842C62.4569 15.7114 63.307 13.2788 64.9758 11.4863C66.6446 9.69381 68.9116 8.79757 71.8083 8.79757C74.705 8.79757 76.9721 9.69381 78.6723 11.4863C80.3726 13.2788 81.2227 15.7114 81.2227 18.7842C81.2227 21.8571 80.3726 24.2897 78.6723 26.0822C76.9721 27.8747 74.6736 28.7709 71.8083 28.7709C68.9431 28.7709 66.6446 27.8747 64.9758 26.0822C63.307 24.2897 62.4569 21.8891 62.4569 18.7842Z" fill="#004A8F"/>
<path d="M42.9669 16.5436H35.3472V20.3527H42.9669V16.5436Z" fill="#ED1C24"/>
<path fill-rule="evenodd" clip-rule="evenodd" d="M29.6167 28.2588V9.2777H43.7855V13.1827H34.4026V24.3857H44.1004V28.2588H29.6167Z" fill="#004A8F"/>
<path d="M105.404 36.8691H86.229V40.6781H105.404V36.8691Z" fill="#ED1C24"/>
<path fill-rule="evenodd" clip-rule="evenodd" d="M105.404 34.3724H87.2366C89.6432 32.5466 91.6106 30.1891 92.9906 27.4778C94.3705 24.7664 95.1268 21.772 95.2026 18.7202H105.404V34.3724Z" fill="#004A8F"/>
<path d="M21.8396 36.8691H2.66443V40.6781H21.8396V36.8691Z" fill="#ED1C24"/>
<path fill-rule="evenodd" clip-rule="evenodd" d="M2.66443 34.3724H20.832C18.4254 32.5466 16.4579 30.1891 15.078 27.4778C13.6981 24.7664 12.9418 21.772 12.866 18.7202H2.66443V34.3724Z" fill="#004A8F"/>
<path d="M27.3182 39.3017V40.6781H26.531V36.8691H28.2313C28.3875 36.8546 28.5449 36.8758 28.692 36.9312C28.8391 36.9866 28.9722 37.0747 29.0814 37.1891C29.2919 37.438 29.4041 37.7573 29.3963 38.0854C29.4011 38.3483 29.324 38.606 29.1759 38.8216C29.0677 38.9804 28.921 39.108 28.7499 39.1921C28.5789 39.2763 28.3894 39.314 28.1998 39.3017H27.3182ZM28.0424 38.6295C28.1386 38.6438 28.2368 38.6304 28.3258 38.5908C28.4149 38.5512 28.4912 38.487 28.5462 38.4055C28.603 38.2977 28.625 38.1746 28.6091 38.0534C28.6165 37.9811 28.606 37.9081 28.5785 37.841C28.551 37.7739 28.5074 37.7149 28.4517 37.6693C28.2942 37.5626 28.1042 37.5171 27.9164 37.5412H27.2867V38.6295H28.0424Z" fill="#004A8F"/>
<path d="M32.5134 38.9816H31.0651V40.6781H30.2779V36.8691H31.0651V38.3094H32.5134V36.8691H33.3006V40.6461H32.5134V38.9816Z" fill="#004A8F"/>
<path d="M35.0323 39.8779L34.7804 40.6461H33.9618L35.2842 36.8691H36.1973L37.4883 40.6461H36.6381L36.3862 39.8779H35.0323ZM35.2527 39.2377H36.1973L35.725 37.7333L35.2527 39.2377Z" fill="#004A8F"/>
<path d="M38.181 40.6781V36.8691H40.0701C40.2495 36.8494 40.4309 36.8773 40.5965 36.9503C40.7621 37.0232 40.9062 37.1386 41.0147 37.2852C41.166 37.4746 41.2444 37.7135 41.2351 37.9574C41.2358 38.1605 41.1813 38.3598 41.0777 38.5335C40.9763 38.7001 40.8201 38.8249 40.6369 38.8856C40.7782 38.9272 40.9008 39.0178 40.9832 39.1417C41.0887 39.36 41.1324 39.6038 41.1092 39.8459V40.39C41.1103 40.4354 41.1265 40.479 41.1551 40.5138C41.1837 40.5487 41.2229 40.5727 41.2666 40.5821V40.6781H40.4165C40.3777 40.5758 40.3564 40.4676 40.3535 40.358C40.3535 40.262 40.322 40.1019 40.322 39.9099C40.3448 39.723 40.3119 39.5334 40.2276 39.3657C40.1646 39.2697 39.9757 39.2057 39.6923 39.2057H38.9051V40.6781H38.181ZM38.9366 38.5335H39.8497C40.0171 38.5494 40.1846 38.504 40.322 38.4055C40.3723 38.3555 40.4122 38.2957 40.4393 38.2297C40.4663 38.1637 40.48 38.0929 40.4795 38.0214C40.482 37.9072 40.4489 37.7952 40.385 37.7013C40.3294 37.6408 40.2604 37.5947 40.1837 37.5668C40.107 37.539 40.0249 37.5302 39.9442 37.5412H38.9681V38.5335H38.9366Z" fill="#004A8F"/>
<path d="M45.8006 36.8691V40.6461H45.0765V37.5092L44.3838 40.6781H43.6281L42.9039 37.5092V40.6781H42.1797V36.8691H43.3132L43.9744 39.8459L44.6671 36.8691H45.8006Z" fill="#004A8F"/>
<path d="M47.5324 39.8779L47.2805 40.6461H46.4618L47.7843 36.8691H48.6974L49.9883 40.6461H49.1382L48.8863 39.8779H47.5324ZM47.7528 39.2377H48.6974L48.2251 37.7333L47.7528 39.2377Z" fill="#004A8F"/>
<path d="M53.8296 38.1174H53.0425C52.9981 37.9707 52.9346 37.8308 52.8536 37.7013C52.7723 37.6158 52.6742 37.5488 52.5657 37.5047C52.4571 37.4606 52.3406 37.4403 52.2238 37.4452C52.1121 37.4434 52.0012 37.4652 51.8982 37.5093C51.7953 37.5534 51.7024 37.6188 51.6256 37.7013C51.5051 37.8526 51.4152 38.0267 51.3612 38.2134C51.3071 38.4002 51.29 38.596 51.3107 38.7896C51.2932 39.1041 51.3701 39.4167 51.5311 39.6858C51.6072 39.8096 51.7145 39.9105 51.8418 39.978C51.9691 40.0456 52.1119 40.0773 52.2553 40.0699C52.3526 40.0753 52.4499 40.0611 52.5418 40.0281C52.6336 39.9952 52.7182 39.9441 52.7906 39.8779C52.9386 39.7441 53.0383 39.5638 53.074 39.3657H53.8611C53.7912 39.7485 53.6166 40.1035 53.3573 40.39C53.0498 40.6529 52.6569 40.7899 52.2553 40.7741C52.0263 40.7848 51.7978 40.7445 51.5857 40.656C51.3736 40.5676 51.183 40.4331 51.0274 40.262C50.6902 39.8383 50.5217 39.3015 50.5551 38.7576C50.5361 38.4853 50.5708 38.212 50.6574 37.9536C50.7439 37.6952 50.8804 37.4571 51.0588 37.2532C51.2145 37.0821 51.405 36.9476 51.6171 36.8591C51.8292 36.7707 52.0578 36.7304 52.2868 36.741C52.7372 36.7266 53.1762 36.8868 53.5148 37.1891C53.7068 37.4606 53.8162 37.7833 53.8296 38.1174Z" fill="#004A8F"/>
<path d="M57.4506 36.8691V37.5412H55.4669V38.3415H57.2931V39.0136H55.4669V40.0059H57.545V40.6781H54.7113V36.8691H57.4506Z" fill="#004A8F"/>
<path d="M61.4178 36.8691V39.3337C61.4364 39.5349 61.4091 39.7377 61.3381 39.9264C61.2672 40.1152 61.1544 40.2848 61.0085 40.422C60.6852 40.6754 60.2824 40.8005 59.875 40.7741C59.6717 40.7761 59.4696 40.7436 59.2768 40.6781C59.0463 40.6086 58.8393 40.4756 58.6785 40.294C58.478 40.0289 58.3774 39.6996 58.3951 39.3657V36.8691H59.1823V39.3337C59.1744 39.4377 59.187 39.5423 59.2194 39.6412C59.2519 39.7402 59.3035 39.8315 59.3712 39.9099C59.4325 39.9735 59.5061 40.0235 59.5874 40.0565C59.6688 40.0896 59.756 40.1051 59.8435 40.1019C59.9458 40.11 60.0487 40.0972 60.146 40.0642C60.2434 40.0312 60.3332 39.9787 60.4103 39.9099C60.4778 39.8379 60.5295 39.7522 60.5621 39.6584C60.5946 39.5646 60.6073 39.4648 60.5992 39.3657V36.8691H61.4178Z" fill="#004A8F"/>
<path d="M63.9367 37.5412V40.6781H63.1496V37.5412H62.0161V36.8691H65.0388V37.5412H63.9367Z" fill="#004A8F"/>
<path d="M66.5186 36.8691V40.6461H65.7315V36.8691H66.5186Z" fill="#004A8F"/>
<path d="M70.6118 38.1174H69.8247C69.7803 37.9707 69.7168 37.8308 69.6357 37.7013C69.5565 37.6132 69.4587 37.5445 69.3497 37.5001C69.2406 37.4558 69.1232 37.437 69.006 37.4452C68.8943 37.4434 68.7834 37.4652 68.6804 37.5093C68.5774 37.5534 68.4846 37.6188 68.4078 37.7013C68.2873 37.8526 68.1974 38.0267 68.1434 38.2134C68.0893 38.4002 68.0722 38.596 68.0929 38.7896C68.0754 39.1041 68.1523 39.4167 68.3133 39.6858C68.3894 39.8096 68.4967 39.9105 68.624 39.978C68.7513 40.0456 68.8941 40.0773 69.0375 40.0699C69.1348 40.0753 69.2321 40.0611 69.324 40.0281C69.4158 39.9952 69.5004 39.9441 69.5728 39.8779C69.7208 39.7441 69.8205 39.5638 69.8562 39.3657H70.6433C70.5734 39.7485 70.3988 40.1035 70.1395 40.39C69.832 40.6529 69.4391 40.7899 69.0375 40.7741C68.8085 40.7848 68.5799 40.7445 68.3678 40.656C68.1557 40.5676 67.9652 40.4331 67.8095 40.262C67.4724 39.8383 67.3039 39.3015 67.3373 38.7576C67.3182 38.4853 67.353 38.212 67.4395 37.9536C67.5261 37.6952 67.6626 37.4571 67.841 37.2532C67.9967 37.0821 68.1872 36.9476 68.3993 36.8591C68.6114 36.7707 68.84 36.7304 69.069 36.741C69.5194 36.7266 69.9584 36.8868 70.297 37.1891C70.489 37.4606 70.5984 37.7833 70.6118 38.1174Z" fill="#004A8F"/>
<path d="M72.2176 39.8779L71.9657 40.6461H71.1471L72.4695 36.8691H73.3826L74.6736 40.6461H73.8234L73.5715 39.8779H72.2176ZM72.4065 39.2377H73.3511L72.8788 37.7333L72.4065 39.2377Z" fill="#004A8F"/>
<path d="M76.0904 36.8691V39.9739H77.9481V40.6461H75.3348V36.8691H76.0904Z" fill="#004A8F"/>
<path d="M78.6093 39.4938H79.365C79.359 39.5631 79.3671 39.633 79.3888 39.6991C79.4105 39.7652 79.4452 39.826 79.491 39.8779C79.5774 39.9635 79.6818 40.0282 79.7963 40.067C79.9108 40.1058 80.0325 40.1177 80.1522 40.1019C80.3353 40.1099 80.518 40.0771 80.6874 40.0059C80.7595 39.9709 80.821 39.9167 80.8653 39.8491C80.9097 39.7815 80.9352 39.7029 80.9393 39.6218C80.9366 39.5567 80.9179 39.4932 80.8849 39.4373C80.8519 39.3814 80.8057 39.3348 80.7504 39.3017C80.5907 39.2247 80.4211 39.1708 80.2466 39.1417L79.8373 39.0456C79.5519 38.9915 79.276 38.8944 79.0187 38.7576C78.8893 38.6648 78.7862 38.5391 78.7199 38.393C78.6536 38.2469 78.6263 38.0856 78.6408 37.9253C78.6372 37.7896 78.6604 37.6545 78.7091 37.528C78.7578 37.4016 78.8309 37.2863 78.9242 37.1891C79.0767 37.0375 79.2601 36.9217 79.4613 36.8498C79.6626 36.7779 79.8769 36.7517 80.0892 36.773C80.3032 36.7632 80.5168 36.7979 80.7171 36.875C80.9175 36.952 81.1002 37.0698 81.2542 37.2212C81.4532 37.4389 81.5655 37.7241 81.569 38.0214H80.8134C80.7961 37.8963 80.7532 37.7764 80.6874 37.6693C80.6058 37.5862 80.5068 37.5229 80.3978 37.4841C80.2887 37.4453 80.1725 37.432 80.0577 37.4452C79.9052 37.4393 79.7536 37.4723 79.6169 37.5412C79.5541 37.5765 79.501 37.6272 79.4625 37.6887C79.424 37.7502 79.4013 37.8206 79.3965 37.8933C79.3913 37.9483 79.4001 38.0037 79.4222 38.0542C79.4442 38.1047 79.4788 38.1485 79.5224 38.1814C79.6021 38.2241 79.6867 38.2564 79.7743 38.2774L80.6874 38.5015C80.9335 38.5543 81.1682 38.6519 81.3801 38.7896C81.4783 38.8831 81.5547 38.9977 81.6037 39.1251C81.6527 39.2525 81.6732 39.3894 81.6635 39.5258C81.6713 39.6945 81.6413 39.8628 81.5759 40.018C81.5104 40.1733 81.4112 40.3114 81.2857 40.422C80.9698 40.666 80.5801 40.7905 80.1837 40.7741C79.945 40.7921 79.7052 40.7618 79.4782 40.6849C79.2512 40.6079 79.0415 40.486 78.8612 40.326C78.6941 40.082 78.606 39.7911 78.6093 39.4938Z" fill="#004A8F"/>
</svg>
