<svg width="90" height="54" viewBox="0 0 80 49" fill="none" xmlns="http://www.w3.org/2000/svg">
<rect width="80" height="48.8235" rx="10" fill="#F3F3F4"/>
<path d="M26.9878 13.5294H52.4968C54.8467 13.535 57.0988 14.4357 58.7605 16.0345C60.4221 17.6334 61.3582 19.8003 61.364 22.0614C61.3582 24.3226 60.4221 26.4895 58.7605 28.0884C57.0988 29.6872 54.8467 30.5879 52.4968 30.5935H26.9878C24.6379 30.5879 22.3858 29.6872 20.7241 28.0884C19.0625 26.4895 18.1264 24.3226 18.1206 22.0614C18.1264 19.8003 19.0625 17.6334 20.7241 16.0345C22.3858 14.4357 24.6379 13.535 26.9878 13.5294ZM52.515 15.4916H26.9878C26.0896 15.4908 25.2002 15.6624 24.3717 15.9963C23.5432 16.3302 22.7922 16.8197 22.1628 17.4363C21.5236 18.0468 21.0161 18.7728 20.6693 19.5725C20.3225 20.3722 20.1432 21.2299 20.1417 22.0965C20.1409 22.9608 20.3192 23.8165 20.6662 24.6137C21.0132 25.4109 21.522 26.1335 22.1628 26.7392C22.7947 27.3525 23.5462 27.8399 24.3741 28.1736C25.202 28.5073 26.0902 28.6807 26.9878 28.6838H52.4968C53.395 28.6846 54.2844 28.5131 55.1129 28.1792C55.9414 27.8452 56.6924 27.3557 57.3218 26.7392C57.9593 26.1311 58.4659 25.408 58.8127 24.6114C59.1594 23.8148 59.3396 22.9602 59.3429 22.0965C59.342 21.2298 59.163 20.3719 58.8161 19.5721C58.4693 18.7723 57.9614 18.0465 57.3218 17.4363C56.6996 16.8154 55.9525 16.3229 55.1262 15.9885C54.2998 15.6542 53.4114 15.4852 52.515 15.4916Z" fill="#004A8F"/>
<path d="M44.3033 23.6382C44.1213 24.8821 43.6114 25.8457 42.7739 26.5289C41.9363 27.2122 40.8621 27.5626 39.5511 27.5626C37.967 27.5626 36.6925 27.072 35.7275 26.0734C34.7625 25.0748 34.2709 23.7784 34.2709 22.1666C34.2709 20.4847 34.7625 19.1357 35.7457 18.1371C36.7289 17.1384 38.0581 16.6304 39.6968 16.6304C41.0077 16.6304 42.082 16.9633 42.9013 17.629C43.7207 18.2947 44.2123 19.1882 44.3215 20.3445H41.7178C41.6259 19.8976 41.3668 19.4986 40.9895 19.2233C40.5771 18.9537 40.0857 18.8186 39.5875 18.8378C39.2301 18.8293 38.876 18.9046 38.5556 19.0572C38.2352 19.2099 37.9582 19.4352 37.7486 19.7138C37.2934 20.292 37.0749 21.0979 37.0749 22.1315C37.0749 23.1652 37.2934 23.936 37.7121 24.4967C37.915 24.7712 38.1865 24.9921 38.5016 25.1391C38.8166 25.2861 39.165 25.3543 39.5147 25.3376C40.0504 25.3649 40.579 25.2098 41.0077 24.8996C41.3975 24.5798 41.6451 24.1283 41.6996 23.6382H44.3033Z" fill="#004A8F"/>
<path d="M47.3804 22.079C47.3804 23.1301 47.5989 23.9536 48.0541 24.5142C48.5093 25.0748 49.1466 25.3551 49.9841 25.3551C50.8217 25.3551 51.4772 25.0748 51.9324 24.5142C52.3876 23.9536 52.6061 23.1301 52.6061 22.079C52.6061 21.0278 52.3876 20.2219 51.9324 19.6437C51.4772 19.0656 50.8399 18.8028 49.9841 18.8028C49.1284 18.8028 48.5093 19.0831 48.0541 19.6437C47.5989 20.2044 47.3804 21.0278 47.3804 22.079ZM44.5765 22.079C44.5765 20.3971 45.0681 19.0656 46.0331 18.0845C46.9981 17.1034 48.309 16.6129 49.9841 16.6129C51.6593 16.6129 52.9702 17.1034 53.9534 18.0845C54.9366 19.0656 55.4282 20.3971 55.4282 22.079C55.4282 23.7608 54.9366 25.0923 53.9534 26.0734C52.9702 27.0545 51.641 27.5451 49.9841 27.5451C48.3272 27.5451 46.9981 27.0545 46.0331 26.0734C45.0681 25.0923 44.5765 23.7784 44.5765 22.079Z" fill="#004A8F"/>
<path d="M33.3059 20.8526H28.8996V22.9374H33.3059V20.8526Z" fill="#ED1C24"/>
<path fill-rule="evenodd" clip-rule="evenodd" d="M25.5858 27.2647V16.8757H33.7793V19.013H28.3534V25.1449H33.9614V27.2647H25.5858Z" fill="#004A8F"/>
<path d="M69.4118 31.9775H58.3233V34.0623H69.4118V31.9775Z" fill="#ED1C24"/>
<path fill-rule="evenodd" clip-rule="evenodd" d="M69.4118 30.611H58.9059C60.2976 29.6116 61.4353 28.3213 62.2333 26.8373C63.0313 25.3533 63.4686 23.7143 63.5125 22.0439H69.4118V30.611Z" fill="#004A8F"/>
<path d="M21.0885 31.9775H10V34.0623H21.0885V31.9775Z" fill="#ED1C24"/>
<path fill-rule="evenodd" clip-rule="evenodd" d="M10 30.611H20.5059C19.1142 29.6116 17.9764 28.3213 17.1785 26.8373C16.3805 25.3533 15.9431 23.7143 15.8993 22.0439H10V30.611Z" fill="#004A8F"/>
<path d="M24.2566 33.309V34.0623H23.8014V31.9775H24.7847C24.875 31.9696 24.966 31.9812 25.0511 32.0115C25.1362 32.0418 25.2131 32.0901 25.2763 32.1527C25.398 32.2889 25.4629 32.4637 25.4583 32.6432C25.4611 32.7871 25.4165 32.9282 25.3309 33.0462C25.2683 33.1331 25.1835 33.203 25.0846 33.249C24.9857 33.2951 24.8761 33.3157 24.7665 33.309H24.2566ZM24.6754 32.9411C24.731 32.9489 24.7878 32.9416 24.8393 32.9199C24.8908 32.8982 24.935 32.8631 24.9667 32.8184C24.9996 32.7595 25.0123 32.6921 25.0032 32.6257C25.0074 32.5862 25.0013 32.5462 24.9854 32.5095C24.9695 32.4727 24.9443 32.4404 24.9121 32.4155C24.8211 32.3571 24.7112 32.3322 24.6026 32.3454H24.2384V32.9411H24.6754Z" fill="#004A8F"/>
<path d="M27.2609 33.1338H26.4234V34.0623H25.9682V31.9775H26.4234V32.7659H27.2609V31.9775H27.7161V34.0448H27.2609V33.1338Z" fill="#004A8F"/>
<path d="M28.7175 33.6243L28.5719 34.0448H28.0985L28.8632 31.9775H29.3912L30.1377 34.0448H29.6461L29.5005 33.6243H28.7175ZM28.845 33.274H29.3912L29.1181 32.4505L28.845 33.274Z" fill="#004A8F"/>
<path d="M30.5383 34.0623V31.9775H31.6308C31.7345 31.9667 31.8394 31.982 31.9351 32.022C32.0309 32.0619 32.1142 32.125 32.177 32.2053C32.2645 32.3089 32.3098 32.4397 32.3044 32.5732C32.3048 32.6843 32.2733 32.7935 32.2134 32.8885C32.1548 32.9797 32.0645 33.048 31.9585 33.0812C32.0402 33.104 32.1111 33.1536 32.1588 33.2214C32.2198 33.3409 32.245 33.4743 32.2316 33.6068V33.9047C32.2323 33.9295 32.2416 33.9534 32.2582 33.9724C32.2747 33.9915 32.2974 34.0047 32.3227 34.0098V34.0623H31.8311C31.8086 34.0064 31.7963 33.9471 31.7946 33.8871C31.7946 33.8346 31.7764 33.747 31.7764 33.6419C31.7896 33.5396 31.7706 33.4358 31.7218 33.344C31.6854 33.2915 31.5761 33.2564 31.4123 33.2564H30.9571V34.0623H30.5383ZM30.9753 32.8885H31.5033C31.6001 32.8972 31.697 32.8724 31.7764 32.8184C31.8055 32.7911 31.8286 32.7584 31.8442 32.7223C31.8599 32.6861 31.8678 32.6473 31.8675 32.6082C31.8689 32.5457 31.8498 32.4844 31.8128 32.433C31.7807 32.3999 31.7408 32.3747 31.6964 32.3594C31.6521 32.3442 31.6046 32.3394 31.5579 32.3454H30.9935V32.8885H30.9753Z" fill="#004A8F"/>
<path d="M34.9446 31.9775V34.0448H34.5258V32.3279L34.1252 34.0623H33.6882L33.2695 32.3279V34.0623H32.8507V31.9775H33.5062L33.8885 33.6068L34.2891 31.9775H34.9446Z" fill="#004A8F"/>
<path d="M35.946 33.6243L35.8003 34.0448H35.3269L36.0917 31.9775H36.6197L37.3662 34.0448H36.8746L36.7289 33.6243H35.946ZM36.0734 33.274H36.6197L36.3466 32.4505L36.0734 33.274Z" fill="#004A8F"/>
<path d="M39.5875 32.6608H39.1323C39.1067 32.5805 39.07 32.5039 39.0231 32.433C38.9761 32.3862 38.9194 32.3496 38.8566 32.3254C38.7938 32.3013 38.7265 32.2902 38.6589 32.2929C38.5943 32.2919 38.5302 32.3038 38.4707 32.3279C38.4111 32.3521 38.3574 32.3879 38.313 32.433C38.2433 32.5158 38.1913 32.6111 38.1601 32.7133C38.1288 32.8156 38.1189 32.9227 38.1309 33.0287C38.1208 33.2008 38.1652 33.3719 38.2584 33.5192C38.3024 33.587 38.3644 33.6422 38.438 33.6792C38.5117 33.7161 38.5942 33.7335 38.6771 33.7295C38.7334 33.7324 38.7897 33.7246 38.8428 33.7066C38.8959 33.6886 38.9448 33.6606 38.9867 33.6243C39.0723 33.5511 39.1299 33.4524 39.1506 33.344H39.6057C39.5653 33.5535 39.4644 33.7478 39.3144 33.9047C39.1366 34.0486 38.9094 34.1235 38.6771 34.1149C38.5447 34.1207 38.4125 34.0987 38.2899 34.0503C38.1672 34.0018 38.0571 33.9282 37.9671 33.8346C37.7721 33.6027 37.6746 33.3089 37.6939 33.0112C37.6829 32.8621 37.7031 32.7125 37.7531 32.5711C37.8031 32.4297 37.8821 32.2993 37.9853 32.1877C38.0753 32.0941 38.1855 32.0205 38.3081 31.9721C38.4308 31.9236 38.5629 31.9016 38.6954 31.9074C38.9558 31.8995 39.2097 31.9872 39.4055 32.1527C39.5165 32.3013 39.5798 32.4779 39.5875 32.6608Z" fill="#004A8F"/>
<path d="M41.6814 31.9775V32.3454H40.5343V32.7834H41.5904V33.1513H40.5343V33.6944H41.736V34.0623H40.0974V31.9775H41.6814Z" fill="#004A8F"/>
<path d="M43.9756 31.9775V33.3265C43.9863 33.4366 43.9706 33.5476 43.9295 33.6509C43.8885 33.7542 43.8232 33.847 43.7389 33.9222C43.552 34.0608 43.319 34.1293 43.0834 34.1149C42.9659 34.116 42.849 34.0982 42.7375 34.0623C42.6042 34.0243 42.4845 33.9515 42.3915 33.8521C42.2755 33.707 42.2174 33.5268 42.2277 33.344V31.9775H42.6828V33.3265C42.6782 33.3834 42.6855 33.4407 42.7043 33.4948C42.7231 33.549 42.7529 33.599 42.7921 33.6419C42.8275 33.6767 42.8701 33.704 42.9171 33.7221C42.9642 33.7402 43.0146 33.7487 43.0652 33.747C43.1244 33.7514 43.1838 33.7444 43.2401 33.7263C43.2964 33.7083 43.3484 33.6796 43.3929 33.6419C43.432 33.6025 43.4619 33.5555 43.4807 33.5042C43.4996 33.4529 43.5069 33.3983 43.5022 33.344V31.9775H43.9756Z" fill="#004A8F"/>
<path d="M45.4322 32.3454V34.0623H44.977V32.3454H44.3215V31.9775H46.0695V32.3454H45.4322Z" fill="#004A8F"/>
<path d="M46.9252 31.9775V34.0448H46.4701V31.9775H46.9252Z" fill="#004A8F"/>
<path d="M49.2922 32.6608H48.8371C48.8114 32.5805 48.7747 32.5039 48.7278 32.433C48.682 32.3848 48.6254 32.3472 48.5624 32.3229C48.4993 32.2986 48.4314 32.2884 48.3637 32.2929C48.299 32.2919 48.2349 32.3038 48.1754 32.3279C48.1158 32.3521 48.0621 32.3879 48.0177 32.433C47.948 32.5158 47.8961 32.6111 47.8648 32.7133C47.8336 32.8156 47.8236 32.9227 47.8356 33.0287C47.8255 33.2008 47.87 33.3719 47.9631 33.5192C48.0071 33.587 48.0691 33.6422 48.1427 33.6792C48.2164 33.7161 48.2989 33.7335 48.3819 33.7295C48.4381 33.7324 48.4944 33.7246 48.5475 33.7066C48.6006 33.6886 48.6495 33.6606 48.6914 33.6243C48.777 33.5511 48.8347 33.4524 48.8553 33.344H49.3105C49.27 33.5535 49.1691 33.7478 49.0191 33.9047C48.8413 34.0486 48.6141 34.1235 48.3819 34.1149C48.2494 34.1207 48.1173 34.0987 47.9946 34.0503C47.872 34.0018 47.7618 33.9282 47.6718 33.8346C47.4768 33.6027 47.3793 33.3089 47.3986 33.0112C47.3877 32.8621 47.4078 32.7125 47.4578 32.5711C47.5078 32.4297 47.5868 32.2993 47.69 32.1877C47.78 32.0941 47.8902 32.0205 48.0128 31.9721C48.1355 31.9236 48.2676 31.9016 48.4001 31.9074C48.6605 31.8995 48.9144 31.9872 49.1102 32.1527C49.2212 32.3013 49.2845 32.4779 49.2922 32.6608Z" fill="#004A8F"/>
<path d="M50.2208 33.6243L50.0752 34.0448H49.6018L50.3665 31.9775H50.8945L51.641 34.0448H51.1494L51.0038 33.6243H50.2208ZM50.3301 33.274H50.8763L50.6032 32.4505L50.3301 33.274Z" fill="#004A8F"/>
<path d="M52.4604 31.9775V33.6769H53.5346V34.0448H52.0234V31.9775H52.4604Z" fill="#004A8F"/>
<path d="M53.917 33.4141H54.354C54.3505 33.4521 54.3552 33.4903 54.3677 33.5265C54.3803 33.5627 54.4004 33.596 54.4268 33.6243C54.4768 33.6712 54.5372 33.7066 54.6034 33.7278C54.6696 33.7491 54.74 33.7556 54.8092 33.747C54.9151 33.7513 55.0207 33.7334 55.1187 33.6944C55.1604 33.6752 55.196 33.6456 55.2216 33.6086C55.2472 33.5716 55.262 33.5286 55.2644 33.4842C55.2628 33.4485 55.252 33.4138 55.2329 33.3832C55.2138 33.3526 55.1871 33.3271 55.1551 33.309C55.0628 33.2668 54.9647 33.2373 54.8638 33.2214L54.6271 33.1688C54.462 33.1392 54.3025 33.086 54.1537 33.0112C54.0789 32.9604 54.0193 32.8916 53.9809 32.8116C53.9426 32.7316 53.9268 32.6434 53.9352 32.5557C53.9331 32.4814 53.9465 32.4074 53.9747 32.3382C54.0028 32.269 54.0451 32.2059 54.0991 32.1527C54.1873 32.0697 54.2933 32.0063 54.4097 31.967C54.5261 31.9276 54.65 31.9133 54.7728 31.9249C54.8965 31.9196 55.0201 31.9386 55.1359 31.9807C55.2517 32.0229 55.3574 32.0874 55.4465 32.1702C55.5616 32.2894 55.6265 32.4455 55.6285 32.6082H55.1915C55.1815 32.5398 55.1567 32.4741 55.1187 32.4155C55.0715 32.37 55.0142 32.3354 54.9512 32.3142C54.8881 32.2929 54.8209 32.2856 54.7546 32.2929C54.6664 32.2896 54.5787 32.3077 54.4997 32.3454C54.4633 32.3647 54.4326 32.3924 54.4104 32.4261C54.3881 32.4598 54.375 32.4983 54.3722 32.5381C54.3692 32.5682 54.3743 32.5986 54.387 32.6262C54.3998 32.6538 54.4198 32.6778 54.445 32.6958C54.4911 32.7192 54.54 32.7368 54.5907 32.7484L55.1187 32.871C55.261 32.8999 55.3967 32.9533 55.5193 33.0287C55.5761 33.0799 55.6202 33.1426 55.6486 33.2123C55.6769 33.282 55.6887 33.357 55.6832 33.4316C55.6876 33.524 55.6703 33.6161 55.6325 33.7011C55.5946 33.786 55.5373 33.8616 55.4647 33.9222C55.282 34.0557 55.0566 34.1239 54.8274 34.1149C54.6894 34.1248 54.5507 34.1082 54.4195 34.066C54.2882 34.0239 54.1669 33.9572 54.0627 33.8696C53.966 33.7361 53.9151 33.5768 53.917 33.4141Z" fill="#004A8F"/>
</svg>
