<svg xmlns="http://www.w3.org/2000/svg" width="20" height="20" viewBox="0 0 20 20" fill="#ffffff">
  <path fill-rule="evenodd" clip-rule="evenodd" d="M15 3.02344C14.6969 3.02344 14.4063 3.14384 14.192 3.35815L3.8977 13.6524L3.35899 15.8072L5.51382 15.2685L15.8081 4.97426C15.9142 4.86815 15.9984 4.74217 16.0558 4.60352C16.1132 4.46488 16.1428 4.31627 16.1428 4.1662C16.1428 4.01613 16.1132 3.86753 16.0558 3.72889C15.9984 3.59024 15.9142 3.46426 15.8081 3.35815C15.702 3.25203 15.576 3.16786 15.4373 3.11043C15.2987 3.053 15.1501 3.02344 15 3.02344ZM13.3081 2.47426C13.7568 2.02553 14.3654 1.77344 15 1.77344C15.3142 1.77344 15.6254 1.83533 15.9157 1.95558C16.206 2.07582 16.4698 2.25207 16.692 2.47426C16.9141 2.69645 17.0904 2.96023 17.2106 3.25053C17.3309 3.54084 17.3928 3.85198 17.3928 4.1662C17.3928 4.48043 17.3309 4.79157 17.2106 5.08188C17.0904 5.37218 16.9141 5.63596 16.692 5.85815L6.27529 16.2748C6.19519 16.3549 6.09483 16.4117 5.98493 16.4392L2.6516 17.2725C2.43861 17.3258 2.21331 17.2634 2.05807 17.1081C1.90283 16.9529 1.84043 16.7276 1.89367 16.5146L2.72701 13.1813C2.75448 13.0714 2.81131 12.971 2.8914 12.8909L13.3081 2.47426ZM9.37501 16.6662C9.37501 16.3211 9.65484 16.0412 10 16.0412H17.5C17.8452 16.0412 18.125 16.3211 18.125 16.6662C18.125 17.0114 17.8452 17.2912 17.5 17.2912H10C9.65484 17.2912 9.37501 17.0114 9.37501 16.6662Z" fill="white"/>
</svg>