<svg xmlns="http://www.w3.org/2000/svg" width="24" height="24" viewBox="0 0 24 24" fill="#ffffff">
  <mask id="mask0_803_7160" style="mask-type:alpha" maskUnits="userSpaceOnUse" x="4" y="3" width="16" height="17">
    <path d="M8.91306 18.8859L16.9132 10.8857L13.1133 7.08578L5.11312 15.086C5.00298 15.1962 4.92475 15.3343 4.88671 15.4854L4 19.999L8.51275 19.1123C8.66426 19.0744 8.80286 18.9961 8.91306 18.8859ZM19.4959 8.30307C19.8187 7.98019 20 7.54233 20 7.08578C20 6.62923 19.8187 6.19137 19.4959 5.86849L18.1305 4.50313C17.8077 4.18035 17.3698 3.99902 16.9132 3.99902C16.4567 3.99902 16.0188 4.18035 15.696 4.50313L14.3306 5.86849L18.1305 9.66843L19.4959 8.30307Z" fill="#006FFD"/>
  </mask>
  <g mask="url(#mask0_803_7160)">
    <rect width="24" height="24" fill="#00538F"/>
  </g>
</svg>