<svg width="205" height="87" viewBox="0 0 205 87" fill="none" xmlns="http://www.w3.org/2000/svg">
<g clip-path="url(#clip0_1312_12892)">
<path d="M82.1698 74.39C82.9898 74.23 84.1798 74.12 85.4298 74.12C87.1298 74.12 88.2698 74.41 89.0698 75.1C89.7198 75.66 90.0898 76.52 90.0898 77.58C90.0898 79.16 89.0598 80.24 87.9398 80.64V80.69C88.7998 81.02 89.3098 81.87 89.5898 83.06C89.9798 84.59 90.2898 86.01 90.5198 86.48H88.3098C88.1298 86.12 87.8398 85.11 87.5198 83.58C87.1698 81.98 86.6298 81.47 85.3998 81.43H84.3098V86.47H82.1698V74.38V74.39ZM84.2998 79.8H85.5798C87.0298 79.8 87.9298 79 87.9298 77.78C87.9298 76.45 87.0398 75.81 85.6398 75.81C84.9598 75.81 84.5198 75.86 84.3098 75.92V79.8H84.2998Z" fill="#1E459D"/>
<path d="M92.9998 82.67C93.0498 84.27 94.2398 84.96 95.6298 84.96C96.6298 84.96 97.3298 84.8 97.9898 84.56L98.3098 86.09C97.5698 86.42 96.5598 86.65 95.3298 86.65C92.5598 86.65 90.9298 84.88 90.9298 82.17C90.9298 79.71 92.3698 77.4 95.0998 77.4C97.8298 77.4 98.7798 79.77 98.7798 81.72C98.7798 82.14 98.7498 82.47 98.7098 82.67H92.9998ZM96.7498 81.11C96.7698 80.29 96.4198 78.94 94.9798 78.94C93.6498 78.94 93.0898 80.2 92.9998 81.11H96.7498Z" fill="#1E459D"/>
<path d="M99.8198 84.4C100.29 84.71 101.22 85.06 101.99 85.06C102.94 85.06 103.36 84.64 103.36 84.06C103.36 83.48 103.01 83.17 101.96 82.77C100.3 82.19 99.6098 81.24 99.6098 80.18C99.6098 78.61 100.85 77.41 102.83 77.41C103.78 77.41 104.6 77.65 105.11 77.94L104.67 79.51C104.32 79.29 103.62 79 102.87 79C102.12 79 101.68 79.4 101.68 79.95C101.68 80.5 102.08 80.77 103.17 81.19C104.73 81.75 105.43 82.57 105.45 83.89C105.45 85.51 104.24 86.68 101.98 86.68C100.95 86.68 100.02 86.42 99.3898 86.06L99.8298 84.42V84.4H99.8198Z" fill="#1E459D"/>
<path d="M108.11 82.67C108.16 84.27 109.35 84.96 110.74 84.96C111.74 84.96 112.44 84.8 113.1 84.56L113.42 86.09C112.68 86.42 111.67 86.65 110.44 86.65C107.67 86.65 106.04 84.88 106.04 82.17C106.04 79.71 107.48 77.4 110.21 77.4C112.94 77.4 113.89 79.77 113.89 81.72C113.89 82.14 113.86 82.47 113.82 82.67H108.11ZM111.86 81.11C111.88 80.29 111.53 78.94 110.09 78.94C108.76 78.94 108.2 80.2 108.11 81.11H111.86Z" fill="#1E459D"/>
<path d="M121.63 84.35C121.63 85.15 121.67 85.93 121.77 86.48H119.83L119.67 85.5H119.62C119.11 86.19 118.22 86.68 117.1 86.68C115.38 86.68 114.42 85.39 114.42 84.04C114.42 81.82 116.33 80.67 119.48 80.69V80.54C119.48 79.96 119.25 78.99 117.75 78.99C116.91 78.99 116.03 79.26 115.46 79.65L115.04 78.19C115.67 77.79 116.77 77.41 118.12 77.41C120.85 77.41 121.64 79.21 121.64 81.16V84.35H121.63ZM119.53 82.15C118.01 82.13 116.55 82.46 116.55 83.81C116.55 84.68 117.09 85.08 117.78 85.08C118.66 85.08 119.27 84.5 119.48 83.86C119.53 83.7 119.53 83.53 119.53 83.37V82.15Z" fill="#1E459D"/>
<path d="M123.29 80.47C123.29 79.27 123.27 78.39 123.22 77.61H125.08L125.17 79.29H125.22C125.64 78.05 126.64 77.41 127.57 77.41C127.78 77.41 127.9 77.43 128.08 77.46V79.55C127.89 79.51 127.69 79.5 127.43 79.5C126.41 79.5 125.7 80.17 125.5 81.19C125.46 81.39 125.45 81.63 125.45 81.86V86.47H123.3V80.46L123.29 80.47Z" fill="#1E459D"/>
<path d="M135.03 86.21C134.57 86.43 133.68 86.67 132.61 86.67C129.95 86.67 128.21 84.89 128.21 82.14C128.21 79.39 129.96 77.42 132.96 77.42C133.75 77.42 134.55 77.6 135.04 77.82L134.65 79.51C134.3 79.33 133.79 79.16 133.02 79.16C131.37 79.16 130.39 80.42 130.41 82.04C130.41 83.86 131.55 84.9 133.02 84.9C133.76 84.9 134.3 84.74 134.72 84.55L135.02 86.21H135.03Z" fill="#1E459D"/>
<path d="M136.01 74.21H138.16V78.82H138.19C138.45 78.4 138.82 78.06 139.26 77.82C139.7 77.56 140.21 77.42 140.75 77.42C142.2 77.42 143.73 78.42 143.73 81.26V86.49H141.58V81.5C141.58 80.23 141.12 79.24 139.93 79.24C139.09 79.24 138.49 79.82 138.25 80.5C138.18 80.7 138.16 80.94 138.16 81.17V86.49H136.01V74.21Z" fill="#1E459D"/>
<path d="M149.26 74.21V86.48H147.11V74.21H149.26Z" fill="#1E459D"/>
<path d="M151.13 80.25C151.13 79.23 151.1 78.37 151.06 77.61H152.93L153.03 78.94H153.08C153.47 78.25 154.39 77.41 155.81 77.41C157.3 77.41 158.84 78.41 158.84 81.22V86.48H156.69V81.47C156.69 80.2 156.23 79.23 155.06 79.23C154.2 79.23 153.61 79.87 153.38 80.54C153.31 80.72 153.28 81 153.28 81.25V86.48H151.13V80.25Z" fill="#1E459D"/>
<path d="M160.45 84.4C160.92 84.71 161.85 85.06 162.62 85.06C163.57 85.06 163.99 84.64 163.99 84.06C163.99 83.48 163.64 83.17 162.59 82.77C160.93 82.19 160.24 81.24 160.24 80.18C160.24 78.61 161.48 77.41 163.46 77.41C164.41 77.41 165.23 77.65 165.74 77.94L165.3 79.51C164.95 79.29 164.25 79 163.5 79C162.75 79 162.31 79.4 162.31 79.95C162.31 80.5 162.71 80.77 163.8 81.19C165.36 81.75 166.06 82.57 166.08 83.89C166.08 85.51 164.87 86.68 162.61 86.68C161.58 86.68 160.65 86.42 160.02 86.06L160.46 84.42V84.4H160.45Z" fill="#1E459D"/>
<path d="M169.69 75.34V77.62H171.74V79.3H169.69V83.22C169.69 84.31 169.97 84.86 170.79 84.86C171.18 84.86 171.39 84.84 171.63 84.77L171.67 86.46C171.35 86.59 170.78 86.7 170.11 86.7C169.3 86.7 168.66 86.43 168.25 85.97C167.78 85.46 167.57 84.64 167.57 83.48V79.31H166.36V77.63H167.57V75.97L169.69 75.35V75.34Z" fill="#1E459D"/>
<path d="M175.05 75.13C175.05 75.79 174.58 76.33 173.82 76.33C173.06 76.33 172.63 75.78 172.63 75.13C172.63 74.44 173.12 73.91 173.84 73.91C174.56 73.91 175.03 74.44 175.05 75.13ZM172.76 86.48V77.61H174.91V86.48H172.76Z" fill="#1E459D"/>
<path d="M179.09 75.34V77.62H181.14V79.3H179.09V83.22C179.09 84.31 179.37 84.86 180.19 84.86C180.58 84.86 180.79 84.84 181.03 84.77L181.07 86.46C180.75 86.59 180.18 86.7 179.51 86.7C178.7 86.7 178.06 86.43 177.65 85.97C177.18 85.46 176.97 84.64 176.97 83.48V79.31H175.76V77.63H176.97V75.97L179.09 75.35V75.34Z" fill="#1E459D"/>
<path d="M189.79 83.82C189.79 84.88 189.83 85.75 189.86 86.48H187.99L187.89 85.15H187.84C187.47 85.77 186.63 86.68 185.09 86.68C183.55 86.68 182.13 85.71 182.13 82.82V77.61H184.28V82.44C184.28 83.91 184.74 84.86 185.87 84.86C186.75 84.86 187.31 84.24 187.52 83.66C187.61 83.48 187.64 83.22 187.64 82.97V77.62H189.79V83.83V83.82Z" fill="#1E459D"/>
<path d="M193.98 75.34V77.62H196.03V79.3H193.98V83.22C193.98 84.31 194.26 84.86 195.08 84.86C195.47 84.86 195.68 84.84 195.92 84.77L195.95 86.46C195.63 86.59 195.06 86.7 194.39 86.7C193.58 86.7 192.94 86.43 192.53 85.97C192.06 85.46 191.85 84.64 191.85 83.48V79.31H190.64V77.63H191.85V75.97L193.97 75.35L193.98 75.34Z" fill="#1E459D"/>
<path d="M198.46 82.67C198.51 84.27 199.7 84.96 201.09 84.96C202.09 84.96 202.79 84.8 203.45 84.56L203.77 86.09C203.03 86.42 202.02 86.65 200.79 86.65C198.02 86.65 196.39 84.88 196.39 82.17C196.39 79.71 197.83 77.4 200.56 77.4C203.29 77.4 204.24 79.77 204.24 81.72C204.24 82.14 204.21 82.47 204.17 82.67H198.46ZM202.21 81.11C202.23 80.29 201.88 78.94 200.44 78.94C199.11 78.94 198.55 80.2 198.46 81.11H202.21Z" fill="#1E459D"/>
<path d="M3.9798 74.63H0.0498047V71.85H11.2898V74.63H7.2998V86.48H3.9798V74.63Z" fill="#1E459D"/>
<path d="M17.1098 86.48L16.9098 85.42H16.8398C16.1498 86.27 15.0598 86.72 13.7998 86.72C11.6498 86.72 10.3698 85.16 10.3698 83.46C10.3698 80.7 12.8398 79.38 16.5998 79.4V79.25C16.5998 78.69 16.2998 77.88 14.6698 77.88C13.5798 77.88 12.4298 78.25 11.7398 78.68L11.1298 76.55C11.8698 76.14 13.3198 75.62 15.2498 75.62C18.7898 75.62 19.9198 77.71 19.9198 80.2V83.89C19.9198 84.91 19.9598 85.89 20.0698 86.47H17.0998H17.1098V86.48ZM16.5198 71.24L18.6698 74.54H16.5198L15.4398 72.65H15.3998L14.2898 74.54H12.1398L14.3098 71.24H16.5198ZM16.7198 81.47C14.9798 81.45 13.6398 81.86 13.6398 83.14C13.6398 83.99 14.1998 84.4 14.9398 84.4C15.7598 84.4 16.4398 83.86 16.6498 83.18C16.6898 83.01 16.7098 82.81 16.7098 82.62V81.47H16.7198Z" fill="#1E459D"/>
<path d="M22.0998 79.25C22.0998 77.93 22.0598 76.8 22.0098 75.86H24.7898L24.9398 77.29H24.9998C25.4598 76.62 26.3898 75.62 28.2098 75.62C29.5798 75.62 30.6598 76.32 31.1198 77.42H31.1598C31.5498 76.88 32.0298 76.44 32.5298 76.14C33.1198 75.79 33.7698 75.62 34.5498 75.62C36.5898 75.62 38.1298 77.05 38.1298 80.22V86.47H34.9198V80.7C34.9198 79.16 34.4198 78.27 33.3598 78.27C32.5998 78.27 32.0598 78.79 31.8398 79.42C31.7498 79.66 31.7098 80.01 31.7098 80.27V86.48H28.4998V80.53C28.4998 79.19 28.0198 78.27 26.9798 78.27C26.1298 78.27 25.6298 78.92 25.4398 79.46C25.3298 79.72 25.3098 80.02 25.3098 80.28V86.47H22.0998V79.24V79.25Z" fill="#1E459D"/>
<path d="M45.9398 82.72L44.8998 86.48H41.4698L45.9398 71.85H50.2798L54.8198 86.48H51.2598L50.1298 82.72H45.9398ZM49.6498 80.25L48.7398 77.15C48.4798 76.28 48.2198 75.2 47.9998 74.33H47.9598C47.7398 75.2 47.5298 76.31 47.2898 77.15L46.4198 80.25H49.6498Z" fill="#1E459D"/>
<path d="M55.8598 79.25C55.8598 77.93 55.8198 76.8 55.7698 75.86H58.6298L58.7798 77.31H58.8398C59.2698 76.64 60.3598 75.62 62.1198 75.62C64.2898 75.62 65.9198 77.05 65.9198 80.18V86.48H62.6198V80.6C62.6198 79.23 62.1398 78.3 60.9498 78.3C60.0398 78.3 59.4998 78.93 59.2798 79.54C59.1898 79.74 59.1498 80.06 59.1498 80.37V86.49H55.8498V79.26L55.8598 79.25Z" fill="#1E459D"/>
<path d="M68.1498 71.85H71.4498V77.13H71.4898C71.8398 76.67 72.2698 76.33 72.7898 76.04C73.2698 75.78 73.8998 75.63 74.4998 75.63C76.6098 75.63 78.2098 77.09 78.2098 80.28V86.49H74.9098V80.65C74.9098 79.26 74.4298 78.31 73.1998 78.31C72.3298 78.31 71.7898 78.87 71.5498 79.46C71.4598 79.68 71.4398 79.96 71.4398 80.2V86.49H68.1398V71.86H68.1498V71.85Z" fill="#1E459D"/>
<path d="M84.55 30.95C84.55 25.46 84.29 19.9 84.11 15.94H95.77L96.4 22.84H96.67C98.57 19.96 102.55 15.82 110.05 15.82C115.83 15.82 120.26 18.79 122.16 23.38H122.34C124.06 21.04 125.96 19.24 128.12 17.98C130.56 16.63 133.27 15.82 136.53 15.82C145.03 15.82 151.44 21.76 151.44 35V60.93H138.06V36.98C138.06 30.59 135.98 26.9 131.55 26.9C128.3 26.9 126.13 29.06 125.13 31.67C124.86 32.66 124.68 34.01 124.68 35.18V60.93H111.3V36.17C111.3 30.68 109.31 26.9 104.88 26.9C101.35 26.9 99.28 29.6 98.46 31.76C98.01 32.84 97.92 34.1 97.92 35.27V60.93H84.54V30.95H84.55Z" fill="#5B499E"/>
<path d="M158.27 31.4C158.27 24.92 158.09 19.72 157.82 15.94H169.57L170.2 25.01H170.56C172.82 18.53 178.06 15.92 182.4 15.92C183.67 15.92 184.3 16.01 185.29 16.19L185.38 28.97C184.3 28.79 183.21 28.61 181.67 28.61C176.61 28.61 173.17 31.31 172.27 35.54C172.09 36.44 172 37.52 172 38.6V60.93H158.26V31.4H158.27Z" fill="#5B499E"/>
<path d="M204.43 6.84C204.43 10.62 201.63 13.68 197.02 13.68C192.68 13.68 189.88 10.62 189.88 6.84C189.88 3.06 192.77 0 197.2 0C201.63 0 204.34 2.97 204.43 6.84ZM190.24 60.93V15.94H203.98V60.93H190.24Z" fill="#5B499E"/>
<path d="M63.21 27C61.55 25.75 59.33 25.12 56.61 25.12C52.21 25.12 48.76 26.17 44.99 28.05L45.85 29.77C49.1 27.92 52.6 27.17 56.62 27.17C58.89 27.17 60.69 27.66 61.99 28.64C63.21 29.56 63.69 30.5 63.69 32.01V60.99H65.74V32.01C65.74 29.85 64.96 28.3 63.22 27H63.21Z" fill="#1E469D"/>
<path d="M51.17 42.73C50.1 43.73 49.54 44.99 49.54 46.39C49.54 48.08 50.14 49.51 51.28 50.53C52.46 51.59 54.16 51.95 56.18 51.95C56.63 51.95 57.09 51.92 57.57 51.87C60.05 51.59 62.01 50.46 63.68 49.38V47.26C62 48.5 59.95 49.72 57.3 50.02C55.29 50.25 53.63 49.89 52.65 49.01C51.95 48.38 51.59 47.5 51.59 46.39C51.59 45.55 51.91 44.85 52.57 44.23C54.34 42.57 58.38 41.8 63.68 42.09V40.22C57.72 39.91 53.4 40.65 51.17 42.74V42.73Z" fill="#1E469D"/>
<path d="M43.18 56.09C43.18 56.09 43.1 56.03 43.06 56L42.99 55.95C41.51 54.66 40.62 53.14 40.08 51.79L38.2 52.64C38.76 54.04 39.63 55.51 40.97 56.82C41.4 57.26 41.81 57.61 42.17 57.88C44.95 59.89 48.43 60.9 52.5 60.9C56.99 60.9 60.74 59.83 63.69 57.74V55.12C60.95 57.6 57.19 58.85 52.5 58.85C48.77 58.85 45.64 57.92 43.19 56.08L43.18 56.09Z" fill="#1E469D"/>
<path d="M57.73 32.06C52.2 32.06 47.58 33.2 44.01 35.45C40.64 37.54 38.51 40.34 37.64 43.8C37.42 44.68 37.26 45.62 37.21 46.58V46.62C37.21 46.62 37.12 47.54 37.27 48.91L39.26 48.03V47.55C39.26 43.01 41.17 39.62 45.1 37.19C48.35 35.15 52.6 33.96 57.74 33.96C60.43 33.96 62.42 34.11 63.69 34.25V32.34C62.35 32.2 60.35 32.06 57.74 32.06H57.73Z" fill="#1E469D"/>
<path d="M17.64 31.82V6.36H15.59V31.82H17.64Z" fill="#5B499E"/>
<path d="M17.64 34.46H15.59V43.06H17.64V34.46Z" fill="black"/>
<path d="M26.06 55.1C17.77 54.09 17.65 43.88 17.65 42.9V6.36H15.6V43.51C15.6 44.56 16.09 55.84 25.81 57.13C26.61 57.24 27.39 57.27 28.16 57.27C32.92 57.27 36.99 55.57 39.16 54.45C38.83 53.9 38.51 53.29 38.23 52.61C35.94 53.78 31.24 55.72 26.06 55.09V55.1Z" fill="#EB0D8C"/>
<path d="M35.42 53.85C32.94 54.76 29.61 55.54 26.06 55.1C20.85 54.46 18.87 50.2 18.11 46.88L16.06 47.14C16.91 50.89 19.28 56.27 25.81 57.13C26.61 57.24 27.39 57.27 28.16 57.27C31.26 57.27 34.07 56.55 36.24 55.74L35.42 53.84V53.85Z" fill="black"/>
<path d="M26.06 55.1C17.77 54.09 17.65 43.88 17.65 42.9V6.36H15.6V43.51C15.6 44.56 16.09 55.84 25.81 57.13C26.61 57.24 27.39 57.27 28.16 57.27C32.92 57.27 36.99 55.57 39.16 54.45C38.83 53.9 38.51 53.29 38.23 52.61C35.94 53.78 31.24 55.72 26.06 55.09V55.1Z" fill="#1E469D"/>
<path d="M74.01 21.15C70.57 17.01 65.29 14.91 58.32 14.91C55.95 14.91 53.51 15.24 51.13 15.79C51.07 15.8 51.01 15.82 50.95 15.83C50.82 15.86 50.68 15.89 50.55 15.93C50.46 15.95 50.36 15.98 50.27 16C49.79 16.12 49.31 16.25 48.84 16.39C48.76 16.41 48.68 16.44 48.6 16.46C48.1 16.61 47.6 16.77 47.11 16.93C45.5 17.47 44.04 18.06 42.62 18.81C41.78 19.25 41.09 20.36 41.54 21.24L41.66 21.49C43.89 20.31 46.62 19.16 49.53 18.32C49.77 18.25 50.01 18.18 50.25 18.12C50.31 18.1 50.36 18.09 50.42 18.07C50.6 18.02 50.79 17.98 50.97 17.93C53.4 17.32 55.92 16.95 58.34 16.95C64.67 16.95 69.42 18.8 72.45 22.44C74.93 25.49 76.19 29.74 76.19 35.07V60.81H78.24V35.07C78.24 29.25 76.83 24.57 74.03 21.14H74.01V21.15Z" fill="#1E469D"/>
<path d="M35.07 28.45H35.73C36.49 28.45 37.12 27.83 37.12 27.06V15.97H35.07V28.45Z" fill="#1E469D"/>
<path d="M2.05 15.97H0V28.39H2.05V15.97Z" fill="#1E469D"/>
<path d="M9.84 15.97H7.79V28.39H9.84V15.97Z" fill="#5B499E"/>
<path d="M29.33 15.97H27.28V28.39H29.33V15.97Z" fill="#5B499E"/>
<path d="M37.22 46.62L36.83 46.84C36.83 46.84 33.55 48.65 29.63 48.34C25.71 48.03 25.43 43.22 25.43 41.38V18.49H23.38V41.71C23.38 44.57 24.57 49.96 29.45 50.38C29.85 50.41 30.24 50.43 30.62 50.43C33.69 50.43 36.2 49.42 37.28 48.9C37.19 48.07 37.19 47.29 37.22 46.61V46.62Z" fill="#1E469D"/>
<path d="M19.65 56.85C13.5 53 13.74 42.12 13.75 41.98V28.38H11.7V41.95C11.69 42.44 11.41 54.12 18.57 58.59C21.22 60.25 24.3 60.91 27.39 60.91C32.53 60.91 37.74 59.05 40.96 56.95C40.53 56.51 40.08 55.98 39.64 55.36C35.34 58.03 26.07 60.86 19.67 56.86H19.65V56.85Z" fill="#1E469D"/>
<path d="M5.94 15.97H3.89V20.43H5.94V15.97Z" fill="#5B499E"/>
<path d="M5.94 22.21H3.89V28.39H5.94V22.21Z" fill="#EB0D8C"/>
<path d="M33.22 23.01H31.17V28.39H33.22V23.01Z" fill="#5B499E"/>
<path d="M33.22 15.97H31.17V21.23H33.22V15.97Z" fill="#EB0D8C"/>
<path d="M25.43 6.36H23.38V15.96H25.43V6.36Z" fill="#1E469D"/>
<path d="M21.54 15.97H19.49V37.73H21.54V15.97Z" fill="#1E469D"/>
<path d="M21.54 6.36H19.49V14.16H21.54V6.36Z" fill="#EB0D8C"/>
<path d="M39.38 49.08C37.6 50.09 32.91 52.09 29.43 51.92V53.97H29.49C32.72 53.97 36.05 52.71 39.76 50.89C39.62 50.46 39.43 49.69 39.37 49.07L39.38 49.08Z" fill="#EB0D8C"/>
<path d="M61.65 54.39C59.49 55.53 57.14 56.04 54.19 56.12C51.14 56.18 48.52 55.3 46.57 53.9C46.54 53.87 46.5 53.85 46.47 53.82L46.42 53.78C44.69 52.33 43.94 50.5 43.62 49.23L41.73 50.08C42.18 51.64 43.13 53.71 45.12 55.37C45.12 55.37 45.14 55.39 45.15 55.4L45.21 55.44C45.21 55.44 45.32 55.52 45.37 55.56C47.6 57.16 50.22 57.8 53.54 57.8H53.99C56.81 57.73 59.43 57.11 61.66 56.03V54.4H61.65V54.39Z" fill="black"/>
<path d="M58.73 34.79C54.2 34.81 50.37 35.6 47.35 37.31C43.34 39.58 41.31 42.9 41.31 47.16C41.31 47.4 41.31 47.64 41.33 47.89C41.38 48.65 41.78 52.59 45.12 55.36C45.12 55.36 45.14 55.38 45.15 55.39L45.21 55.43C45.21 55.43 45.32 55.51 45.37 55.55C47.6 57.15 50.22 57.79 53.54 57.79H53.99C57.71 57.7 61.08 56.66 63.68 54.85V53.11C60.94 55.17 58.08 56.03 54.19 56.13C51.14 56.19 48.52 55.31 46.57 53.91C46.54 53.88 46.5 53.86 46.47 53.83L46.42 53.79C43.75 51.55 43.42 48.39 43.38 47.79C43.38 47.59 43.36 47.39 43.36 47.18C43.36 43.66 44.91 40.91 48.24 38.97C50.94 37.4 53.48 36.46 58.74 36.46C60.85 36.46 62.45 36.52 63.68 36.56V35.02C62.54 34.91 60.86 34.8 58.73 34.81V34.79Z" fill="#5B499E"/>
<path d="M58.73 34.79C55.99 34.79 53.52 35.1 51.31 35.7L52.09 37.22C53.81 36.71 55.87 36.43 58.73 36.43C60.84 36.43 62.42 36.57 63.67 36.68V34.99C62.53 34.88 60.85 34.77 58.72 34.78H58.73V34.79Z" fill="black"/>
<path d="M58.73 34.79C54.2 34.81 50.37 35.6 47.35 37.31C43.34 39.58 41.31 42.9 41.31 47.16C41.31 47.4 41.31 47.64 41.33 47.89C41.38 48.65 41.78 52.59 45.12 55.36C45.12 55.36 45.14 55.38 45.15 55.39L45.21 55.43C45.21 55.43 45.32 55.51 45.37 55.55C47.6 57.15 50.22 57.79 53.54 57.79H53.99C57.71 57.7 61.08 56.66 63.68 54.85V53.11C60.94 55.17 58.08 56.03 54.19 56.13C51.14 56.19 48.52 55.31 46.57 53.91C46.54 53.88 46.5 53.86 46.47 53.83L46.42 53.79C43.75 51.55 43.42 48.39 43.38 47.79C43.38 47.59 43.36 47.39 43.36 47.18C43.36 43.66 44.91 40.91 48.24 38.97C50.94 37.4 53.48 36.46 58.74 36.46C60.85 36.46 62.45 36.67 63.68 36.71V35.02C62.54 34.91 60.86 34.8 58.73 34.81V34.79Z" fill="#5B499E"/>
<path d="M49.24 36.41C48.58 36.68 47.95 36.98 47.35 37.32C43.34 39.59 41.31 42.91 41.31 47.17C41.31 47.41 41.31 47.65 41.33 47.9V48.03L43.35 47.1C43.37 43.62 44.93 40.9 48.23 38.97C48.83 38.62 49.43 38.3 50.05 38.01L49.23 36.42L49.24 36.41Z" fill="black"/>
<path d="M58.73 34.79C54.2 34.81 50.37 35.6 47.35 37.31C43.34 39.58 41.31 42.9 41.31 47.16C41.31 47.4 41.31 47.64 41.33 47.89C41.38 48.65 41.78 52.59 45.12 55.36C45.12 55.36 45.14 55.38 45.15 55.39L45.21 55.43C45.21 55.43 45.32 55.51 45.37 55.55C47.6 57.15 50.22 57.79 53.54 57.79H53.99C57.71 57.7 61.08 56.66 63.68 54.85V53.11C60.94 55.17 58.08 56.03 54.19 56.13C51.14 56.19 48.52 55.31 46.57 53.91C46.54 53.88 46.5 53.86 46.47 53.83L46.42 53.79C43.75 51.55 43.42 48.39 43.38 47.79C43.38 47.59 43.36 47.39 43.36 47.18C43.36 43.66 44.91 40.91 48.24 38.97C50.94 37.4 53.48 36.46 58.74 36.46C60.85 36.46 62.45 36.67 63.68 36.71V35.02C62.54 34.91 60.86 34.8 58.73 34.81V34.79Z" fill="#1E469D"/>
<path d="M53.97 53.07L53.74 54.92C54.12 54.95 54.51 54.96 54.9 54.96C55.21 54.96 55.52 54.96 55.83 54.93C58.7 54.76 61.37 53.95 63.68 52.42V50.47C61.86 52.08 59.12 52.92 55.69 53.1C55.09 53.13 54.51 53.12 53.97 53.06V53.07Z" fill="black"/>
<path d="M59.77 37.54C56.21 37.58 53.14 37.99 50.72 39.17C47.26 40.86 45.43 43.49 45.43 46.77C45.43 46.96 45.43 47.15 45.45 47.35C45.49 47.96 45.82 51.11 48.61 53.24C48.61 53.24 48.63 53.26 48.64 53.27L48.82 53.39C50.48 54.48 52.53 54.96 54.9 54.96C55.21 54.96 55.52 54.96 55.83 54.93C58.7 54.76 61.37 53.95 63.68 52.42V50.47C61.86 52.08 59.12 52.92 55.69 53.1C53.36 53.22 51.44 52.66 49.94 51.68L49.82 51.6C47.71 49.98 47.5 47.5 47.48 47.23C47.48 47.08 47.48 46.93 47.48 46.77C47.48 44.25 48.68 42.22 51.47 40.86C53.61 39.82 55.74 39.06 59.76 39.06C61.3 39.06 62.59 39.12 63.69 39.21V37.65C62.55 37.63 61.32 37.53 59.78 37.54H59.77Z" fill="#1E469D"/>
<path d="M51.76 52.58C51.1 52.35 50.49 52.04 49.94 51.68L49.82 51.6C47.71 49.98 47.5 47.5 47.48 47.23C47.48 47.08 47.48 46.93 47.48 46.77C47.48 44.25 48.68 42.22 51.47 40.86C52.8 40.21 54.12 39.68 55.89 39.36L55.79 37.78C53.89 38.02 52.19 38.45 50.73 39.16C47.27 40.85 45.44 43.48 45.44 46.76C45.44 46.95 45.44 47.14 45.46 47.34C45.5 47.95 45.83 51.1 48.62 53.23C48.62 53.23 48.64 53.25 48.65 53.26L48.83 53.38C49.6 53.89 50.45 54.26 51.38 54.51L51.78 52.57H51.77L51.76 52.58Z" fill="black"/>
<path d="M59.77 37.54C56.21 37.58 53.14 37.99 50.72 39.17C47.26 40.86 45.43 43.49 45.43 46.77C45.43 46.96 45.43 47.15 45.45 47.35C45.49 47.96 45.82 51.11 48.61 53.24C48.61 53.24 48.63 53.26 48.64 53.27L48.82 53.39C50.48 54.48 52.53 54.96 54.9 54.96C55.21 54.96 55.52 54.96 55.83 54.93C58.7 54.76 61.37 53.95 63.68 52.42V50.47C61.86 52.08 59.12 52.92 55.69 53.1C53.36 53.22 51.44 52.66 49.94 51.68L49.82 51.6C47.71 49.98 47.5 47.5 47.48 47.23C47.48 47.08 47.48 46.93 47.48 46.77C47.48 44.25 48.68 42.22 51.47 40.86C53.61 39.82 55.74 39.06 59.76 39.06C61.3 39.06 62.59 39.12 63.69 39.21V37.65C62.55 37.63 61.32 37.53 59.78 37.54H59.77Z" fill="#EB0D8C"/>
<path d="M59.77 37.54C58.92 37.54 58.11 37.58 57.32 37.64L57.41 39.16C58.12 39.1 58.89 39.06 59.75 39.06C61.29 39.06 62.58 39.12 63.68 39.21V37.65C62.54 37.63 61.31 37.53 59.77 37.54Z" fill="black"/>
<path d="M59.77 37.54C56.21 37.58 53.14 37.99 50.72 39.17C47.26 40.86 45.43 43.49 45.43 46.77C45.43 46.96 45.43 47.15 45.45 47.35C45.49 47.96 45.82 51.11 48.61 53.24C48.61 53.24 48.63 53.26 48.64 53.27L48.82 53.39C50.48 54.48 52.53 54.96 54.9 54.96C55.21 54.96 55.52 54.96 55.83 54.93C58.7 54.76 61.37 53.95 63.68 52.42V50.47C61.86 52.08 59.12 52.92 55.69 53.1C53.36 53.22 51.44 52.66 49.94 51.68L49.82 51.6C47.71 49.98 47.5 47.5 47.48 47.23C47.48 47.08 47.48 46.93 47.48 46.77C47.48 44.25 48.68 42.22 51.47 40.86C53.61 39.82 55.74 39.06 59.76 39.06C61.3 39.06 62.59 39.12 63.69 39.21V37.65C62.55 37.63 61.32 37.53 59.78 37.54H59.77Z" fill="#5B499E"/>
<path d="M13.74 6.36H11.69V26.78H13.74V6.36Z" fill="#1E469D"/>
<path d="M27.38 51.67C21.04 50.03 21.54 41.09 21.54 40.95V39.78H19.49V41.29C19.49 46.02 20.61 52.45 27.38 53.77V51.67Z" fill="black"/>
<path d="M39.38 49.08C37.56 49.99 32.63 52.39 28.35 51.85C20.99 50.92 21.54 41.1 21.54 40.94V6.36H19.49V41.29C19.49 46.18 20.69 52.88 28.07 53.88C28.54 53.94 29.01 53.97 29.49 53.97C33.61 53.97 37.88 51.8 39.76 50.89C39.76 50.89 39.43 49.83 39.37 49.07L39.38 49.08Z" fill="#5B499E"/>
<path d="M39.38 49.08C37.71 49.92 33.43 52 29.43 51.92V53.97H29.49C33.61 53.97 37.88 51.8 39.76 50.89C39.76 50.89 39.43 49.83 39.37 49.07L39.38 49.08Z" fill="black"/>
<path d="M39.38 49.08C37.56 49.99 32.63 52.39 28.35 51.85C20.99 50.92 21.54 41.1 21.54 40.94V6.36H19.49V41.29C19.49 46.18 20.69 52.88 28.07 53.88C28.54 53.94 29.01 53.97 29.49 53.97C33.61 53.97 37.88 51.8 39.76 50.89C39.76 50.89 39.43 49.83 39.37 49.07L39.38 49.08Z" fill="#1E469D"/>
<path d="M74.06 40.34H72.01V54.52H74.06V40.34Z" fill="#1E469D"/>
<path d="M74.06 56.54H72.01V61H74.06V56.54Z" fill="#5B499E"/>
<path d="M55.48 18.51C49.83 19.1 43.58 21.69 42.17 22.55L42.93 24.1C44.05 23.57 49.02 20.88 55.65 20.29L55.48 18.51Z" fill="black"/>
<path d="M57.66 18.38C51.55 18.38 43.76 21.57 42.17 22.54L42.93 24.09C44.16 23.51 50.04 20.31 57.67 20.17C62.27 20.08 65.8 21.22 68.17 23.54C70.69 26.01 72.01 29.91 72.01 35.09V60.99H74.06V35.09C74.06 29.32 72.53 24.94 69.61 22.07C66.84 19.35 62.83 18.37 57.67 18.37H57.66V18.38Z" fill="#1E469D"/>
<path d="M72.01 37.26H74.06V35.1C74.06 29.33 72.53 24.95 69.61 22.08C66.94 19.46 63.12 18.46 58.23 18.39L58.4 20.18C62.65 20.22 65.94 21.35 68.18 23.55C70.7 26.02 72.02 29.92 72.02 35.1V37.26H72.01Z" fill="#5B499E"/>
<path d="M72.01 37.26H74.06V35.1C74.06 29.33 72.53 24.95 69.61 22.08C66.94 19.46 63.12 18.46 58.23 18.39L58.4 20.18C62.65 20.22 65.94 21.35 68.18 23.55C70.7 26.02 72.02 29.92 72.02 35.1V37.26H72.01Z" fill="black"/>
<path d="M57.66 18.38C51.55 18.38 43.76 21.57 42.17 22.54L42.93 24.09C44.16 23.51 50.04 20.31 57.67 20.17C62.27 20.08 65.8 21.22 68.17 23.54C70.69 26.01 72.01 29.91 72.01 35.09V60.99H74.06V35.09C74.06 29.32 72.53 24.94 69.61 22.07C66.84 19.35 62.83 18.37 57.67 18.37H57.66V18.38Z" fill="#5B499E"/>
<path d="M69.89 47.5V34C69.89 32.68 69.76 31.47 69.52 30.36L67.54 30.78C67.74 31.76 67.84 32.83 67.84 33.99V47.49H69.89V47.5Z" fill="black"/>
<path d="M57.22 21.71H57.18C51.33 21.71 45.11 24.45 43.56 25.33L44.38 26.93C45.62 26.23 50.78 23.66 56.84 23.56C60.94 23.49 63.52 24.43 65.22 26.13C66.9 27.81 67.84 30.49 67.84 34.01V61H69.89V34.01C69.89 29.92 68.66 26.87 66.58 24.79C64.47 22.69 61.46 21.71 57.22 21.71Z" fill="#1E469D"/>
<path d="M48.82 23.17C46.31 23.97 44.34 24.89 43.56 25.33L44.38 26.93C45.05 26.55 46.88 25.62 49.38 24.83L48.83 23.17H48.82Z" fill="black"/>
<path d="M57.22 21.71H57.18C51.33 21.71 45.11 24.45 43.56 25.33L44.38 26.93C45.62 26.23 50.78 23.66 56.84 23.56C60.94 23.49 63.52 24.43 65.22 26.13C66.9 27.81 67.84 30.49 67.84 34.01V61H69.89V34.01C69.89 29.92 68.66 26.87 66.58 24.79C64.47 22.69 61.46 21.71 57.22 21.71Z" fill="#5B499E"/>
<path d="M69.89 49.6H67.84V61H69.89V49.6Z" fill="#EB0D8C"/>
<path d="M68.56 27.58C68.04 26.5 67.37 25.57 66.58 24.78C64.47 22.68 61.46 21.7 57.22 21.7H57.18C54.9 21.7 52.57 22.12 50.48 22.67L50.91 24.38C52.69 23.92 54.7 23.58 56.84 23.54C60.94 23.47 63.52 24.41 65.22 26.11C65.78 26.67 66.25 27.34 66.64 28.11C67.23 27.94 68 27.72 68.56 27.57V27.58Z" fill="black"/>
<path d="M57.22 21.71H57.18C51.33 21.71 45.11 24.45 43.56 25.33L44.38 26.93C45.62 26.23 50.78 23.66 56.84 23.56C60.94 23.49 63.52 24.43 65.22 26.13C66.9 27.81 67.84 30.49 67.84 34.01V61H69.89V34.01C69.89 29.92 68.66 26.87 66.58 24.79C64.47 22.69 61.46 21.71 57.22 21.71Z" fill="#EB0D8C"/>
</g>
<defs>
<clipPath id="clip0_1312_12892">
<rect width="205" height="87" fill="white"/>
</clipPath>
</defs>
</svg>
