<svg width="251" height="87" viewBox="0 0 251 87" fill="none" xmlns="http://www.w3.org/2000/svg">
<g clip-path="url(#clip0_1312_12980)">
<path d="M119.441 20.4099H112.521V15.5099H132.341V20.4099H125.301V41.2999H119.441V20.4099Z" fill="#317EC2"/>
<path d="M142.591 41.2999L142.251 39.4299H142.131C140.911 40.9199 138.991 41.7299 136.771 41.7299C132.981 41.7299 130.731 38.9699 130.731 35.9899C130.731 31.1299 135.091 28.7999 141.711 28.8299V28.5599C141.711 27.5599 141.171 26.1499 138.311 26.1499C136.401 26.1499 134.371 26.7999 133.141 27.5699L132.071 23.8199C133.371 23.0899 135.931 22.1699 139.341 22.1699C145.581 22.1699 147.561 25.8499 147.561 30.2399V36.7399C147.561 38.5399 147.641 40.2599 147.831 41.2899H142.591V41.2999ZM141.561 14.4399L145.351 20.2499H141.561L139.651 16.9199H139.571L137.621 20.2499H133.831L137.661 14.4399H141.561ZM141.901 32.4599C138.841 32.4199 136.471 33.1499 136.471 35.4099C136.471 36.8999 137.471 37.6299 138.771 37.6299C140.221 37.6299 141.411 36.6699 141.791 35.4899C141.871 35.1799 141.901 34.8399 141.901 34.4999V32.4599Z" fill="#317EC2"/>
<path d="M151.401 28.5599C151.401 26.2299 151.331 24.2399 151.251 22.5899H156.151L156.421 25.1199H156.531C157.341 23.9299 158.981 22.1699 162.191 22.1699C164.601 22.1699 166.511 23.3999 167.321 25.3499H167.401C168.091 24.3899 168.931 23.6299 169.811 23.0899C170.841 22.4799 171.991 22.1699 173.371 22.1699C176.971 22.1699 179.681 24.6999 179.681 30.2799V41.2999H174.021V31.1199C174.021 28.3999 173.141 26.8399 171.261 26.8399C169.921 26.8399 168.971 27.7599 168.581 28.8699C168.431 29.2899 168.351 29.8999 168.351 30.3599V41.2999H162.691V30.8099C162.691 28.4399 161.851 26.8299 160.011 26.8299C158.521 26.8299 157.641 27.9799 157.291 28.9399C157.101 29.3999 157.061 29.9299 157.061 30.3899V41.2999H151.401V28.5599Z" fill="#317EC2"/>
<path d="M193.411 34.6799L191.571 41.2999H185.521L193.401 15.5099H201.051L209.051 41.2999H202.781L200.791 34.6799H193.401H193.411ZM199.951 30.3199L198.341 24.8499C197.881 23.3199 197.421 21.4099 197.041 19.8799H196.961C196.581 21.4099 196.191 23.3599 195.771 24.8499L194.241 30.3199H199.951Z" fill="#317EC2"/>
<path d="M210.901 28.5599C210.901 26.2299 210.821 24.2399 210.751 22.5899H215.801L216.071 25.1499H216.181C216.951 23.9699 218.861 22.1599 221.961 22.1599C225.791 22.1599 228.661 24.6899 228.661 30.1999V41.2999H222.841V30.9299C222.841 28.5199 222.001 26.8799 219.901 26.8799C218.291 26.8799 217.341 27.9899 216.951 29.0599C216.801 29.4099 216.721 29.9799 216.721 30.5199V41.3099H210.901V28.5599Z" fill="#317EC2"/>
<path d="M232.561 15.5099H238.381V24.8099H238.461C239.071 24.0099 239.831 23.3899 240.751 22.8999C241.591 22.4399 242.701 22.1699 243.771 22.1699C247.481 22.1699 250.321 24.7299 250.321 30.3599V41.2999H244.501V31.0099C244.501 28.5599 243.66 26.8799 241.48 26.8799C239.95 26.8799 238.991 27.8799 238.571 28.9099C238.421 29.2899 238.381 29.7899 238.381 30.2099V41.2999H232.561V15.5099Z" fill="#317EC2"/>
<path d="M133.6 63.13H125.28V53.31H119.43V79.1H125.28V68.25H133.6V79.1H139.45V53.31H133.6V63.13Z" fill="#1E469D"/>
<path d="M152.14 59.83C146.06 59.83 142.17 63.76 142.17 69.83C142.17 75.9 146.29 79.52 151.79 79.52C156.83 79.52 161.6 76.37 161.6 69.48H161.61C161.61 63.79 157.87 59.83 152.14 59.83ZM151.94 75.34C149.44 75.34 148.21 72.91 148.21 69.69C148.21 66.92 149.28 64.03 151.94 64.03C154.6 64.03 155.56 66.88 155.56 69.65C155.56 73.07 154.25 75.34 151.94 75.34Z" fill="#1E469D"/>
<path d="M172.49 67.6C170.18 66.79 169.45 66.33 169.45 65.41C169.45 64.49 170.26 63.91 171.68 63.91C173.26 63.91 174.91 64.53 175.76 64.99L176.76 60.95C175.61 60.37 173.68 59.83 171.49 59.83C166.83 59.83 163.83 62.48 163.83 66.02C163.8 68.26 165.3 70.37 169.22 71.68C171.37 72.41 171.95 72.91 171.95 73.87C171.95 74.83 171.18 75.41 169.45 75.41C167.72 75.41 165.49 74.68 164.41 74.02L163.37 78.18C164.79 78.95 166.99 79.53 169.45 79.53C174.84 79.53 177.57 76.95 177.57 73.41C177.53 70.68 176.07 68.83 172.49 67.6Z" fill="#1E469D"/>
<path d="M191.51 59.87C188.77 59.87 186.94 60.95 185.56 62.91H185.48L185.21 60.29H180.13C180.2 62.06 180.28 64.14 180.28 66.6H180.29V86.72H186.14V77.37H186.22C187.07 78.61 188.51 79.53 190.78 79.53C194.97 79.53 199.04 76.3 199.04 69.45C199.04 63.45 195.63 59.87 191.51 59.87ZM189.35 75.02C187.66 75.02 186.63 73.83 186.25 72.25C186.17 71.87 186.13 71.48 186.13 71.02V68.44C186.13 68.09 186.17 67.71 186.25 67.4C186.64 65.67 187.78 64.44 189.43 64.44C192.04 64.44 193.11 66.71 193.11 69.71C193.11 72.9 191.89 75.02 189.35 75.02Z" fill="#1E469D"/>
<path d="M204.83 52.14C202.94 52.14 201.71 53.45 201.71 55.06C201.71 56.67 202.9 57.98 204.75 57.98C206.72 57.98 207.91 56.68 207.91 55.06C207.87 53.41 206.72 52.14 204.83 52.14Z" fill="#1E469D"/>
<path d="M207.72 60.29H201.87V79.1H207.72V60.29Z" fill="#1E469D"/>
<path d="M218.23 55.21L212.5 56.79V60.29H210.75V64.6H212.5V72.29C212.5 74.95 213.04 76.75 214.12 77.87C215.08 78.84 216.65 79.49 218.54 79.49C220.16 79.49 221.58 79.26 222.31 78.99L222.27 74.57C221.73 74.68 221.35 74.72 220.54 74.72C218.81 74.72 218.23 73.68 218.23 71.41V64.6H222.42V60.29H218.23V55.21Z" fill="#1E469D"/>
<path d="M241.48 74.64V68.06C241.48 63.59 239.52 59.9 233.25 59.9C229.83 59.9 227.25 60.86 225.94 61.59L227.02 65.36C228.25 64.6 230.29 63.94 232.21 63.94C235.09 63.94 235.63 65.36 235.63 66.4V66.63C228.98 66.63 224.59 68.93 224.59 73.82C224.59 76.82 226.86 79.59 230.67 79.59C232.91 79.59 234.83 78.78 236.06 77.28H236.18L236.53 79.16H241.8C241.57 78.12 241.49 76.39 241.49 74.62V74.64H241.48ZM235.83 72.31C235.83 72.65 235.8 73 235.72 73.31C235.33 74.5 234.1 75.46 232.68 75.46C231.37 75.46 230.37 74.73 230.37 73.23C230.37 71 232.75 70.27 235.83 70.27V72.31Z" fill="#1E469D"/>
<path d="M250.31 53.31H244.46V79.1H250.31V53.31Z" fill="#1E469D"/>
<path d="M98.85 22.35C94.14 16.68 86.95 13.85 77.27 13.85C68.34 13.85 60.59 15.67 53.96 19.24C51.95 20.58 52.72 22.34 53.2 23.55L57.82 33.14C62.86 30.13 68.3 28.63 74.69 28.63C78.35 28.63 81.27 29.49 83.36 31.06C85.45 32.63 86.41 34.43 86.41 37.13V38.44C85.1 38.09 81.44 37.91 75.42 37.91C67.66 37.91 61.3 39.57 56.33 42.88C50.23 46.89 47.17 52.65 47.17 60.14C47.17 60.56 47.2 60.96 47.22 61.37C44.53 62.96 42.02 63.77 39.72 63.77C34.84 63.77 32.4 60.68 32.4 54.49V31.84H40.51C45.32 31.84 46.77 30.12 46.77 26.79H46.78V13.85H32.4V0H13.57V13.85H0V31.84H13.57V53.45V53.43C13.56 70.53 21.32 79.07 36.84 79.07C42.68 79.07 48.1 77.44 53.1 74.21C53.22 74.31 53.32 74.43 53.45 74.53C57.29 77.58 62.08 79.11 67.84 79.11C75.86 79.11 82.05 76.58 86.41 71.52L86.93 79.1H104.58V41.57C104.58 33.46 102.66 27.05 98.83 22.35H98.85ZM86.43 55.18H86.42C86.42 58.23 85.33 60.72 83.15 62.64C80.8 64.73 77.92 65.78 74.52 65.78C68.42 65.78 65.37 63.25 65.37 58.19C65.37 52.52 70.16 49.69 79.76 49.69C81.77 49.69 83.99 49.87 86.43 50.21V55.18Z" fill="#1E469D"/>
</g>
<defs>
<clipPath id="clip0_1312_12980">
<rect width="251" height="87" fill="white"/>
</clipPath>
</defs>
</svg>
