<svg width="250" height="87" viewBox="0 0 361 87" fill="none" xmlns="http://www.w3.org/2000/svg">
<g clip-path="url(#clip0_1312_13002)">
<path d="M115.13 79.7098L89.5 7.98983H108.57L124.27 53.8798L139.46 7.98983H158.22L132.53 79.7098H115.13Z" fill="#2B3990"/>
<path d="M205.81 79.7098L183.04 42.4898V79.7098H165.58V7.98983H183.04L205.81 46.0698V7.98983H223.29V79.7098H205.81Z" fill="#2B3990"/>
<path d="M256.16 79.7098L230.53 7.98983H249.6L265.3 53.8798L280.49 7.98983H299.25L273.56 79.7098H256.16Z" fill="#2B3990"/>
<path d="M329.73 80.8598C309.4 80.8598 296.77 66.8198 296.77 44.2198C296.77 34.0998 299.7 24.8798 305.01 18.2698C311.03 10.7898 319.81 6.82983 330.42 6.82983C349.91 6.82983 358.6 19.0898 360.23 30.5598L342.39 32.8198L342 31.3398C340.4 25.2798 336.46 22.3398 329.96 22.3398C316.95 22.3398 315.55 37.2598 315.55 43.6698C315.55 50.0798 316.99 65.3298 330.35 65.3298C338.27 65.3298 340.8 60.1798 342.02 56.3098L342.46 54.9198L360.29 57.3098C357.15 72.2698 346.02 80.8498 329.74 80.8498L329.73 80.8598Z" fill="#2B3990"/>
<path d="M47.12 59.84C47.25 59.67 47.39 59.5 47.52 59.33C47.56 59.28 47.59 59.23 47.63 59.19C50.24 55.78 52.52 52.12 54.42 48.27C54.47 48.17 54.52 48.08 54.57 47.98C54.57 47.96 54.57 47.95 54.59 47.93C57.23 42.5 59.12 36.67 60.14 30.57C60.93 26.09 61.14 21.87 60.96 17.74C60.96 17.63 60.96 17.53 60.96 17.42C60.96 17.36 60.96 17.3 60.96 17.24C60.7 12.31 59.88 7.51 58.79 2.54L59.33 2.68C61.53 3.24 63.89 3.96 66.53 4.87C69.17 5.78 71.4 6.65 73.54 7.61L74.2 7.91L74.31 8.63C74.64 10.83 74.89 13.4 75.03 16.05C75.1 17.42 75.14 18.79 75.14 20.14C75.14 21.06 75.12 22.03 75.07 23.19C74.24 44.11 64.95 63.61 48.92 78.1C47.32 79.55 45.6 80.98 43.8 82.36C42.05 83.71 40.2 85.02 38.31 86.25L37.59 86.72L36.87 86.25C34.99 85.02 33.14 83.71 31.38 82.36C29.59 80.99 27.87 79.55 26.27 78.1L26.01 77.87C32.72 74.06 40.44 68.46 47.15 59.84H47.12Z" fill="url(#paint0_linear_1312_13002)"/>
<path d="M0.11 23.81C8.57 18.37 19.21 14.75 30.94 13.75C33.12 13.56 35.33 13.45 37.56 13.45C39.79 13.45 41.98 13.55 44.15 13.74C55.89 14.74 66.55 18.36 75.02 23.81L75.05 23C75.08 22.09 75.12 21.02 75.12 19.95C75.12 18.65 75.08 17.32 75.01 15.87C74.88 13.46 74.63 11.03 74.27 8.64L74.16 7.92L73.5 7.62C71.16 6.57 68.78 5.63 66.43 4.82C64.15 4.03 61.75 3.31 59.28 2.69C52.22 0.9 44.91 0 37.57 0C30.23 0 22.92 0.91 15.85 2.69C13.37 3.32 10.97 4.04 8.7 4.82C6.33 5.64 3.96 6.58 1.63 7.62L0.97 7.92L0.86 8.64C0.5 11.01 0.25 13.44 0.12 15.87C0.05 17.24 0.01 18.61 0.01 19.96C0.01 20.88 0.03 21.85 0.08 23.01L0.11 23.81Z" fill="url(#paint1_linear_1312_13002)"/>
<path d="M28 59.84C27.87 59.67 27.73 59.5 27.6 59.33C27.56 59.28 27.53 59.23 27.49 59.19C24.88 55.78 22.6 52.12 20.7 48.27C20.65 48.17 20.6 48.08 20.55 47.98C20.55 47.96 20.54 47.95 20.53 47.93C17.89 42.5 16 36.67 14.98 30.57C14.19 26.09 13.98 21.87 14.16 17.74C14.16 17.63 14.16 17.53 14.17 17.42C14.17 17.36 14.17 17.3 14.18 17.24C14.44 12.31 15.26 7.51 16.35 2.54L15.81 2.68C13.61 3.24 11.25 3.96 8.61 4.87C5.97 5.78 3.74 6.65 1.6 7.61L0.94 7.91L0.83 8.63C0.5 10.83 0.25 13.4 0.11 16.05C0.04 17.42 0 18.79 0 20.14C0 21.06 0.02 22.03 0.07 23.19C0.9 44.11 10.19 63.61 26.22 78.1C27.82 79.55 29.54 80.98 31.34 82.36C33.09 83.71 34.94 85.02 36.83 86.25L37.55 86.72L38.27 86.25C40.15 85.02 42 83.71 43.76 82.36C45.55 80.99 47.27 79.55 48.87 78.1L49.13 77.87C42.42 74.06 34.7 68.46 27.99 59.84H28Z" fill="url(#paint2_linear_1312_13002)"/>
<path d="M53.85 33.26H42.2V21.61H32.91V33.26H21.26V42.55H32.91V54.2H42.2V42.55H53.85V33.26Z" fill="url(#paint3_linear_1312_13002)"/>
</g>
<defs>
<linearGradient id="paint0_linear_1312_13002" x1="517.311" y1="10.023" x2="491.134" y2="214.611" gradientUnits="userSpaceOnUse">
<stop offset="0.02" stop-color="#FFF337"/>
<stop offset="0.09" stop-color="#FCE538"/>
<stop offset="0.39" stop-color="#F5B53E"/>
<stop offset="0.65" stop-color="#EF9242"/>
<stop offset="0.86" stop-color="#EC7D45"/>
<stop offset="1" stop-color="#EB7646"/>
</linearGradient>
<linearGradient id="paint1_linear_1312_13002" x1="-0.0959558" y1="157.858" x2="360.386" y2="157.858" gradientUnits="userSpaceOnUse">
<stop stop-color="#FFF20F"/>
<stop offset="1" stop-color="#EB7533"/>
</linearGradient>
<linearGradient id="paint2_linear_1312_13002" x1="433.603" y1="12.8777" x2="430.438" y2="76.076" gradientUnits="userSpaceOnUse">
<stop stop-color="#FFF20F"/>
<stop offset="0.99" stop-color="#F58220"/>
</linearGradient>
<linearGradient id="paint3_linear_1312_13002" x1="22.2196" y1="24.5202" x2="50.5796" y2="49.2702" gradientUnits="userSpaceOnUse">
<stop offset="0.1" stop-color="#FFF20F"/>
<stop offset="0.99" stop-color="#F58220"/>
</linearGradient>
<clipPath id="clip0_1312_13002">
<rect width="361" height="87" fill="white"/>
</clipPath>
</defs>
</svg>
