<svg xmlns="http://www.w3.org/2000/svg" width="24" height="24" viewBox="0 0 24 24" fill="none">
  <path d="M4.68797 4.48316L14.7435 3.00418C14.8003 2.99579 14.8581 3.00007 14.913 3.01672C14.9681 3.03338 15.019 3.06201 15.0622 3.10068C15.1056 3.13937 15.1403 3.18718 15.1642 3.2409C15.1879 3.29462 15.2002 3.35298 15.2002 3.41203V20.5881C15.2002 20.647 15.1879 20.7053 15.1642 20.759C15.1404 20.8126 15.1058 20.8604 15.0626 20.8991C15.0193 20.9377 14.9685 20.9664 14.9136 20.9831C14.8587 20.9998 14.801 21.0042 14.7443 20.996L4.68717 19.517C4.49647 19.489 4.32198 19.3911 4.19574 19.2412C4.06951 19.0914 4.00001 18.8997 4 18.7013V5.29887C4.00001 5.10047 4.06951 4.90874 4.19574 4.75889C4.32198 4.60905 4.49727 4.51114 4.68797 4.48316ZM16.0002 4.58451H19.2C19.4122 4.58451 19.6157 4.67132 19.7657 4.82584C19.9158 4.98036 20 5.18993 20 5.40846V18.5917C20 18.8102 19.9158 19.0197 19.7657 19.1743C19.6157 19.3288 19.4122 19.4156 19.2 19.4156H16.0002V4.58451ZM10.5605 12.0001L12.8004 8.70426H10.8804L9.60053 10.5878L8.32059 8.70426H6.40068L8.64057 12.0001L6.40068 15.2959H8.32059L9.60053 13.4123L10.8804 15.2959H12.8004L10.5605 12.0001Z" fill="#479A5F"/>
</svg>