<svg width="37" height="36" viewBox="0 0 37 36" fill="none" xmlns="http://www.w3.org/2000/svg">
<path d="M18.5 36C28.7173 36 37 27.9411 37 18C37 8.05887 28.7173 0 18.5 0C8.28273 0 0 8.05887 0 18C0 27.9411 8.28273 36 18.5 36Z" fill="#3B5998"/>
<path fill-rule="evenodd" clip-rule="evenodd" d="M23.4164 11.662C22.8398 11.5498 22.0611 11.466 21.5714 11.466C20.2452 11.466 20.1591 12.027 20.1591 12.9246V14.5225H23.4741L23.1851 17.8323H20.1591V27.9H16.0083V17.8323H13.875V14.5225H16.0083V12.4752C16.0083 9.67077 17.363 8.1 20.7641 8.1C21.9458 8.1 22.8107 8.2683 23.9347 8.49267L23.4164 11.662Z" fill="white"/>
</svg>
