<svg width="45" height="45" viewBox="0 0 62 62" fill="none" xmlns="http://www.w3.org/2000/svg">
<path fill-rule="evenodd" clip-rule="evenodd" d="M26.2984 31.0141V45.5151C26.2984 45.7261 26.4817 45.8965 26.7086 45.8965H32.5026C32.7295 45.8965 32.9127 45.7261 32.9127 45.5151V30.7788H37.1099C37.3194 30.7788 37.4939 30.6246 37.5113 30.4299L37.9127 25.9912C37.9302 25.7721 37.7469 25.5854 37.5113 25.5854H32.9127V22.4369C32.9127 21.6985 33.5585 21.098 34.3525 21.098H37.5899C37.8168 21.098 38 20.9276 38 20.7166V16.2779C38 16.0669 37.8168 15.8965 37.5899 15.8965H32.1187C28.9075 15.8965 26.3072 18.3147 26.3072 21.3009V25.5854H23.4101C23.1832 25.5854 23 25.7558 23 25.9668V30.4055C23 30.6165 23.1832 30.7869 23.4101 30.7869H26.3072V31.0223L26.2984 31.0141Z" fill="white"/>
<path d="M30.8967 0C13.861 0 0 13.861 0 30.8967C0 47.9323 13.861 61.7933 30.8967 61.7933C47.9323 61.7933 61.7933 47.9323 61.7933 30.8967C61.7933 13.861 47.9323 0 30.8967 0ZM57.8271 30.8967C57.8271 45.7472 45.7472 57.8271 30.8967 57.8271C16.0461 57.8271 3.95794 45.7472 3.95794 30.8967C3.95794 16.0461 16.0461 3.96618 30.8967 3.96618C45.7472 3.96618 57.8271 16.0461 57.8271 30.8967Z" fill="white"/>
</svg>
