<svg width="131" height="104" viewBox="0 0 120 88" fill="none" xmlns="http://www.w3.org/2000/svg">
<path d="M119.183 64.15C118.686 63.3175 118.74 62.7217 119.208 61.9027C120.851 59.0343 119.646 55.3528 116.623 54.1165C115.651 53.7187 114.522 53.6022 113.458 53.5615C111.389 53.4819 109.315 53.5557 107.242 53.5498C106.809 53.5498 106.375 53.4722 105.752 53.414C106.679 52.727 107.443 52.1855 108.183 51.613C112.658 48.1547 116.27 44.0035 118.31 38.6277C120.535 32.7667 120.398 26.8068 118.859 20.8313C115.696 8.54274 105.835 1.30776 93.925 0.0171836C92.8839 -0.0953778 92.269 0.347105 92.0453 1.28447C91.8121 2.26259 92.2285 3.06216 93.2194 3.39209C93.8093 3.5881 94.432 3.69872 95.045 3.80352C103.93 5.31922 110.425 9.97693 114.073 18.4152C116.025 22.9331 116.947 27.5986 116.12 32.5164C113.789 46.3634 100.626 55.6264 86.873 53.1112C76.9332 51.2928 69.5401 44.2888 67.1245 35.2916H67.1901C67.1573 35.2567 67.1264 35.2198 67.0956 35.1849C66.2107 31.8235 66.016 28.1886 66.6445 24.443C68.3814 14.0796 74.6603 7.49282 84.5963 4.40126C85.512 4.11597 86.4585 3.92966 87.3704 3.63273C88.2437 3.34939 88.6563 2.62162 88.5213 1.77547C88.3671 0.812876 87.8292 0.321876 86.8595 0.294706C86.4759 0.285002 86.0788 0.271417 85.7086 0.354868C74.562 2.89526 67.1438 9.54609 63.9301 20.6586C62.9084 24.1927 62.4958 27.8451 62.8332 31.5111C60.4871 31.5111 58.5072 31.5111 57.4026 31.5111C57.31 31.5111 57.1751 31.5596 57.1327 31.4665C57.0883 31.3714 57.2175 31.3054 57.2772 31.2336C58.8041 29.3627 59.6889 27.226 59.8489 24.8098C60.0668 21.5184 59.0585 18.6383 56.8146 16.2357C54.9311 14.2193 52.5907 13.0627 49.8513 12.7483C49.7684 12.7386 49.6778 12.7541 49.618 12.6706H47.6093C47.5476 12.7483 47.457 12.7366 47.3741 12.7444C43.9946 13.0646 41.0412 14.361 38.5331 16.6685C37.4015 17.7087 36.4492 18.8965 35.6877 20.2375C35.5759 20.4354 35.5624 20.4354 35.4505 20.2394C34.1069 17.9106 32.2812 16.0611 29.9678 14.7084C28.0323 13.577 25.9464 12.9191 23.7121 12.7405C23.635 12.7347 23.5502 12.7444 23.4943 12.6706H21.5221C21.4681 12.7463 21.3833 12.7386 21.3062 12.7463C16.2476 13.2684 12.1086 17.2371 11.3818 22.2966C10.9403 25.3707 11.6421 28.175 13.4446 30.696C13.6046 30.9192 13.7858 31.1268 13.9574 31.3423C13.9863 31.3791 14.0383 31.4121 14.0133 31.4665C13.9882 31.5208 13.9284 31.5053 13.8822 31.5092C13.8089 31.513 13.7357 31.5092 13.6624 31.5092C9.82606 31.5092 5.99164 31.5092 2.15529 31.5092C1.93552 31.5092 1.71575 31.513 1.50177 31.5635C0.794259 31.7304 0.341223 32.1748 0.107958 32.8599C0.0809681 32.9375 0.0867516 33.0346 0 33.0831V48.7524C0.0732569 48.7951 0.0751847 48.8747 0.0944628 48.9445C0.333512 49.8004 1.04295 50.3418 1.92974 50.3438C2.40398 50.3438 2.88015 50.3438 3.35439 50.3438C3.62943 50.3438 3.76695 50.479 3.76695 50.7494C3.76695 52.2205 3.76695 53.6915 3.76695 55.1626C3.76695 62.9293 3.76887 70.6961 3.76695 78.4628C3.76695 80.5394 4.3318 82.4374 5.55596 84.1103C7.077 86.1888 9.11277 87.4522 11.6459 87.8908C11.7732 87.9121 11.9197 87.883 12.0199 87.9995H67.9342C67.8744 87.9296 67.8204 87.8539 67.7645 87.7802C68.4701 87.9199 69.1892 87.9975 69.8909 87.9975C84.5886 88.0111 99.2862 87.9665 113.984 87.9199C118.763 87.9044 121.319 83.6057 119.077 79.3613C118.719 78.684 118.707 78.1503 119.1 77.4789C120.236 75.5478 120.257 73.5644 119.067 71.647C118.645 70.9658 118.693 70.4535 119.1 69.7917C120.234 67.9461 120.292 66.0073 119.181 64.1481L119.183 64.15ZM37.4516 27.6782C37.4555 25.7297 37.9239 23.8977 38.8955 22.2151C40.7115 19.0711 43.4143 17.1886 46.9789 16.5967C48.3438 16.3696 49.7144 16.3793 51.0388 16.8587C53.6375 17.7999 55.3012 19.6203 55.9393 22.3257C56.7375 25.6987 55.0757 29.1997 52.0008 30.727C50.9868 31.2316 49.9111 31.5014 48.7775 31.5072C46.9808 31.515 45.186 31.5072 43.3893 31.5072C41.5135 31.5072 39.6397 31.5092 37.7639 31.5072C37.4516 31.5072 37.4516 31.5072 37.4516 31.187C37.4516 30.0167 37.4516 28.8465 37.4516 27.6743V27.6782ZM16.664 19.2768C17.9923 17.5787 19.7755 16.6355 21.9231 16.4997C24.4042 16.3425 26.6867 16.9946 28.7475 18.4035C30.9202 19.8882 32.4027 21.9007 33.1969 24.4197C33.5189 25.4425 33.6847 26.4943 33.6885 27.5676C33.6924 28.7863 33.6885 30.007 33.6885 31.2258C33.6885 31.4956 33.6789 31.5072 33.4109 31.5072C31.5236 31.5072 29.6363 31.5072 27.7489 31.5072C25.9406 31.5053 24.1324 31.5189 22.3241 31.5014C19.3225 31.4742 16.5406 29.5257 15.5093 26.6884C14.5357 24.0141 14.9136 21.5106 16.664 19.2729V19.2768ZM33.6924 83.8599C33.6924 84.1135 33.5645 84.2403 33.3087 84.2403C26.6655 84.2403 20.0242 84.2403 13.3809 84.2403C12.2416 84.2403 11.1659 84.0171 10.1962 83.3922C8.53057 82.3171 7.63607 80.7839 7.52811 78.7908C7.5204 78.6433 7.52232 78.4958 7.52232 78.3502C7.52232 69.1551 7.52232 59.962 7.52232 50.7688C7.52232 50.3418 7.47413 50.3438 7.93488 50.3438C16.3864 50.3438 24.836 50.3438 33.2875 50.3438C33.5561 50.3438 33.6905 50.4764 33.6905 50.7416V83.8599H33.6924ZM4.18721 46.5866C3.91346 46.5866 3.77594 46.4514 3.77466 46.181C3.77466 42.6741 3.77466 39.1672 3.77466 35.6623C3.77466 35.4152 3.89932 35.2916 4.14865 35.2916C14.7921 35.2916 25.4375 35.2955 36.0809 35.2955C42.7203 35.2955 53.7166 35.2955 63.4482 35.2955C64.4468 39.5825 66.3939 43.3262 69.1506 46.5904C58.1891 46.5904 43.7132 46.5904 35.5681 46.5904C25.1059 46.5904 14.6456 46.5904 4.18335 46.5904L4.18721 46.5866ZM37.8391 84.2422C37.5782 84.2422 37.4478 84.1122 37.4478 83.8522V50.7358C37.4478 50.477 37.5788 50.3477 37.841 50.3477C46.0535 50.3477 64.1287 50.3477 72.9234 50.3477C73.0333 50.4408 73.1431 50.5359 73.255 50.6271C74.3808 51.5606 75.5201 52.4766 76.8176 53.5363C76.4339 53.5634 76.2932 53.5809 76.1544 53.5809C73.6482 53.5925 71.1421 53.5887 68.6378 53.6139C66.7197 53.6333 65.0155 54.1709 63.8472 55.8282C62.3956 57.8873 62.2491 60.0318 63.5291 62.2326C63.8106 62.7158 63.9995 63.1738 63.6583 63.7192C62.278 65.9238 62.4033 68.1168 63.7528 70.2827C63.959 70.6145 64.015 70.8571 63.772 71.253C62.4534 73.3975 62.2279 75.6177 63.4732 77.898C63.5677 78.0727 63.5619 78.3425 63.5137 78.5462C63.265 79.6001 62.8891 80.6345 62.7387 81.7018C62.6115 82.5965 62.6983 83.4601 62.9681 84.2422C55.2222 84.2422 43.0288 84.2422 37.8372 84.2422H37.8391ZM114.662 84.2228C113.978 84.3393 113.271 84.347 112.575 84.347C105.492 84.3548 98.4091 84.3529 91.3282 84.3529C84.149 84.3548 76.9698 84.3606 69.7926 84.347C69.0755 84.347 68.3429 84.2985 67.6469 84.1452C66.6908 83.9356 66.2647 83.2855 66.2705 82.2879C66.2743 81.2827 66.764 80.5879 67.6874 80.3531C68.0556 80.2599 68.447 80.2191 68.8287 80.2191C83.6439 80.2133 98.4592 80.2133 113.274 80.2191C113.729 80.2191 114.19 80.2599 114.637 80.3395C115.738 80.5355 116.311 81.2128 116.32 82.2724C116.33 83.3243 115.769 84.0385 114.664 84.2248L114.662 84.2228ZM85.645 72.4718C86.0711 72.5359 86.5087 72.5339 86.9424 72.5339C95.5655 72.5339 104.189 72.53 112.812 72.5339C113.411 72.5339 114.019 72.563 114.61 72.6523C115.669 72.8134 116.278 73.5043 116.318 74.496C116.361 75.5246 115.79 76.295 114.74 76.5337C114.275 76.6405 113.785 76.6696 113.305 76.6715C109.33 76.6851 105.357 76.687 101.382 76.687C90.8424 76.687 80.305 76.687 69.7656 76.6773C69.141 76.6773 68.5087 76.6521 67.8956 76.5473C66.7717 76.3571 66.2146 75.5905 66.2705 74.4261C66.3187 73.3917 66.9722 72.6756 68.0865 72.6484C71.1671 72.5747 74.2497 72.5785 77.3304 72.5281C77.926 72.5184 78.5372 72.4679 79.1116 72.3243C79.9329 72.1186 80.305 71.5228 80.2471 70.7058C80.1816 69.7626 79.7401 69.2347 78.8707 69.1241C78.3463 69.0581 77.8142 69.0329 77.286 69.027C74.348 69.0018 71.41 69.0057 68.4721 68.9649C67.0956 68.9455 66.311 68.2372 66.2647 67.0766C66.2127 65.786 66.8855 65.0078 68.1713 64.9205C68.8422 64.8759 69.515 64.872 70.1878 64.872C77.1973 64.8681 84.2069 64.87 91.2145 64.87C98.3204 64.87 105.426 64.87 112.53 64.872C113.157 64.872 113.785 64.872 114.406 64.936C115.491 65.0505 116.264 65.8249 116.32 66.7816C116.38 67.8257 115.742 68.6428 114.624 68.8854C114.229 68.9727 113.812 68.996 113.407 68.996C104.543 69.0018 95.6793 68.9999 86.8152 69.0038C86.4084 69.0038 85.9939 69.0193 85.5949 69.0891C84.55 69.2755 84.124 69.8033 84.1432 70.8241C84.1606 71.7654 84.6445 72.3166 85.6412 72.466L85.645 72.4718ZM114.882 61.1245C114.445 61.239 113.98 61.2952 113.527 61.2972C105.966 61.303 98.4052 61.2972 90.8443 61.2952C83.6439 61.2952 76.4436 61.2952 69.2451 61.2914C68.8383 61.2914 68.4239 61.2797 68.0229 61.2118C66.7332 60.9905 66.1702 60.2589 66.2801 58.9935C66.3746 57.9106 67.1438 57.2236 68.3622 57.2217C75.9712 57.212 83.5803 57.2159 91.1894 57.2159V57.2061C98.4862 57.2061 105.783 57.2023 113.078 57.2139C113.699 57.2139 114.337 57.2469 114.932 57.4002C115.867 57.6389 116.349 58.3551 116.33 59.2691C116.313 60.1463 115.756 60.8954 114.878 61.1264L114.882 61.1245Z" fill="#D83B42"/>
<path d="M88.45 16.8645C87.7425 17.0858 87.0196 17.3031 86.3641 17.6427C84.016 18.8576 82.736 20.808 82.7784 23.4862C82.8208 26.1392 83.9158 28.2584 86.4277 29.3394C87.4475 29.778 88.5927 29.9624 89.7011 30.1312C90.9099 30.3156 92.1552 30.2651 93.3582 30.4728C94.6807 30.6999 95.5347 32.0991 95.4518 33.6381C95.3708 35.1169 94.6171 35.9456 93.1249 36.1106C92.2169 36.2115 91.2935 36.1746 90.3913 36.3046C88.6755 36.5511 87.274 36.2309 86.5511 34.4454C86.5415 34.4241 86.5241 34.4047 86.5087 34.3872C85.8783 33.5644 84.6483 33.217 83.8618 33.64C83.1215 34.0398 82.9249 34.9908 83.3644 36.1028C84.2531 38.3482 85.9477 39.598 88.263 40.0153C89.0013 40.1473 89.2095 40.5199 89.1806 41.2108C89.1479 41.9832 89.1459 42.7634 89.2057 43.5338C89.2944 44.675 89.9672 45.294 91.014 45.2902C91.9702 45.2863 92.6372 44.6187 92.7317 43.5066C92.7972 42.7362 92.8203 41.9599 92.8165 41.1855C92.8126 40.4733 93.1326 40.1317 93.8016 39.8794C94.7597 39.5185 95.7448 39.1167 96.5642 38.519C100.136 35.9068 100.005 30.4903 96.3714 27.9538C94.7944 26.8534 93.0343 26.5196 91.1586 26.6224C90.559 26.5875 89.9575 26.5584 89.358 26.5157C87.9353 26.4148 86.8075 25.489 86.5434 24.214C86.2349 22.7216 86.8769 21.3728 88.2341 20.7071C89.2674 20.1987 90.3624 20.1133 91.4747 20.3365C92.9437 20.6314 94.0194 21.5009 94.8966 22.7041C95.5501 23.6007 96.3984 23.7424 97.3044 23.2301C98.0601 22.8031 98.4129 21.9492 98.0004 21.0254C97.6032 20.1385 97.1406 19.1856 96.4446 18.5529C95.6696 17.8485 94.6248 17.4196 93.6512 16.9732C93.1211 16.7287 92.8358 16.4686 92.8377 15.8612C92.8415 15.0383 92.7876 14.2154 92.7394 13.3926C92.6738 12.265 92.0646 11.6071 91.0718 11.5702C89.9768 11.5295 89.2924 12.1408 89.2038 13.3305C89.1401 14.1747 89.1479 15.0267 89.1729 15.8748C89.1903 16.4298 88.9666 16.7112 88.45 16.8742V16.8645Z" fill="#D83B42"/>
</svg>
