<svg width="101" height="99" viewBox="0 0 101 99" fill="none" xmlns="http://www.w3.org/2000/svg">
<path d="M21.5155 92.9745C20.4195 92.9831 19.4615 92.0364 19.4415 90.9259C19.4225 89.8517 20.3672 88.8667 21.4375 88.8466C22.5677 88.8245 23.5247 89.7751 23.5209 90.9144C23.519 92.0211 22.5981 92.9668 21.5155 92.9745Z" fill="#D62027"/>
<path d="M24.5275 85.8043C24.5246 84.6247 25.3456 83.7739 26.4958 83.7643C27.6479 83.7557 28.5117 84.6401 28.5517 85.7899C28.585 86.7395 27.6774 87.8845 26.511 87.8385C25.3618 87.7925 24.5303 86.979 24.5275 85.8043Z" fill="#D62027"/>
<path d="M98.6965 37.6796C97.8698 36.7195 96.9431 35.8447 96.0403 34.9535C93.8284 32.7727 90.6043 32.7669 88.3886 34.9488C87.1633 36.1551 85.9732 37.3979 84.7678 38.6244C82.5121 40.9203 80.2584 43.2171 78.0028 45.5129C76.4169 47.1275 74.8214 48.7325 73.2498 50.3605C72.7675 50.8597 72.8274 51.6674 73.3155 52.1686C73.8168 52.6831 74.5731 52.7406 75.104 52.2749C75.4446 51.976 75.7557 51.6425 76.0753 51.3187C78.6858 48.6807 81.2982 46.0447 83.904 43.402C86.0616 41.2135 88.2041 39.0096 90.3674 36.8268C91.3901 35.7958 92.9294 35.7575 93.9854 36.7578C94.8958 37.6202 95.7749 38.5209 96.6245 39.4456C97.5853 40.4929 97.572 42.0471 96.5778 43.0638C91.6403 48.1106 86.6867 53.1421 81.7387 58.1794C79.3042 60.6573 76.8792 63.1457 74.4285 65.6073C73.7921 66.2465 73.2184 66.9651 72.405 67.4088C71.1169 68.1111 69.727 68.2999 68.2866 68.2989C60.0917 68.2922 51.8978 68.2951 43.7028 68.3008C43.3784 68.3008 43.0378 68.2251 42.7287 68.4062C42.6316 68.3631 42.5374 68.3775 42.4442 68.4216C42.0894 68.3353 41.7583 68.4791 41.4196 68.5375C39.6491 68.8422 38.0328 69.5158 36.718 70.7644C35.3871 72.0273 34.1037 73.3448 32.8327 74.67C32.5064 75.0102 32.3475 74.9747 32.0441 74.6633C29.6419 72.1988 27.2226 69.7506 24.8091 67.2976C23.4562 65.9226 22.1139 64.537 20.7439 63.1802C20.4937 62.932 20.5451 62.8238 20.762 62.6302C21.3347 62.1185 21.8941 61.5915 22.4573 61.0683C26.0144 57.7654 29.5924 54.4836 33.121 51.149C35.2197 49.1656 37.6266 48.0742 40.5291 48.1547C41.4957 48.1815 42.4632 48.1585 43.4298 48.1585C51.0225 48.1585 58.6143 48.1575 66.207 48.1595C67.1136 48.1595 67.8909 48.4824 68.5169 49.1474C69.5177 50.211 69.2399 51.5065 69.1333 52.7617C69.1172 52.9524 69.0563 53.1555 68.9516 53.3462C68.3875 54.3839 67.5284 54.8487 66.3611 54.8467C60.7187 54.8362 55.0753 54.841 49.4328 54.8439C49.2311 54.8439 49.0209 54.7902 48.8287 54.9033C48.7307 54.8621 48.6337 54.863 48.5366 54.9062C47.9458 54.9224 47.5035 55.2636 47.3712 55.8049C47.122 56.8235 47.7308 57.6035 48.7887 57.6044C54.2742 57.6073 59.7597 57.6035 65.2442 57.6073C66.3992 57.6083 67.5227 57.5834 68.6225 57.088C68.944 56.9653 69.2294 56.8264 69.4815 56.6788C69.5034 56.6702 69.5262 56.6577 69.551 56.6405C69.5567 56.6367 69.5605 56.6328 69.5662 56.629C71.0075 55.7513 71.3367 54.6015 71.3367 54.6015C71.4527 54.3734 71.5564 54.1386 71.6401 53.8914C72.0445 52.7109 71.9227 51.494 71.8922 50.2876C71.8789 49.7817 71.7191 49.2796 71.4965 48.8225C70.4091 46.5871 68.6082 45.4506 66.1461 45.4382C62.0715 45.4181 57.9978 45.4296 53.9232 45.4372C53.2192 45.4382 52.4952 45.5014 51.8131 45.4746C50.8218 45.4353 49.8314 45.4382 48.8411 45.4363C45.7968 45.4286 42.7524 45.3989 39.71 45.443C36.7799 45.4861 34.1836 46.5516 32.0155 48.4929C28.7714 51.3982 25.6101 54.3974 22.4345 57.3783C21.0712 58.6575 19.6356 59.8601 18.3637 61.236C18.2333 61.3769 18.1401 61.3644 17.9984 61.2897C17.5522 61.0568 17.0537 61.008 16.5713 60.9735C15.7199 60.9112 14.9179 61.0827 14.2082 61.6231C13.6317 62.063 13.1703 62.6178 12.6689 63.1275C12.4177 63.3824 12.1989 63.3901 11.9145 63.3364C10.3305 63.0384 8.89585 63.3939 7.67051 64.4355C6.46325 65.4617 5.42153 66.6652 4.29798 67.7815C3.28289 68.7847 2.29254 69.809 1.31741 70.8458C0.868372 71.323 0.910231 72.0991 1.35166 72.5821C1.95196 73.2404 2.76821 73.2087 3.45223 72.5131C5.35493 70.5746 7.25858 68.6362 9.16698 66.7035C10.1516 65.707 11.8545 65.6926 12.8354 66.6824C15.1472 69.0176 17.4513 71.3623 19.7545 73.7061C23.6998 77.719 27.6193 81.7588 31.5998 85.7353C32.8051 86.9398 32.8622 88.7536 31.595 89.9361C30.1632 91.2728 28.9027 92.7838 27.47 94.1234C26.9696 94.5919 26.5205 95.1257 26.0372 95.6124C25.6091 96.0436 25.6225 96.4873 25.6995 96.9903C25.7832 97.5375 26.1143 97.8594 26.6404 97.9706C27.1893 98.0865 27.6127 97.8479 27.9894 97.4646C29.7665 95.6594 31.537 93.8465 33.3331 92.0613C34.3492 91.0514 35.0484 89.8872 35.2101 88.446C35.2758 87.8577 35.3386 87.2627 34.9894 86.6935C34.7164 86.2489 35.0456 85.7209 35.5774 85.6558C35.74 85.6357 35.898 85.604 36.0159 85.4948C36.445 85.0943 36.8588 84.6727 37.1005 84.1284C37.7883 82.5819 37.4658 81.1216 36.6943 79.7073C36.1862 78.7749 35.4166 78.0639 34.6736 77.3376C34.3796 77.0502 34.4215 76.894 34.686 76.6334C35.545 75.7873 36.3727 74.9095 37.2289 74.0606C37.9833 73.3122 38.675 72.4968 39.6444 71.989C40.9258 71.3182 42.2853 71.0643 43.7133 71.0643C51.7988 71.0681 59.8834 71.0672 67.9689 71.0633C68.1687 71.0633 68.3827 71.1247 68.5682 70.9876C68.67 71.0279 68.7699 71.0183 68.867 70.9713C69.6014 70.9828 70.2968 70.7874 70.9904 70.5747C72.7066 70.0476 74.3248 69.3089 75.6187 68.0402C78.1245 65.5824 80.5761 63.0691 83.0497 60.5787C88.1337 55.459 93.2091 50.3327 98.3036 45.2235C100.38 43.1414 100.596 39.8864 98.6965 37.6796ZM34.7069 81.89C34.88 82.4515 34.7944 82.8866 34.3473 83.2996C33.6537 83.9406 33.6699 83.9674 33.0068 83.2938C29.5116 79.7408 26.0201 76.1811 22.5211 72.6319C21.9331 72.035 21.2719 71.5089 20.7097 70.8899C18.8736 68.87 16.8995 66.9862 15.0035 65.0257C14.9188 64.9376 14.7647 64.835 14.8941 64.7143C15.249 64.3828 15.5306 63.965 15.9663 63.7302C16.0833 63.667 16.2403 63.6804 16.3792 63.6584C17.1926 63.7781 17.8747 64.1509 18.4464 64.7191C19.3692 65.637 20.2492 66.5991 21.1958 67.4921C22.0016 68.252 22.7446 69.0684 23.5171 69.8579C26.8697 73.2806 30.2489 76.6774 33.609 80.0925C34.1085 80.5993 34.4909 81.1906 34.7069 81.89Z" fill="#D62027"/>
<path d="M55.8401 4.84784C57.3319 3.39329 58.991 2.33639 60.9023 1.69152C68.7357 -0.949278 76.9829 4.26621 77.958 12.524C78.4546 16.7266 77.2141 20.3918 74.2497 23.4005C68.6168 29.1171 62.9486 34.7993 57.2938 40.4948C56.2273 41.569 55.4472 41.5642 54.3694 40.4776C48.7393 34.8069 43.0845 29.1612 37.4877 23.457C33.8335 19.7335 32.6929 15.2347 34.2036 10.2598C35.7134 5.29148 39.1906 2.23674 44.2584 1.25458C48.4139 0.448736 52.1413 1.57271 55.3416 4.38886C55.4977 4.52588 55.647 4.66961 55.8401 4.84784ZM55.7907 37.3835C55.94 37.2494 56.0323 37.1746 56.1151 37.0903C61.4265 31.7407 66.755 26.4093 72.0387 21.0328C74.2953 18.737 75.1772 15.916 74.7463 12.7118C73.7968 5.64027 65.6609 1.89466 59.7625 5.84149C58.7608 6.51127 57.9236 7.43402 57.0265 8.25807C56.2835 8.94127 55.3759 8.95756 54.65 8.25615C54.2866 7.90449 53.9393 7.53559 53.5778 7.18105C51.0939 4.75297 48.1399 3.81969 44.7341 4.43581C40.3446 5.23016 36.9644 9.21148 36.8227 13.6968C36.7285 16.6835 37.7759 19.1959 39.8718 21.2982C44.0111 25.4511 48.1361 29.6173 52.2631 33.7817C53.4418 34.9689 54.6043 36.1705 55.7907 37.3835Z" fill="#D62027"/>
<path d="M21.5155 92.9745C20.4195 92.9831 19.4615 92.0364 19.4415 90.9259C19.4225 89.8517 20.3672 88.8667 21.4375 88.8466C22.5677 88.8245 23.5247 89.7751 23.5209 90.9144C23.519 92.0211 22.5981 92.9668 21.5155 92.9745Z" stroke="#D21F27"/>
<path d="M24.5275 85.8043C24.5246 84.6247 25.3456 83.7739 26.4958 83.7643C27.6479 83.7557 28.5117 84.6401 28.5517 85.7899C28.585 86.7395 27.6774 87.8845 26.511 87.8385C25.3618 87.7925 24.5303 86.979 24.5275 85.8043Z" stroke="#D21F27"/>
<path d="M98.6965 37.6796C97.8698 36.7195 96.9431 35.8447 96.0403 34.9535C93.8284 32.7727 90.6043 32.7669 88.3886 34.9488C87.1633 36.1551 85.9732 37.3979 84.7678 38.6244C82.5121 40.9203 80.2584 43.2171 78.0028 45.5129C76.4169 47.1275 74.8214 48.7325 73.2498 50.3605C72.7675 50.8597 72.8274 51.6674 73.3155 52.1686C73.8168 52.6831 74.5731 52.7406 75.104 52.2749C75.4446 51.976 75.7557 51.6425 76.0753 51.3187C78.6858 48.6807 81.2982 46.0447 83.904 43.402C86.0616 41.2135 88.2041 39.0096 90.3674 36.8268C91.3901 35.7958 92.9294 35.7575 93.9854 36.7578C94.8958 37.6202 95.7749 38.5209 96.6245 39.4456C97.5853 40.4929 97.572 42.0471 96.5778 43.0638C91.6403 48.1106 86.6867 53.1421 81.7387 58.1794C79.3042 60.6573 76.8792 63.1457 74.4285 65.6073C73.7921 66.2465 73.2184 66.9651 72.405 67.4088C71.1169 68.1111 69.727 68.2999 68.2866 68.2989C60.0917 68.2922 51.8978 68.2951 43.7028 68.3008C43.3784 68.3008 43.0378 68.2251 42.7287 68.4062C42.6316 68.3631 42.5374 68.3775 42.4442 68.4216C42.0894 68.3353 41.7583 68.4791 41.4196 68.5375C39.6491 68.8422 38.0328 69.5158 36.718 70.7644C35.3871 72.0273 34.1037 73.3448 32.8327 74.67C32.5064 75.0102 32.3475 74.9747 32.0441 74.6633C29.6419 72.1988 27.2226 69.7506 24.8091 67.2976C23.4562 65.9226 22.1139 64.537 20.7439 63.1802C20.4937 62.932 20.5451 62.8238 20.762 62.6302C21.3347 62.1185 21.8941 61.5915 22.4573 61.0683C26.0144 57.7654 29.5924 54.4836 33.121 51.149C35.2197 49.1656 37.6266 48.0742 40.5291 48.1547C41.4957 48.1815 42.4632 48.1585 43.4298 48.1585C51.0225 48.1585 58.6143 48.1575 66.207 48.1595C67.1136 48.1595 67.8909 48.4824 68.5169 49.1474C69.5177 50.211 69.2399 51.5065 69.1333 52.7617C69.1172 52.9524 69.0563 53.1555 68.9516 53.3462C68.3875 54.3839 67.5284 54.8487 66.3611 54.8467C60.7187 54.8362 55.0753 54.841 49.4328 54.8439C49.2311 54.8439 49.0209 54.7902 48.8287 54.9033C48.7307 54.8621 48.6337 54.863 48.5366 54.9062C47.9458 54.9224 47.5035 55.2636 47.3712 55.8049C47.122 56.8235 47.7308 57.6035 48.7887 57.6044C54.2742 57.6073 59.7597 57.6035 65.2442 57.6073C66.3992 57.6083 67.5227 57.5834 68.6225 57.088C68.944 56.9653 69.2294 56.8264 69.4815 56.6788C69.5034 56.6702 69.5262 56.6577 69.551 56.6405C69.5567 56.6367 69.5605 56.6328 69.5662 56.629C71.0075 55.7513 71.3367 54.6015 71.3367 54.6015C71.4527 54.3734 71.5564 54.1386 71.6401 53.8914C72.0445 52.7109 71.9227 51.494 71.8922 50.2876C71.8789 49.7817 71.7191 49.2796 71.4965 48.8225C70.4091 46.5871 68.6082 45.4506 66.1461 45.4382C62.0715 45.4181 57.9978 45.4296 53.9232 45.4372C53.2192 45.4382 52.4952 45.5014 51.8131 45.4746C50.8218 45.4353 49.8314 45.4382 48.8411 45.4363C45.7968 45.4286 42.7524 45.3989 39.71 45.443C36.7799 45.4861 34.1836 46.5516 32.0155 48.4929C28.7714 51.3982 25.6101 54.3974 22.4345 57.3783C21.0712 58.6575 19.6356 59.8601 18.3637 61.236C18.2333 61.3769 18.1401 61.3644 17.9984 61.2897C17.5522 61.0568 17.0537 61.008 16.5713 60.9735C15.7199 60.9112 14.9179 61.0827 14.2082 61.6231C13.6317 62.063 13.1703 62.6178 12.6689 63.1275C12.4177 63.3824 12.1989 63.3901 11.9145 63.3364C10.3305 63.0384 8.89585 63.3939 7.67051 64.4355C6.46325 65.4617 5.42153 66.6652 4.29798 67.7815C3.28289 68.7847 2.29254 69.809 1.31741 70.8458C0.868372 71.323 0.910231 72.0991 1.35166 72.5821C1.95196 73.2404 2.76821 73.2087 3.45223 72.5131C5.35493 70.5746 7.25858 68.6362 9.16698 66.7035C10.1516 65.707 11.8545 65.6926 12.8354 66.6824C15.1472 69.0176 17.4513 71.3623 19.7545 73.7061C23.6998 77.719 27.6193 81.7588 31.5998 85.7353C32.8051 86.9398 32.8622 88.7536 31.595 89.9361C30.1632 91.2728 28.9027 92.7838 27.47 94.1234C26.9696 94.5919 26.5205 95.1257 26.0372 95.6124C25.6091 96.0436 25.6225 96.4873 25.6995 96.9903C25.7832 97.5375 26.1143 97.8594 26.6404 97.9706C27.1893 98.0865 27.6127 97.8479 27.9894 97.4646C29.7665 95.6594 31.537 93.8465 33.3331 92.0613C34.3492 91.0514 35.0484 89.8872 35.2101 88.446C35.2758 87.8577 35.3386 87.2627 34.9894 86.6935C34.7164 86.2489 35.0456 85.7209 35.5774 85.6558C35.74 85.6357 35.898 85.604 36.0159 85.4948C36.445 85.0943 36.8588 84.6727 37.1005 84.1284C37.7883 82.5819 37.4658 81.1216 36.6943 79.7073C36.1862 78.7749 35.4166 78.0639 34.6736 77.3376C34.3796 77.0502 34.4215 76.894 34.686 76.6334C35.545 75.7873 36.3727 74.9095 37.2289 74.0606C37.9833 73.3122 38.675 72.4968 39.6444 71.989C40.9258 71.3182 42.2853 71.0643 43.7133 71.0643C51.7988 71.0681 59.8834 71.0672 67.9689 71.0633C68.1687 71.0633 68.3827 71.1247 68.5682 70.9876C68.67 71.0279 68.7699 71.0183 68.867 70.9713C69.6014 70.9828 70.2968 70.7874 70.9904 70.5747C72.7066 70.0476 74.3248 69.3089 75.6187 68.0402C78.1245 65.5824 80.5761 63.0691 83.0497 60.5787C88.1337 55.459 93.2091 50.3327 98.3036 45.2235C100.38 43.1414 100.596 39.8864 98.6965 37.6796ZM34.7069 81.89C34.88 82.4515 34.7944 82.8866 34.3473 83.2996C33.6537 83.9406 33.6699 83.9674 33.0068 83.2938C29.5116 79.7408 26.0201 76.1811 22.5211 72.6319C21.9331 72.035 21.2719 71.5089 20.7097 70.8899C18.8736 68.87 16.8995 66.9862 15.0035 65.0257C14.9188 64.9376 14.7647 64.835 14.8941 64.7143C15.249 64.3828 15.5306 63.965 15.9663 63.7302C16.0833 63.667 16.2403 63.6804 16.3792 63.6584C17.1926 63.7781 17.8747 64.1509 18.4464 64.7191C19.3692 65.637 20.2492 66.5991 21.1958 67.4921C22.0016 68.252 22.7446 69.0684 23.5171 69.8579C26.8697 73.2806 30.2489 76.6774 33.609 80.0925C34.1085 80.5993 34.4909 81.1906 34.7069 81.89Z" stroke="#D21F27"/>
<path d="M55.8401 4.84784C57.3319 3.39329 58.991 2.33639 60.9023 1.69152C68.7357 -0.949278 76.9829 4.26621 77.958 12.524C78.4546 16.7266 77.2141 20.3918 74.2497 23.4005C68.6168 29.1171 62.9486 34.7993 57.2938 40.4948C56.2273 41.569 55.4472 41.5642 54.3694 40.4776C48.7393 34.8069 43.0845 29.1612 37.4877 23.457C33.8335 19.7335 32.6929 15.2347 34.2036 10.2598C35.7134 5.29148 39.1906 2.23674 44.2584 1.25458C48.4139 0.448736 52.1413 1.57271 55.3416 4.38886C55.4977 4.52588 55.647 4.66961 55.8401 4.84784ZM55.7907 37.3835C55.94 37.2494 56.0323 37.1746 56.1151 37.0903C61.4265 31.7407 66.755 26.4093 72.0387 21.0328C74.2953 18.737 75.1772 15.916 74.7463 12.7118C73.7968 5.64027 65.6609 1.89466 59.7625 5.84149C58.7608 6.51127 57.9236 7.43402 57.0265 8.25807C56.2835 8.94127 55.3759 8.95756 54.65 8.25615C54.2866 7.90449 53.9393 7.53559 53.5778 7.18105C51.0939 4.75297 48.1399 3.81969 44.7341 4.43581C40.3446 5.23016 36.9644 9.21148 36.8227 13.6968C36.7285 16.6835 37.7759 19.1959 39.8718 21.2982C44.0111 25.4511 48.1361 29.6173 52.2631 33.7817C53.4418 34.9689 54.6043 36.1705 55.7907 37.3835Z" stroke="#D21F27"/>
</svg>
