<svg width="104" height="102" viewBox="0 0 106 104" fill="none" xmlns="http://www.w3.org/2000/svg">
<path d="M22.5516 97.7155C21.4003 97.7245 20.3939 96.729 20.3729 95.5612C20.353 94.4317 21.3454 93.3959 22.4697 93.3748C23.657 93.3516 24.6623 94.3511 24.6583 95.5491C24.6564 96.7129 23.6889 97.7074 22.5516 97.7155Z" fill="#D51F27"/>
<path d="M25.7157 90.1756C25.7127 88.9353 26.5752 88.0406 27.7835 88.0305C28.9937 88.0214 29.9012 88.9514 29.9432 90.1605C29.9781 91.159 29.0247 92.3631 27.7995 92.3148C26.5922 92.2664 25.7187 91.4109 25.7157 90.1756Z" fill="#D51F27"/>
<path d="M103.631 39.5703C102.762 38.5607 101.789 37.6408 100.84 36.7037C98.5167 34.4104 95.1298 34.4044 92.8022 36.6987C91.515 37.9673 90.2647 39.2741 88.9985 40.5638C86.6289 42.978 84.2614 45.3932 81.8918 47.8074C80.2258 49.5052 78.5498 51.1929 76.8988 52.9048C76.3921 53.4298 76.4551 54.2792 76.9678 54.8061C77.4944 55.3472 78.289 55.4077 78.8466 54.918C79.2044 54.6036 79.5312 54.253 79.867 53.9124C82.6094 51.1385 85.3537 48.3666 88.091 45.5877C90.3577 43.2863 92.6083 40.9689 94.8809 38.6736C95.9553 37.5894 97.5723 37.5491 98.6816 38.601C99.6381 39.5079 100.562 40.455 101.454 41.4273C102.463 42.5286 102.449 44.1629 101.405 45.232C96.2181 50.539 91.0143 55.8298 85.8164 61.1268C83.259 63.7324 80.7115 66.3491 78.1371 68.9376C77.4685 69.6097 76.8658 70.3654 76.0113 70.8319C74.6582 71.5705 73.198 71.769 71.685 71.7679C63.0761 71.7609 54.4683 71.7639 45.8595 71.77C45.5187 71.77 45.161 71.6904 44.8362 71.8808C44.7342 71.8354 44.6353 71.8506 44.5373 71.8969C44.1646 71.8062 43.8168 71.9574 43.461 72.0188C41.6011 72.3392 39.9031 73.0476 38.522 74.3605C37.1238 75.6885 35.7756 77.0739 34.4404 78.4674C34.0976 78.8251 33.9307 78.7878 33.6119 78.4604C31.0885 75.8688 28.547 73.2944 26.0115 70.715C24.5904 69.2691 23.1802 67.8121 21.7411 66.3854C21.4783 66.1244 21.5322 66.0106 21.7601 65.807C22.3617 65.269 22.9494 64.7148 23.541 64.1646C27.2778 60.6915 31.0365 57.2405 34.7433 53.7341C36.9479 51.6483 39.4764 50.5007 42.5256 50.5853C43.5409 50.6135 44.5573 50.5894 45.5727 50.5894C53.5489 50.5894 61.5241 50.5884 69.5003 50.5904C70.4527 50.5904 71.2692 50.9299 71.9268 51.6292C72.9782 52.7476 72.6863 54.1099 72.5744 55.4298C72.5574 55.6303 72.4935 55.8439 72.3835 56.0445C71.7909 57.1357 70.8884 57.6244 69.6622 57.6224C63.7347 57.6113 57.8063 57.6163 51.8789 57.6193C51.667 57.6193 51.4462 57.5629 51.2443 57.6818C51.1414 57.6385 51.0394 57.6395 50.9375 57.6848C50.3168 57.702 49.8521 58.0607 49.7132 58.6299C49.4514 59.701 50.091 60.5212 51.2023 60.5222C56.9648 60.5252 62.7274 60.5212 68.4889 60.5252C69.7021 60.5262 70.8824 60.5 72.0377 59.9791C72.3755 59.8501 72.6753 59.704 72.9402 59.5489C72.9632 59.5398 72.9872 59.5267 73.0131 59.5086C73.0191 59.5045 73.0231 59.5005 73.0291 59.4965C74.5432 58.5735 74.889 57.3644 74.889 57.3644C75.0109 57.1246 75.1199 56.8777 75.2078 56.6178C75.6326 55.3764 75.5046 54.0968 75.4727 52.8282C75.4587 52.2962 75.2908 51.7682 75.0569 51.2876C73.9146 48.9369 72.0227 47.7419 69.4363 47.7288C65.1559 47.7076 60.8765 47.7197 56.5961 47.7278C55.8565 47.7288 55.096 47.7953 54.3794 47.7671C53.338 47.7258 52.2977 47.7288 51.2573 47.7268C48.0592 47.7187 44.8611 47.6875 41.6651 47.7338C38.5869 47.7792 35.8596 48.8996 33.582 50.941C30.174 53.996 26.853 57.1498 23.517 60.2844C22.0849 61.6296 20.5768 62.8941 19.2406 64.341C19.1037 64.4891 19.0058 64.476 18.8569 64.3974C18.3881 64.1526 17.8645 64.1012 17.3578 64.0649C16.4633 63.9994 15.6208 64.1798 14.8753 64.748C14.2696 65.2105 13.7849 65.7939 13.2582 66.33C12.9944 66.598 12.7645 66.606 12.4657 66.5496C10.8017 66.2363 9.29463 66.6101 8.00741 67.7053C6.73917 68.7845 5.64483 70.05 4.46455 71.2238C3.39819 72.2788 2.35782 73.3559 1.33344 74.4461C0.861724 74.9479 0.905697 75.7641 1.36942 76.2719C2.00004 76.9641 2.85752 76.9308 3.57608 76.1993C5.57488 74.161 7.57467 72.1226 9.57946 70.0903C10.6138 69.0424 12.4028 69.0273 13.4331 70.0681C15.8617 72.5236 18.2822 74.9892 20.7017 77.4538C24.8462 81.6736 28.9638 85.9216 33.1452 90.1031C34.4115 91.3696 34.4714 93.277 33.1402 94.5204C31.6361 95.926 30.3119 97.5149 28.8068 98.9236C28.2812 99.4163 27.8094 99.9775 27.3018 100.489C26.852 100.943 26.866 101.409 26.947 101.938C27.0349 102.514 27.3827 102.852 27.9354 102.969C28.512 103.091 28.9568 102.84 29.3525 102.437C31.2194 100.539 33.0793 98.6324 34.9661 96.7552C36.0335 95.6932 36.768 94.469 36.9379 92.9536C37.0069 92.3349 37.0728 91.7092 36.7061 91.1107C36.4192 90.6432 36.765 90.088 37.3237 90.0195C37.4946 89.9983 37.6605 89.9651 37.7844 89.8502C38.2352 89.429 38.6699 88.9857 38.9237 88.4134C39.6463 86.7871 39.3075 85.2515 38.497 83.7643C37.9633 82.784 37.1548 82.0363 36.3743 81.2726C36.0655 80.9703 36.1094 80.806 36.3873 80.532C37.2897 79.6423 38.1592 78.7193 39.0587 77.8266C39.8512 77.0397 40.5777 76.1822 41.5961 75.6482C42.9423 74.9429 44.3704 74.6758 45.8705 74.6758C54.3644 74.6799 62.8573 74.6789 71.3512 74.6749C71.561 74.6749 71.7859 74.7393 71.9808 74.5952C72.0877 74.6376 72.1926 74.6275 72.2946 74.5781C73.0661 74.5902 73.7967 74.3847 74.5252 74.161C76.3281 73.6068 78.0281 72.8299 79.3873 71.4959C82.0197 68.9114 84.5951 66.2685 87.1936 63.6498C92.5344 58.2662 97.8661 52.8756 103.218 47.5031C105.4 45.3136 105.626 41.8908 103.631 39.5703ZM36.4093 86.0596C36.5911 86.6501 36.5012 87.1075 36.0315 87.5418C35.3029 88.2159 35.3199 88.2441 34.6233 87.5358C30.9515 83.7996 27.2838 80.0564 23.608 76.3243C22.9904 75.6965 22.2958 75.1434 21.7051 74.4925C19.7763 72.3685 17.7026 70.3875 15.7108 68.326C15.6218 68.2333 15.4599 68.1255 15.5958 67.9985C15.9686 67.6499 16.2644 67.2106 16.7221 66.9637C16.8451 66.8972 17.01 66.9113 17.1559 66.8882C18.0104 67.0141 18.7269 67.4061 19.3276 68.0036C20.297 68.9688 21.2214 69.9805 22.2158 70.9195C23.0623 71.7186 23.8428 72.577 24.6544 73.4073C28.1762 77.0064 31.7261 80.5783 35.256 84.1694C35.7806 84.7024 36.1824 85.3241 36.4093 86.0596Z" fill="#D51F27"/>
<path d="M58.6098 5.04618C60.1769 3.51665 61.9198 2.40528 63.9276 1.72717C72.1567 -1.04976 80.8204 4.43457 81.8448 13.118C82.3665 17.5373 81.0633 21.3913 77.9492 24.5552C72.0317 30.5665 66.0773 36.5415 60.1369 42.5306C59.0166 43.6601 58.1971 43.6551 57.0648 42.5125C51.1503 36.5496 45.2099 30.6128 39.3305 24.6146C35.4918 20.6991 34.2935 15.9685 35.8806 10.7371C37.4666 5.51269 41.1194 2.30049 46.4432 1.26771C50.8086 0.420321 54.7242 1.60223 58.0862 4.56354C58.2501 4.70763 58.407 4.85876 58.6098 5.04618ZM58.5579 39.259C58.7148 39.1179 58.8117 39.0393 58.8987 38.9507C64.4783 33.3253 70.0759 27.719 75.6266 22.0654C77.9971 19.6512 78.9236 16.6849 78.4708 13.3155C77.4734 5.87946 68.9266 1.94078 62.7304 6.09105C61.678 6.79536 60.7985 7.76567 59.8561 8.6322C59.0756 9.35061 58.1221 9.36774 57.3596 8.63018C56.9778 8.2604 56.613 7.87247 56.2333 7.49966C53.6239 4.94643 50.5207 3.96503 46.9429 4.61291C42.3317 5.44821 38.7808 9.63475 38.6319 14.3513C38.533 17.492 39.6333 20.1339 41.835 22.3445C46.1833 26.7114 50.5167 31.0924 54.8521 35.4714C56.0904 36.7198 57.3116 37.9834 58.5579 39.259Z" fill="#D51F27"/>
<path d="M22.5516 97.7155C21.4003 97.7245 20.3939 96.729 20.3729 95.5612C20.353 94.4317 21.3454 93.3959 22.4697 93.3748C23.657 93.3516 24.6623 94.3511 24.6583 95.5491C24.6564 96.7129 23.6889 97.7074 22.5516 97.7155Z" stroke="#D21F27"/>
<path d="M25.7157 90.1756C25.7127 88.9353 26.5752 88.0406 27.7835 88.0305C28.9937 88.0214 29.9012 88.9514 29.9432 90.1605C29.9781 91.159 29.0247 92.3631 27.7995 92.3148C26.5922 92.2664 25.7187 91.4109 25.7157 90.1756Z" stroke="#D21F27"/>
<path d="M103.631 39.5703C102.762 38.5607 101.789 37.6408 100.84 36.7037C98.5167 34.4104 95.1298 34.4044 92.8022 36.6987C91.515 37.9673 90.2647 39.2741 88.9985 40.5638C86.6289 42.978 84.2614 45.3932 81.8918 47.8074C80.2258 49.5052 78.5498 51.1929 76.8988 52.9048C76.3921 53.4298 76.4551 54.2792 76.9678 54.8061C77.4944 55.3472 78.289 55.4077 78.8466 54.918C79.2044 54.6036 79.5312 54.253 79.867 53.9124C82.6094 51.1385 85.3537 48.3666 88.091 45.5877C90.3577 43.2863 92.6083 40.9689 94.8809 38.6736C95.9553 37.5894 97.5723 37.5491 98.6816 38.601C99.6381 39.5079 100.562 40.455 101.454 41.4273C102.463 42.5286 102.449 44.1629 101.405 45.232C96.2181 50.539 91.0143 55.8298 85.8164 61.1268C83.259 63.7324 80.7115 66.3491 78.1371 68.9376C77.4685 69.6097 76.8658 70.3654 76.0113 70.8319C74.6582 71.5705 73.198 71.769 71.685 71.7679C63.0761 71.7609 54.4683 71.7639 45.8595 71.77C45.5187 71.77 45.161 71.6904 44.8362 71.8808C44.7342 71.8354 44.6353 71.8506 44.5373 71.8969C44.1646 71.8062 43.8168 71.9574 43.461 72.0188C41.6011 72.3392 39.9031 73.0476 38.522 74.3605C37.1238 75.6885 35.7756 77.0739 34.4404 78.4674C34.0976 78.8251 33.9307 78.7878 33.6119 78.4604C31.0885 75.8688 28.547 73.2944 26.0115 70.715C24.5904 69.2691 23.1802 67.8121 21.7411 66.3854C21.4783 66.1244 21.5322 66.0106 21.7601 65.807C22.3617 65.269 22.9494 64.7148 23.541 64.1646C27.2778 60.6915 31.0365 57.2405 34.7433 53.7341C36.9479 51.6483 39.4764 50.5007 42.5256 50.5853C43.5409 50.6135 44.5573 50.5894 45.5727 50.5894C53.5489 50.5894 61.5241 50.5884 69.5003 50.5904C70.4527 50.5904 71.2692 50.9299 71.9268 51.6292C72.9782 52.7476 72.6863 54.1099 72.5744 55.4298C72.5574 55.6303 72.4935 55.8439 72.3835 56.0445C71.7909 57.1357 70.8884 57.6244 69.6622 57.6224C63.7347 57.6113 57.8063 57.6163 51.8789 57.6193C51.667 57.6193 51.4462 57.5629 51.2443 57.6818C51.1414 57.6385 51.0394 57.6395 50.9375 57.6848C50.3168 57.702 49.8521 58.0607 49.7132 58.6299C49.4514 59.701 50.091 60.5212 51.2023 60.5222C56.9648 60.5252 62.7274 60.5212 68.4889 60.5252C69.7021 60.5262 70.8824 60.5 72.0377 59.9791C72.3755 59.8501 72.6753 59.704 72.9402 59.5489C72.9632 59.5398 72.9872 59.5267 73.0131 59.5086C73.0191 59.5045 73.0231 59.5005 73.0291 59.4965C74.5432 58.5735 74.889 57.3644 74.889 57.3644C75.0109 57.1246 75.1199 56.8777 75.2078 56.6178C75.6326 55.3764 75.5046 54.0968 75.4727 52.8282C75.4587 52.2962 75.2908 51.7682 75.0569 51.2876C73.9146 48.9369 72.0227 47.7419 69.4363 47.7288C65.1559 47.7076 60.8765 47.7197 56.5961 47.7278C55.8565 47.7288 55.096 47.7953 54.3794 47.7671C53.338 47.7258 52.2977 47.7288 51.2573 47.7268C48.0592 47.7187 44.8611 47.6875 41.6651 47.7338C38.5869 47.7792 35.8596 48.8996 33.582 50.941C30.174 53.996 26.853 57.1498 23.517 60.2844C22.0849 61.6296 20.5768 62.8941 19.2406 64.341C19.1037 64.4891 19.0058 64.476 18.8569 64.3974C18.3881 64.1526 17.8645 64.1012 17.3578 64.0649C16.4633 63.9994 15.6208 64.1798 14.8753 64.748C14.2696 65.2105 13.7849 65.7939 13.2582 66.33C12.9944 66.598 12.7645 66.606 12.4657 66.5496C10.8017 66.2363 9.29463 66.6101 8.00741 67.7053C6.73917 68.7845 5.64483 70.05 4.46455 71.2238C3.39819 72.2788 2.35782 73.3559 1.33344 74.4461C0.861724 74.9479 0.905697 75.7641 1.36942 76.2719C2.00004 76.9641 2.85752 76.9308 3.57608 76.1993C5.57488 74.161 7.57467 72.1226 9.57946 70.0903C10.6138 69.0424 12.4028 69.0273 13.4331 70.0681C15.8617 72.5236 18.2822 74.9892 20.7017 77.4538C24.8462 81.6736 28.9638 85.9216 33.1452 90.1031C34.4115 91.3696 34.4714 93.277 33.1402 94.5204C31.6361 95.926 30.3119 97.5149 28.8068 98.9236C28.2812 99.4163 27.8094 99.9775 27.3018 100.489C26.852 100.943 26.866 101.409 26.947 101.938C27.0349 102.514 27.3827 102.852 27.9354 102.969C28.512 103.091 28.9568 102.84 29.3525 102.437C31.2194 100.539 33.0793 98.6324 34.9661 96.7552C36.0335 95.6932 36.768 94.469 36.9379 92.9536C37.0069 92.3349 37.0728 91.7092 36.7061 91.1107C36.4192 90.6432 36.765 90.088 37.3237 90.0195C37.4946 89.9983 37.6605 89.9651 37.7844 89.8502C38.2352 89.429 38.6699 88.9857 38.9237 88.4134C39.6463 86.7871 39.3075 85.2515 38.497 83.7643C37.9633 82.784 37.1548 82.0363 36.3743 81.2726C36.0655 80.9703 36.1094 80.806 36.3873 80.532C37.2897 79.6423 38.1592 78.7193 39.0587 77.8266C39.8512 77.0397 40.5777 76.1822 41.5961 75.6482C42.9423 74.9429 44.3704 74.6758 45.8705 74.6758C54.3644 74.6799 62.8573 74.6789 71.3512 74.6749C71.561 74.6749 71.7859 74.7393 71.9808 74.5952C72.0877 74.6376 72.1926 74.6275 72.2946 74.5781C73.0661 74.5902 73.7967 74.3847 74.5252 74.161C76.3281 73.6068 78.0281 72.8299 79.3873 71.4959C82.0197 68.9114 84.5951 66.2685 87.1936 63.6498C92.5344 58.2662 97.8661 52.8756 103.218 47.5031C105.4 45.3136 105.626 41.8908 103.631 39.5703ZM36.4093 86.0596C36.5911 86.6501 36.5012 87.1075 36.0315 87.5418C35.3029 88.2159 35.3199 88.2441 34.6233 87.5358C30.9515 83.7996 27.2838 80.0564 23.608 76.3243C22.9904 75.6965 22.2958 75.1434 21.7051 74.4925C19.7763 72.3685 17.7026 70.3875 15.7108 68.326C15.6218 68.2333 15.4599 68.1255 15.5958 67.9985C15.9686 67.6499 16.2644 67.2106 16.7221 66.9637C16.8451 66.8972 17.01 66.9113 17.1559 66.8882C18.0104 67.0141 18.7269 67.4061 19.3276 68.0036C20.297 68.9688 21.2214 69.9805 22.2158 70.9195C23.0623 71.7186 23.8428 72.577 24.6544 73.4073C28.1762 77.0064 31.7261 80.5783 35.256 84.1694C35.7806 84.7024 36.1824 85.3241 36.4093 86.0596Z" stroke="#D21F27"/>
<path d="M58.6098 5.04618C60.1769 3.51665 61.9198 2.40528 63.9276 1.72717C72.1567 -1.04976 80.8204 4.43457 81.8448 13.118C82.3665 17.5373 81.0633 21.3913 77.9492 24.5552C72.0317 30.5665 66.0773 36.5415 60.1369 42.5306C59.0166 43.6601 58.1971 43.6551 57.0648 42.5125C51.1503 36.5496 45.2099 30.6128 39.3305 24.6146C35.4918 20.6991 34.2935 15.9685 35.8806 10.7371C37.4666 5.51269 41.1194 2.30049 46.4432 1.26771C50.8086 0.420321 54.7242 1.60223 58.0862 4.56354C58.2501 4.70763 58.407 4.85876 58.6098 5.04618ZM58.5579 39.259C58.7148 39.1179 58.8117 39.0393 58.8987 38.9507C64.4783 33.3253 70.0759 27.719 75.6266 22.0654C77.9971 19.6512 78.9236 16.6849 78.4708 13.3155C77.4734 5.87946 68.9266 1.94078 62.7304 6.09105C61.678 6.79536 60.7985 7.76567 59.8561 8.6322C59.0756 9.35061 58.1221 9.36774 57.3596 8.63018C56.9778 8.2604 56.613 7.87247 56.2333 7.49966C53.6239 4.94643 50.5207 3.96503 46.9429 4.61291C42.3317 5.44821 38.7808 9.63475 38.6319 14.3513C38.533 17.492 39.6333 20.1339 41.835 22.3445C46.1833 26.7114 50.5167 31.0924 54.8521 35.4714C56.0904 36.7198 57.3116 37.9834 58.5579 39.259Z" stroke="#D21F27"/>
</svg>
