<svg width="73" height="72" viewBox="0 0 73 72" fill="none" xmlns="http://www.w3.org/2000/svg">
<path d="M3.46949 27.7386L28.1239 3.42197C32.7499 -1.14066 40.2501 -1.14066 44.8761 3.42197L69.5305 27.7386C74.1565 32.3013 74.1565 39.6987 69.5305 44.2614L44.8761 68.578C40.2501 73.1407 32.7499 73.1407 28.1239 68.578L3.46949 44.2614C-1.1565 39.6987 -1.1565 32.3013 3.46949 27.7386Z" fill="#D62027"/>
<path d="M36.5 70.0449C39.1341 70.0449 41.6123 69.0303 43.4671 67.2009L68.1402 42.8812C70.0106 41.0364 71.0237 38.6075 71.0237 36.0095C71.0237 33.4115 69.995 30.9672 68.1402 29.1379L43.4827 4.80272C41.6123 2.95799 39.1497 1.95875 36.5156 1.95875C33.8815 1.95875 31.4033 2.97336 29.5485 4.80272L4.89095 29.1225C3.03618 30.9672 2.00748 33.3961 2.00748 35.9941C2.00748 38.5921 3.03618 41.0364 4.89095 42.8658L29.5485 67.1856C31.4189 69.0303 33.8815 70.0295 36.5156 70.0295L36.5 70.0449Z" fill="#D62027"/>
</svg>
