<svg width="104" height="104" viewBox="0 0 106 106" fill="none" xmlns="http://www.w3.org/2000/svg">
<path d="M86.5401 89.9383C86.5401 89.4768 86.1607 89.0958 85.7013 89.0958C79.4825 89.0958 73.611 89.0904 67.7342 89.1012C67.3762 89.1012 67.0182 89.1495 66.5428 89.2085C66.126 89.2622 65.8055 89.6217 65.8055 90.0457C65.8055 93.7538 65.8055 97.4137 65.8055 101.079C65.8055 101.975 65.9604 102.914 65.7307 103.746C65.6238 104.122 65.3407 104.444 65.0255 104.755C64.6889 105.093 64.1439 105.077 63.818 104.734C63.4921 104.39 63.1983 104.041 63.1716 103.676C63.0167 101.632 63.1128 99.5657 63.1182 97.505C63.1235 94.9076 63.2784 92.3049 63.1075 89.7237C62.9525 87.4483 63.4387 85.9779 65.8322 86.0477C66.297 86.0638 66.6817 85.6828 66.687 85.2159C66.7137 83.2732 66.7939 81.4433 66.655 79.6295C66.1634 73.179 68.4661 68.0112 73.6911 64.3137C77.9705 61.2871 82.3728 58.4268 86.8499 55.7007C88.1535 54.9064 90.0127 54.2625 91.3965 54.5683C92.9992 54.9225 94.9226 56.1139 95.6278 57.493C96.1407 58.5073 95.3393 60.8095 94.3776 61.8506C91.8506 64.5982 88.9763 67.0452 86.102 69.444C85.7226 69.7606 85.1189 69.8036 84.4938 69.8197C83.9542 69.8358 83.5429 69.3367 83.6497 68.8054C83.7566 68.2741 83.8901 67.7697 84.2107 67.4531C86.7591 64.9577 89.4838 62.6448 92.0696 60.1816C92.3955 59.8704 92.5665 59.3874 92.7321 58.9044C92.8657 58.5127 92.6947 58.078 92.3314 57.8902C91.685 57.5521 91.0278 57.1711 90.4882 57.3052C88.8748 57.7023 87.2239 58.3356 85.8455 59.2586C81.8546 61.9364 77.8851 64.6626 74.1132 67.6355C70.8649 70.1953 69.2568 73.7103 69.4224 77.9766C69.5132 80.3164 69.4545 82.6615 69.4438 85.3393C69.4438 85.8008 69.8178 86.1818 70.2826 86.1818C74.1452 86.1872 77.8423 86.214 81.5394 86.1282C81.9615 86.1174 82.5438 85.452 82.7628 84.9583C84.4404 81.1481 87.0903 78.0786 90.563 75.9857C97.6152 71.7355 100.506 65.2582 100.992 57.4286C101.478 49.5722 101.777 41.6997 102.14 33.8379C102.14 33.8326 102.14 33.8326 102.14 33.8272C102.167 33.1779 101.424 32.7754 100.869 33.1135C98.9722 34.278 98.2777 36.2099 97.8076 38.1793C96.8138 42.349 96.1086 46.5939 95.0882 50.7582C94.96 51.2841 94.5112 51.7349 94.0303 52.1749C93.5976 52.5667 92.9137 52.4218 92.6894 51.8798C92.465 51.3485 92.2833 50.8226 92.3635 50.345C93.0687 46.2021 93.8968 42.0807 94.8424 37.9862C95.585 34.7663 96.9902 31.8738 100.121 30.2961C102.92 28.8847 105.138 30.0922 104.993 33.1832C104.55 42.7354 104.117 52.3037 103.23 61.8237C102.611 68.4834 99.1646 73.7157 93.4854 77.4131C90.4936 79.3611 87.8062 81.658 86.0646 84.9046C85.8028 85.3983 86.0859 86.0101 86.6309 86.1282C89.425 86.74 89.4197 87.0941 89.4037 90.6091C89.3823 94.8164 89.425 99.0237 89.2861 103.226C89.2701 103.671 89.0137 104.106 88.7145 104.54C88.3939 105.007 87.7261 105.029 87.3681 104.589C86.9781 104.111 86.6202 103.628 86.6042 103.134C86.4759 98.8573 86.5347 94.5695 86.5401 89.9383Z" fill="#D51F27"/>
<path d="M38.6972 29.0511C44.9053 18.1734 60.6071 16.9284 67.5258 28.8847C67.8303 29.4053 68.4394 29.6682 69.0271 29.5341C71.4579 28.9921 73.8033 28.2354 76.1167 28.3159C82.7041 28.5413 87.646 34.0043 87.7688 40.664C87.8223 43.5243 87.8703 46.3953 87.7208 49.2502C87.7154 49.3576 87.6887 49.4649 87.6406 49.5722C87.1918 50.6401 85.5891 50.6294 85.151 49.5615C85.1082 49.4542 85.0762 49.3468 85.0708 49.2341C84.9212 46.3792 85.1082 43.5028 84.9747 40.6479C84.6221 33.3013 76.8807 28.7506 70.726 32.3192C69.8926 32.8022 69.1553 34.1921 69.1232 35.1903C68.979 39.7463 69.0858 44.3131 69.1339 48.88C69.1606 51.0856 68.2844 52.6364 65.9764 52.6794C63.6578 52.7223 62.7121 51.1714 62.7014 48.9819C62.6908 46.2075 62.5144 43.417 62.7762 40.664C62.9579 38.7536 63.2998 36.5694 64.3683 35.099C66.1581 32.6305 65.314 30.8488 63.8554 28.8901C58.0267 21.0713 46.0326 21.9084 41.4219 30.4303C40.6846 31.7987 40.6953 32.8505 41.4753 34.3531C42.5065 36.3494 43.1316 38.6731 43.388 40.9162C43.7032 43.6531 43.4735 46.4543 43.4575 49.2288C43.4468 51.37 42.3729 52.6955 40.2305 52.674C38.0828 52.6525 37.0517 51.2465 37.0463 49.1536C37.041 44.501 37.1746 39.8483 37.0624 35.1956C37.041 34.2672 36.432 32.9578 35.684 32.5071C29.7484 28.9545 21.9322 33.0383 21.3659 39.9878C21.1415 42.7462 21.4033 45.5421 21.2056 48.3004C21.2002 48.4024 21.1842 48.4989 21.1628 48.5955C20.853 49.9747 18.8281 50.0284 18.4862 48.6546C18.4648 48.5741 18.4488 48.4882 18.4381 48.4024C18.2137 46.4597 18.5236 44.458 18.3473 42.5047C17.4284 32.4319 27.0717 24.8921 36.8754 29.6038C37.5432 29.9366 38.3339 29.6951 38.6972 29.0511ZM39.91 49.3146C40.0222 49.3093 40.1344 49.2985 40.2519 49.2932C40.2519 45.7299 40.2519 42.1612 40.2519 38.5979C40.1397 38.6033 40.0275 38.614 39.91 38.6194C39.91 42.1881 39.91 45.7513 39.91 49.3146ZM65.8536 49.4756C66.0085 49.4917 66.1581 49.5025 66.313 49.5186C66.313 45.8265 66.313 42.1398 66.313 38.4477C66.1581 38.4477 66.0085 38.4423 65.8536 38.4423C65.8536 42.1183 65.8536 45.7996 65.8536 49.4756Z" fill="#D51F27"/>
<path d="M62.1565 10.0487C62.2046 15.4097 58.2457 19.5043 53.0153 19.4989C47.8651 19.4989 43.949 15.5707 43.8688 10.3277C43.7887 5.18669 47.7636 1.07066 52.8764 1.00089C57.9893 0.931131 62.1138 4.95057 62.1565 10.0487ZM52.8871 3.92022C49.4785 3.98462 46.6042 6.90394 46.6203 10.274C46.6363 13.6334 49.5587 16.4669 53.01 16.4615C56.5788 16.4615 59.5279 13.4671 59.389 10.0004C59.2501 6.56586 56.3438 3.85046 52.8871 3.92022Z" fill="#D51F27"/>
<path d="M30.7581 27.1675C26.7352 27.1192 23.5189 23.8135 23.5456 19.7511C23.567 15.6404 26.8313 12.4635 30.9237 12.5709C34.8773 12.6782 38.0935 16.1073 38.024 20.1429C37.9439 24.1086 34.733 27.2158 30.7581 27.1675ZM30.8757 15.5975C28.4341 15.6619 26.4894 17.6636 26.5321 20.0677C26.5749 22.4933 28.6478 24.4306 31.0627 24.2911C33.4134 24.1569 35.4008 21.9728 35.294 19.6545C35.1871 17.3523 33.205 15.5331 30.8757 15.5975Z" fill="#D51F27"/>
<path d="M82.469 19.9336C82.4316 23.953 79.0978 27.2212 75.0909 27.1836C71.1374 27.146 67.9959 23.953 68.0066 19.9819C68.0173 15.9463 71.303 12.5923 75.2619 12.5709C79.2795 12.5494 82.5117 15.8497 82.469 19.9336ZM79.6214 20.2073C79.7015 17.8997 77.6607 15.7478 75.3099 15.6673C73.0019 15.5922 70.9771 17.4167 70.8489 19.6867C70.7153 22.0533 72.6226 24.1945 75.0001 24.3448C77.3989 24.495 79.5413 22.5792 79.6214 20.2073Z" fill="#D51F27"/>
<path d="M39.3383 86.0745C39.3383 83.0962 39.3169 80.3378 39.3437 77.5795C39.3864 73.4474 38.3232 69.546 35.123 66.9594C30.2933 63.058 25.1324 59.5537 19.9821 56.0763C18.6358 55.1694 16.8514 54.7615 15.2112 54.4932C12.9406 54.1283 11.231 55.2552 10.2533 57.3213C9.32902 59.2747 10.2586 60.7665 11.6744 62.0545C14.3778 64.5177 17.033 67.0452 19.8379 69.385C19.8913 69.4333 19.9554 69.4709 20.0195 69.5084C21.243 70.2168 22.6481 68.6444 21.804 67.5068C21.7612 67.4531 21.7185 67.3994 21.6704 67.3511C19.1327 64.845 16.3973 62.5428 13.8221 60.0689C13.3627 59.6289 12.962 58.5073 13.2024 58.1048C13.5229 57.5735 14.506 57.1925 15.1952 57.2086C16.0446 57.2247 16.9956 57.5467 17.7008 58.0297C22.8938 61.593 28.199 65.0328 33.1089 68.9611C34.7437 70.2705 35.9458 72.8195 36.2556 74.9553C36.7685 78.524 36.3946 82.2161 36.3946 86.2087C32.425 86.2087 28.6157 86.2516 24.8172 86.155C24.2936 86.1389 23.5456 85.5271 23.3106 85.0066C21.3391 80.574 17.9466 77.4453 14.0198 74.8856C8.84818 71.5155 6.03264 66.6374 5.51441 60.6753C4.72371 51.6061 4.40849 42.4832 3.91163 33.3764C3.90095 33.1725 4.13068 32.9525 4.24822 32.7432C6.48676 33.8487 7.54459 35.2064 8.2605 38.3564C9.21148 42.5422 9.94876 46.771 10.9532 50.9407C10.9745 51.0212 11.0012 51.0963 11.0333 51.1768C11.621 52.4862 13.6992 52.073 13.6886 50.6348C13.6886 50.565 13.6832 50.5006 13.6725 50.4309C12.9727 46.288 12.1339 42.172 11.1936 38.0774C10.4563 34.8575 9.08326 31.949 5.97922 30.3283C3.1049 28.8311 0.877046 30.1136 1.00527 33.3711C1.35254 42.2203 1.67309 51.0748 2.41037 59.8972C3.04614 67.5014 6.41731 73.6835 13.0902 77.8639C15.0189 79.0714 16.659 80.8101 18.2565 82.4737C19.1701 83.4235 19.731 84.7115 20.7408 86.3053C16.8781 85.7418 16.456 87.6093 16.5682 90.2442C16.7338 94.1778 16.5789 98.1167 16.7018 102.056C16.7018 102.104 16.7018 102.152 16.7018 102.201C16.7018 102.201 16.7499 103.435 17.765 103.773C19.3677 104.31 19.3677 102.222 19.3731 102.201C19.3838 102.093 19.3944 101.986 19.3998 101.889C19.5601 97.725 19.4639 93.5499 19.4639 89.2461H40.2198C40.2198 93.8665 40.1451 98.2348 40.2786 102.598C40.284 102.689 40.2893 102.775 40.3053 102.866C40.5511 104.32 42.7789 104.202 42.8484 102.732C42.8484 102.721 42.8484 102.716 42.8484 102.705C42.9766 98.5031 42.7683 94.2905 42.9072 90.0886C42.998 87.502 42.7576 85.5271 39.3383 86.0745Z" fill="#D51F27"/>
<path d="M86.5401 89.9383C86.5401 89.4768 86.1607 89.0958 85.7013 89.0958C79.4825 89.0958 73.611 89.0904 67.7342 89.1012C67.3762 89.1012 67.0182 89.1495 66.5428 89.2085C66.126 89.2622 65.8055 89.6217 65.8055 90.0457C65.8055 93.7538 65.8055 97.4137 65.8055 101.079C65.8055 101.975 65.9604 102.914 65.7307 103.746C65.6238 104.122 65.3407 104.444 65.0255 104.755C64.6889 105.093 64.1439 105.077 63.818 104.734C63.4921 104.39 63.1983 104.041 63.1716 103.676C63.0167 101.632 63.1128 99.5657 63.1182 97.505C63.1235 94.9076 63.2784 92.3049 63.1075 89.7237C62.9525 87.4483 63.4387 85.9779 65.8322 86.0477C66.297 86.0638 66.6817 85.6828 66.687 85.2159C66.7137 83.2732 66.7939 81.4433 66.655 79.6295C66.1634 73.179 68.4661 68.0112 73.6911 64.3137C77.9705 61.2871 82.3728 58.4268 86.8499 55.7007C88.1535 54.9064 90.0127 54.2625 91.3965 54.5683C92.9992 54.9225 94.9226 56.1139 95.6278 57.493C96.1407 58.5073 95.3393 60.8095 94.3776 61.8506C91.8506 64.5982 88.9763 67.0452 86.102 69.444C85.7226 69.7606 85.1189 69.8036 84.4938 69.8197C83.9542 69.8358 83.5429 69.3367 83.6497 68.8054C83.7566 68.2741 83.8901 67.7697 84.2107 67.4531C86.7591 64.9577 89.4838 62.6448 92.0696 60.1816C92.3955 59.8704 92.5665 59.3874 92.7321 58.9044C92.8657 58.5127 92.6947 58.078 92.3314 57.8902C91.685 57.5521 91.0278 57.1711 90.4882 57.3052C88.8748 57.7023 87.2239 58.3356 85.8455 59.2586C81.8546 61.9364 77.8851 64.6626 74.1132 67.6355C70.8649 70.1953 69.2568 73.7103 69.4224 77.9766C69.5132 80.3164 69.4545 82.6615 69.4438 85.3393C69.4438 85.8008 69.8178 86.1818 70.2826 86.1818C74.1452 86.1872 77.8423 86.214 81.5394 86.1282C81.9615 86.1174 82.5438 85.452 82.7628 84.9583C84.4404 81.1481 87.0903 78.0786 90.563 75.9857C97.6152 71.7355 100.506 65.2582 100.992 57.4286C101.478 49.5722 101.777 41.6997 102.14 33.8379C102.14 33.8326 102.14 33.8326 102.14 33.8272C102.167 33.1779 101.424 32.7754 100.869 33.1135C98.9722 34.278 98.2777 36.2099 97.8076 38.1793C96.8138 42.349 96.1086 46.5939 95.0882 50.7582C94.96 51.2841 94.5112 51.7349 94.0303 52.1749C93.5976 52.5667 92.9137 52.4218 92.6894 51.8798C92.465 51.3485 92.2833 50.8226 92.3635 50.345C93.0687 46.2021 93.8968 42.0807 94.8424 37.9862C95.585 34.7663 96.9902 31.8738 100.121 30.2961C102.92 28.8847 105.138 30.0922 104.993 33.1832C104.55 42.7354 104.117 52.3037 103.23 61.8237C102.611 68.4834 99.1646 73.7157 93.4854 77.4131C90.4936 79.3611 87.8062 81.658 86.0646 84.9046C85.8028 85.3983 86.0859 86.0101 86.6309 86.1282C89.425 86.74 89.4197 87.0941 89.4037 90.6091C89.3823 94.8164 89.425 99.0237 89.2861 103.226C89.2701 103.671 89.0137 104.106 88.7145 104.54C88.3939 105.007 87.7261 105.029 87.3681 104.589C86.9781 104.111 86.6202 103.628 86.6042 103.134C86.4759 98.8573 86.5347 94.5695 86.5401 89.9383Z" stroke="#D51F27"/>
<path d="M38.6972 29.0511C44.9053 18.1734 60.6071 16.9284 67.5258 28.8847C67.8303 29.4053 68.4394 29.6682 69.0271 29.5341C71.4579 28.9921 73.8033 28.2354 76.1167 28.3159C82.7041 28.5413 87.646 34.0043 87.7688 40.664C87.8223 43.5243 87.8703 46.3953 87.7208 49.2502C87.7154 49.3576 87.6887 49.4649 87.6406 49.5722C87.1918 50.6401 85.5891 50.6294 85.151 49.5615C85.1082 49.4542 85.0762 49.3468 85.0708 49.2341C84.9212 46.3792 85.1082 43.5028 84.9747 40.6479C84.6221 33.3013 76.8807 28.7506 70.726 32.3192C69.8926 32.8022 69.1553 34.1921 69.1232 35.1903C68.979 39.7463 69.0858 44.3131 69.1339 48.88C69.1606 51.0856 68.2844 52.6364 65.9764 52.6794C63.6578 52.7223 62.7121 51.1714 62.7014 48.9819C62.6908 46.2075 62.5144 43.417 62.7762 40.664C62.9579 38.7536 63.2998 36.5694 64.3683 35.099C66.1581 32.6305 65.314 30.8488 63.8554 28.8901C58.0267 21.0713 46.0326 21.9084 41.4219 30.4303C40.6846 31.7987 40.6953 32.8505 41.4753 34.3531C42.5065 36.3494 43.1316 38.6731 43.388 40.9162C43.7032 43.6531 43.4735 46.4543 43.4575 49.2288C43.4468 51.37 42.3729 52.6955 40.2305 52.674C38.0828 52.6525 37.0517 51.2465 37.0463 49.1536C37.041 44.501 37.1746 39.8483 37.0624 35.1956C37.041 34.2672 36.432 32.9578 35.684 32.5071C29.7484 28.9545 21.9322 33.0383 21.3659 39.9878C21.1415 42.7462 21.4033 45.5421 21.2056 48.3004C21.2002 48.4024 21.1842 48.4989 21.1628 48.5955C20.853 49.9747 18.8281 50.0284 18.4862 48.6546C18.4648 48.5741 18.4488 48.4882 18.4381 48.4024C18.2137 46.4597 18.5236 44.458 18.3473 42.5047C17.4284 32.4319 27.0717 24.8921 36.8754 29.6038C37.5432 29.9366 38.3339 29.6951 38.6972 29.0511ZM39.91 49.3146C40.0222 49.3093 40.1344 49.2985 40.2519 49.2932C40.2519 45.7299 40.2519 42.1612 40.2519 38.5979C40.1397 38.6033 40.0275 38.614 39.91 38.6194C39.91 42.1881 39.91 45.7513 39.91 49.3146ZM65.8536 49.4756C66.0085 49.4917 66.1581 49.5025 66.313 49.5186C66.313 45.8265 66.313 42.1398 66.313 38.4477C66.1581 38.4477 66.0085 38.4423 65.8536 38.4423C65.8536 42.1183 65.8536 45.7996 65.8536 49.4756Z" stroke="#D51F27"/>
<path d="M62.1565 10.0487C62.2046 15.4097 58.2457 19.5043 53.0153 19.4989C47.8651 19.4989 43.949 15.5707 43.8688 10.3277C43.7887 5.18669 47.7636 1.07066 52.8764 1.00089C57.9893 0.931131 62.1138 4.95057 62.1565 10.0487ZM52.8871 3.92022C49.4785 3.98462 46.6042 6.90394 46.6203 10.274C46.6363 13.6334 49.5587 16.4669 53.01 16.4615C56.5788 16.4615 59.5279 13.4671 59.389 10.0004C59.2501 6.56586 56.3438 3.85046 52.8871 3.92022Z" stroke="#D51F27"/>
<path d="M30.7581 27.1675C26.7352 27.1192 23.5189 23.8135 23.5456 19.7511C23.567 15.6404 26.8313 12.4635 30.9237 12.5709C34.8773 12.6782 38.0935 16.1073 38.024 20.1429C37.9439 24.1086 34.733 27.2158 30.7581 27.1675ZM30.8757 15.5975C28.4341 15.6619 26.4894 17.6636 26.5321 20.0677C26.5749 22.4933 28.6478 24.4306 31.0627 24.2911C33.4134 24.1569 35.4008 21.9728 35.294 19.6545C35.1871 17.3523 33.205 15.5331 30.8757 15.5975Z" stroke="#D51F27"/>
<path d="M82.469 19.9336C82.4316 23.953 79.0978 27.2212 75.0909 27.1836C71.1374 27.146 67.9959 23.953 68.0066 19.9819C68.0173 15.9463 71.303 12.5923 75.2619 12.5709C79.2795 12.5494 82.5117 15.8497 82.469 19.9336ZM79.6214 20.2073C79.7015 17.8997 77.6607 15.7478 75.3099 15.6673C73.0019 15.5922 70.9771 17.4167 70.8489 19.6867C70.7153 22.0533 72.6226 24.1945 75.0001 24.3448C77.3989 24.495 79.5413 22.5792 79.6214 20.2073Z" stroke="#D51F27"/>
<path d="M39.3383 86.0745C39.3383 83.0962 39.3169 80.3378 39.3437 77.5795C39.3864 73.4474 38.3232 69.546 35.123 66.9594C30.2933 63.058 25.1324 59.5537 19.9821 56.0763C18.6358 55.1694 16.8514 54.7615 15.2112 54.4932C12.9406 54.1283 11.231 55.2552 10.2533 57.3213C9.32902 59.2747 10.2586 60.7665 11.6744 62.0545C14.3778 64.5177 17.033 67.0452 19.8379 69.385C19.8913 69.4333 19.9554 69.4709 20.0195 69.5084C21.243 70.2168 22.6481 68.6444 21.804 67.5068C21.7612 67.4531 21.7185 67.3994 21.6704 67.3511C19.1327 64.845 16.3973 62.5428 13.8221 60.0689C13.3627 59.6289 12.962 58.5073 13.2024 58.1048C13.5229 57.5735 14.506 57.1925 15.1952 57.2086C16.0446 57.2247 16.9956 57.5467 17.7008 58.0297C22.8938 61.593 28.199 65.0328 33.1089 68.9611C34.7437 70.2705 35.9458 72.8195 36.2556 74.9553C36.7685 78.524 36.3946 82.2161 36.3946 86.2087C32.425 86.2087 28.6157 86.2516 24.8172 86.155C24.2936 86.1389 23.5456 85.5271 23.3106 85.0066C21.3391 80.574 17.9466 77.4453 14.0198 74.8856C8.84818 71.5155 6.03264 66.6374 5.51441 60.6753C4.72371 51.6061 4.40849 42.4832 3.91163 33.3764C3.90095 33.1725 4.13068 32.9525 4.24822 32.7432C6.48676 33.8487 7.54459 35.2064 8.2605 38.3564C9.21148 42.5422 9.94876 46.771 10.9532 50.9407C10.9745 51.0212 11.0012 51.0963 11.0333 51.1768C11.621 52.4862 13.6992 52.073 13.6886 50.6348C13.6886 50.565 13.6832 50.5006 13.6725 50.4309C12.9727 46.288 12.1339 42.172 11.1936 38.0774C10.4563 34.8575 9.08326 31.949 5.97922 30.3283C3.1049 28.8311 0.877046 30.1136 1.00527 33.3711C1.35254 42.2203 1.67309 51.0748 2.41037 59.8972C3.04614 67.5014 6.41731 73.6835 13.0902 77.8639C15.0189 79.0714 16.659 80.8101 18.2565 82.4737C19.1701 83.4235 19.731 84.7115 20.7408 86.3053C16.8781 85.7418 16.456 87.6093 16.5682 90.2442C16.7338 94.1778 16.5789 98.1167 16.7018 102.056C16.7018 102.104 16.7018 102.152 16.7018 102.201C16.7018 102.201 16.7499 103.435 17.765 103.773C19.3677 104.31 19.3677 102.222 19.3731 102.201C19.3838 102.093 19.3944 101.986 19.3998 101.889C19.5601 97.725 19.4639 93.5499 19.4639 89.2461H40.2198C40.2198 93.8665 40.1451 98.2348 40.2786 102.598C40.284 102.689 40.2893 102.775 40.3053 102.866C40.5511 104.32 42.7789 104.202 42.8484 102.732C42.8484 102.721 42.8484 102.716 42.8484 102.705C42.9766 98.5031 42.7683 94.2905 42.9072 90.0886C42.998 87.502 42.7576 85.5271 39.3383 86.0745Z" stroke="#D51F27"/>
</svg>
