<svg width="29" height="29" viewBox="0 0 30 29" fill="none" xmlns="http://www.w3.org/2000/svg">
<path fill-rule="evenodd" clip-rule="evenodd" d="M26.3579 17.2924C26.3579 17.2897 26.3558 17.2876 26.3531 17.2876H26.3291C26.3133 17.2876 26.3004 17.2747 26.3004 17.2588V4.94753C26.3004 2.21489 24.0947 0 21.352 0H4.97234C2.2488 0 0.0239258 2.21489 0.0239258 4.94753V24.5075C0.0239258 25.2266 0.867838 25.6198 1.41446 25.1595L5.57576 21.6937C6.26406 21.1204 7.13151 20.8065 8.02728 20.8065C10.1429 20.8065 11.8579 22.5215 11.8579 24.6371V28.1415C11.8579 28.6113 12.2415 28.9948 12.7114 28.9948H26.3579C27.8348 28.9948 29.0239 27.8059 29.0239 26.3293V19.9627C29.0239 18.4973 27.8278 17.2998 26.3627 17.2972C26.3601 17.2972 26.3579 17.295 26.3579 17.2924ZM16.4036 25.8736C16.4036 26.6601 15.766 27.2977 14.9794 27.2977C14.1929 27.2977 13.5553 26.6601 13.5553 25.8736V22.2306C13.5553 21.444 14.1929 20.8065 14.9794 20.8065C15.766 20.8065 16.4036 21.444 16.4036 22.2306V25.8736ZM16.3988 13.5913C16.4005 13.5895 16.4036 13.5908 16.4036 13.5933V17.4928C16.4036 18.3856 15.6798 19.1093 14.787 19.1093H6.33411C6.13272 19.1093 5.94092 19.1765 5.78748 19.3107C4.17213 20.6553 1.72135 19.5066 1.72135 17.4049V4.94753C1.72135 3.15453 3.17901 1.7067 4.96274 1.7067H21.3424C23.1357 1.7067 24.5838 3.15453 24.5838 4.94753V15.8635C24.5838 16.65 23.9462 17.2876 23.1597 17.2876H21.7931C21.7613 17.2876 21.7356 17.2618 21.7356 17.2301C21.7356 14.7563 19.7313 12.7427 17.2475 12.7427C16.7798 12.7427 16.3977 13.1226 16.394 13.5893C16.394 13.5918 16.397 13.5931 16.3988 13.5913ZM27.3265 26.3293C27.3265 26.8662 26.895 27.2977 26.3579 27.2977H23.4704C20.5102 27.2977 18.1106 24.898 18.1106 21.9379V18.0909C18.1106 16.3538 20.0477 15.4929 20.0477 17.2301V18.1409C20.0477 18.6107 20.4313 18.9943 20.9012 18.9943H26.3579C26.895 18.9943 27.3265 19.4258 27.3265 19.9627V26.3293Z" fill="white"/>
<path fill-rule="evenodd" clip-rule="evenodd" d="M22.656 6.76938C22.656 6.29956 22.2724 5.91602 21.8025 5.91602H5.42284C4.95293 5.91602 4.56934 6.29956 4.56934 6.76938C4.56934 7.23921 4.95293 7.62272 5.42284 7.62272H21.8025C22.2724 7.62272 22.656 7.23921 22.656 6.76938Z" fill="white"/>
<path fill-rule="evenodd" clip-rule="evenodd" d="M16.3458 9.55957H5.42284C4.95293 9.55957 4.56934 9.94308 4.56934 10.4129C4.56934 10.8827 4.95293 11.2663 5.42284 11.2663H16.3458C16.8157 11.2663 17.1993 10.8827 17.1993 10.4129C17.1993 9.94308 16.8157 9.55957 16.3458 9.55957Z" fill="white"/>
<path fill-rule="evenodd" clip-rule="evenodd" d="M12.7689 13.1934H5.43261C4.9627 13.1934 4.5791 13.5769 4.5791 14.0467C4.5791 14.5165 4.9627 14.9001 5.43261 14.9001H12.7689C13.2388 14.9001 13.6224 14.5165 13.6224 14.0467C13.6224 13.5769 13.2388 13.1934 12.7689 13.1934Z" fill="white"/>
</svg>
