<svg width="45" height="49" viewBox="0 0 45 49" fill="none" xmlns="http://www.w3.org/2000/svg">
<path d="M18.6006 0.0228345C18.2931 0.074684 18.1755 0.183568 18.0344 0.292452C17.8933 0.401335 17.725 0.529231 17.5821 0.670952C17.2999 0.956124 17.0394 1.2966 16.7337 1.64399C16.4316 1.98966 16.1277 2.35952 15.8871 2.61531C15.7659 2.7432 15.623 2.81925 15.547 2.88492L15.4909 2.9385C15.3896 2.9385 15.2159 2.90739 15.0387 2.88665C14.6841 2.83826 14.259 2.74839 13.7941 2.66888C13.3309 2.59111 12.8461 2.54963 12.4373 2.50642C12.2347 2.48741 12.0538 2.44939 11.8729 2.45457C11.6534 2.44882 11.4371 2.5047 11.2506 2.61531C11.0586 2.71369 10.9013 2.86399 10.7983 3.04738C10.7061 3.19602 10.6536 3.3533 10.5722 3.53304C10.3897 3.9423 10.2202 4.3567 10.0639 4.7757C9.90104 5.20259 9.74728 5.58801 9.6116 5.90947C9.54286 6.07021 9.4904 6.19983 9.44155 6.28797C9.42708 6.3139 9.39633 6.326 9.38547 6.34155C9.2896 6.37093 9.10869 6.41068 8.93322 6.45044C8.58227 6.52475 8.15172 6.58697 7.68861 6.66647C7.22732 6.74598 6.72984 6.84104 6.33185 6.93609C6.13286 6.98276 5.99357 7.03461 5.82533 7.09855C5.65528 7.1625 5.45629 7.19534 5.2591 7.42175C5.06011 7.64989 5.06735 7.84519 5.03298 8.01629C4.9968 8.18739 4.98956 8.36022 4.97509 8.55725C4.94795 8.94958 4.92082 9.39894 4.92082 9.85349C4.91901 10.3063 4.93348 10.7488 4.92082 11.0944C4.91177 11.2672 4.8774 11.4297 4.86293 11.5265C4.85027 11.5317 4.84665 11.5507 4.80685 11.5801C4.72544 11.6423 4.61871 11.7581 4.46675 11.8514C4.16465 12.0363 3.74315 12.2714 3.33612 12.4995C2.92909 12.7277 2.54558 12.9264 2.20548 13.1477C2.03543 13.2583 1.89071 13.3551 1.75323 13.4708C1.61755 13.5866 1.46378 13.68 1.35886 13.9565C1.2779 14.1447 1.25774 14.3518 1.30097 14.551C1.32992 14.7239 1.41494 14.9019 1.47102 15.092C1.58499 15.4705 1.70619 15.9078 1.86719 16.3347C2.02639 16.7598 2.21091 17.1919 2.31945 17.522C2.37372 17.6862 2.4099 17.8573 2.43161 17.9541C2.42618 17.9714 2.45874 17.9714 2.43161 18.0077C2.37734 18.0906 2.25975 18.2496 2.1494 18.3862C1.93051 18.661 1.65916 18.9565 1.35705 19.3039C1.05675 19.653 0.751031 20.0125 0.510431 20.3305C0.389227 20.4895 0.257168 20.6641 0.170335 20.8162C0.0544211 20.9944 -0.00466687 21.201 0.000287922 21.4107C0.000287922 21.7045 0.0835025 21.7979 0.170335 21.9517C0.257168 22.1021 0.389227 22.2766 0.510431 22.4356C0.751031 22.7554 1.05675 23.1148 1.35886 23.464C1.65916 23.8114 1.93051 24.1605 2.1494 24.4353C2.25794 24.5718 2.37734 24.6772 2.43161 24.7602C2.4497 24.7844 2.47864 24.7948 2.4895 24.812C2.48226 24.8345 2.43884 24.838 2.43161 24.8674C2.4001 24.995 2.36267 25.1213 2.31945 25.2459C2.21091 25.5742 2.02639 26.0063 1.86719 26.4332C1.70619 26.8601 1.58499 27.2974 1.47102 27.6759C1.41494 27.866 1.32992 28.044 1.30097 28.2168C1.25811 28.4155 1.27827 28.6219 1.35886 28.8096C1.46197 29.0862 1.61755 29.1812 1.75323 29.297C1.89071 29.4128 2.03543 29.5096 2.20548 29.6202C2.54558 29.8397 2.92909 30.0938 3.33612 30.3219C3.74315 30.5501 4.16465 30.7315 4.46675 30.9165C4.61871 31.0098 4.72544 31.1256 4.80685 31.1861C4.84665 31.2172 4.85027 31.2898 4.86293 31.295C4.87921 31.3935 4.91358 31.5196 4.91901 31.6717C4.93348 32.0191 4.91901 32.4616 4.91901 32.9161C4.91901 33.3689 4.94795 33.8183 4.9769 34.2123C4.98956 34.4076 4.9968 34.5805 5.03117 34.7516C5.06735 34.9227 5.06011 35.118 5.2591 35.3444C5.4581 35.5725 5.65528 35.6054 5.82352 35.6693C5.99357 35.7333 6.13467 35.7834 6.33366 35.8318C6.73165 35.9268 7.22732 36.0219 7.69042 36.1014C8.15172 36.1809 8.58227 36.2431 8.93322 36.3174C9.10869 36.3537 9.2896 36.3952 9.38547 36.4263C9.40356 36.4315 9.42708 36.4194 9.44155 36.4263C9.45241 36.4401 9.4307 36.4574 9.44155 36.4782C9.4904 36.5646 9.54286 36.6977 9.6116 36.8584C9.72376 37.1228 9.87572 37.4771 10.0078 37.8297L6.21969 44.3109C5.89588 44.8968 6.56341 45.7108 7.23817 45.5536L11.3085 44.5269L12.3812 48.4156C12.5603 49.1035 13.7615 49.2176 14.0781 48.5781L17.7522 42.2041C17.8535 42.2905 17.9403 42.4011 18.0344 42.4754C18.1755 42.5843 18.2931 42.6915 18.6006 42.745C18.9081 42.7969 19.0492 42.745 19.2229 42.6897C19.3948 42.6327 19.5485 42.5601 19.7294 42.4737C20.0985 42.3009 20.5109 42.052 20.918 41.8256C21.325 41.6009 21.732 41.3935 22.0486 41.2328C22.2078 41.1515 22.3507 41.1083 22.4448 41.0703C22.4629 41.0789 22.5099 41.053 22.5569 41.0703C22.651 41.1083 22.7939 41.1515 22.9531 41.2328C23.2715 41.3935 23.6767 41.6009 24.0837 41.8256C24.4926 42.052 24.9032 42.3009 25.2705 42.4737C25.455 42.5601 25.6069 42.6327 25.7806 42.6897C25.9525 42.7468 26.0936 42.7986 26.4011 42.745C26.5897 42.7227 26.7673 42.6476 26.9112 42.529C26.9474 42.4996 26.9854 42.4564 27.0234 42.4201L30.6975 48.5781C31.0141 49.2176 32.2171 49.1035 32.3944 48.4156L33.4671 44.5269L37.5374 45.5536C38.2104 45.7126 38.8797 44.8968 38.5559 44.3109L34.8818 38.1529C34.8963 38.1149 34.9234 38.0855 34.9379 38.0458C35.1007 37.6206 35.2544 37.1781 35.3901 36.8567C35.4589 36.6959 35.5113 36.5663 35.5602 36.4799C35.5493 36.4557 35.5963 36.4436 35.6162 36.4246C35.7121 36.3952 35.893 36.3537 36.0685 36.3174C36.4194 36.2431 36.85 36.1809 37.3131 36.1014C37.7744 36.0219 38.2719 35.9251 38.6699 35.8318C38.8689 35.7851 39.0082 35.7333 39.1764 35.6693C39.3464 35.6054 39.5454 35.5725 39.7426 35.3444C39.9416 35.118 39.9344 34.9227 39.9687 34.7516C40.0049 34.5788 40.0122 34.4076 40.0266 34.2106C40.0538 33.8183 40.0809 33.3689 40.0809 32.9144C40.0827 32.4616 40.0682 32.0191 40.0809 31.6735C40.0881 31.5214 40.1225 31.3935 40.1388 31.2932C40.1334 31.2967 40.1352 31.25 40.1388 31.2414C40.1533 31.2293 40.1714 31.2051 40.1949 31.1861C40.2763 31.1256 40.383 31.0098 40.535 30.9165C40.8371 30.7315 41.2586 30.5501 41.6656 30.3219C42.0708 30.0938 42.4561 29.8397 42.7962 29.6202C42.9663 29.5096 43.111 29.4128 43.2485 29.2953C43.3842 29.1795 43.5379 29.0879 43.6429 28.8114C43.7478 28.5331 43.6718 28.3879 43.6429 28.2151C43.6157 28.0423 43.5886 27.8643 43.5307 27.6759C43.4167 27.2956 43.2376 26.8601 43.0784 26.4332C42.9192 26.008 42.7926 25.576 42.6823 25.2459C42.6392 25.1213 42.6018 24.995 42.5701 24.8674C42.5683 24.857 42.5158 24.876 42.5122 24.8674C42.5032 24.8846 42.5014 24.8725 42.5122 24.8138C42.5231 24.793 42.5538 24.7844 42.5701 24.7602C42.6244 24.6755 42.742 24.5718 42.8523 24.4353C43.0712 24.1605 43.3407 23.8131 43.6447 23.4622C43.945 23.1148 44.2507 22.7554 44.4913 22.4373C44.6125 22.2783 44.7445 22.1038 44.8314 21.9517C44.9182 21.7979 44.9996 21.7045 44.9996 21.4107C45.0053 21.2011 44.9469 20.9945 44.8314 20.8162C44.7279 20.6482 44.6144 20.486 44.4913 20.3305C44.2201 19.9801 43.9378 19.6378 43.6447 19.3039C43.3426 18.9565 43.0712 18.661 42.8523 18.3862C42.753 18.2636 42.6589 18.1374 42.5701 18.0077C42.543 17.9662 42.5755 17.9679 42.5701 17.9541C42.5918 17.8573 42.628 17.6862 42.6823 17.522C42.7908 17.1936 42.9174 16.7616 43.0784 16.3329C43.2376 15.9078 43.4167 15.4688 43.5307 15.092C43.5868 14.9019 43.6157 14.7239 43.6447 14.551C43.6718 14.3799 43.7478 14.2348 43.6447 13.9565C43.5397 13.68 43.3842 13.5866 43.2467 13.4726C43.1036 13.3549 42.9525 13.2463 42.7944 13.1477C42.4561 12.9264 42.0708 12.7277 41.6656 12.4995C41.2586 12.2714 40.8371 12.0363 40.535 11.8514C40.383 11.7581 40.2763 11.6406 40.1949 11.5818C40.1949 11.5749 40.1406 11.5887 40.1388 11.5818C40.108 11.5282 40.1261 11.5213 40.1388 11.5265C40.1243 11.428 40.0899 11.2672 40.0827 11.0944C40.0682 10.7488 40.0827 10.3063 40.0827 9.85176C40.0827 9.39894 40.0538 8.94958 40.0248 8.55552C40.0122 8.36022 40.0049 8.18739 39.9705 8.01629C39.9344 7.84519 39.9416 7.64989 39.7426 7.42175C39.5436 7.19361 39.3464 7.1625 39.1782 7.09855C39.0126 7.03241 38.8421 6.97811 38.6681 6.93609C38.2701 6.84104 37.7744 6.74598 37.3113 6.66647C36.85 6.58697 36.4194 6.52475 36.0685 6.45044C35.9161 6.42065 35.7652 6.38432 35.6162 6.34155C35.6054 6.32427 35.5746 6.3139 35.5602 6.28797C35.5113 6.19983 35.4589 6.07021 35.3901 5.90947C35.2544 5.58974 35.1007 5.20086 34.9379 4.7757C34.775 4.34881 34.5941 3.89426 34.4295 3.53304C34.3463 3.3533 34.2957 3.19602 34.2034 3.04738C34.1004 2.86399 33.9431 2.71369 33.7511 2.61531C33.5653 2.50314 33.3486 2.44657 33.1288 2.45284C32.9479 2.45284 32.767 2.48741 32.5626 2.50642C32.1556 2.54963 31.6708 2.59284 31.2059 2.66888C30.7427 2.74666 30.3194 2.83826 29.9631 2.88492C29.7858 2.90739 29.6121 2.93677 29.5108 2.9385C29.4999 2.93677 29.4855 2.9506 29.4547 2.9385C29.4421 2.92813 29.4692 2.89875 29.4547 2.88665C29.3787 2.81925 29.2376 2.7432 29.1146 2.61531C28.874 2.35952 28.5719 1.98966 28.268 1.64227C27.9641 1.2966 27.7018 0.956124 27.4178 0.670952C27.2767 0.529231 27.1084 0.403064 26.9655 0.292452C26.8262 0.183568 26.7086 0.074684 26.4011 0.0228345C26.0936 -0.0290149 25.9525 0.0228346 25.7806 0.0764123C25.6069 0.133447 25.455 0.206036 25.2705 0.292452C24.9032 0.467011 24.4926 0.715888 24.0837 0.940569C23.6749 1.16525 23.2697 1.37438 22.9531 1.53511C22.7939 1.61634 22.651 1.71313 22.5569 1.75115C22.4629 1.78744 22.3706 1.75115 22.5009 1.75115C22.6311 1.75115 22.537 1.78744 22.4448 1.75115C22.3507 1.71485 22.2078 1.61634 22.0486 1.53511C21.7302 1.37438 21.325 1.16698 20.918 0.940569C20.5109 0.715888 20.0985 0.467011 19.7312 0.292452C19.5467 0.206036 19.3948 0.133447 19.2229 0.0764123C19.0492 0.0193779 18.9081 -0.0307432 18.6006 0.0228345ZM18.8267 1.37265C18.9081 1.40203 19.0384 1.42104 19.165 1.48153C19.4726 1.62671 19.8344 1.85139 20.2396 2.07607C20.643 2.29902 21.0663 2.48741 21.4263 2.66888C21.6072 2.76048 21.7754 2.87628 21.9346 2.9385C22.1122 3.01551 22.3059 3.05275 22.5009 3.04738C22.6957 3.05186 22.8892 3.01465 23.0671 2.9385C23.2263 2.87628 23.3945 2.76048 23.5736 2.66888C23.9354 2.48741 24.3587 2.29902 24.7621 2.07434C25.1655 1.85139 25.5273 1.62671 25.8367 1.48153C25.9633 1.42104 26.0936 1.40376 26.175 1.37265C26.2401 1.42795 26.3088 1.44178 26.4011 1.53511C26.6399 1.77362 26.9492 2.11064 27.2495 2.45284C27.5498 2.79678 27.8809 3.18911 28.154 3.47946C28.2915 3.62464 28.4218 3.74562 28.5502 3.85796C28.6768 3.9703 28.7528 4.03944 29.0025 4.12758C29.1801 4.20261 29.3727 4.23977 29.5669 4.23647C29.7405 4.23647 29.9305 4.20708 30.1331 4.18116C30.5347 4.12931 30.9743 4.04289 31.432 3.96512C31.8915 3.88907 32.3365 3.78537 32.6766 3.74908C32.8032 3.7318 32.9298 3.74908 33.0167 3.74908C33.0601 3.8234 33.1252 3.9392 33.1849 4.074C33.3242 4.37646 33.478 4.78607 33.6372 5.20778C33.7982 5.62949 33.9917 6.03391 34.1473 6.39686C34.2233 6.5766 34.292 6.73388 34.3734 6.88079C34.453 7.02942 34.5091 7.1504 34.7117 7.31286C34.9143 7.47878 35.0554 7.53409 35.2201 7.58421C35.3865 7.63606 35.5873 7.64989 35.7863 7.69309C36.1843 7.77605 36.6275 7.88321 37.0852 7.96271C37.5447 8.04221 37.9969 8.09925 38.3298 8.17875C38.4745 8.21332 38.5866 8.25825 38.6699 8.28591C38.6843 8.37232 38.7151 8.46738 38.7241 8.61083C38.7495 8.94094 38.7241 9.4024 38.7241 9.85176C38.7259 10.3011 38.7097 10.7574 38.7241 11.148C38.7332 11.345 38.7603 11.5248 38.782 11.689C38.8055 11.8531 38.82 12.0104 38.9521 12.2299C39.0823 12.4477 39.2108 12.5047 39.3464 12.6067C39.4839 12.7104 39.6286 12.8262 39.7987 12.9316C40.1424 13.1407 40.5838 13.3533 40.9872 13.5797C41.3888 13.8044 41.7759 14.0429 42.06 14.2279C42.2047 14.3195 42.277 14.3886 42.344 14.4439C42.3259 14.5268 42.2716 14.6288 42.23 14.7671C42.1341 15.0868 41.993 15.4792 41.8356 15.9009C41.6765 16.3243 41.5064 16.7702 41.3834 17.1452C41.3201 17.3302 41.3056 17.5203 41.2694 17.6845C41.2332 17.8469 41.1681 17.9766 41.2133 18.2237C41.2586 18.4726 41.3472 18.5694 41.4395 18.7094C41.5299 18.8528 41.6547 18.9859 41.7778 19.1414C42.0274 19.4525 42.3277 19.8241 42.6262 20.1681C42.9247 20.5137 43.2141 20.8179 43.4185 21.0858C43.5198 21.2223 43.6012 21.3381 43.6447 21.4107C43.5994 21.4833 43.5072 21.5628 43.4185 21.6803C43.2141 21.9482 42.9247 22.3077 42.6262 22.6534C42.3277 22.999 42.0274 23.3153 41.7778 23.6247C41.6547 23.7802 41.5317 23.9168 41.4395 24.0568C41.3249 24.2198 41.2479 24.4042 41.2133 24.5977C41.1681 24.8449 41.2314 24.9745 41.2694 25.137C41.3056 25.2994 41.3201 25.4377 41.3834 25.6244C41.5064 25.9959 41.6765 26.4436 41.8356 26.8653C41.993 27.2887 42.1341 27.681 42.23 28.0008C42.2716 28.1391 42.3277 28.241 42.344 28.324C42.2789 28.3793 42.2029 28.4484 42.06 28.54C41.7759 28.725 41.3906 28.9617 40.9872 29.1881C40.5838 29.4128 40.1424 29.6271 39.7987 29.8363C39.6286 29.9417 39.4839 30.0575 39.3464 30.1612C39.2108 30.2632 39.0823 30.3202 38.9521 30.538C38.82 30.7575 38.8055 30.913 38.782 31.0789C38.7585 31.2431 38.7332 31.4229 38.7259 31.6182C38.7079 32.0105 38.7259 32.465 38.7259 32.9144C38.7259 33.3637 38.7495 33.8252 38.7259 34.157C38.7151 34.2988 38.6825 34.3973 38.6681 34.482C38.5866 34.5096 38.4745 34.5563 38.3298 34.5891C37.9969 34.6686 37.5447 34.7257 37.0852 34.8052C36.6275 34.8847 36.1825 34.9918 35.7863 35.0748C35.5873 35.1163 35.3865 35.1318 35.2201 35.1837C35.0315 35.2358 34.8577 35.328 34.7117 35.4533C34.5091 35.6175 34.453 35.7385 34.3716 35.8854C34.2882 36.0437 34.2128 36.2058 34.1455 36.371C33.9917 36.734 33.7982 37.1384 33.639 37.5601C33.4762 37.9818 33.3242 38.445 33.1867 38.7474C33.1252 38.8788 33.0601 38.9445 33.0149 39.0188C32.9317 39.0188 32.805 39.0361 32.6766 39.0188C32.3365 38.9842 31.8915 38.8788 31.432 38.8028C30.9743 38.7267 30.5347 38.6939 30.1331 38.6403C29.9454 38.6129 29.7565 38.5944 29.5669 38.585C29.3932 38.585 29.2521 38.5504 29.0025 38.6403C28.7311 38.7354 28.6316 38.839 28.4923 38.9635C28.3548 39.0879 28.192 39.2331 28.0401 39.3956C27.738 39.7222 27.4033 40.1094 27.0813 40.4758C26.8099 40.7851 26.5512 41.0841 26.345 41.2863C26.2799 41.3486 26.2799 41.4073 26.2311 41.4488H26.1768C26.0936 41.4194 25.9706 41.4039 25.8367 41.3399C25.5292 41.1947 25.1673 40.9701 24.7621 40.7471C24.3587 40.5224 23.9354 40.2805 23.5754 40.099C23.3945 40.0074 23.2263 39.9469 23.0653 39.8829C22.9061 39.819 22.7668 39.7205 22.5009 39.7205C22.2349 39.7205 22.0956 39.8173 21.9346 39.8812C21.7754 39.9452 21.6072 40.0057 21.4281 40.0973C21.0663 40.2805 20.643 40.5224 20.2396 40.7454C19.8362 40.9701 19.4726 41.1947 19.165 41.3399C19.0312 41.4039 18.9081 41.4194 18.8267 41.4488C18.7485 41.3796 18.673 41.3075 18.6006 41.2328C18.3083 40.9344 18.0253 40.6278 17.7522 40.3133C17.4519 39.9711 17.1208 39.577 16.8477 39.2884C16.7222 39.1561 16.59 39.0298 16.4515 38.9099C16.3249 38.7976 16.2489 38.7267 15.9992 38.6403C15.7496 38.5521 15.6085 38.5781 15.4348 38.585C15.2612 38.585 15.0712 38.6144 14.8686 38.6403C14.467 38.6921 14.0274 38.7233 13.5679 38.801C13.1102 38.8771 12.6652 38.9825 12.3251 39.0171C12.1985 39.0343 12.0719 39.0171 11.985 39.0171C11.9434 38.9427 11.8765 38.8788 11.8168 38.7474C11.6775 38.445 11.5237 37.9818 11.3645 37.5601C11.2035 37.1384 11.01 36.734 10.8562 36.371C10.7882 36.2058 10.7121 36.0438 10.6283 35.8854C10.5487 35.7385 10.4926 35.6175 10.29 35.4533C10.1437 35.3284 9.97 35.2362 9.78165 35.1837C9.61522 35.1318 9.41442 35.118 9.21543 35.0748C8.81744 34.9918 8.37423 34.8847 7.91474 34.8052C7.45706 34.7257 7.00481 34.6686 6.67195 34.5891C6.52723 34.5546 6.41507 34.5079 6.33185 34.4802C6.31919 34.3956 6.28663 34.2988 6.27758 34.157C6.25226 33.8252 6.27758 33.3637 6.27758 32.9144C6.27577 32.465 6.29205 32.0105 6.27758 31.6182C6.26732 31.4376 6.248 31.2577 6.21969 31.0789C6.19618 30.913 6.1817 30.7575 6.04965 30.538C5.9194 30.3202 5.79096 30.2614 5.65528 30.1612C5.51779 30.0575 5.37307 29.9417 5.20303 29.8363C4.85931 29.6271 4.41791 29.4146 4.0145 29.1881C3.6129 28.9635 3.22577 28.725 2.94175 28.54C2.79703 28.4484 2.72467 28.3793 2.65774 28.324C2.67583 28.241 2.7301 28.1373 2.7717 27.9991C2.86758 27.681 3.00868 27.2887 3.16607 26.8653C3.32526 26.4436 3.49531 25.9959 3.61832 25.6244C3.68164 25.4377 3.69611 25.3012 3.73229 25.137C3.76847 24.9745 3.8336 24.8449 3.78837 24.5977C3.75385 24.4042 3.67678 24.2198 3.56225 24.0568C3.47179 23.9151 3.34697 23.7802 3.22396 23.6247C2.97612 23.3136 2.67402 22.9973 2.37553 22.6534C2.07704 22.3077 1.78579 21.9482 1.58318 21.6803C1.50162 21.5767 1.42613 21.4688 1.35705 21.3571C1.40228 21.2828 1.49454 21.2051 1.58318 21.0875C1.78579 20.8179 2.07704 20.5137 2.37553 20.1681C2.67402 19.8224 2.97612 19.4525 3.22396 19.1414C3.34697 18.9859 3.46999 18.8511 3.56225 18.7094C3.65451 18.5694 3.74315 18.4726 3.78837 18.2254C3.8336 17.9766 3.77028 17.8469 3.73229 17.6845C3.69611 17.522 3.68164 17.3302 3.61832 17.1435C3.49531 16.7702 3.32526 16.3243 3.16607 15.9009C3.02273 15.5268 2.89122 15.1487 2.7717 14.7671C2.7301 14.6288 2.67402 14.5268 2.65774 14.4439C2.72286 14.3886 2.79884 14.3195 2.94175 14.2279C3.22577 14.0429 3.61109 13.8044 4.0145 13.5797C4.41791 13.3551 4.85931 13.1407 5.20303 12.9316C5.37307 12.8262 5.51779 12.7104 5.65528 12.6067C5.79096 12.5047 5.9194 12.4477 6.04965 12.2282C6.1817 12.0104 6.19618 11.8549 6.21969 11.689C6.24321 11.5248 6.26854 11.3433 6.27577 11.148C6.29386 10.7574 6.27577 10.3011 6.27577 9.85176C6.27577 9.4024 6.25226 8.94094 6.27577 8.61083C6.28663 8.46738 6.31919 8.36886 6.33366 8.28591C6.41507 8.25825 6.52723 8.21159 6.67195 8.17875C7.00481 8.09925 7.45706 8.04049 7.91655 7.96271C8.37423 7.88321 8.81925 7.77605 9.21543 7.69137C9.41442 7.64989 9.61522 7.63433 9.78165 7.58421C9.96991 7.53143 10.1435 7.43933 10.29 7.31459C10.4926 7.1504 10.5487 7.02942 10.6301 6.88251C10.7097 6.73388 10.7784 6.5766 10.8544 6.39513C11.01 6.03218 11.2035 5.62949 11.3645 5.20778C11.5237 4.78607 11.6775 4.37819 11.8168 4.074C11.8783 3.94092 11.9434 3.8234 11.9868 3.74908C12.0701 3.74908 12.1967 3.7318 12.3251 3.74908C12.6652 3.78537 13.1102 3.88907 13.5697 3.96512C14.0274 4.04117 14.467 4.12931 14.8686 4.18116C15.0712 4.20708 15.2612 4.23128 15.4348 4.23647C15.6286 4.23547 15.8203 4.19849 15.9992 4.12758C16.2489 4.03944 16.3249 3.9703 16.4515 3.85796C16.5799 3.74562 16.7102 3.62464 16.8477 3.47946C17.1208 3.18911 17.4519 2.79678 17.7522 2.45284C18.0525 2.11064 18.3618 1.77362 18.6006 1.53511C18.6929 1.44178 18.7634 1.42795 18.8267 1.37265ZM22.3887 5.8559C18.114 5.8559 13.8773 7.50471 10.8544 10.3927C7.83334 13.279 6.10753 17.3267 6.10753 21.4107C6.10753 25.493 7.83334 29.4871 10.8562 32.3752C13.8773 35.2614 18.114 36.9656 22.3869 36.9656C26.6616 36.9656 30.8983 35.2614 33.9212 32.3752C36.9537 29.4604 38.6601 25.5204 38.6699 21.4107C38.6699 17.3284 36.9423 13.2807 33.9212 10.3927C30.8983 7.50644 26.6616 5.8559 22.3887 5.8559ZM22.3887 7.58421C26.1659 7.58421 29.9504 9.08266 32.6205 11.6354C35.3145 14.2405 36.8357 17.7487 36.859 21.4107C36.859 25.0194 35.2906 28.6351 32.6205 31.1861C29.8936 33.761 26.2208 35.2149 22.3869 35.2372C18.5536 35.2144 14.8815 33.7605 12.1551 31.1861C9.4604 28.5812 7.93861 25.073 7.91474 21.4107C7.91474 17.802 9.48497 14.1864 12.1551 11.6354C14.8815 9.06092 18.5554 7.60701 22.3887 7.58421ZM22.3308 13.1477C21.7881 13.1477 21.5529 13.3913 21.3702 13.5797C21.1893 13.7664 21.0591 14.0049 20.918 14.2279C20.6358 14.6738 20.3934 15.1957 20.1256 15.7401C19.8579 16.2845 19.5522 16.8359 19.3351 17.2524C19.2265 17.4598 19.1813 17.6257 19.1089 17.7381C19.0728 17.7951 19.0149 17.8314 18.995 17.8469C18.8611 17.8781 18.6151 17.8642 18.3745 17.8988C17.8915 17.9748 17.3035 18.0889 16.6776 18.1701C16.0517 18.2514 15.4565 18.3153 14.9247 18.4398C14.6526 18.5048 14.3878 18.5951 14.1341 18.7094C13.8935 18.82 13.5643 18.9168 13.3997 19.4128C13.2351 19.9071 13.4377 20.2165 13.5697 20.4394C13.7 20.6606 13.8411 20.8369 14.022 21.0322C14.3802 21.4263 14.8596 21.81 15.3209 22.2213C15.7822 22.6326 16.2163 23.0837 16.5655 23.4087C16.7391 23.5711 16.9273 23.6852 17.0177 23.7872C17.0177 23.8079 17.0213 23.8304 17.0177 23.896C17.0087 24.0274 16.9996 24.2054 16.9616 24.4353C16.8857 24.895 16.7337 25.5172 16.6215 26.11C16.5158 26.6821 16.4403 27.259 16.3954 27.8383C16.3755 28.0976 16.361 28.3395 16.3954 28.5936C16.4298 28.8459 16.4624 29.1553 16.9038 29.4578C17.347 29.7602 17.7178 29.6703 17.9783 29.6202C18.2406 29.5701 18.4613 29.5044 18.7128 29.4042C19.2175 29.2002 19.7439 28.9393 20.2957 28.6472C20.8492 28.3568 21.3901 27.9991 21.8225 27.783C22.0396 27.6759 22.2584 27.6188 22.3887 27.567C22.4176 27.5774 22.4611 27.5532 22.5009 27.567C22.6293 27.6188 22.8482 27.7329 23.0671 27.8383C23.5012 28.0492 24.0349 28.3102 24.5921 28.5936C25.1493 28.8788 25.6703 29.1518 26.175 29.3506C26.4282 29.4491 26.6471 29.52 26.9112 29.5666C27.1736 29.6133 27.5462 29.7101 27.984 29.4042C28.4218 29.0965 28.4616 28.7388 28.4941 28.4864C28.5215 28.2348 28.5215 27.9811 28.4941 27.7294C28.4453 27.2109 28.3313 26.6475 28.2101 26.0564C28.0907 25.4636 27.9532 24.8397 27.8718 24.38C27.8302 24.1518 27.8266 23.9738 27.8139 23.8407V23.7872C27.8302 23.7664 27.8501 23.7578 27.8718 23.7336C27.9623 23.6299 28.0943 23.521 28.2662 23.3551C28.6099 23.0267 29.0549 22.5843 29.5108 22.166C29.9667 21.7512 30.4008 21.3226 30.7554 20.9251C30.9309 20.7263 31.0792 20.5535 31.2077 20.3305C31.3343 20.1058 31.5478 19.7965 31.3759 19.3039C31.2059 18.8113 30.8278 18.7076 30.5854 18.6022C30.343 18.4951 30.115 18.3914 29.8491 18.3326C29.251 18.2149 28.6473 18.1249 28.0401 18.063C27.4142 17.9869 26.828 17.9679 26.345 17.9005C26.1546 17.8725 25.9657 17.8362 25.7788 17.7916C25.7643 17.7778 25.6865 17.8158 25.6666 17.7916C25.6305 17.7657 25.6775 17.745 25.6666 17.7381C25.5943 17.6257 25.4948 17.4045 25.3844 17.1971C25.1619 16.7823 24.9249 16.2811 24.6482 15.7401C24.3732 15.1974 24.0331 14.6167 23.7437 14.1743C23.6007 13.9513 23.532 13.7647 23.3493 13.5797C23.2239 13.4398 23.0674 13.3285 22.8912 13.2537C22.715 13.179 22.5235 13.1427 22.3308 13.1477ZM22.3308 15.3616C22.5244 15.6831 22.7867 16.0581 23.0092 16.4954C23.2769 17.0225 23.4976 17.5462 23.7455 18.0077C23.8685 18.2393 24.0168 18.4709 24.1398 18.6558C24.2628 18.8425 24.3533 18.9945 24.65 19.1968C24.9448 19.399 25.1022 19.4163 25.3284 19.4664C25.5527 19.5182 25.8493 19.5355 26.1189 19.5753C26.6562 19.6496 27.2622 19.717 27.8718 19.7896C28.3892 19.8535 28.8433 19.8794 29.2286 19.952C28.9645 20.2303 28.6443 20.5794 28.2662 20.9251C27.8248 21.3295 27.3508 21.746 26.9673 22.1124C26.7756 22.2974 26.6055 22.4304 26.4572 22.5981C26.3106 22.7692 26.1732 22.9161 26.0628 23.2479C25.9525 23.5763 25.9868 23.7301 26.0049 23.9496C26.023 24.1691 26.0737 24.4508 26.1189 24.7049C26.2093 25.2165 26.3414 25.8058 26.459 26.3796C26.5567 26.8687 26.6399 27.3043 26.6851 27.6759C26.3233 27.5238 25.9072 27.3198 25.4405 27.0813C24.8996 26.8048 24.3424 26.5058 23.8576 26.2725C23.6152 26.1549 23.3927 26.0305 23.1792 25.9476C22.931 25.8379 22.6604 25.7824 22.3869 25.7851C22.0251 25.7851 21.922 25.8629 21.7103 25.9476C21.4969 26.0322 21.2725 26.1515 21.0301 26.2725C20.5489 26.5127 19.9845 26.8532 19.449 27.1366C19.0022 27.37 18.6133 27.5203 18.2605 27.6759C18.3021 27.3043 18.3383 26.8687 18.4306 26.3796C18.5391 25.8041 18.6856 25.2182 18.7707 24.7049C18.8123 24.4491 18.8105 24.221 18.8249 24.0032C18.843 23.7837 18.8846 23.6299 18.7707 23.3015C18.6907 23.0596 18.5547 22.8381 18.3727 22.6534C18.2243 22.4857 18.0597 22.3492 17.8662 22.1677C17.4772 21.8048 17.0123 21.4315 16.5637 21.0322C16.1892 20.6969 15.869 20.334 15.6049 20.0609C15.9848 19.9849 16.4551 19.9105 16.9616 19.8449C17.5677 19.7654 18.1755 19.7101 18.7128 19.6288C18.9823 19.5874 19.2247 19.5199 19.4472 19.4664C19.6716 19.4128 19.8344 19.4024 20.1274 19.1968C20.4187 18.9894 20.4585 18.8442 20.5797 18.6558C20.6991 18.4691 20.8528 18.241 20.974 18.0077C21.2165 17.5428 21.4498 17.026 21.7085 16.4954C21.9274 16.0512 22.1427 15.6865 22.3308 15.3616ZM10.8544 39.8276C10.947 39.9872 11.085 40.1184 11.2524 40.2061C11.5201 40.3565 11.692 40.3098 11.8729 40.315C12.0538 40.315 12.2347 40.2805 12.4391 40.2597C12.8461 40.2182 13.3309 40.1768 13.7959 40.099C14.259 40.0212 14.6823 39.9296 15.0387 39.8829C15.2159 39.8605 15.3896 39.8311 15.4909 39.8276C15.4963 39.838 15.509 39.8467 15.547 39.8829C15.623 39.9486 15.7641 40.0229 15.8871 40.1526C16.0553 40.3306 16.2435 40.6106 16.4515 40.8543L13.5679 45.8767L12.8335 43.2307C12.7599 43.0125 12.6019 42.8295 12.3917 42.719C12.1815 42.6085 11.9351 42.5788 11.7028 42.6362L8.81925 43.3396L10.8544 39.8276ZM29.4547 39.8276C29.3335 39.8709 29.4095 39.8276 29.5108 39.8276C29.6121 39.8276 29.7858 39.8605 29.9631 39.8829C30.3176 39.9296 30.7427 40.0212 31.2077 40.099C31.6708 40.1768 32.1556 40.2165 32.5644 40.2597C32.767 40.2805 32.9479 40.3185 33.1288 40.315C33.3097 40.315 33.4816 40.3548 33.7511 40.2061C33.8398 40.156 33.8633 40.099 33.9194 40.0437L35.8984 43.3396L33.0728 42.6362C32.8405 42.5788 32.5941 42.6085 32.3839 42.719C32.1737 42.8295 32.0157 43.0125 31.9421 43.2307L31.2059 45.932L28.3802 41.0703C28.6262 40.7886 28.8469 40.4879 29.0586 40.2597C29.196 40.1128 29.31 39.9607 29.3986 39.8829C29.4855 39.8034 29.5886 39.781 29.4547 39.8276Z" fill="white"/>
</svg>
