<svg width="36" height="36" viewBox="0 0 36 36" fill="none" xmlns="http://www.w3.org/2000/svg">
<path fill-rule="evenodd" clip-rule="evenodd" d="M34.929 16.9257H34.3673C34.324 16.9257 34.2889 16.8906 34.2889 16.8474C34.2889 15.853 34.0772 14.9318 33.709 14.112C32.8576 12.2163 32.5908 9.33939 32.5908 7.26127C32.5908 4.50559 30.3441 2.25928 27.588 2.25928C24.8318 2.25928 22.585 4.50559 22.585 7.26127C22.585 9.33939 22.3183 12.2163 21.4669 14.112C21.0987 14.9318 20.8869 15.853 20.8869 16.8474C20.8869 16.8906 20.8519 16.9257 20.8086 16.9257H13.8534C12.3633 16.9257 10.9421 16.3169 9.49378 15.9665C9.05128 15.8594 8.58869 15.8026 8.11189 15.8026C4.88548 15.8026 2.25992 18.4277 2.25992 21.6535C2.25992 24.1515 1.96318 27.8565 0.86455 30.1C0.319141 31.2137 0.0131836 32.4655 0.0131836 33.7863V34.9095C0.0131836 35.4972 0.483427 35.9673 1.07124 35.9673H15.7403C16.3281 35.9673 16.7984 35.4972 16.7984 34.9095V33.7863C16.7984 32.5974 17.6508 31.4486 18.8397 31.4486H32.6825C33.3461 31.4486 33.884 31.9865 33.884 32.6501C33.884 33.2247 34.3543 33.7079 34.9421 33.7079C35.5299 33.7079 36.0001 33.2378 36.0001 32.6501V17.9836C36.0001 17.3959 35.5299 16.9257 34.9421 16.9257H34.929ZM24.7011 7.26127C24.7011 5.66794 26.0074 4.36193 27.601 4.36193C29.1946 4.36193 30.5008 5.65488 30.5008 7.26127C30.5008 8.86766 29.2077 10.1606 27.601 10.1606C25.9943 10.1606 24.7011 8.8546 24.7011 7.26127ZM22.9965 16.8474C23.0001 16.8474 23.003 16.8444 23.003 16.8408C23.0066 14.2711 25.0952 12.2633 27.588 12.2633C30.0829 12.2633 32.1728 14.2745 32.1728 16.8474C32.1728 16.8906 32.1378 16.9257 32.0945 16.9257H23.0291C23.0075 16.9257 22.99 16.9082 22.99 16.8865V16.8539C22.99 16.8503 22.9929 16.8474 22.9965 16.8474ZM8.12493 17.9052C10.1888 17.9052 11.8739 19.59 11.8739 21.6535C11.8739 23.717 10.1888 25.4017 8.12493 25.4017C6.06107 25.4017 4.37602 23.717 4.37602 21.6535C4.37602 19.59 6.04801 17.9052 8.12493 17.9052ZM14.6823 33.7733C14.6823 33.8165 14.6472 33.8516 14.6039 33.8516H2.19461C2.15133 33.8516 2.11625 33.8165 2.11625 33.7733C2.11625 30.3123 4.93773 27.4914 8.39927 27.4914C11.8608 27.4914 14.6823 30.3123 14.6823 33.7733ZM14.7806 28.3117C13.6793 27.0269 13.3776 24.725 13.796 23.0853C13.914 22.6228 13.9769 22.1386 13.9769 21.6404C13.9769 20.3966 14.8266 19.0284 16.0704 19.0284H28.7318C31.5773 19.0284 33.884 21.3351 33.884 24.1806C33.884 27.0261 31.5773 29.3328 28.7318 29.3328H16.7997C16.0106 29.3328 15.2942 28.9108 14.7806 28.3117Z" fill="white"/>
<path fill-rule="evenodd" clip-rule="evenodd" d="M3.89261 13.9612H19.1234C19.9594 13.9612 20.4688 13.0209 19.9985 12.3287C18.6442 10.2933 17.9216 7.90302 17.9216 5.4582V3.87885C17.9216 1.75005 16.2105 0 14.0421 0H3.87954C1.72424 0 0 1.73699 0 3.87885V10.0824C0 12.2112 1.71118 13.9612 3.87954 13.9612H3.89261ZM2.12918 3.87885C2.12918 2.9124 2.89987 2.11573 3.89261 2.11573H14.0552C15.0348 2.11573 15.8186 2.9124 15.8186 3.87885V9.52081C15.8186 9.72977 15.8839 9.93871 16.0015 10.1085C16.4989 10.8573 15.962 11.8586 15.063 11.8586H3.89261C2.91293 11.8586 2.12918 11.075 2.12918 10.0955V3.89192V3.87885Z" fill="white"/>
<path fill-rule="evenodd" clip-rule="evenodd" d="M5.59077 6.05982H12.3571C12.9449 6.05982 13.4152 5.58966 13.4152 5.00196C13.4152 4.41425 12.9449 3.94409 12.3571 3.94409H5.59077C5.00296 3.94409 4.53271 4.41425 4.53271 5.00196C4.53271 5.58966 5.00296 6.05982 5.59077 6.05982Z" fill="white"/>
<path fill-rule="evenodd" clip-rule="evenodd" d="M5.59077 10.0042H8.97397C9.54871 10.0042 10.032 9.53399 10.032 8.94629C10.032 8.35859 9.56178 7.88843 8.97397 7.88843H5.59077C5.00296 7.88843 4.53271 8.35859 4.53271 8.94629C4.53271 9.53399 5.00296 10.0042 5.59077 10.0042Z" fill="white"/>
</svg>
