<svg width="36" height="36" viewBox="0 0 31 36" fill="none" xmlns="http://www.w3.org/2000/svg">
<path d="M24.0644 13.3899C23.6504 13.3899 23.2941 13.7364 23.2941 14.1503C23.2941 18.6361 19.5778 22.3036 15.0432 22.3036C14.6292 22.3036 14.2729 22.6501 14.2729 23.064C14.2729 23.478 14.6292 23.8245 15.0432 23.8245C20.4058 23.8245 24.825 19.512 24.825 14.1503C24.825 13.6883 24.4687 13.3899 24.0547 13.3899H24.0644Z" fill="white"/>
<path d="M15.8132 5.17879C15.8132 4.7745 15.457 4.41833 15.043 4.41833C9.68036 4.41833 5.26123 8.73079 5.26123 14.0925C5.26123 14.4968 5.61744 14.8529 6.03144 14.8529C6.44543 14.8529 6.80167 14.5064 6.80167 14.0925C6.80167 9.60676 10.518 5.93925 15.0526 5.93925C15.4666 5.93925 15.8228 5.59271 15.8228 5.17879H15.8132Z" fill="white"/>
<path d="M19.5296 18.5783V16.3644C19.5296 14.6702 18.5861 13.2167 17.1708 12.4658C17.7004 11.946 17.9988 11.2433 17.9988 10.4251C17.9988 8.79833 16.6413 7.45068 14.995 7.45068C13.3486 7.45068 11.9911 8.7887 11.9911 10.4251C11.9911 11.2433 12.2896 11.9364 12.8191 12.4658C11.4038 13.2263 10.5181 14.6798 10.5181 16.3644V18.5783C10.5181 18.9826 10.8743 19.3388 11.2883 19.3388H18.769C19.2408 19.2811 19.5392 18.9923 19.5392 18.5783H19.5296ZM13.5797 10.4251C13.5797 9.60691 14.2247 8.97159 15.0527 8.97159C15.8807 8.97159 16.5258 9.61654 16.5258 10.4251C16.5258 11.2337 15.8807 11.8786 15.0527 11.8786C14.2247 11.8786 13.5797 11.2337 13.5797 10.4251ZM18.0566 17.8179H12.0489V16.3644C12.0489 14.7376 13.4064 13.3899 15.0527 13.3899C16.6991 13.3899 18.0566 14.7279 18.0566 16.3644V17.8179Z" fill="white"/>
<path d="M15.0526 0C7.15787 0 0.793945 6.35317 0.793945 14.0925C0.793945 20.5612 5.27083 26.0961 11.2882 27.7229V30.4567C11.2882 30.861 11.6444 31.2171 12.0584 31.2171H12.8286V34.9424C12.8286 35.3467 13.1848 35.7029 13.5988 35.7029C14.0128 35.7029 14.369 35.3563 14.369 34.9424V31.2171H15.8421V34.9424C15.8421 35.3467 16.1983 35.7029 16.6123 35.7029C17.0263 35.7029 17.3825 35.3563 17.3825 34.9424V31.2171H18.1527C18.5667 31.2171 18.923 30.8706 18.923 30.4567V27.7229C24.9981 26.0961 29.4172 20.6189 29.4172 14.0925C29.3594 6.34354 22.9955 0 15.0911 0H15.0526ZM17.2862 29.7059H12.8094V28.0117C14.2824 28.2427 15.8132 28.2427 17.2862 28.0117V29.7059ZM15.0526 26.7314C8.04362 26.7314 2.26699 21.081 2.26699 14.0925C2.26699 7.10399 7.98585 1.45353 15.0526 1.45353C22.1194 1.45353 27.8382 7.10399 27.8382 14.0925C27.8382 21.081 22.0616 26.7314 15.0526 26.7314Z" fill="white"/>
<path d="M1.49697 28.1851H0.0239258V29.6386H1.49697V28.1851Z" fill="white"/>
<path d="M4.50087 28.1851H3.02783V29.6386H4.50087V28.1851Z" fill="white"/>
<path d="M7.50478 28.1851H6.03174V29.6386H7.50478V28.1851Z" fill="white"/>
<path d="M24.0067 28.1851H22.5337V29.6386H24.0067V28.1851Z" fill="white"/>
<path d="M27.0102 28.1851H25.5371V29.6386H27.0102V28.1851Z" fill="white"/>
<path d="M30.0238 28.1851H28.5508V29.6386H30.0238V28.1851Z" fill="white"/>
</svg>
