<svg width="115" height="89" viewBox="0 0 115 76" fill="none" xmlns="http://www.w3.org/2000/svg">
<path d="M33.174 64.2412C31.3556 64.4166 29.6585 64.0444 28.1348 63.0078C26.6043 61.9658 25.6497 60.5112 25.1981 58.6973C24.1813 58.8117 23.2077 58.7271 22.2485 58.4624C17.8382 57.2465 15.7326 52.2312 17.9579 48.219C18.0821 47.9955 18.0791 47.8498 17.9268 47.6454C17.2904 46.7918 16.6729 45.923 16.0471 45.0619C15.9887 44.9818 15.9205 44.9093 15.8326 44.804C15.6546 45.1 15.4924 45.3685 15.3318 45.6378C13.4869 48.7209 10.0115 50.2686 6.57249 49.5386C3.06981 48.7949 0.475579 45.9482 0.0573493 42.3418C-0.162373 40.4486 0.253584 38.6827 1.23097 37.0458C3.59866 33.0816 5.95726 29.1121 8.32041 25.1449C12.4557 18.2029 16.5948 11.2624 20.7271 4.31877C22.5395 1.27376 25.9815 -0.300617 29.4031 0.366052C32.8475 1.0373 35.4712 3.79169 35.994 7.32336C36.2736 9.21048 35.922 10.9916 34.9833 12.6514C34.759 13.048 34.5219 13.437 34.2658 13.8733C34.484 14.048 34.6901 14.2296 34.9121 14.3875C36.7714 15.7139 38.88 16.3699 41.109 16.6628C42.0584 16.7872 43.0206 16.8177 43.9775 16.8756C44.1457 16.8856 44.3366 16.8558 44.4867 16.7811C47.9219 15.0625 51.5814 14.0717 55.3371 13.4058C58.261 12.8878 61.2037 12.5072 64.1783 12.4775C66.0141 12.4592 67.7954 12.8047 69.5259 13.4088C71.9049 14.2395 74.3211 14.9397 76.8351 15.1708C78.1488 15.2914 79.4793 15.2265 80.8022 15.2433C80.859 15.2433 80.9166 15.2181 81.0204 15.1945C80.5317 14.4004 80.0627 13.6354 79.5914 12.8718C76.4479 7.78408 79.1868 1.36453 85.0148 0.160102C88.2561 -0.509618 91.6928 0.960257 93.4877 3.8489C96.4805 8.66433 99.4414 13.5003 102.416 18.328C106.129 24.3539 109.811 30.3997 113.567 36.3982C115.906 40.1335 115.08 44.8513 111.852 47.4646C107.965 50.6118 102.319 49.6721 99.6627 45.4265C99.2535 44.7728 98.8512 44.1145 98.4701 43.4974C97.426 44.3807 96.4206 45.2686 95.3743 46.1046C94.6735 46.6645 93.9211 47.1595 93.1801 47.6675C92.9884 47.7995 92.9202 47.9124 92.9672 48.1587C93.2051 49.3929 93.274 50.6378 92.9649 51.8666C92.3308 54.3861 90.648 55.7675 88.1697 56.2579C88.0704 56.2778 87.9704 56.3068 87.8712 56.3075C87.6075 56.3083 87.5522 56.4471 87.537 56.692C87.2969 60.5448 84.8587 63.1321 81.0454 63.5715C80.7294 63.6081 80.6362 63.6973 80.6188 64.0238C80.4597 67.0002 78.633 69.2313 75.6887 70.0574C75.1796 70.2 74.6568 70.2992 74.1347 70.3846C73.8756 70.4266 73.7158 70.525 73.5801 70.7599C72.705 72.2717 71.6049 73.586 70.1517 74.57C68.5318 75.6669 66.7468 76.1398 64.7996 75.9643C62.9645 75.7988 61.1219 75.6852 59.2974 75.4388C57.2631 75.1642 55.3281 74.4708 53.4066 73.7622C53.127 73.6592 52.9384 73.6829 52.6937 73.8682C48.6182 76.9552 42.5864 75.0391 41.2605 70.036C41.2083 69.8392 41.1363 69.7683 40.9264 69.7881C37.5025 70.1131 34.1279 67.962 33.2414 64.4166C33.2293 64.3693 33.2073 64.3251 33.1763 64.2442L33.174 64.2412ZM69.0379 69.1809C67.7643 68.5249 66.5415 67.8934 65.3178 67.2648C63.3956 66.2763 61.4697 65.2969 59.552 64.2992C58.5815 63.7942 58.0814 62.8049 58.2572 61.811C58.5428 60.1885 60.193 59.367 61.6864 60.1298C65.2436 61.946 68.794 63.7744 72.3414 65.6096C72.6505 65.7698 72.9482 65.843 73.2831 65.7782C73.6301 65.7118 73.9817 65.6615 74.3211 65.5669C75.6319 65.2023 76.0683 64.5455 75.9509 63.1847C75.9274 62.917 75.8243 62.753 75.5849 62.6226C74.353 61.9506 73.1301 61.2625 71.9042 60.5791C69.2652 59.1077 66.624 57.6393 63.9881 56.1626C63.1138 55.6729 62.6592 54.9132 62.7365 53.9025C62.8721 52.1275 64.6928 51.187 66.271 52.0649C70.2813 54.2961 74.287 56.5356 78.2966 58.7667C78.4466 58.8499 78.6216 58.9292 78.7868 58.9338C79.3156 58.9498 79.849 58.9673 80.3748 58.917C82.0728 58.7545 82.7713 58.0093 82.8751 56.3007C82.8842 56.1489 82.8706 55.9948 82.885 55.8437C82.9115 55.5691 82.7941 55.4105 82.5569 55.2709C80.4658 54.0375 78.3822 52.7919 76.2964 51.5485C73.7324 50.0215 71.167 48.4967 68.6068 46.9642C67.5507 46.3319 67.14 45.1359 67.581 44.0367C68.1371 42.6484 69.7138 42.1641 71.0602 42.9665C75.8387 45.8162 80.6173 48.6668 85.3974 51.5134C85.536 51.5958 85.6952 51.7049 85.8414 51.7003C86.4187 51.682 86.9998 51.6591 87.5696 51.5699C88.1348 51.4814 88.5023 51.0985 88.4697 50.5165C88.4258 49.7369 88.303 48.9597 88.1697 48.1893C88.1356 47.9932 87.9681 47.7766 87.7999 47.6553C82.8297 44.0779 77.8791 40.4722 72.8664 36.9566C69.3759 34.5088 65.7891 32.1991 62.0106 30.2151C61.0628 29.717 60.0597 29.3227 59.0686 28.9146C58.8906 28.8414 58.611 28.8681 58.4352 28.9588C56.8472 29.7834 55.1735 30.1716 53.3884 30.0092C53.1164 29.984 52.9816 30.074 52.8513 30.2975C52.2247 31.3662 51.4503 32.3173 50.5419 33.1572C48.2659 35.2609 45.5413 36.3052 42.5008 36.5965C40.124 36.8238 38.1852 35.9878 36.8275 34.0183C35.4584 32.0328 35.375 29.8917 36.4433 27.7323C37.4616 25.6743 38.5208 23.6362 39.5611 21.5881C39.6202 21.4714 39.6717 21.3501 39.7384 21.2059C36.8532 20.685 34.2135 19.7025 31.8761 17.9451C31.8148 18.0328 31.7685 18.0915 31.7314 18.1548C27.3574 25.4867 22.985 32.8193 18.6049 40.1473C18.4769 40.3609 18.5072 40.4966 18.6451 40.6843C19.3823 41.6843 20.1051 42.6957 20.8347 43.7011C20.8908 43.7781 20.9613 43.8445 21.0393 43.9307C21.1438 43.7934 21.2295 43.6843 21.3113 43.5729C22.4023 42.0931 23.4865 40.608 24.5859 39.1343C27.2506 35.5622 32.5398 35.1839 35.6508 38.3692C36.2175 38.9497 36.6494 39.6637 37.1699 40.3517C39.9574 39.3555 42.5849 39.8437 44.8753 41.8193C47.2536 43.8704 47.759 46.4722 46.7839 49.4341C48.6129 49.933 50.0956 50.9276 51.1261 52.5417C52.1633 54.1664 52.455 55.9437 52.0906 57.8384C54.7848 58.457 56.7365 59.949 57.6389 62.5928C58.5405 65.2351 57.8905 67.6119 56.0668 69.7889C57.2154 70.1031 58.2443 70.4944 59.3073 70.6516C61.2272 70.9353 63.1668 71.0917 65.1004 71.2786C66.8339 71.4464 68.0075 70.515 69.0387 69.1809H69.0379ZM63.3691 17.1792C60.296 17.3463 56.7805 17.7818 53.3187 18.6087C50.6934 19.2357 48.1469 20.0808 45.7815 21.4172C44.9897 21.8642 44.367 22.4775 43.9495 23.2921C42.8274 25.4828 41.7045 27.6728 40.5923 29.8681C40.0566 30.926 40.7544 32.0206 41.9303 31.9253C45.0382 31.6713 47.5022 30.3372 49.0599 27.5225C49.9721 25.8741 51.5375 25.0465 53.3877 25.2937C54.5333 25.447 55.5713 25.2182 56.538 24.6163C57.3162 24.1327 58.1625 23.9504 59.0436 24.1266C59.8687 24.2914 60.6976 24.4973 61.4803 24.8024C63.8192 25.7132 65.9778 26.9893 68.1174 28.2906C73.7082 31.6911 79.0588 35.4524 84.3601 39.2853C86.3286 40.7087 88.275 42.1633 90.2305 43.6042C90.3714 43.7079 90.4851 43.8323 90.6927 43.6904C92.4618 42.4814 94.1704 41.2022 95.6061 39.5874C95.8122 39.3563 95.8243 39.1999 95.6599 38.9352C94.1317 36.4806 92.6194 34.0153 91.1026 31.553C88.6872 27.6339 86.2695 23.7155 83.8586 19.7925C83.7381 19.5957 83.6351 19.5042 83.3843 19.5675C81.7803 19.9718 80.1453 20.077 78.4981 20.0229C75.047 19.9085 71.7239 19.1289 68.475 18.003C66.9695 17.4813 65.4444 17.1289 63.3676 17.1785L63.3691 17.1792ZM106.66 44.6324C108.001 44.576 109.102 43.9871 109.788 42.7575C110.493 41.4959 110.412 40.222 109.656 38.9962C104.919 31.3067 100.179 23.6186 95.4402 15.929C93.5036 12.7864 91.5716 9.64145 89.6304 6.50185C88.8554 5.2486 87.7227 4.60024 86.2589 4.74059C83.4676 5.00756 82.0584 7.95952 83.5404 10.3638C87.2946 16.4538 91.0518 22.5423 94.8053 28.6324C97.72 33.3624 100.632 38.0946 103.543 42.8269C104.25 43.9749 105.27 44.5729 106.661 44.6324H106.66ZM31.4041 8.53999C31.4117 6.26005 29.3774 4.556 27.1536 4.98773C25.9815 5.21504 25.1898 5.93358 24.5889 6.94731C21.3999 12.3249 18.1943 17.6933 14.9947 23.0641C11.7428 28.5225 8.49316 33.9817 5.239 39.4387C4.7147 40.3181 4.52149 41.2487 4.76546 42.2533C5.11096 43.6736 6.27472 44.7545 7.67488 44.9665C9.14702 45.1893 10.5305 44.5424 11.3147 43.2327C12.9565 40.4913 14.5848 37.7407 16.2206 34.9955C21.0893 26.8246 25.958 18.6544 30.829 10.4851C31.1882 9.88325 31.4026 9.2448 31.4034 8.53923L31.4041 8.53999ZM29.6335 57.0939C29.7532 57.5173 29.8024 57.8491 29.9373 58.142C30.7207 59.8438 33.1611 60.1145 34.3378 58.6287C34.8644 57.9635 35.3508 57.2663 35.8554 56.5829C37.9412 53.7598 40.0271 50.9368 42.1121 48.1122C42.8941 47.0535 42.7152 45.981 41.6325 45.2228C41.5287 45.1503 41.4265 45.0764 41.3204 45.0069C40.0945 44.2114 38.5428 44.4722 37.6715 45.6484C35.1606 49.0398 32.652 52.4334 30.1676 55.8445C29.8979 56.2145 29.7941 56.7072 29.6335 57.0932V57.0939ZM24.5026 54.0604C25.1443 54.0405 25.8717 53.7423 26.3914 53.0398C28.4583 50.2488 30.5214 47.4547 32.5792 44.6568C33.2778 43.7072 33.1604 42.4631 32.3171 41.6416C31.1692 40.5241 29.2811 40.6667 28.3106 41.9734C26.2694 44.7201 24.2397 47.4753 22.2197 50.2388C22.0167 50.5173 21.853 50.859 21.781 51.1946C21.4621 52.6889 22.6683 54.0482 24.5018 54.0604H24.5026ZM40.4248 65.1329C41.109 65.1115 41.8212 64.8377 42.3152 64.1771C43.9404 62.007 45.5489 59.8247 47.1521 57.6378C47.5825 57.0505 47.687 56.3777 47.4703 55.6813C47.165 54.7019 46.4619 54.145 45.4822 53.9673C44.426 53.7751 43.5275 54.1008 42.8766 54.9749C41.3022 57.0878 39.7429 59.2122 38.1806 61.3342C38.0761 61.4761 37.9806 61.6287 37.9079 61.7888C37.1889 63.3777 38.4526 65.1436 40.4256 65.1321L40.4248 65.1329ZM50.6328 62.4326C49.9024 62.4609 49.191 62.7873 48.6712 63.4853C47.8242 64.6233 46.9809 65.7645 46.1452 66.9109C45.4678 67.8392 45.5595 69.0436 46.3551 69.8697C47.4749 71.033 49.3986 70.9262 50.3881 69.6241C51.2458 68.4944 52.0792 67.3457 52.9141 66.1985C53.046 66.0169 53.1536 65.8072 53.2286 65.5951C53.7817 64.0322 52.5224 62.4242 50.6336 62.4326H50.6328Z" fill="white"/>
</svg>
