<svg width="181" height="201" viewBox="0 0 181 201" fill="none" xmlns="http://www.w3.org/2000/svg">
<path d="M77.3248 3.52388L13.1536 40.5983C5.01811 45.2968 0 53.99 0 63.387V137.536C0 146.933 5.01811 155.626 13.1536 160.325L77.3248 197.399C85.4603 202.098 95.4965 202.098 103.632 197.399L167.803 160.325C175.939 155.626 180.957 146.933 180.957 137.536V63.387C180.957 53.99 175.939 45.2968 167.803 40.5983L103.632 3.52388C95.4965 -1.17463 85.4603 -1.17463 77.3248 3.52388Z" fill="#F8F8F8"/>
<path d="M78.8835 14.9563L22.2775 47.6556C15.0924 51.8025 10.6826 59.4684 10.6826 67.7622V133.18C10.6826 141.474 15.1114 149.14 22.2775 153.286L78.8835 185.986C86.0685 190.133 94.9073 190.133 102.092 185.986L158.698 153.286C165.883 149.14 170.293 141.474 170.293 133.18V67.7622C170.293 59.4684 165.864 51.8025 158.698 47.6556L102.092 14.9563C94.9073 10.8094 86.0685 10.8094 78.8835 14.9563Z" fill="#072996"/>
<g clip-path="url(#clip0_2340_2140)">
<path d="M120.455 99.8375C120.431 105.044 119.198 109.942 116.609 114.486C116.26 115.099 116.192 115.652 116.378 116.33C117.499 120.375 118.556 124.436 119.692 128.476C119.975 129.484 119.804 129.69 118.771 129.404C114.733 128.292 110.675 127.255 106.64 126.143C105.864 125.93 105.255 125.998 104.544 126.39C86.443 136.398 63.4019 125.621 59.6242 105.397C56.5549 88.9593 67.3317 73.1888 83.8485 69.9464C102.794 66.2259 120.466 80.6557 120.455 99.8375ZM103.655 104.961C106.685 105.031 109.091 102.802 109.135 99.8869C109.18 96.9744 106.821 94.5712 103.886 94.5348C101.024 94.501 98.5761 96.8341 98.5158 99.653C98.4554 102.514 100.761 104.893 103.652 104.958L103.655 104.961ZM75.6898 104.964C78.6489 104.974 80.9864 102.75 81.0362 99.8791C81.086 96.9848 78.6962 94.5608 75.7737 94.5426C72.8486 94.5244 70.4142 96.9172 70.4168 99.7985C70.422 102.649 72.7752 104.956 75.6898 104.964ZM95.0267 99.7803C95.0188 96.8055 92.7102 94.5218 89.7248 94.5374C86.8365 94.553 84.5279 96.8679 84.5148 99.757C84.5017 102.703 86.8365 104.99 89.835 104.969C92.7994 104.948 95.0345 102.714 95.024 99.7803H95.0267Z" fill="white"/>
<path d="M39.3216 99.8192C39.3216 97.6109 39.298 95.4051 39.3268 93.1967C39.3662 90.1777 41.3941 88.0758 44.4503 87.8758C45.3213 87.8186 46.2027 87.7978 47.0711 87.8654C48.0023 87.9407 48.3854 87.6212 48.7159 86.704C54.6552 70.2217 66.3188 60.2372 83.7721 57.4988C104.061 54.3161 124.08 66.6493 130.584 85.9506C131.082 87.4263 131.662 88.1304 133.254 87.8732C133.892 87.7692 134.563 87.829 135.217 87.8758C138.097 88.081 140.219 90.1699 140.261 93.0304C140.329 97.5303 140.329 102.033 140.261 106.533C140.217 109.482 137.932 111.633 134.938 111.667C131.88 111.7 128.818 111.633 125.762 111.698C124.723 111.721 124.765 111.376 125.004 110.586C129.45 95.8182 124.781 80.4686 112.587 71.1206C101.524 62.6404 89.108 60.7854 76.1433 65.9244C63.0815 71.1024 55.2822 80.9674 53.3147 94.8127C50.5287 114.397 63.6639 132.093 83.2999 135.761C84.3335 135.954 84.992 135.769 85.7213 134.907C87.8095 132.431 91.6212 132.451 93.8327 134.808C95.997 137.115 95.7321 140.778 93.2582 142.776C90.7581 144.792 86.9595 144.26 85.2333 141.532C84.6772 140.654 84.0554 140.368 83.0848 140.183C67.195 137.151 56.3735 128.118 50.7071 113.106C50.2794 111.971 49.8177 111.524 48.6057 111.641C47.4383 111.755 46.2473 111.667 45.0694 111.664C41.4177 111.651 39.3347 109.57 39.3268 105.92C39.3216 103.885 39.3268 101.851 39.3268 99.8166L39.3216 99.8192Z" fill="white"/>
</g>
<defs>
<clipPath id="clip0_2340_2140">
<rect width="101" height="87" fill="white" transform="translate(39.314 57)"/>
</clipPath>
</defs>
</svg>
