<svg width="36" height="36" viewBox="0 0 37 37" fill="none" xmlns="http://www.w3.org/2000/svg">
<path fill-rule="evenodd" clip-rule="evenodd" d="M21.5915 25.7593C21.5921 25.7593 21.5926 25.7591 21.5931 25.7587C22.8416 24.7297 23.6392 23.1806 23.6392 21.4351C23.6392 18.348 21.1298 15.8506 18.0537 15.8506C14.9777 15.8506 12.4682 18.3596 12.4682 21.4351C12.4682 23.7661 12.1334 27.1155 11.0668 29.1882C10.514 30.2624 10.2017 31.4793 10.2017 32.766V35.0321C10.2017 35.6218 10.6758 36.0843 11.254 36.0843H24.8419C25.4201 36.0843 25.8943 35.6102 25.8943 35.0321V32.766C25.8943 29.7174 24.1409 27.0609 21.5903 25.7642C21.5879 25.7629 21.5888 25.7593 21.5915 25.7593ZM18.0422 17.978C19.9618 17.978 21.5114 19.5389 21.5114 21.4467C21.5114 23.3544 19.9503 24.9153 18.0422 24.9153C16.1341 24.9153 14.5729 23.3544 14.5729 21.4467C14.5729 19.5389 16.1341 17.978 18.0422 17.978ZM23.7896 32.766C23.7896 33.4364 23.246 33.98 22.5755 33.98H13.5319C12.8614 33.98 12.3179 33.4364 12.3179 32.766C12.3179 29.5979 14.8967 27.0312 18.0537 27.0312C21.2108 27.0312 23.7896 29.6095 23.7896 32.766Z" fill="white"/>
<path fill-rule="evenodd" clip-rule="evenodd" d="M10.1437 14.9139C9.99572 13.0787 10.5875 11.2591 11.7859 9.86124C12.2947 9.26001 11.994 8.33503 11.2308 8.15004C9.44615 7.72062 7.90015 6.593 6.94048 5.02827C6.5473 4.38079 5.56433 4.32298 5.13645 5.02827C4.17389 6.59772 2.62502 7.72101 0.834596 8.15004C0.07136 8.33503 -0.240885 9.27157 0.279503 9.86124C1.47785 11.2591 2.06965 13.0787 1.92161 14.9139C1.86379 15.6885 2.6386 16.2782 3.37871 15.9776C5.07551 15.2769 6.99095 15.2743 8.68667 15.9776C9.41521 16.2782 10.2131 15.7001 10.1437 14.9139ZM8.01594 11.0059C7.83091 11.2256 7.7384 11.5031 7.76153 11.7806C7.81966 12.4991 7.09809 13.0268 6.43165 12.7518C6.16568 12.6477 5.87658 12.6477 5.62217 12.7518C4.95572 13.0268 4.23414 12.4992 4.29227 11.7806C4.3154 11.5031 4.22289 11.2256 4.03786 11.0059C3.56733 10.4561 3.84314 9.60268 4.54669 9.43343C4.82423 9.36406 5.05552 9.2022 5.20585 8.95939C5.57982 8.34324 6.47399 8.34324 6.84797 8.95939C6.9983 9.2022 7.22957 9.37562 7.50711 9.43343C8.21066 9.60268 8.48648 10.4561 8.01594 11.0059Z" fill="white"/>
<path fill-rule="evenodd" clip-rule="evenodd" d="M34.2206 14.9139C34.0725 13.0787 34.6643 11.2591 35.8627 9.86124C36.3831 9.26001 36.0708 8.33503 35.3076 8.15004C33.5216 7.72207 31.9721 6.59714 31.0173 5.02827C30.6241 4.38079 29.6412 4.32298 29.2133 5.02827C28.2585 6.59714 26.709 7.72207 24.923 8.15004C24.1597 8.33503 23.8475 9.27157 24.3679 9.86124C25.5662 11.2591 26.158 13.0787 26.01 14.9139C25.9522 15.6885 26.727 16.2782 27.4671 15.9776C29.1625 15.2744 31.068 15.2744 32.7635 15.9776C33.492 16.2782 34.29 15.7001 34.2206 14.9139ZM32.1043 11.0059C31.9193 11.2256 31.8268 11.5031 31.8499 11.7806C31.908 12.4991 31.1865 13.0268 30.52 12.7518C30.2656 12.6477 29.9649 12.6477 29.7105 12.7518C29.0441 13.0268 28.3225 12.4991 28.3807 11.7806C28.4038 11.5031 28.3113 11.2256 28.1262 11.0059C27.6557 10.4561 27.9315 9.60268 28.6351 9.43343C28.9126 9.36406 29.1439 9.2022 29.2942 8.95939C29.6682 8.34323 30.5624 8.34323 30.9364 8.95939C31.0867 9.2022 31.318 9.37562 31.5955 9.43343C32.299 9.60268 32.5749 10.4561 32.1043 11.0059Z" fill="white"/>
<path fill-rule="evenodd" clip-rule="evenodd" d="M21.9476 7.52572C21.9498 7.52572 21.9519 7.52477 21.9533 7.52311L23.8244 5.34048C24.3333 4.73925 24.0326 3.80272 23.2694 3.62929C21.4833 3.20131 19.9339 2.07638 18.979 0.507519C18.5859 -0.139959 17.6029 -0.19777 17.175 0.507519C16.2125 2.07696 14.6636 3.20025 12.8732 3.62929C12.1099 3.81428 11.7977 4.73925 12.3181 5.34048C13.5164 6.7383 14.1082 8.55791 13.9602 10.3931C13.9024 11.1678 14.6772 11.7575 15.4173 11.4568C17.1127 10.7536 19.0182 10.7536 20.7137 11.4568C21.4422 11.7575 22.2402 11.1793 22.1708 10.3931L21.9401 7.53381C21.9398 7.52945 21.9432 7.52572 21.9476 7.52572ZM20.0545 6.48513C19.8695 6.70481 19.777 6.9823 19.8001 7.25979C19.8582 7.97838 19.1367 8.506 18.4702 8.231C18.2043 8.12695 17.9151 8.12695 17.6607 8.231C16.9943 8.506 16.2727 7.97838 16.3309 7.25979C16.354 6.9823 16.2615 6.70481 16.0764 6.48513C15.6059 5.93539 15.8817 5.08193 16.5853 4.91268C16.8628 4.84331 17.0941 4.68144 17.2444 4.43863C17.6184 3.82248 18.5126 3.82248 18.8865 4.43863C19.0369 4.68144 19.2682 4.85487 19.5457 4.91268C20.2492 5.08193 20.5251 5.93539 20.0545 6.48513Z" fill="white"/>
</svg>
