<svg width="80" height="89" viewBox="0 0 77 71" fill="none" xmlns="http://www.w3.org/2000/svg">
<path d="M23.8742 31.0903C26.712 28.1508 29.4216 25.3849 32.0777 22.5716C36.4814 17.902 36.9624 11.8548 37.9457 6.0126C38.3893 3.3781 38.9772 1.16427 42.1463 0.412307C47.1806 -0.786628 50.0398 0.549028 51.5095 5.47623C53.6098 12.5384 53.2785 19.6584 51.6164 26.7573C51.5202 27.178 51.4454 27.604 51.2904 28.3717C56.4743 28.3717 61.514 28.2876 66.5483 28.4138C68.4669 28.4611 70.487 28.7135 72.2667 29.3761C77.0605 31.1587 78.4928 36.4119 75.2648 40.3242C74.2067 41.6073 73.7364 42.5065 74.5273 44.1735C75.6069 46.4504 74.9068 48.7168 73.0416 50.3837C71.8231 51.4722 71.6254 52.424 71.9995 54.0068C72.6889 56.9148 71.5399 59.4178 69.0227 61.0585C67.7668 61.8735 67.3606 62.6991 67.2537 64.161C66.9919 67.7788 63.3685 70.855 59.264 70.9076C51.4293 71.0128 43.5893 71.0601 35.7599 70.855C33.7184 70.8025 31.6608 69.8296 29.6835 69.0987C27.8718 68.4309 26.1562 67.5159 24.2216 66.6325C23.2009 70.3345 20.5661 71.118 17.1992 70.9865C13.3781 70.834 9.54087 70.976 5.71437 70.9444C1.96269 70.9129 0.038746 69.125 0.0280575 65.5229C-0.00935249 54.9218 -0.00935249 44.3207 0.0280575 33.7143C0.0440903 30.2963 2.02682 28.4243 5.55939 28.3822C9.30038 28.3349 13.0414 28.4506 16.777 28.3454C19.4545 28.2718 21.9289 28.5032 23.8742 31.0956V31.0903ZM47.5708 66.0856C51.1301 66.0856 54.6947 66.1329 58.254 66.0751C61.7812 66.0172 62.6951 65.0865 62.4279 61.6474C62.2996 60.012 62.7432 59.0865 64.3358 58.4082C67.6866 56.9779 68.0768 55.9367 66.6285 52.4556C65.9391 50.7992 66.1421 49.7159 67.7508 48.7115C70.6955 46.8606 71.0108 45.5302 69.0922 42.7221C68.1195 41.2971 68.2424 40.3558 69.6213 39.4461C71.0909 38.4733 72.7049 37.0903 71.6681 35.4654C70.9039 34.2665 68.8624 33.2726 67.3499 33.2148C60.7711 32.9729 54.1763 33.1149 47.5868 33.1043C46.7852 33.1043 45.9568 33.1727 45.1979 32.9834C43.3114 32.5154 42.5204 29.8546 44.1451 29.1973C46.9989 28.0352 46.9562 25.6794 47.3784 23.5181C48.4579 17.9599 48.5595 12.3911 47.0257 6.86447C46.5393 5.1134 45.4224 4.09325 43.7763 4.87151C42.9747 5.25012 42.3975 6.79611 42.3227 7.85307C41.6065 17.8389 37.2723 25.9318 29.4697 32.2893C28.0962 33.4041 26.6533 34.4505 25.3974 35.681C24.7828 36.2857 24.1682 37.2323 24.1575 38.0315C24.0613 45.304 24.072 52.5765 24.1521 59.8438C24.1575 60.5326 24.6652 61.558 25.2424 61.8525C30.8859 64.7657 36.7058 67.0216 43.3114 66.1224C44.7116 65.9331 46.1545 66.0961 47.5815 66.0909L47.5708 66.0856ZM19.0644 66.0961V33.3199H4.97152V66.0961H19.0644Z" fill="white"/>
</svg>
