<svg width="80" height="88" viewBox="0 0 107 115" fill="none" xmlns="http://www.w3.org/2000/svg"><g clip-path="url(#a)"><path d="M64.71 77.256c7.497 2.94 13.126 7.757 16.827 14.722 2.184 4.112 3.39 8.49 3.44 13.163.023 2.261.042 4.523.015 6.784-.027 2.179-.89 3.04-3.063 3.063-2.589.028-5.181.008-7.77.008H27.342c-3.786 0-4.276-.531-4.315-4.386-.047-4.526-.136-9.068 1.314-13.427 2.95-8.854 8.63-15.308 17.208-19.143.53-.237 1.058-.473 1.85-.83-5.787-4.642-8.547-10.49-7.486-17.817.676-4.681 3.036-8.466 6.698-11.422 7.482-6.034 18.526-5.072 25.107 2.114 5.858 6.392 7.603 18.511-3.005 27.175zm15.116 32.574c.782-10.49-2.647-18.98-11.381-24.972-8.606-5.903-19.969-5.965-28.676-.097-8.843 5.96-12.322 14.505-11.545 25.069H79.83zM53.984 49.088c-7.292.024-13.255 5.98-13.212 13.19.047 7.249 6.006 13.125 13.306 13.113 7.238-.012 13.27-6.03 13.232-13.206-.04-7.213-6.049-13.124-13.326-13.1z" fill="#fff"/></g><g clip-path="url(#b)" fill="#fff"><path d="M45.216 32.632a3.73 3.73 0 0 1-2.79-1.238c-.655-.721-.948-1.577-.947-2.774v-.049l.014-.048.115-.418c.113-.416.254-.933.41-1.45.59-1.95 1.185-3.88 1.766-5.743l.001-.003-.018-.014a1383 1383 0 0 1-5.842-4.352c-1.193-.895-1.713-2.11-1.503-3.514.206-1.381 1.015-2.377 2.338-2.88a4.3 4.3 0 0 1 1.392-.257c2.127-.063 4.424-.112 7.227-.156.07-.002.1-.009.11-.012a.4.4 0 0 0 .046-.101 590 590 0 0 1 2.432-6.81C50.51 1.327 51.89.367 53.484.367c.634 0 1.268.162 1.837.467.827.444 1.413 1.135 1.74 2.051l.563 1.573c.598 1.671 1.218 3.4 1.815 5.103.06.174.064.174.227.176 2.404.031 4.812.088 7.14.142.937.022 1.778.304 2.436.815.667.518 1.114 1.249 1.293 2.112.306 1.477-.175 2.748-1.392 3.673a445 445 0 0 1-4.022 3.013q-.84.622-1.676 1.246a4 4 0 0 0-.222.173c.012.057.044.16.074.259l.468 1.521c.52 1.695 1.06 3.447 1.586 5.171.472 1.55-.083 3.155-1.416 4.09a3.73 3.73 0 0 1-2.153.677 3.9 3.9 0 0 1-2.204-.686l-1.762-1.195c-1.416-.96-2.88-1.952-4.316-2.933l-.019.012a1344 1344 0 0 1-6.08 4.126 3.9 3.9 0 0 1-2.184.678m8.283-7.997c.23 0 .415.109.534.19 1.632 1.118 3.296 2.247 4.906 3.339l2.164 1.469c.25.17.452.246.655.246a1 1 0 0 0 .126-.01.94.94 0 0 0 .668-.406c.152-.236.183-.542.086-.86-.79-2.59-1.64-5.373-2.51-8.175-.12-.386-.027-.666.303-.91a1516 1516 0 0 0 4.08-3.034l2.821-2.1c.332-.246.48-.5.48-.823-.002-.541-.41-.914-1.016-.928-3.233-.071-5.93-.13-8.724-.182-.4-.007-.646-.183-.774-.553-.267-.776-.55-1.564-.825-2.325l-.314-.874-.558-1.563q-.592-1.66-1.188-3.32c-.157-.436-.494-.696-.901-.696q-.169 0-.34.06c-.305.104-.487.325-.65.786-.492 1.386-.995 2.793-1.48 4.154-.446 1.246-.906 2.534-1.356 3.802-.079.222-.24.518-.73.527-2.646.049-5.337.107-7.938.165l-.785.017c-.362.008-.828.122-1 .623-.147.43-.007.798.43 1.123l1.104.824c1.912 1.427 3.89 2.903 5.838 4.35.186.138.418.373.278.818-.417 1.333-.832 2.69-1.234 4.004l-.332 1.083-.238.776c-.24.784-.489 1.594-.73 2.392-.087.29-.062.574.071.8a.93.93 0 0 0 .605.427 1 1 0 0 0 .21.025c.202 0 .402-.072.63-.226l2.261-1.534c1.586-1.076 3.226-2.187 4.833-3.288.132-.09.312-.193.54-.193"/><path d="M53.484.736a3.5 3.5 0 0 1 1.656.42c.768.414 1.278 1.045 1.567 1.852.795 2.223 1.595 4.445 2.377 6.673.105.302.232.42.578.424 2.379.032 4.757.087 7.136.143 1.733.04 3.039 1.042 3.369 2.632.278 1.34-.151 2.47-1.254 3.31-1.886 1.434-3.795 2.84-5.695 4.256q-.436.327-.279.835c.685 2.229 1.372 4.457 2.052 6.687.427 1.401-.076 2.846-1.274 3.686a3.36 3.36 0 0 1-1.934.608c-.68 0-1.381-.207-1.99-.62-2.027-1.376-4.055-2.747-6.077-4.128a.4.4 0 0 0-.214-.08c-.075 0-.147.033-.235.093q-3.033 2.07-6.078 4.125a3.5 3.5 0 0 1-1.972.612c-.93 0-1.84-.38-2.508-1.115-.576-.633-.853-1.379-.852-2.529.121-.433.309-1.151.524-1.862q.87-2.873 1.764-5.739c.063-.203.01-.3-.15-.419q-2.926-2.168-5.84-4.35c-1.066-.8-1.555-1.86-1.36-3.17.186-1.246.901-2.132 2.103-2.588.395-.15.84-.221 1.266-.234 2.407-.07 4.815-.118 7.223-.156.291-.004.412-.097.505-.36a579 579 0 0 1 2.43-6.806 3.35 3.35 0 0 1 3.164-2.2m-8.25 29.51c.303 0 .578-.113.843-.293 2.365-1.607 4.736-3.207 7.096-4.822.123-.085.224-.128.324-.128s.197.04.319.124c2.351 1.61 4.713 3.206 7.071 4.808.268.182.55.312.869.312q.09 0 .184-.014c.848-.13 1.314-.888 1.056-1.736q-1.245-4.091-2.511-8.176c-.075-.24-.03-.36.17-.51 2.305-1.706 4.6-3.424 6.902-5.133.384-.286.629-.631.629-1.116-.003-.74-.57-1.277-1.383-1.295-2.908-.065-5.817-.129-8.726-.183-.242-.004-.347-.078-.425-.302-.369-1.072-.758-2.136-1.14-3.204q-.871-2.443-1.747-4.884c-.213-.594-.702-.941-1.255-.941q-.229 0-.465.08c-.493.171-.718.557-.88 1.014-.94 2.653-1.894 5.303-2.835 7.956-.069.194-.154.276-.382.28-2.909.053-5.817.118-8.725.182-.681.015-1.16.33-1.347.874-.199.582-.007 1.112.557 1.533 2.313 1.725 4.625 3.453 6.943 5.173.16.12.21.216.146.418-.53 1.694-1.046 3.392-1.566 5.089-.324 1.056-.65 2.111-.969 3.169-.236.782.173 1.504.948 1.689q.154.036.3.036M53.484 0c-.838 0-1.645.246-2.332.712a4.05 4.05 0 0 0-1.54 1.976 579 579 0 0 0-2.386 6.681c-2.738.044-4.993.093-7.087.154a4.7 4.7 0 0 0-1.516.283c-1.457.553-2.347 1.649-2.574 3.168-.23 1.545.339 2.88 1.646 3.86 2.036 1.527 4.07 3.038 5.653 4.212a713 713 0 0 0-1.69 5.503c-.158.522-.3 1.042-.414 1.459l-.114.417-.027.095v.099c-.001 1.294.32 2.225 1.043 3.018A4.16 4.16 0 0 0 45.216 33a4.3 4.3 0 0 0 2.397-.743 1209 1209 0 0 0 5.886-3.993c1.37.935 2.76 1.878 4.107 2.791l1.756 1.191a4.3 4.3 0 0 0 2.42.752c.858 0 1.674-.258 2.37-.746 1.466-1.027 2.077-2.791 1.558-4.494a2199 2199 0 0 0-2.053-6.69v-.003l-.006-.018.021-.015c.558-.417 1.125-.838 1.675-1.246 1.323-.983 2.69-2 4.026-3.016.662-.502 1.129-1.106 1.389-1.792.26-.687.307-1.443.14-2.246a3.9 3.9 0 0 0-1.426-2.326c-.722-.561-1.642-.87-2.66-.895-2.299-.053-4.674-.109-7.047-.141-.59-1.682-1.2-3.386-1.79-5.035l-.563-1.571C57.056 1.757 56.413 1 55.502.51a4.3 4.3 0 0 0-2.017-.512zm-8.248 29.51a.5.5 0 0 1-.123-.016.56.56 0 0 1-.367-.252c-.082-.138-.095-.32-.037-.513.24-.794.487-1.6.727-2.381l.24-.785q.168-.543.333-1.087c.401-1.312.816-2.668 1.233-3.998.106-.338.12-.825-.41-1.22-1.95-1.447-3.93-2.924-5.844-4.353l-1.099-.82c-.38-.283-.369-.51-.3-.713.034-.098.124-.36.652-.372l.788-.017c2.6-.058 5.29-.116 7.935-.165.368-.007.855-.147 1.077-.774.45-1.268.91-2.556 1.355-3.802.486-1.361.99-2.768 1.48-4.154.155-.438.288-.515.421-.562a.7.7 0 0 1 .215-.038c.245 0 .444.164.547.449.399 1.11.802 2.24 1.192 3.332l.868 2.424c.274.76.556 1.547.824 2.322.177.515.566.793 1.123.803 2.79.052 5.487.11 8.722.183.405.009.648.219.649.562 0 .135-.026.3-.331.527l-2.823 2.101c-1.336.996-2.717 2.025-4.078 3.032-.455.337-.602.779-.437 1.312.87 2.797 1.72 5.58 2.51 8.172.065.215.05.414-.044.56-.083.128-.224.21-.408.239l-.068.005c-.12 0-.257-.056-.44-.18l-2.157-1.465c-1.612-1.094-3.28-2.224-4.912-3.343-.252-.172-.497-.257-.75-.257a1.3 1.3 0 0 0-.754.26 1265 1265 0 0 1-4.826 3.283q-1.135.768-2.268 1.539c-.212.144-.339.16-.415.16z"/></g><g clip-path="url(#c)" fill="#fff"><path d="M87.11 51.721a2.9 2.9 0 0 1-2.152-.938c-.506-.546-.732-1.194-.73-2.101v-.037l.01-.036.088-.318c.088-.314.196-.706.317-1.099a515 515 0 0 1 1.363-4.352l-.014-.01a1069 1069 0 0 1-4.507-3.297c-.92-.678-1.321-1.599-1.16-2.663.16-1.046.783-1.8 1.804-2.18a3.4 3.4 0 0 1 1.074-.196 427 427 0 0 1 5.575-.119.3.3 0 0 0 .085-.009.3.3 0 0 0 .036-.076 439 439 0 0 1 1.875-5.16c.42-1.124 1.485-1.85 2.714-1.85.489 0 .978.121 1.416.352.639.337 1.09.86 1.344 1.555l.434 1.19c.461 1.267.939 2.576 1.4 3.867.046.131.049.131.175.133 1.854.024 3.712.067 5.508.108.722.017 1.371.23 1.879.617.514.393.859.946.997 1.6.236 1.12-.135 2.082-1.073 2.783a343 343 0 0 1-3.104 2.282l-1.292.944c-.067.05-.137.1-.171.131a3 3 0 0 0 .057.196l.361 1.153c.402 1.284.817 2.61 1.223 3.917.365 1.175-.064 2.39-1.092 3.098a2.9 2.9 0 0 1-1.66.513 3.06 3.06 0 0 1-1.702-.52l-1.358-.904c-1.093-.727-2.222-1.48-3.33-2.223l-.014.01c-1.78 1.192-3.27 2.185-4.69 3.126a3.05 3.05 0 0 1-1.686.513m6.39-6.058c.176 0 .32.082.411.144 1.259.847 2.543 1.702 3.785 2.529l1.67 1.113c.192.13.348.187.504.187a1 1 0 0 0 .098-.008.73.73 0 0 0 .515-.307c.117-.18.141-.411.066-.653-.609-1.961-1.265-4.07-1.937-6.192-.092-.293-.02-.505.235-.69 1.05-.764 2.116-1.544 3.147-2.298l2.177-1.591c.256-.187.37-.38.37-.623-.002-.41-.316-.693-.784-.703-2.494-.055-4.574-.1-6.73-.138-.309-.006-.498-.139-.597-.42-.206-.588-.425-1.184-.636-1.761l-.242-.662-.431-1.184q-.457-1.258-.917-2.516c-.12-.33-.38-.527-.695-.527a.8.8 0 0 0-.263.045c-.234.08-.375.247-.501.597-.38 1.05-.767 2.115-1.142 3.146-.343.944-.698 1.92-1.045 2.88-.061.169-.186.393-.563.4-2.041.037-4.117.081-6.124.125l-.606.013c-.278.006-.638.092-.77.472-.114.326-.006.605.33.85l.852.625c1.475 1.081 3 2.199 4.504 3.295.143.104.322.283.215.62-.322 1.01-.642 2.038-.952 3.033l-.256.821-.184.588a368 368 0 0 0-.563 1.812.74.74 0 0 0 .055.606.72.72 0 0 0 .466.323q.083.02.163.02c.155 0 .31-.055.484-.172l1.745-1.163a865 865 0 0 0 3.729-2.49.74.74 0 0 1 .416-.146"/><path d="M93.488 27.557c.428 0 .866.102 1.277.32.593.312.986.79 1.209 1.401.613 1.685 1.23 3.368 1.833 5.056.082.23.18.318.446.321 1.835.024 3.67.066 5.505.108 1.337.031 2.345.79 2.599 1.994.215 1.015-.117 1.872-.967 2.508-1.455 1.086-2.928 2.15-4.393 3.224q-.338.247-.215.633.794 2.532 1.582 5.066c.33 1.061-.058 2.156-.982 2.792a2.63 2.63 0 0 1-1.492.46 2.8 2.8 0 0 1-1.536-.47c-1.563-1.041-3.128-2.08-4.688-3.126a.3.3 0 0 0-.165-.061c-.058 0-.113.026-.18.07q-2.34 1.57-4.69 3.125c-.471.313-1 .464-1.52.464-.718 0-1.42-.288-1.936-.845-.444-.479-.658-1.044-.657-1.915.094-.328.238-.873.404-1.41q.67-2.178 1.361-4.349c.05-.154.007-.227-.115-.317a1037 1037 0 0 1-4.506-3.296c-.822-.605-1.2-1.41-1.049-2.4.144-.945.695-1.616 1.622-1.962.305-.114.65-.167.977-.176a414 414 0 0 1 5.572-.119c.225-.003.318-.073.39-.273a433 433 0 0 1 1.874-5.156c.391-1.048 1.387-1.667 2.44-1.667m-6.363 22.356c.233 0 .445-.085.65-.221 1.825-1.218 3.654-2.43 5.474-3.654a.45.45 0 0 1 .25-.096.44.44 0 0 1 .246.093c1.814 1.22 3.636 2.43 5.455 3.643.207.138.424.236.67.236a1 1 0 0 0 .143-.01c.654-.1 1.013-.673.814-1.315a1180 1180 0 0 0-1.937-6.194c-.058-.183-.024-.274.131-.387 1.778-1.292 3.549-2.594 5.325-3.889.296-.216.484-.478.484-.845-.001-.561-.438-.968-1.066-.981a1843 1843 0 0 0-6.732-.138c-.186-.004-.268-.06-.327-.23-.285-.811-.585-1.618-.88-2.427q-.672-1.85-1.347-3.7c-.165-.45-.542-.713-.969-.713q-.176 0-.359.061c-.38.13-.553.422-.678.768-.726 2.01-1.461 4.017-2.188 6.027-.053.148-.119.21-.294.212-2.244.04-4.487.09-6.73.139-.527.01-.896.249-1.04.661-.153.441-.005.843.43 1.162q2.675 1.962 5.356 3.92c.124.09.161.163.112.316-.409 1.283-.807 2.57-1.208 3.855q-.376 1.2-.747 2.4c-.182.593.133 1.14.731 1.28q.12.027.231.027M93.488 27c-.647 0-1.27.186-1.8.54a3.08 3.08 0 0 0-1.187 1.496 436 436 0 0 0-1.841 5.062c-2.112.033-3.852.07-5.467.117a3.7 3.7 0 0 0-1.17.213c-1.124.42-1.81 1.25-1.985 2.4-.178 1.17.261 2.182 1.27 2.925 1.57 1.156 3.14 2.301 4.36 3.19-.43 1.356-.868 2.757-1.304 4.17-.121.395-.23.789-.319 1.105l-.088.316-.02.072v.075c-.001.98.247 1.685.804 2.286A3.24 3.24 0 0 0 87.109 52c.654 0 1.294-.195 1.85-.563a986 986 0 0 0 4.54-3.025 1206 1206 0 0 0 4.523 3.017c.56.372 1.204.57 1.866.57s1.292-.196 1.83-.566c1.13-.778 1.602-2.114 1.201-3.404a1845 1845 0 0 0-1.223-3.915l-.36-1.153-.001-.003-.004-.013.016-.012 1.292-.944c1.02-.745 2.075-1.515 3.106-2.284.51-.381.87-.838 1.071-1.358s.237-1.093.109-1.701a2.95 2.95 0 0 0-1.101-1.763c-.557-.425-1.267-.66-2.052-.677a575 575 0 0 0-5.436-.108 595 595 0 0 0-1.381-3.814l-.434-1.19a3.05 3.05 0 0 0-1.477-1.707A3.35 3.35 0 0 0 93.488 27m-6.363 22.356a.4.4 0 0 1-.095-.012.43.43 0 0 1-.284-.19.48.48 0 0 1-.028-.39c.185-.601.376-1.212.56-1.804l.187-.594.256-.824c.31-.994.63-2.02.95-3.029.083-.256.094-.625-.316-.923a2263 2263 0 0 1-4.507-3.298L83 37.67c-.294-.215-.284-.387-.23-.54.025-.075.094-.274.502-.282l.607-.014c2.007-.043 4.082-.088 6.122-.125.284-.005.659-.11.83-.586.347-.96.703-1.937 1.046-2.88.375-1.032.763-2.097 1.142-3.148.12-.331.221-.39.325-.425a.5.5 0 0 1 .165-.029c.19 0 .343.124.422.34a1492 1492 0 0 1 1.347 3.7l.242.66c.212.577.43 1.173.636 1.76.136.39.436.601.866.609 2.152.039 4.233.083 6.729.138.312.007.499.166.5.426 0 .102-.02.227-.255.4-.727.53-1.464 1.07-2.178 1.59-1.03.755-2.096 1.535-3.146 2.298-.35.255-.464.59-.337.993.671 2.12 1.327 4.229 1.937 6.192.05.163.038.313-.034.423a.44.44 0 0 1-.368.185c-.093 0-.198-.042-.34-.136l-1.663-1.11a895 895 0 0 1-3.79-2.532 1 1 0 0 0-.577-.195c-.26 0-.457.113-.583.198-1.238.832-2.5 1.673-3.722 2.486l-1.75 1.166c-.164.11-.261.122-.32.122"/></g><g clip-path="url(#d)" fill="#fff"><path d="M7.11 51.721a2.9 2.9 0 0 1-2.152-.938c-.506-.546-.732-1.194-.73-2.101v-.037l.01-.036.088-.318c.087-.314.196-.706.317-1.099.455-1.475.913-2.939 1.362-4.35v-.002l-.013-.01c-1.24-.903-2.872-2.094-4.507-3.297-.92-.678-1.321-1.599-1.16-2.663.16-1.046.783-1.8 1.804-2.18a3.4 3.4 0 0 1 1.074-.196 427 427 0 0 1 5.575-.119.3.3 0 0 0 .085-.009.3.3 0 0 0 .036-.076 441 441 0 0 1 1.875-5.16c.42-1.124 1.485-1.85 2.714-1.85.489 0 .978.121 1.417.352.638.337 1.09.86 1.343 1.555l.434 1.19c.461 1.267.939 2.576 1.4 3.867.046.131.049.131.175.133 1.854.024 3.712.067 5.508.108.722.017 1.372.23 1.879.617.514.393.859.946.997 1.6.236 1.12-.135 2.082-1.073 2.783a342 342 0 0 1-3.104 2.282l-1.292.944c-.067.05-.137.1-.171.131a3 3 0 0 0 .057.196l.36 1.153c.402 1.284.818 2.61 1.224 3.917.365 1.175-.064 2.39-1.092 3.098a2.9 2.9 0 0 1-1.66.513 3.06 3.06 0 0 1-1.702-.52l-1.358-.904c-1.092-.727-2.222-1.48-3.33-2.223l-.014.01c-1.78 1.192-3.27 2.185-4.69 3.126a3.05 3.05 0 0 1-1.686.513m6.39-6.058c.176 0 .32.082.411.144 1.259.847 2.543 1.702 3.785 2.529l1.67 1.113c.192.13.348.187.504.187a1 1 0 0 0 .098-.008.73.73 0 0 0 .515-.307c.117-.18.141-.411.066-.653-.609-1.961-1.265-4.07-1.936-6.192-.093-.293-.021-.505.234-.69 1.05-.764 2.116-1.544 3.147-2.298l2.177-1.591c.256-.187.37-.38.37-.623-.002-.41-.316-.693-.784-.703a1808 1808 0 0 0-6.73-.138c-.309-.006-.498-.139-.597-.42-.206-.588-.425-1.184-.636-1.761l-.242-.662-.431-1.184q-.457-1.258-.917-2.516c-.12-.33-.38-.527-.695-.527a.8.8 0 0 0-.263.045c-.235.08-.375.247-.501.597-.38 1.05-.767 2.115-1.142 3.146l-1.046 2.88c-.06.169-.184.393-.562.4-2.041.037-4.117.081-6.124.125l-.606.013c-.279.006-.638.092-.77.472-.114.326-.006.605.33.85l.852.625c1.475 1.081 3 2.199 4.504 3.295.143.104.322.283.215.62-.322 1.01-.642 2.038-.952 3.033l-.256.821-.184.588a368 368 0 0 0-.563 1.812.74.74 0 0 0 .055.606.72.72 0 0 0 .466.323q.083.02.163.02c.155 0 .31-.055.484-.172l1.745-1.163a865 865 0 0 0 3.729-2.49.74.74 0 0 1 .416-.146"/><path d="M13.488 27.557c.428 0 .866.102 1.277.32.593.312.986.79 1.209 1.401.613 1.685 1.23 3.368 1.833 5.056.082.23.18.318.446.321 1.835.024 3.67.066 5.505.108 1.337.031 2.345.79 2.6 1.994.214 1.015-.118 1.872-.968 2.508-1.455 1.086-2.928 2.15-4.393 3.224q-.338.247-.215.633.794 2.532 1.582 5.066c.33 1.061-.059 2.156-.983 2.792-.446.307-.967.46-1.491.46a2.8 2.8 0 0 1-1.536-.47c-1.563-1.041-3.128-2.08-4.688-3.126a.3.3 0 0 0-.165-.061c-.058 0-.113.026-.18.07q-2.34 1.57-4.69 3.125c-.471.313-1 .464-1.52.464-.718 0-1.42-.288-1.936-.845-.444-.479-.658-1.044-.657-1.915.094-.328.238-.873.404-1.41q.67-2.178 1.361-4.349c.05-.154.007-.227-.115-.317a1041 1041 0 0 1-4.506-3.296c-.822-.605-1.2-1.41-1.049-2.4.144-.945.695-1.616 1.622-1.962.305-.114.65-.167.977-.176a414 414 0 0 1 5.572-.119c.225-.003.318-.073.39-.273a433 433 0 0 1 1.874-5.156c.391-1.048 1.387-1.667 2.44-1.667M7.126 49.913c.233 0 .445-.085.65-.221 1.824-1.218 3.654-2.43 5.474-3.654a.45.45 0 0 1 .25-.096.44.44 0 0 1 .246.093c1.814 1.22 3.636 2.43 5.455 3.643.207.138.424.236.67.236a1 1 0 0 0 .142-.01c.655-.1 1.014-.673.815-1.315q-.961-3.1-1.937-6.194c-.058-.183-.024-.274.131-.387 1.778-1.292 3.549-2.594 5.325-3.889.296-.216.484-.478.484-.845-.001-.561-.438-.968-1.066-.981q-3.366-.076-6.732-.138c-.186-.004-.268-.06-.327-.23-.285-.811-.585-1.618-.88-2.427q-.672-1.85-1.347-3.7c-.165-.45-.542-.713-.969-.713q-.176 0-.359.061c-.38.13-.553.422-.678.768-.726 2.01-1.461 4.017-2.188 6.027-.053.148-.119.21-.294.212-2.244.04-4.487.09-6.73.139-.527.01-.896.249-1.04.661-.153.441-.005.843.43 1.162q2.675 1.962 5.356 3.92c.124.09.161.163.113.316-.41 1.283-.808 2.57-1.209 3.855q-.376 1.2-.747 2.4c-.182.593.133 1.14.731 1.28q.12.027.231.027M13.488 27c-.647 0-1.27.186-1.8.54a3.08 3.08 0 0 0-1.187 1.496 435 435 0 0 0-1.841 5.062c-2.112.033-3.852.07-5.467.117a3.7 3.7 0 0 0-1.17.213c-1.124.42-1.81 1.25-1.985 2.4-.178 1.17.261 2.182 1.27 2.925 1.57 1.156 3.14 2.301 4.36 3.19-.43 1.356-.868 2.757-1.304 4.17-.122.395-.23.789-.319 1.105l-.088.316-.02.072v.075c-.001.98.247 1.685.804 2.286A3.24 3.24 0 0 0 7.109 52c.654 0 1.294-.195 1.85-.563 1.375-.91 2.822-1.874 4.54-3.025a1206 1206 0 0 0 4.523 3.017c.56.372 1.204.57 1.867.57.662 0 1.291-.196 1.829-.566 1.13-.778 1.602-2.114 1.2-3.404-.405-1.306-.82-2.632-1.222-3.915l-.36-1.153-.001-.003-.004-.013.016-.012 1.292-.944c1.02-.745 2.075-1.515 3.106-2.284.51-.381.87-.838 1.071-1.358s.237-1.093.109-1.701a2.95 2.95 0 0 0-1.101-1.763c-.557-.425-1.267-.66-2.052-.677a575 575 0 0 0-5.436-.108 595 595 0 0 0-1.381-3.814l-.434-1.19a3.05 3.05 0 0 0-1.477-1.707A3.35 3.35 0 0 0 13.488 27M7.125 49.356a.4.4 0 0 1-.095-.012.43.43 0 0 1-.284-.19.48.48 0 0 1-.028-.39c.185-.601.376-1.212.56-1.804l.187-.594.256-.824c.31-.994.63-2.02.951-3.029.082-.256.093-.625-.317-.923a2252 2252 0 0 1-4.507-3.298L3 37.67c-.294-.215-.284-.387-.23-.54.025-.075.094-.274.502-.282l.607-.014c2.007-.043 4.082-.088 6.122-.125.284-.005.659-.11.83-.586l1.046-2.88c.375-1.032.763-2.097 1.142-3.148.12-.331.222-.39.325-.425a.5.5 0 0 1 .165-.029c.19 0 .343.124.422.34a1492 1492 0 0 1 1.348 3.7l.241.66c.212.577.43 1.173.636 1.76.137.39.436.601.866.609 2.152.039 4.233.083 6.729.138.312.007.5.166.5.426 0 .102-.02.227-.255.4-.727.53-1.464 1.07-2.178 1.59-1.03.755-2.096 1.535-3.146 2.298-.35.255-.464.59-.337.993.671 2.12 1.327 4.229 1.937 6.192.05.163.038.313-.034.423a.44.44 0 0 1-.368.185c-.093 0-.198-.042-.34-.136l-1.663-1.11a895 895 0 0 1-3.79-2.532 1 1 0 0 0-.577-.195c-.26 0-.457.113-.583.198-1.238.832-2.5 1.673-3.722 2.486l-1.75 1.166c-.164.11-.261.122-.32.122"/></g><defs><clipPath id="a"><path fill="#fff" d="M23 44h62v71H23z"/></clipPath><clipPath id="b"><path fill="#fff" d="M36 0h35v33H36z"/></clipPath><clipPath id="c"><path fill="#fff" d="M80 27h27v25H80z"/></clipPath><clipPath id="d"><path fill="#fff" d="M0 27h27v25H0z"/></clipPath></defs></svg>