<svg width="182" height="201" viewBox="0 0 182 201" fill="none" xmlns="http://www.w3.org/2000/svg">
<path d="M78.0109 3.52388L13.8396 40.5983C5.70415 45.2968 0.686035 53.99 0.686035 63.387V137.536C0.686035 146.933 5.70415 155.626 13.8396 160.325L78.0109 197.399C86.1463 202.098 96.1825 202.098 104.318 197.399L168.489 160.325C176.625 155.626 181.643 146.933 181.643 137.536V63.387C181.643 53.99 176.625 45.2968 168.489 40.5983L104.318 3.52388C96.1825 -1.17463 86.1463 -1.17463 78.0109 3.52388Z" fill="#F8F8F8"/>
<path d="M79.5695 14.9563L22.9635 47.6556C15.7785 51.8025 11.3686 59.4684 11.3686 67.7622V133.18C11.3686 141.474 15.7975 149.14 22.9635 153.286L79.5695 185.986C86.7546 190.133 95.5933 190.133 102.778 185.986L159.384 153.286C166.569 149.14 170.979 141.474 170.979 133.18V67.7622C170.979 59.4684 166.55 51.8025 159.384 47.6556L102.778 14.9563C95.5933 10.8094 86.7546 10.8094 79.5695 14.9563Z" fill="#072996"/>
<path d="M125.377 90.0167C125.079 101.018 120.821 110.118 112.214 117.072C108.592 120 106.215 123.578 105.691 128.288C105.624 128.894 105.765 129.202 106.295 129.52C109.046 131.169 110.348 134.203 109.787 137.512C109.269 140.567 107.086 142.85 103.968 143.493C103.321 143.626 103.098 143.909 102.947 144.521C101.547 150.201 96.7381 153.977 90.9291 154C85.3502 154.023 80.5081 150.192 79.0616 144.579C78.9031 143.965 78.6962 143.616 77.9884 143.473C74.9253 142.856 72.7499 140.631 72.2568 137.543C71.7424 134.319 72.63 131.564 75.4533 129.715C76.2461 129.196 76.4047 128.71 76.2828 127.837C75.6756 123.494 73.6626 120.042 70.1664 117.366C49.4153 101.49 53.3505 68.971 77.2671 58.543C98.5152 49.2786 122.751 63.484 125.147 86.611C125.263 87.732 125.301 88.8608 125.377 90.0167ZM101.228 128.443C101.288 128.211 101.323 128.12 101.335 128.027C101.969 122.038 104.881 117.399 109.528 113.661C116.921 107.713 120.92 99.9045 120.951 90.4213C120.987 78.9594 115.859 70.1152 106.074 64.1965C91.6059 55.4432 72.3013 60.9961 64.4966 76.003C57.6454 89.1745 61.1435 104.975 72.9452 114.027C77.3793 117.426 79.9125 121.895 80.5874 127.415C80.6918 128.263 80.9548 128.462 81.7631 128.459C87.9182 128.428 94.0734 128.443 100.228 128.445C100.546 128.443 100.865 128.443 101.228 128.443ZM91.0142 132.782C87.3091 132.782 83.606 132.778 79.9009 132.784C77.7312 132.786 76.4588 134.002 76.4569 136.064C76.4549 138.137 77.7138 139.355 79.8854 139.355C87.2936 139.359 94.7037 139.359 102.112 139.355C104.299 139.355 105.544 138.16 105.554 136.075C105.562 133.996 104.314 132.788 102.127 132.784C98.4243 132.776 94.7192 132.78 91.0142 132.782ZM83.372 143.735C84.1648 147.407 87.8602 149.953 91.7722 149.624C95.0267 149.351 98.4262 146.422 98.5519 143.735C93.5164 143.735 88.4848 143.735 83.372 143.735Z" fill="white"/>
<path d="M50.68 88.3516C51.2253 88.3516 51.7745 88.3167 52.3179 88.3593C53.5342 88.4581 54.356 89.3429 54.356 90.5084C54.358 91.6682 53.5361 92.5937 52.3217 92.6614C51.2021 92.7234 50.0709 92.7253 48.9512 92.6517C47.7813 92.5743 46.9537 91.5617 47.002 90.4174C47.0484 89.3138 47.8993 88.4368 49.0421 88.3593C49.5855 88.3206 50.1347 88.3516 50.68 88.3516Z" fill="white"/>
<path d="M115.971 62.3727C115.981 60.8392 118.926 57.8905 120.299 57.9389C121.121 57.968 121.921 58.2971 122.132 59.0987C122.312 59.7763 122.37 60.7482 122.01 61.2555C121.26 62.3107 120.245 63.1955 119.251 64.0494C118.618 64.5915 117.814 64.5353 117.075 64.1307C116.333 63.7241 115.987 63.0755 115.971 62.3727Z" fill="white"/>
<path d="M92.683 49.6949C92.683 50.2409 92.712 50.7888 92.6772 51.3348C92.6056 52.479 91.7374 53.3232 90.6235 53.3716C89.5368 53.42 88.5061 52.6184 88.4229 51.4955C88.334 50.2815 88.334 49.0502 88.4249 47.8362C88.51 46.7171 89.5368 45.9485 90.6526 46.0027C91.7374 46.0569 92.5863 46.8565 92.6694 47.9601C92.7139 48.5352 92.6772 49.116 92.6772 49.6949H92.683Z" fill="white"/>
<path d="M131.294 91.734C130.716 91.734 130.134 91.7786 129.562 91.7243C128.448 91.6179 127.626 90.6595 127.643 89.5559C127.659 88.4445 128.492 87.5094 129.621 87.4532C130.743 87.3971 131.87 87.3971 132.992 87.4494C134.133 87.5016 134.972 88.4155 134.999 89.521C135.028 90.6885 134.218 91.6237 133.027 91.7301C132.452 91.7805 131.872 91.7398 131.294 91.7398C131.294 91.7359 131.294 91.734 131.294 91.734Z" fill="white"/>
<path d="M58.9391 60.9573C58.9623 59.9022 59.3219 59.2535 60.0684 58.8605C60.8457 58.4501 61.6734 58.4501 62.3289 59.0193C63.2707 59.8363 64.1737 60.7153 64.9801 61.664C65.653 62.4579 65.5022 63.6737 64.808 64.4056C64.1118 65.1394 62.8723 65.3562 62.0891 64.696C61.0894 63.8538 60.1882 62.8857 59.3065 61.9157C59.0493 61.633 59.0106 61.1568 58.9391 60.9573Z" fill="white"/>
<path d="M90.9929 111.738C90.6796 112.007 90.3702 112.278 90.0531 112.542C85.5996 116.236 78.7813 114.385 76.8688 108.921C76.5536 108.023 76.0914 107.572 75.2173 107.192C71.9628 105.773 70.2592 103.192 70.0813 99.6508C70.0485 98.9925 69.8319 98.7351 69.2556 98.4679C65.9102 96.9228 64.0345 94.2974 64.0074 90.582C63.9803 86.8259 65.8387 84.1541 69.2131 82.5684C69.8125 82.2857 70.0562 82.0147 70.0852 81.3138C70.2321 77.6603 72.3728 74.8239 75.7859 73.546C76.1127 73.4241 76.4936 73.0794 76.5865 72.7619C78.4487 66.4095 86.2339 64.4695 90.7415 69.0949C90.8072 69.1627 90.8981 69.2052 91.0374 69.3001C92.304 68.0378 93.7717 67.0929 95.5643 66.7309C99.8533 65.8635 104.011 68.3127 105.314 72.5412C105.498 73.1394 105.771 73.426 106.351 73.6332C109.692 74.8355 111.845 77.8036 111.935 81.3622C111.953 82.0302 112.185 82.2838 112.757 82.549C116.106 84.096 117.986 86.731 118.007 90.4387C118.029 94.2258 116.157 96.9267 112.711 98.4891C112.173 98.7331 111.951 98.9906 111.933 99.6121C111.837 103.238 109.7 106.147 106.316 107.442C105.956 107.579 105.517 107.928 105.419 108.269C103.568 114.646 95.7035 116.534 91.2694 111.912C91.2075 111.843 91.1108 111.808 90.9929 111.738ZM88.8271 90.5162C88.8271 85.3874 88.8445 80.2605 88.8193 75.1317C88.8077 72.6825 87.0519 70.8936 84.7391 70.8858C82.4941 70.8781 80.7653 72.6419 80.6551 75.0485C80.5835 76.6109 79.8758 77.2073 78.3597 77.4938C77.3967 77.6758 76.3621 78.094 75.6254 78.7213C74.3665 79.792 74.1364 81.3002 74.6295 82.884C75.2618 84.9111 74.5425 86.0166 72.4714 86.1812C72.2471 86.1986 72.0228 86.2296 71.8023 86.2741C69.7042 86.6846 68.1534 88.6711 68.3042 90.7466C68.4647 92.9538 70.1877 94.6866 72.3612 94.8299C74.5038 94.9693 75.2734 96.0884 74.6314 98.1271C73.798 100.774 75.4881 103.312 78.2456 103.554C79.9628 103.705 80.5739 104.338 80.6531 106.052C80.7363 107.848 81.8114 109.357 83.399 109.905C86.114 110.84 88.8019 108.884 88.8193 105.903C88.8483 100.774 88.8271 95.645 88.8271 90.5162ZM93.1819 90.4717C93.1819 95.6314 93.1664 100.791 93.1896 105.951C93.2012 108.476 95.1737 110.294 97.6237 110.114C99.7044 109.961 101.248 108.261 101.346 106.009C101.41 104.557 102.139 103.703 103.437 103.562C106.747 103.2 108.236 100.962 107.269 97.796C106.784 96.2103 107.668 94.9325 109.317 94.8338C111.899 94.6769 113.713 92.8879 113.711 90.4988C113.709 88.096 111.951 86.3709 109.304 86.1754C107.635 86.0515 106.794 84.8162 107.281 83.2054C108.221 80.0998 106.701 77.7707 103.518 77.4435C102.112 77.2983 101.445 76.547 101.338 75.1007C101.294 74.5005 101.197 73.8713 100.967 73.3215C100.242 71.5886 98.3547 70.6148 96.5524 70.9633C94.5645 71.3466 93.2032 72.9284 93.1935 74.9904C93.1664 80.1521 93.1838 85.3119 93.1819 90.4717Z" fill="white"/>
<path d="M79.3769 90.2316C77.6307 90.2142 76.6657 88.8201 77.1434 87.3274C78.0445 84.5122 81.1559 82.2237 84.1107 82.2044C85.3115 82.1966 86.2417 82.9982 86.3654 84.1444C86.4834 85.2248 85.7524 86.2044 84.6231 86.4716C84.4046 86.5239 84.1764 86.5316 83.9579 86.58C82.6836 86.8569 81.7244 87.5287 81.2197 88.7717C80.8407 89.7011 80.1581 90.1948 79.3769 90.2316Z" fill="white"/>
<path d="M103.458 94.0167C103.375 94.5065 103.295 95.3778 103.067 96.2084C102.762 97.3217 101.685 97.9258 100.596 97.707C99.4782 97.4824 98.6641 96.4311 98.898 95.2752C99.3409 93.0777 98.9522 91.2267 97.177 89.703C96.2933 88.9441 96.3552 87.5733 97.1267 86.7427C97.8983 85.9121 99.1668 85.7959 100.095 86.5549C102.321 88.3806 103.384 90.7776 103.458 94.0167Z" fill="white"/>
</svg>
