<svg width="181" height="201" viewBox="0 0 181 201" fill="none" xmlns="http://www.w3.org/2000/svg">
<path d="M77.3248 3.52388L13.1536 40.5983C5.01811 45.2968 0 53.99 0 63.387V137.536C0 146.933 5.01811 155.626 13.1536 160.325L77.3248 197.399C85.4603 202.098 95.4965 202.098 103.632 197.399L167.803 160.325C175.939 155.626 180.957 146.933 180.957 137.536V63.387C180.957 53.99 175.939 45.2968 167.803 40.5983L103.632 3.52388C95.4965 -1.17463 85.4603 -1.17463 77.3248 3.52388Z" fill="#F8F8F8"/>
<path d="M78.8835 14.9563L22.2775 47.6556C15.0924 51.8025 10.6826 59.4684 10.6826 67.7622V133.18C10.6826 141.474 15.1114 149.14 22.2775 153.286L78.8835 185.986C86.0685 190.133 94.9073 190.133 102.092 185.986L158.698 153.286C165.883 149.14 170.293 141.474 170.293 133.18V67.7622C170.293 59.4684 165.864 51.8025 158.698 47.6556L102.092 14.9563C94.9073 10.8094 86.0685 10.8094 78.8835 14.9563Z" fill="#072996"/>
<path d="M103.365 84.799C102.67 83.6173 102.07 82.594 101.262 81.2174C104.416 81.2174 106.974 81.1687 109.524 81.2702C109.909 81.2865 110.64 82.058 110.583 82.3788C110.161 84.8965 109.593 87.3898 109.049 89.8871C109.012 90.0455 108.773 90.1592 108.375 90.5287C107.477 89.5785 106.592 88.6364 105.553 87.536C103.491 89.0953 101.371 90.6262 99.3493 92.2749C98.8906 92.6485 98.7282 93.42 98.513 94.0413C97.8553 95.9458 96.4464 96.9407 94.5342 96.9082C92.63 96.8757 91.2375 95.8646 90.6488 93.9235C89.8489 91.2922 86.5685 89.2212 83.9863 89.6354C83.4585 89.7207 82.8008 89.8506 82.3826 89.6232C79.3985 87.9948 78.1399 90.9348 76.183 91.95C75.8988 92.0962 75.911 92.9002 75.8663 93.4078C75.6511 95.9052 73.7917 97.5742 71.4085 97.3874C69.277 97.2168 67.5068 95.2473 67.588 93.1357C67.6773 90.8455 69.6748 89.0953 72.1068 89.1806C74.287 89.2577 78.5419 86.4802 79.2402 84.4701C79.9223 82.5006 81.2702 81.4895 83.3367 81.4976C85.2733 81.5058 86.6456 82.6834 87.2099 84.7259C87.8392 87.0081 91.3593 89.2577 93.6247 88.8314C93.8237 88.7948 94.051 88.7177 94.2256 88.7745C98.5658 90.2892 100.417 86.3746 103.361 84.8031L103.365 84.799Z" fill="white"/>
<path d="M86.5807 118.418H79.8614V95.2961H86.5807V118.418Z" fill="white"/>
<path d="M102.683 95.2636H109.296V118.406H102.683V95.2636Z" fill="white"/>
<path d="M91.1522 118.381C91.1522 113.44 91.1319 108.599 91.1969 103.759C91.2009 103.418 91.8059 103.076 92.155 102.764C92.2322 102.695 92.4149 102.752 92.5529 102.739C96.2313 102.45 98.0704 104.121 98.0704 107.754V118.386H91.1563L91.1522 118.381Z" fill="white"/>
<path d="M68.4568 118.524V104.039C70.4138 104.039 72.3463 103.978 74.2626 104.096C74.6158 104.116 75.2086 104.855 75.2127 105.269C75.2857 109.253 75.2979 113.236 75.2005 117.22C75.1883 117.667 74.4169 118.426 73.95 118.467C72.2123 118.617 70.4503 118.528 68.4528 118.528L68.4568 118.524Z" fill="white"/>
<path d="M134.7 145.926C138.025 142.904 138.203 137.735 135.089 134.495C130.55 129.772 124.935 123.969 122.877 121.728C126.162 116.497 128.228 110.942 129.036 104.888C131.407 87.1137 121.026 69.2991 104.258 62.9603C100.567 61.5634 96.5764 60.9665 92.7275 60C90.5554 60 88.4807 60 86.3086 60C82.5125 60.9259 78.5216 61.3807 74.9488 62.8506C59.9755 69.023 51.4861 80.255 49.6469 96.4168C49.5941 96.8757 49.4276 97.3265 49.314 97.7772V101.838C49.8499 104.741 50.1909 107.694 50.9542 110.54C55.0142 125.715 68.1848 137.15 83.7468 139.278C92.8736 140.529 102.496 138.815 111.663 133.069C113.377 134.974 119.097 140.874 123.592 145.552C126.584 148.667 131.509 148.829 134.704 145.926H134.7ZM89.4957 135.392C69.8088 135.335 53.7475 119.315 53.8287 99.8198C53.9139 80.2307 69.9753 64.3978 89.6784 64.4831C109.187 64.5683 125.033 80.4621 124.972 99.8928C124.911 119.506 108.98 135.449 89.4917 135.392H89.4957Z" fill="white"/>
</svg>
