<svg width="49" height="43" viewBox="0 0 49 43" fill="none" xmlns="http://www.w3.org/2000/svg">
<path d="M41.3579 27.2798C41.8379 25.7329 42.1643 24.2073 42.2646 22.634C42.7751 14.5928 37.6675 7.16226 29.93 4.71182C20.1872 1.62802 9.81199 7.23263 7.18454 16.9967C4.49486 26.9945 11.0717 37.1695 21.3758 38.9603C21.819 39.0369 22.1213 38.9879 22.4375 38.5757C23.141 37.6621 24.402 37.4083 25.4776 37.8494C26.5418 38.2854 27.1958 39.3536 27.1057 40.5097C27.0206 41.6067 26.1901 42.5819 25.1094 42.8508C23.9918 43.1298 22.7943 42.6711 22.1962 41.6846C21.9943 41.3529 21.7797 41.1845 21.3796 41.1116C13.5887 39.7017 8.29952 35.3097 5.52476 27.9772C5.31268 27.4155 5.07013 27.2371 4.49994 27.2823C3.86879 27.3313 3.2313 27.3012 2.59634 27.2924C1.13975 27.271 0.0387324 26.2431 0.0209536 24.8155C-0.00698453 22.639 -0.00698453 20.4613 0.0209536 18.2835C0.0400023 16.8547 1.13594 15.676 2.57348 15.8155C4.03515 15.9562 4.50756 15.3731 4.99775 14.0964C8.3173 5.46329 17.0137 0.143934 26.2929 0.9419C34.6121 1.65693 41.711 7.26405 44.3308 15.2236C44.4806 15.6772 44.6787 15.818 45.1245 15.7803C45.5232 15.7476 45.9283 15.7614 46.3296 15.7765C47.7799 15.828 48.8542 16.8635 48.8733 18.2973C48.9012 20.4738 48.8999 22.6516 48.872 24.8293C48.8555 26.1011 47.9081 27.2006 46.6611 27.2597C44.9137 27.3426 43.1599 27.281 41.3579 27.281V27.2798Z" fill="#00249C"/>
<path d="M39.3038 21.3108C39.2809 24.0302 38.6955 26.3851 37.4764 28.5704C37.2617 28.955 37.2402 29.288 37.3544 29.6976C37.8726 31.5499 38.364 33.4097 38.8644 35.2658C38.999 35.7659 38.8055 35.9465 38.284 35.8074C36.3664 35.2997 34.4476 34.7996 32.5338 34.2781C32.2011 34.1876 31.9383 34.2215 31.636 34.3874C22.5739 39.3725 11.2234 33.7918 9.74143 23.6281C8.53629 15.3694 14.5633 7.76677 22.9777 6.93111C30.8614 6.14696 37.9881 11.6448 39.1412 19.4108C39.2453 20.112 39.333 20.822 39.3038 21.3121V21.3108ZM35.4801 32.4635C35.1702 31.3137 34.901 30.2644 34.5987 29.2251C34.4908 28.8532 34.5403 28.5742 34.7626 28.245C36.4426 25.7606 37.0789 22.9947 36.7081 20.0567C35.8394 13.164 29.5673 8.49185 22.5879 9.46198C15.7519 10.412 10.9606 17.0835 12.2902 23.799C13.9982 32.417 23.7765 36.5111 31.25 31.7284C31.5649 31.5273 31.8392 31.4858 32.1846 31.5826C33.2399 31.8766 34.3003 32.1506 35.4788 32.4647L35.4801 32.4635Z" fill="#00249C"/>
<path d="M31.245 18.9973C32.6788 18.9911 33.8331 20.1145 33.8382 21.5207C33.842 22.9231 32.6737 24.1081 31.2844 24.1093C29.8697 24.1119 28.6785 22.9721 28.6519 21.5923C28.6239 20.1685 29.7884 19.0036 31.245 18.9973Z" fill="#00249C"/>
<path d="M17.666 24.0717C16.1916 24.0805 15.0436 22.9558 15.0538 21.5132C15.0639 20.1334 16.2005 19.0074 17.5923 18.9974C19.0629 18.9873 20.2287 20.1032 20.2414 21.5345C20.2541 22.9407 19.115 24.0629 17.666 24.0717Z" fill="#00249C"/>
<path d="M27.0096 21.532C27.0134 22.9859 25.9213 24.0729 24.4545 24.0742C22.9789 24.0767 21.8867 23.0035 21.8804 21.5483C21.874 20.1133 22.9903 18.9999 24.4393 18.9961C25.8908 18.9911 27.0058 20.0919 27.0096 21.532Z" fill="#00249C"/>
</svg>
