<svg width="30" height="30" viewBox="0 0 30 30" fill="none" xmlns="http://www.w3.org/2000/svg">
<circle cx="15" cy="15" r="14.5" fill="white" stroke="#D8D8D8"/>
<path d="M7.50001 15.0074C7.50001 14.8654 7.55553 14.7291 7.65435 14.6287C7.75318 14.5282 7.88721 14.4718 8.02697 14.4718H20.7169L17.3928 11.0961C17.3427 11.0468 17.3028 10.9877 17.2754 10.9225C17.2479 10.8573 17.2336 10.7872 17.2331 10.7163C17.2327 10.6453 17.2461 10.575 17.2726 10.5095C17.2992 10.4439 17.3383 10.3843 17.3878 10.3343C17.4372 10.2842 17.496 10.2447 17.5606 10.218C17.6252 10.1913 17.6944 10.1779 17.7642 10.1787C17.834 10.1794 17.9029 10.1943 17.967 10.2224C18.031 10.2506 18.0889 10.2914 18.1373 10.3425L22.353 14.6306C22.549 14.8299 22.549 15.1849 22.353 15.3874L18.1342 19.6724C18.0853 19.7221 18.0273 19.7615 17.9634 19.7884C17.8995 19.8153 17.8311 19.8291 17.762 19.8291C17.6928 19.8291 17.6244 19.8153 17.5605 19.7884C17.4966 19.7615 17.4386 19.7221 17.3897 19.6724C17.3408 19.6227 17.3021 19.5637 17.2756 19.4988C17.2491 19.4339 17.2355 19.3643 17.2355 19.294C17.2355 19.2237 17.2491 19.1542 17.2756 19.0892C17.3021 19.0243 17.3408 18.9653 17.3897 18.9156L20.7108 15.54H8.02391C7.95499 15.5404 7.88669 15.5269 7.82294 15.5003C7.75919 15.4736 7.70128 15.4344 7.65255 15.3849C7.60382 15.3354 7.56524 15.2765 7.53906 15.2117C7.51288 15.1469 7.4996 15.0775 7.50001 15.0074Z" fill="#666666"/>
</svg>
