<svg width="80" height="85" viewBox="0 0 72 90" fill="none" xmlns="http://www.w3.org/2000/svg">
<g clip-path="url(#clip0_1832_1554)">
<path d="M71.8772 73.7177C71.0048 66.5983 67.4942 61.2889 61.3707 57.768C61.1166 57.6212 60.8667 57.4699 60.6127 57.3187C64.5553 52.6012 65.4784 47.4863 62.4887 42.0257C60.2527 37.9389 56.615 35.9431 51.9102 35.6277C52.1134 35.9431 52.2489 36.1288 52.3548 36.3275C52.99 37.5156 53.5998 38.7209 54.252 39.8959C54.4172 40.194 54.6755 40.5137 54.9677 40.6519C56.6023 41.4339 57.9236 42.5571 58.8298 44.1555C61.286 48.4712 59.5963 53.7201 55.0227 56.0011C54.0233 56.4979 53.5406 57.254 53.6337 58.1741C53.7226 59.0641 54.4002 59.7725 55.4123 60.0534C62.2388 61.9628 66.3169 66.4687 67.5493 73.5795C67.7864 74.9403 67.7186 76.353 67.7991 77.8348H65.3133C65.4573 79.2906 65.597 80.6601 65.741 82.103C66.9098 82.103 68.0786 82.0555 69.2347 82.1159C70.5644 82.1894 71.4876 81.6839 71.9916 80.4138V74.2621C71.9492 74.0763 71.8899 73.8949 71.8687 73.7091L71.8772 73.7177Z" fill="white"/>
<path d="M12.0309 62.1054C13.4919 61.1377 15.0927 60.4897 16.7866 60.0707C17.858 59.8072 18.4975 59.1159 18.5906 58.226C18.6965 57.2281 18.2561 56.5239 17.1932 55.9969C17.1085 55.9537 17.0238 55.9191 16.9391 55.8716C13.9112 54.2515 12.2681 51.6811 12.3231 48.2078C12.3782 44.6653 14.178 42.1597 17.3202 40.6477C17.5785 40.5224 17.8199 40.2545 17.9639 39.9953C18.6499 38.7555 19.2979 37.494 19.9627 36.2412C20.0516 36.0727 20.1533 35.9085 20.2719 35.6969C16.0455 35.6105 11.6159 38.2932 9.58323 42.3325C6.84332 47.7801 7.79191 52.7827 11.6625 57.3404C11.4635 57.4527 11.2814 57.5564 11.0993 57.6601C6.72898 60.0448 3.55712 63.5397 1.71498 68.2443C1.71498 68.2443 1.70228 68.2788 1.6811 68.3393C1.62605 68.4905 1.571 68.6503 1.52442 68.8102C0.9019 70.7499 -0.957175 77.23 0.618169 81.2865C1.03318 81.5328 1.43548 81.9691 1.8632 81.9907C3.4089 82.0771 4.96307 82.0253 6.52994 82.0253C6.66122 80.6385 6.78827 79.2734 6.92378 77.8046H4.53112C4.53112 76.9967 4.50995 76.2796 4.53112 75.5668C4.74286 69.7563 7.26256 65.272 12.0267 62.1054H12.0309Z" fill="white"/>
<path d="M52.4777 62.7748C50.2417 60.8221 47.6924 59.3965 44.8551 58.2906C52.7318 52.5924 53.024 41.7361 47.3917 35.4936C41.8229 29.3245 32.6334 28.6463 26.4633 33.96C23.4016 36.5952 21.534 39.9519 21.1444 44.0171C20.5727 49.9226 22.8172 54.6401 27.4543 58.269C27.1578 58.3943 26.963 58.4677 26.7767 58.5498C17.998 62.3903 12.5647 69.0346 11.0063 78.6856C10.5405 81.5758 10.7311 84.5739 10.6633 87.5288C10.6294 89.1445 11.4933 89.9913 13.0814 89.9956C17.1002 89.9999 21.119 89.9956 25.1378 89.9956C36.4913 89.9956 47.8491 89.9956 59.2025 89.9956C60.8245 89.9956 61.6333 89.1402 61.6376 87.4683C61.6376 85.7749 61.663 84.0814 61.6291 82.3923C61.4724 74.452 58.381 67.9243 52.4819 62.7748H52.4777ZM25.2945 45.7019C25.2988 39.6063 30.1815 34.6598 36.1653 34.6901C42.166 34.716 47.0275 39.6797 47.0021 45.7538C46.9767 51.8105 42.1194 56.7138 36.1483 56.7138C30.1222 56.7138 25.2861 51.8105 25.2945 45.7062V45.7019ZM57.3604 85.6712H14.9701C14.3434 77.3291 16.808 70.2615 23.5413 65.3064C30.8167 59.9538 38.7231 59.4095 46.5574 63.8808C54.7729 68.5724 57.9025 76.1973 57.3604 85.6669V85.6712Z" fill="white"/>
<path d="M27.0053 18.2091H30.1899V21.4578C30.1899 23.337 31.689 24.8663 33.5311 24.8663H38.1725C40.0146 24.8663 41.5137 23.337 41.5137 21.4578V18.2091H44.6983C46.5404 18.2091 48.0395 16.6798 48.0395 14.8006V10.0658C48.0395 8.18653 46.5404 6.65723 44.6983 6.65723H41.5137V3.40853C41.5137 1.5293 40.0146 0 38.1725 0H33.5311C31.689 0 30.1899 1.5293 30.1899 3.40853V6.65723H27.0053C25.1632 6.65723 23.6641 8.18653 23.6641 10.0658V14.8006C23.6641 16.6798 25.1632 18.2091 27.0053 18.2091ZM26.2049 10.0658C26.2049 9.61647 26.5649 9.24927 27.0053 9.24927H32.7308V3.40853C32.7308 2.95925 33.0907 2.59204 33.5311 2.59204H38.1725C38.6129 2.59204 38.9728 2.95925 38.9728 3.40853V9.24927H44.6983C45.1387 9.24927 45.4987 9.61647 45.4987 10.0658V14.8006C45.4987 15.2498 45.1387 15.6171 44.6983 15.6171H38.9728V21.4578C38.9728 21.9071 38.6129 22.2743 38.1725 22.2743H33.5311C33.0907 22.2743 32.7308 21.9071 32.7308 21.4578V15.6171H27.0053C26.5649 15.6171 26.2049 15.2498 26.2049 14.8006V10.0658Z" fill="white"/>
</g>
<defs>
<clipPath id="clip0_1832_1554">
<rect width="72" height="90" fill="white"/>
</clipPath>
</defs>
</svg>
