<svg width="80" height="90" viewBox="0 0 108 88" fill="none" xmlns="http://www.w3.org/2000/svg">
<path d="M106.898 63.9633C105.599 53.4571 100.378 45.6176 91.2724 40.4222C90.8941 40.2054 90.5214 39.9829 90.1432 39.7605C96.0062 32.7939 97.3802 25.2472 92.9356 17.1881C89.6091 11.1564 84.2022 8.21378 77.2043 7.74634C77.5047 8.21096 77.7105 8.48411 77.8691 8.77978C78.812 10.5341 79.7187 12.3109 80.6922 14.0455C80.9397 14.4876 81.3235 14.9579 81.7602 15.1635C84.1883 16.318 86.1547 17.9794 87.5064 20.3363C91.1583 26.7059 88.644 34.4553 81.8436 37.8231C80.3584 38.5581 79.6408 39.6732 79.7799 41.0304C79.9134 42.3398 80.9202 43.3874 82.4277 43.8069C92.5796 46.6285 98.6429 53.2797 100.479 63.7718C100.829 65.7767 100.735 67.8633 100.851 70.0541H97.1521C97.3691 72.2026 97.5721 74.2216 97.7863 76.3505C99.5274 76.3505 101.26 76.2772 102.985 76.3702C104.962 76.4772 106.339 75.731 107.082 73.8556V64.7742C107.02 64.5039 106.934 64.2336 106.898 63.9604V63.9633Z" fill="white"/>
<path d="M17.8894 46.82C20.0589 45.3895 22.4425 44.4349 24.9652 43.8182C26.5589 43.4268 27.5101 42.4102 27.6492 41.0952C27.8049 39.6197 27.1485 38.5834 25.5715 37.8034C25.4463 37.7415 25.3184 37.6851 25.196 37.6204C20.693 35.2268 18.251 31.4366 18.3317 26.3117C18.4151 21.0825 21.0908 17.388 25.7606 15.1522C26.1472 14.9663 26.5033 14.5721 26.7174 14.1863C27.7382 12.356 28.7033 10.4919 29.6907 8.6418C29.8242 8.39118 29.9716 8.14902 30.1524 7.83645C23.8693 7.70973 17.2748 11.6717 14.2542 17.6302C10.1768 25.6696 11.5869 33.053 17.3443 39.7802C17.0495 39.9463 16.7797 40.1012 16.5043 40.2504C10.0071 43.7675 5.28716 48.9291 2.55032 55.8759C2.55032 55.8759 2.53363 55.9266 2.50026 56.0196C2.41682 56.2448 2.33894 56.4757 2.26941 56.7123C1.34044 59.5732 -1.42422 69.1389 0.920454 75.1255C1.53791 75.4888 2.13868 76.1308 2.77283 76.1674C5.07022 76.2941 7.38151 76.2181 9.71228 76.2181C9.90419 74.1738 10.0961 72.1547 10.2991 69.9893H6.73902C6.73902 68.7954 6.70565 67.7394 6.74459 66.6891C7.0561 58.1118 10.8053 51.4944 17.895 46.8228L17.8894 46.82Z" fill="white"/>
<path d="M78.0388 47.8141C74.7124 44.9306 70.9214 42.8243 66.7021 41.1967C78.4143 32.7855 78.8538 16.7602 70.4736 7.5465C62.188 -1.56298 48.526 -2.557 39.3504 5.28251C34.7973 9.1741 32.0215 14.1245 31.4374 20.1252C30.5891 28.8404 33.9267 35.8014 40.8245 41.1629C40.3822 41.3459 40.0958 41.4557 39.8148 41.5796C26.7592 47.2509 18.6794 57.0559 16.357 71.3016C15.6617 75.5649 15.9453 79.9943 15.848 84.3506C15.7952 86.7356 17.0829 87.9859 19.4443 87.9916C25.4214 88 31.3985 87.9972 37.3756 87.9972C54.2639 87.9972 71.1522 87.9972 88.0406 87.9916C90.4548 87.9916 91.6591 86.73 91.6591 84.2633C91.6591 81.7656 91.6952 79.2678 91.6452 76.7701C91.4143 65.0503 86.8168 55.417 78.0388 47.8113V47.8141ZM37.6148 22.6116C37.6231 13.6148 44.8852 6.31595 53.7827 6.35537C62.7081 6.39479 69.9396 13.7218 69.9006 22.6877C69.8645 31.6282 62.6413 38.8651 53.7605 38.8623C44.7962 38.8623 37.6065 31.6226 37.6148 22.6116ZM85.3065 81.6079H22.259C21.33 69.2967 24.9903 58.8637 35.0087 51.5508C45.8281 43.6493 57.5904 42.844 69.2387 49.4501C81.4543 56.3745 86.1103 67.6297 85.3065 81.6107V81.6079Z" fill="white"/>
</svg>
