<svg width="70" height="88" viewBox="0 0 70 88" fill="none" xmlns="http://www.w3.org/2000/svg">
<g clip-path="url(#clip0_1832_1586)">
<path d="M45.234 45.528C47.9423 47.1432 50.4004 48.6594 52.9067 50.0931C64.0756 56.4787 69.7426 66.0526 69.9799 78.789C70.0206 80.9891 69.991 83.1891 69.9854 85.3892C69.9817 87.1529 69.1512 87.998 67.3976 87.998C45.8031 87.9999 24.2067 87.998 2.6122 87.9962C0.838152 87.9962 -0.0312633 87.1639 0.00395818 85.4148C0.0781088 81.6601 -0.142489 77.8632 0.359881 74.1634C1.82621 63.352 7.60254 55.3365 17.2477 50.0583C19.4889 48.8317 21.7783 47.6895 24.0436 46.5052C24.3402 46.3493 24.6294 46.1807 25.1354 45.8965C24.7962 45.6545 24.5348 45.4987 24.3105 45.3025C19.7521 41.3699 17.0938 36.4253 16.5006 30.4815C16.1076 26.5361 15.7498 22.5687 15.7239 18.6068C15.6646 9.88358 21.9117 2.42909 30.6597 0.480216C40.67 -1.74916 50.6432 3.93062 53.5703 13.5192C54.2136 15.6239 54.3285 17.7726 54.2952 19.9543C54.234 24.0537 53.9096 28.1201 53.2255 32.1719C52.3709 37.2393 49.9295 41.3882 46.1701 44.8441C45.9254 45.0678 45.6325 45.2402 45.2414 45.5262L45.234 45.528ZM65.4771 83.5833C65.5178 83.3853 65.5531 83.2991 65.5531 83.2111C65.5586 81.5299 65.6068 79.8487 65.5531 78.1693C65.2435 68.2728 60.9854 60.4975 52.6101 55.0377C49.6218 53.0906 46.4797 51.3746 43.4061 49.5577C43.3079 49.4991 43.1837 49.4881 43.1429 49.4771C42.8741 50.1371 42.6535 50.7659 42.3643 51.3618C41.8193 52.4911 41.2743 53.6242 40.657 54.715C40.2844 55.3732 40.2344 55.9984 40.3734 56.7226C41.2317 61.1611 42.0529 65.6052 42.8982 70.0457C43.0688 70.9385 42.9112 71.7104 42.3365 72.451C40.5328 74.7776 38.7754 77.1408 36.9903 79.482C35.7649 81.0881 34.1948 81.0771 32.9602 79.4545C31.2139 77.161 29.5011 74.8418 27.7214 72.5721C27.0541 71.7214 26.9132 70.8615 27.1116 69.833C27.9791 65.3339 28.8096 60.8293 29.6345 56.3229C29.6957 55.9855 29.7013 55.5712 29.5585 55.2742C28.7114 53.5123 27.8123 51.7761 26.8984 49.9647C24.2883 51.3269 21.6856 52.6561 19.1126 54.0367C13.5494 57.0232 9.49338 61.3995 6.84435 67.0829C4.41036 72.3007 4.22498 77.8283 4.45485 83.4201C4.4567 83.4696 4.52529 83.5154 4.57905 83.5815H65.4771V83.5833ZM49.9944 21.5768C49.8498 19.6041 49.9351 17.5819 49.518 15.666C47.8422 7.98054 39.8896 3.04877 32.0185 4.66947C25.1373 6.08667 20.223 11.6803 20.108 18.3354C20.0339 22.6145 20.336 26.8734 21.0535 31.1049C22.1898 37.8095 26.2477 42.2683 32.1112 45.3447C33.7684 46.2137 35.5684 46.364 37.3017 45.572C42.2939 43.2913 46.07 39.7529 47.972 34.5919C49.5124 30.4173 49.6385 25.9824 49.9907 21.575L49.9944 21.5768ZM34.9882 74.8179C36.119 73.3256 37.1682 71.9744 38.1674 70.5865C38.3342 70.3555 38.3602 69.9485 38.3064 69.6478C37.6113 65.8363 36.8587 62.0357 36.195 58.2186C36.0448 57.3606 35.5165 57.5237 34.9938 57.5256C34.4747 57.5292 33.9371 57.3422 33.7851 58.2113C33.1215 62.0283 32.3688 65.8289 31.6718 69.6405C31.6162 69.9412 31.6384 70.3482 31.8034 70.5792C32.8026 71.967 33.8537 73.3182 34.9882 74.8161V74.8179ZM32.0185 50.2453C32.1315 50.4818 32.2799 50.8081 32.4411 51.1289C33.174 52.5871 34.3517 53.2581 35.9744 53.142C36.1969 53.1255 36.5213 53.0448 36.6084 52.8908C37.1089 51.9998 37.552 51.0794 37.9728 50.2471H32.0185V50.2453Z" fill="white"/>
</g>
<defs>
<clipPath id="clip0_1832_1586">
<rect width="70" height="88" fill="white"/>
</clipPath>
</defs>
</svg>
