<svg width="30" height="30" viewBox="0 0 30 30" fill="none" xmlns="http://www.w3.org/2000/svg">
<circle cx="15" cy="15" r="14.5" transform="matrix(-1 0 0 1 30 0)" fill="white" stroke="#D8D8D8"/>
<path d="M22.5 15.0074C22.5 14.8654 22.4445 14.7291 22.3456 14.6287C22.2468 14.5282 22.1128 14.4718 21.973 14.4718H9.28308L12.6072 11.0961C12.6573 11.0468 12.6972 10.9877 12.7246 10.9225C12.7521 10.8573 12.7664 10.7872 12.7669 10.7163C12.7673 10.6453 12.7539 10.575 12.7274 10.5095C12.7008 10.4439 12.6617 10.3843 12.6122 10.3343C12.5628 10.2842 12.504 10.2447 12.4394 10.218C12.3748 10.1913 12.3056 10.1779 12.2358 10.1787C12.166 10.1794 12.0971 10.1943 12.033 10.2224C11.969 10.2506 11.9111 10.2914 11.8627 10.3425L7.64705 14.6306C7.45097 14.8299 7.45097 15.1849 7.64705 15.3874L11.8658 19.6724C11.9147 19.7221 11.9727 19.7615 12.0366 19.7884C12.1005 19.8153 12.1689 19.8291 12.238 19.8291C12.3072 19.8291 12.3756 19.8153 12.4395 19.7884C12.5034 19.7615 12.5614 19.7221 12.6103 19.6724C12.6592 19.6227 12.6979 19.5637 12.7244 19.4988C12.7509 19.4339 12.7645 19.3643 12.7645 19.294C12.7645 19.2237 12.7509 19.1542 12.7244 19.0892C12.6979 19.0243 12.6592 18.9653 12.6103 18.9156L9.28921 15.54H21.9761C22.045 15.5404 22.1133 15.5269 22.1771 15.5003C22.2408 15.4736 22.2987 15.4344 22.3475 15.3849C22.3962 15.3354 22.4348 15.2765 22.4609 15.2117C22.4871 15.1469 22.5004 15.0775 22.5 15.0074Z" fill="#666666"/>
</svg>
