<svg width="182" height="201" viewBox="0 0 182 201" fill="none" xmlns="http://www.w3.org/2000/svg">
<path d="M78.0109 3.52388L13.8396 40.5983C5.70415 45.2968 0.686035 53.99 0.686035 63.387V137.536C0.686035 146.933 5.70415 155.626 13.8396 160.325L78.0109 197.399C86.1463 202.098 96.1825 202.098 104.318 197.399L168.489 160.325C176.625 155.626 181.643 146.933 181.643 137.536V63.387C181.643 53.99 176.625 45.2968 168.489 40.5983L104.318 3.52388C96.1825 -1.17463 86.1463 -1.17463 78.0109 3.52388Z" fill="#F8F8F8"/>
<path d="M79.5695 14.9563L22.9635 47.6556C15.7785 51.8025 11.3686 59.4684 11.3686 67.7622V133.18C11.3686 141.474 15.7975 149.14 22.9635 153.286L79.5695 185.986C86.7546 190.133 95.5933 190.133 102.778 185.986L159.384 153.286C166.569 149.14 170.979 141.474 170.979 133.18V67.7622C170.979 59.4684 166.55 51.8025 159.384 47.6556L102.778 14.9563C95.5933 10.8094 86.7546 10.8094 79.5695 14.9563Z" fill="#072996"/>
<path d="M136.832 106.257C136.85 97.3269 136.855 88.3971 136.898 79.4674C136.912 76.2176 136.33 73.1431 135.378 69.9975C132.755 61.3425 123.443 54.2034 114.045 54.1182C98.9754 53.9808 83.8964 53.9381 68.8268 54.1276C56.9672 54.284 46.4994 64.6018 46.1301 76.4687C45.8603 85.0953 46.0923 93.7313 46.1017 102.367C46.0828 108.753 45.9976 115.139 46.0639 121.525C46.1964 134.245 56.8204 144.87 69.5701 144.941C84.171 145.022 98.7718 145.017 113.373 144.941C124.849 144.885 134.89 136.201 136.519 124.851C137.404 118.687 136.789 112.453 136.827 106.252L136.832 106.257ZM131.567 120.435C131.543 131.464 123.447 139.621 112.473 139.631C98.4735 139.645 84.474 139.64 70.4744 139.631C59.4953 139.621 51.3901 131.464 51.3711 120.445C51.3616 114.419 51.3332 108.388 51.3143 102.363C51.3332 94.4419 51.3569 86.5212 51.3711 78.6052C51.3948 67.4962 59.4953 59.4144 70.6448 59.4097C84.5308 59.405 98.412 59.405 112.298 59.4097C123.509 59.4144 131.553 67.5057 131.572 78.771C131.586 87.9329 131.61 97.0948 131.628 106.257C131.61 110.985 131.581 115.712 131.572 120.435H131.567Z" fill="white"/>
<path d="M126.189 77.3498C126.089 70.9592 120.716 64.8434 113.529 64.7723C98.8192 64.6254 84.1094 64.6586 69.3997 64.7581C62.7478 64.8055 56.8725 70.566 56.7494 77.1887C56.5931 85.5785 56.7352 93.9729 56.7494 102.363C56.7352 108.872 56.5837 115.381 56.7494 121.885C56.9198 128.508 62.7999 134.235 69.4707 134.278C84.1378 134.372 98.8049 134.372 113.472 134.278C120.152 134.235 125.971 128.503 126.198 121.861C126.35 117.489 126.198 113.107 126.189 108.73C126.208 98.2696 126.35 87.805 126.189 77.3498ZM120.919 120.611C120.881 125.575 117.525 128.977 112.568 128.981C98.5067 129 84.4455 129 70.3891 128.981C65.4228 128.977 62.0472 125.585 62.0235 120.63C61.9903 114.542 61.9809 108.455 61.9619 102.367C61.9809 94.5082 61.9998 86.6491 62.0188 78.7852C62.033 73.3373 65.2902 70.0591 70.7253 70.0591C84.5497 70.0496 98.3741 70.0496 112.194 70.0591C117.634 70.0591 120.905 73.3326 120.919 78.771C120.943 88.7572 120.962 98.7481 120.981 108.734C120.962 112.695 120.948 116.65 120.919 120.611Z" fill="white"/>
<path d="M104.794 96.2231C102.2 94.4609 99.5009 92.8455 96.9917 90.9742C92.2573 87.445 87.3335 84.1999 82.4808 80.8554C80.4876 79.4863 78.182 80.609 78.1772 83.0109C78.1535 91.3485 77.9642 99.6861 78.2861 108.019C79.981 108.019 81.6759 108.019 83.3661 108.019C83.6928 102.055 83.4229 96.0858 83.5318 90.1168C83.5413 89.572 83.2051 88.8188 83.868 88.5298C84.384 88.3024 84.8006 88.8993 85.2267 89.1883C89.7575 92.2912 94.2457 95.4604 98.8239 98.4923C100.235 99.4255 99.8939 99.8235 98.7481 100.591C95.3678 102.86 92.0537 105.219 88.716 107.541C87.4945 108.355 86.2825 109.18 85.0468 109.975C84.6681 110.217 84.2988 110.733 83.8206 110.506C83.3282 110.269 83.5981 109.668 83.5318 109.227C83.475 108.824 83.4229 108.422 83.3661 108.019C81.6712 108.019 79.9763 108.019 78.2861 108.019C77.9452 110.781 78.0399 113.562 78.2056 116.319C78.3335 118.427 80.5065 119.493 82.2677 118.313C87.0637 115.087 91.7696 111.728 96.5135 108.426C99.6903 106.276 102.886 104.153 106.039 101.969C107.942 100.653 108.032 99.3166 106.394 97.6017C105.911 97.0948 105.376 96.6163 104.794 96.2231Z" fill="white"/>
</svg>
