<svg width="44" height="44" viewBox="0 0 44 44" fill="none" xmlns="http://www.w3.org/2000/svg">
<path d="M5.63516 37.8385C5.79657 36.9577 5.93878 36.1543 6.08994 35.3535C6.34744 33.9931 6.58957 32.63 6.88166 31.276C6.96621 30.8814 6.86629 30.6699 6.57163 30.4249C3.87494 28.1772 1.88925 25.4125 1.00401 21.9862C-0.703681 15.3837 1.14109 9.78453 6.08098 5.22859C9.29395 2.26394 13.1795 0.743567 17.5173 0.439236C22.8287 0.0678485 27.602 1.49795 31.6887 4.97584C35.04 7.8283 37.1128 11.4584 37.5574 15.8776C38.1249 21.5219 36.1507 26.2623 31.9654 29.9865C27.2792 34.1555 21.7346 35.4863 15.602 34.5617C15.3471 34.5231 15.055 34.5501 14.8116 34.634C11.9535 35.623 9.10179 36.6276 6.2488 37.6283C6.07201 37.6902 5.89394 37.7495 5.63516 37.8359V37.8385ZM10.6519 31.984C12.0022 31.5094 13.2333 31.0594 14.4798 30.6519C14.7796 30.5539 15.1409 30.5294 15.4496 30.5913C19.7976 31.4643 23.9099 30.8853 27.6545 28.4377C31.3185 26.043 33.5296 22.6735 33.7884 18.2104C33.9985 14.5881 32.6995 11.4738 30.2103 8.88572C27.4739 6.041 24.0841 4.55545 20.1781 4.29754C15.5726 3.99321 11.5038 5.33304 8.14866 8.57107C3.79423 12.7737 2.9897 19.037 6.09507 24.1281C7.2852 26.0792 8.93909 27.557 10.8415 28.7691C11.1336 28.9548 11.2053 29.1508 11.1336 29.4823C10.9607 30.2792 10.8236 31.0852 10.6532 31.9853L10.6519 31.984Z" fill="#00249C"/>
<path d="M33.4617 37.6244C33.3221 36.861 33.2362 36.1415 33.0466 35.4516C32.9198 34.9899 33.0889 34.7861 33.4374 34.5656C35.081 33.5276 36.5081 32.2535 37.5971 30.6184C38.8871 28.6828 39.5828 26.5628 39.6174 24.2235C39.6353 22.9946 40.3963 22.1448 41.4749 22.1164C42.6113 22.0868 43.4734 22.9417 43.4658 24.1217C43.4478 27.2011 42.5715 30.02 40.8997 32.5914C39.9632 34.0318 38.8205 35.2865 37.4984 36.3749C37.2742 36.5593 37.2038 36.723 37.264 37.0261C37.665 39.03 38.0391 41.0391 38.4195 43.0469C38.44 43.1553 38.4464 43.2675 38.4682 43.466C37.7675 43.2223 37.1141 42.9979 36.462 42.7697C34.2586 41.9985 32.0448 41.2545 29.8567 40.4395C29.1496 40.1764 28.5052 40.4111 27.8326 40.4446C27.0819 40.482 26.3324 40.5736 25.583 40.5788C24.5351 40.5865 23.6793 39.7096 23.6678 38.6806C23.6562 37.5986 24.4723 36.7927 25.5612 36.7076C26.7539 36.6147 27.9415 36.4393 29.1316 36.3155C29.3597 36.2923 29.6108 36.2885 29.8234 36.3594C31.0187 36.7591 32.205 37.1834 33.4566 37.6231L33.4617 37.6244Z" fill="#00249C"/>
<path d="M9.92039 15.2277C11.0132 15.2277 11.9202 16.142 11.9061 17.2278C11.892 18.2981 11.0003 19.1995 9.94345 19.2137C8.87245 19.2279 7.94751 18.3123 7.93469 17.2252C7.92316 16.1368 8.82633 15.2277 9.92039 15.2277Z" fill="#00249C"/>
<path d="M18.6882 15.2329C19.804 15.2225 20.679 16.0852 20.6867 17.2007C20.6944 18.3097 19.8181 19.2034 18.7176 19.2098C17.6505 19.2162 16.7524 18.3278 16.7396 17.2536C16.7268 16.1291 17.58 15.2419 18.6869 15.2316L18.6882 15.2329Z" fill="#00249C"/>
<path d="M25.542 17.2278C25.5356 16.1123 26.3965 15.2419 27.5149 15.2316C28.6077 15.2225 29.5019 16.1226 29.4967 17.2265C29.4916 18.2981 28.5974 19.2034 27.5392 19.2085C26.4375 19.2137 25.5471 18.3316 25.5407 17.2278H25.542Z" fill="#00249C"/>
</svg>
