<svg width="182" height="201" viewBox="0 0 182 201" fill="none" xmlns="http://www.w3.org/2000/svg">
<path d="M78.0109 3.52388L13.8396 40.5983C5.70415 45.2968 0.686035 53.99 0.686035 63.387V137.536C0.686035 146.933 5.70415 155.626 13.8396 160.325L78.0109 197.399C86.1463 202.098 96.1825 202.098 104.318 197.399L168.489 160.325C176.625 155.626 181.643 146.933 181.643 137.536V63.387C181.643 53.99 176.625 45.2968 168.489 40.5983L104.318 3.52388C96.1825 -1.17463 86.1463 -1.17463 78.0109 3.52388Z" fill="#F8F8F8"/>
<path d="M79.5695 14.9563L22.9635 47.6556C15.7785 51.8025 11.3686 59.4684 11.3686 67.7622V133.18C11.3686 141.474 15.7975 149.14 22.9635 153.286L79.5695 185.986C86.7546 190.133 95.5933 190.133 102.778 185.986L159.384 153.286C166.569 149.14 170.979 141.474 170.979 133.18V67.7622C170.979 59.4684 166.55 51.8025 159.384 47.6556L102.778 14.9563C95.5933 10.8094 86.7546 10.8094 79.5695 14.9563Z" fill="#072996"/>
<path d="M99.974 129.865L98.9378 129.347L98.8006 129.28H98.6482C96.2711 129.338 95.8352 130.31 95.7072 132.616V135.172C95.7347 135.977 95.6615 136.178 95.6158 136.227C95.6158 136.227 95.5427 136.3 95.1526 136.3C94.8813 136.3 94.5065 136.266 93.9396 136.19L93.8421 136.178L93.7476 136.196C93.4063 136.26 93.0619 136.294 92.7205 136.294C92.3792 136.294 92.0348 136.26 91.6935 136.196L91.5837 136.175L91.474 136.193C91.09 136.26 90.703 136.294 90.319 136.294C89.935 136.294 89.5479 136.26 89.1639 136.193L89.0542 136.175L88.9445 136.196C88.6031 136.26 88.2588 136.294 87.9174 136.294C87.5761 136.294 87.2317 136.26 86.8904 136.196L86.7837 136.175L86.674 136.193C86.2808 136.26 85.8846 136.297 85.5006 136.297C85.1166 136.297 84.7418 136.263 84.3669 136.196C84.0743 136.132 84.0286 136.074 84.0073 135.419C84.0042 135.325 84.0012 135.23 83.9951 135.139V130.319L83.989 130.276C83.8183 129.082 83.093 128.296 81.8343 127.933C81.3375 127.79 80.8529 127.61 80.3409 127.418C80.1124 127.333 79.8838 127.248 79.6522 127.165L79.6247 127.156L79.5973 127.15C78.3813 126.845 77.2933 126.254 76.1443 125.627C75.7572 125.416 75.355 125.197 74.9496 124.99L74.913 124.972C74.4955 124.792 74.081 124.704 73.6848 124.704C72.8863 124.704 72.161 125.048 71.4661 125.758C70.6737 126.568 69.8204 127.357 68.9945 128.122L68.7659 128.332C68.513 128.567 68.2996 128.686 68.129 128.686C68.0131 128.686 67.8851 128.631 67.7419 128.515L67.7114 128.491L67.6779 128.469C67.3091 128.247 66.98 127.933 66.6722 127.504L66.6265 127.44L66.5655 127.391C65.3099 126.358 64.1091 125.221 62.9997 124.018L62.9754 123.994L61.5612 122.635L61.5369 122.61C61.4393 122.525 61.3388 122.44 61.2382 122.358C61.0309 122.184 60.8176 122.001 60.6195 121.821C60.3696 121.593 59.7022 120.993 59.6808 120.804C59.7113 120.621 60.4001 120.051 60.6591 119.838L60.714 119.792L60.7567 119.734C61.0675 119.326 61.3967 119.012 61.7654 118.774L61.8599 118.714L61.927 118.622C62.2073 118.235 62.5822 117.882 63.1064 117.507L63.2009 117.44L63.2649 117.342L63.9354 116.3L64.0055 116.191L64.0238 116.063C64.17 115.103 63.7677 114.347 63.3411 113.656L63.1948 113.418C62.698 112.617 62.2287 111.861 61.9605 111.011L61.9391 110.947L61.9056 110.889C61.5033 110.195 61.2108 109.433 61.0157 108.559L61.0096 108.534L61.0005 108.51C60.6165 107.291 60.0892 105.618 58.0199 105.512H55.4842L53.2838 105.503C52.8754 105.369 52.8541 105.195 52.9059 104.47C52.9211 104.275 52.9364 104.071 52.9303 103.863V96.7218C52.9242 96.6821 52.9181 96.6425 52.912 96.5999C52.9028 96.5389 52.8967 96.4811 52.8967 96.4354C52.8754 95.4787 52.8541 94.397 53.0979 94.1472C53.2198 94.0223 53.5703 93.9613 54.1676 93.9613C54.509 93.9613 54.9265 93.9796 55.4446 94.0071H58.0199L60.01 93.9248L60.1654 93.9187L60.2995 93.8364C60.9548 93.4403 61.4393 92.9041 61.7441 92.243L61.7807 92.1637L61.7929 92.0784C61.9879 90.7531 62.503 89.5404 63.0485 88.2577C63.1643 87.9835 63.2832 87.7063 63.3959 87.4321L63.4112 87.3985L63.4203 87.365C63.6428 86.5698 64.0542 85.8477 64.487 85.083L64.5571 84.9581L64.5784 84.9215L64.5937 84.8819C64.9807 83.913 64.9167 82.9807 64.4047 82.1063L64.3651 82.0423L64.3133 81.9874L63.21 80.8632L63.1765 80.8266L63.1369 80.7961C62.6523 80.4427 62.2287 80.0192 61.8782 79.5348L61.8355 79.4769L61.7807 79.4312C61.6984 79.3611 61.6161 79.291 61.5308 79.224C60.7993 78.6238 60.65 78.4227 60.9365 77.8895C61.5521 76.9907 62.3872 76.2473 63.1917 75.5282L63.2161 75.5069L63.2375 75.4825L63.4538 75.2418C64.1426 74.4497 64.7217 73.8037 65.4226 73.2614L65.4836 73.2127L65.5323 73.1517C66.2364 72.2407 67.0684 71.4638 67.9522 70.6442L67.9766 70.6198L68.0009 70.5985L68.0223 70.5741C68.513 70.0105 68.7019 69.9495 68.7598 69.9495C68.8238 69.9495 69.0372 70.0227 69.604 70.693L69.6375 70.7326L69.6741 70.7661C70.5854 71.5461 71.3503 72.3108 72.0086 73.1121L72.0452 73.1578L72.0909 73.1944C72.6121 73.627 73.3313 74.1206 74.27 74.1206C74.4376 74.1206 74.6083 74.1054 74.7789 74.0719L74.8643 74.0566L74.9435 74.017C75.419 73.7763 75.8852 73.5112 76.3363 73.2523C77.4182 72.6368 78.4422 72.0518 79.6034 71.7746L79.6765 71.7563L79.7436 71.7228C80.4171 71.3724 81.1699 71.1104 82.1177 70.891L82.1848 70.8758L82.2457 70.8453L82.709 70.6259L82.7577 70.6016L82.8034 70.568C83.605 69.9861 84.0103 69.1208 84.0042 68.0026V65.4525C83.9494 64.3891 83.9189 63.4142 84.184 63.1369C84.3395 62.9724 84.7539 62.8962 85.4884 62.8962C85.8054 62.8962 86.1802 62.9084 86.7441 62.9389H93.9305C94.092 62.9175 94.2809 62.8993 94.4577 62.8993C94.924 62.8993 95.1312 63.015 95.2775 63.3715C95.3994 64.0083 95.3598 64.6603 95.2989 65.4403V68.0575C95.3202 68.2494 95.3293 68.4414 95.3415 68.6455C95.372 69.2396 95.4055 69.8551 95.6554 70.4797L95.6798 70.5376L95.7133 70.5894L95.8779 70.8362L95.9175 70.8971L95.9693 70.9458C96.4661 71.4059 97.0604 71.604 97.5846 71.7807C97.8772 71.8782 98.1515 71.9696 98.3922 72.0975L98.4593 72.1341L98.5324 72.1524C100.288 72.5911 101.809 73.1822 103.18 73.9622L103.223 73.9865L103.268 74.0048L103.753 74.1846L105.777 74.9311L105.932 74.9889L106.097 74.9585C106.95 74.8031 107.523 74.2821 108.029 73.8251C108.233 73.6392 108.425 73.4655 108.626 73.3223L108.672 73.2888L108.712 73.2492L108.873 73.0786C109.595 72.323 110.278 71.61 111.095 71.0464C111.266 70.9519 111.412 70.9032 111.534 70.9032C111.814 70.9032 112.079 71.1926 112.454 71.6375C112.503 71.6954 112.552 71.7502 112.597 71.8081L112.652 71.8721L112.722 71.9178C113.152 72.2011 113.554 72.5881 114.036 73.1639L114.072 73.2096L114.118 73.2462C115.27 74.1968 116.431 75.2997 117.669 76.622L117.678 76.6342L117.69 76.6464L119.107 78.0144C119.631 78.511 119.671 78.6725 119.671 78.7091C119.671 78.7487 119.622 78.9193 119.046 79.4312L119.001 79.4738L118.964 79.5226C118.546 80.0801 118.05 80.5768 117.492 80.9942L117.437 81.0338L117.394 81.0856C117.108 81.4207 116.852 81.698 116.626 81.9417C115.051 83.6571 115.057 84.0501 116.709 87.1731C116.721 87.1944 116.739 87.2462 116.754 87.2919C116.767 87.3315 116.782 87.3711 116.797 87.4107L116.818 87.4656L116.849 87.5174C117.705 88.8976 118.318 90.4423 118.671 92.1059L118.693 92.2094L118.748 92.2978C119.068 92.8218 119.433 93.416 120.082 93.7999L120.21 93.876L120.36 93.8852L120.637 93.9004L122.615 94.0071H125.215C125.413 93.9888 125.59 93.9766 125.751 93.9766C126.214 93.9766 126.419 94.0741 126.556 94.3879L126.571 96.7949V103.915C126.577 103.967 126.583 104.016 126.586 104.068C126.595 104.159 126.604 104.244 126.604 104.317C126.614 104.982 126.58 105.359 126.501 105.439C126.492 105.448 126.397 105.527 125.839 105.527C125.669 105.527 125.465 105.521 125.19 105.506H122.655C121.466 105.521 120.677 105.777 120.165 106.31C119.665 106.831 119.449 107.584 119.479 108.687V108.784L119.516 108.875L119.58 109.052L119.82 109.725L119.86 109.835L119.936 109.924C120.631 110.713 121.372 111.093 122.198 111.093C122.377 111.093 122.56 111.075 122.746 111.039L122.911 111.005L123.036 110.892C123.252 110.697 123.499 110.618 123.883 110.618C124.054 110.618 124.23 110.633 124.422 110.649C124.626 110.667 124.84 110.682 125.059 110.682C125.099 110.682 125.139 110.682 125.178 110.682H125.215L126.915 110.521L127.507 110.466L127.574 110.46L127.638 110.438C129.481 109.832 130.746 108.525 131.398 106.554L131.426 106.472V106.383L131.475 105.134L131.52 103.885V94.2234C131.453 93.2971 131.103 92.4776 130.792 91.7524L130.771 91.7037L130.463 91.2253L130.429 91.1705L130.384 91.1248C129.491 90.229 128.622 89.6532 127.653 89.318L127.613 89.3058L127.574 89.2967C126.598 89.0987 125.629 89.0987 124.694 89.0987C124.358 89.0987 124.014 89.0987 123.679 89.0895H123.639C123.514 89.0895 123.398 89.1048 123.298 89.12C123.243 89.1291 123.188 89.1352 123.145 89.1383C122.813 88.5685 122.548 87.8982 122.322 87.036L122.301 86.9598L122.262 86.8897C121.844 86.1555 121.42 85.3602 121.158 84.5071L121.116 84.3731L121.073 84.3274C121.073 84.3274 121.082 84.3213 121.088 84.3182C121.18 84.2573 121.283 84.1872 121.375 84.0989C121.561 83.9222 121.746 83.7515 121.935 83.5779C122.993 82.609 124.087 81.6066 124.611 80.0801L124.642 79.9918V79.8973L124.694 77.6061V77.5269L124.675 77.4477C124.398 76.3234 123.743 75.4185 123.139 74.6843L123.103 74.6416L123.06 74.605C122.286 73.9591 121.472 73.2584 120.793 72.4479L120.765 72.4174L120.735 72.39C120.287 71.9818 119.836 71.5765 119.385 71.1713C118.33 70.2207 117.239 69.2396 116.191 68.2555C115.362 67.4755 114.453 66.6712 113.304 66.1228L113.21 66.0771L113.103 66.0679L110.808 65.8394L110.683 65.8272L110.562 65.8668C109.681 66.1471 108.748 66.4884 107.913 67.052L107.883 67.0734L107.855 67.0977L107.346 67.5365L107.307 67.57L107.273 67.6096C106.825 68.1489 106.28 68.6547 105.612 69.1513L105.499 69.2366L105.435 69.3615C105.405 69.4194 105.381 69.4529 105.368 69.4681C105.326 69.4621 105.231 69.4377 105.033 69.331C104.722 69.1665 104.408 69.0203 104.1 68.874C103.966 68.81 103.835 68.7491 103.701 68.6851L103.677 68.6729L103.652 68.6638C103.473 68.5968 103.293 68.5297 103.116 68.4597C102.738 68.3165 102.345 68.1702 101.967 68.0179C101.166 67.6949 100.638 67.4816 100.504 67.2653C100.367 67.0398 100.395 66.4731 100.443 65.5317V64.3526L100.437 63.207V63.1704L100.431 63.1339C100.3 62.1193 99.8825 61.2235 99.4528 60.41L99.4284 60.3674L99.398 60.3278L99.2273 60.1023L99.1145 59.953L99.078 59.9042L99.0292 59.8616C98.2398 59.1761 97.4505 58.6642 96.6124 58.3016L96.524 58.2651L96.4295 58.2559C94.6924 58.0792 92.8455 58 90.6176 58C88.9871 58 87.3353 58.0457 85.7353 58.0884C85.1745 58.1036 84.6138 58.1188 84.053 58.131C82.4438 58.1676 81.0388 58.9872 79.8807 60.5654L79.8411 60.6202L79.8137 60.6812C79.4388 61.5404 79.195 62.3386 79.067 63.1217L79.0579 63.1735V63.2253L79.067 63.731C79.0731 64.0905 79.0792 64.4531 79.0792 64.8126C79.0792 65.8455 79.0822 66.4701 78.8994 66.7047C78.7074 66.9484 78.0704 67.1313 77.0129 67.4329H77.0007L76.9184 67.4268L76.8361 67.4847H76.8331V67.4877L76.7294 67.5609C76.0772 68.0209 75.3458 68.3378 74.5717 68.6729C74.3614 68.6699 74.2547 68.5602 73.9744 68.1672C73.8342 67.9691 73.6726 67.7467 73.4563 67.5578L73.4014 67.5091L73.3374 67.4755C73.1545 67.3811 73.0174 67.247 72.9229 67.0612L72.8711 66.9576L72.7858 66.8814C71.9141 66.1136 71.0303 65.5652 70.0855 65.2026L70.0307 65.1813L69.9728 65.1722C69.5888 65.1051 69.2109 65.0716 68.8421 65.0716C67.0684 65.0716 65.511 65.8333 64.0847 67.4024C63.5575 67.9813 62.9784 68.5419 62.4176 69.0873C62.1555 69.3402 61.8934 69.5961 61.6344 69.852L61.5978 69.8886L61.5673 69.9282C61.165 70.4858 60.6469 71.019 59.8881 71.6497L59.7905 71.7289L59.7326 71.8416C59.6382 72.0244 59.498 72.1646 59.3029 72.2712L59.1749 72.3413L59.0926 72.4601C58.6812 73.0542 58.1113 73.5539 57.6145 73.9744L57.5749 74.0079L57.5414 74.0475L57.2031 74.4527L56.9928 74.7056L56.9745 74.7269L56.9593 74.7513C56.3772 75.6044 56.0724 76.552 55.8286 77.4508L55.7981 77.5665L55.8133 77.6854L55.8194 77.725L56.1059 79.9308L56.1181 80.0223L56.1547 80.1045C56.7886 81.5 57.8431 82.5054 58.861 83.4773C58.989 83.5992 59.117 83.7211 59.245 83.846C59.373 83.9709 59.4218 84.0471 59.4401 84.0806C59.4218 84.105 59.3791 84.1568 59.2877 84.2329L59.1597 84.3365L59.0987 84.4889L57.3219 89.053C57.1482 89.1261 56.9471 89.1596 56.6972 89.1596C56.496 89.1596 56.2888 89.1383 56.0663 89.1169C55.8286 89.0926 55.5817 89.0712 55.3257 89.0712H55.2952C53.6526 89.0834 51.9581 89.0956 50.3885 90.0188L50.3154 90.0615L50.2575 90.1224L49.3371 91.0821L48.8007 91.6427L48.758 91.7311C48.2277 92.8401 47.987 94.0832 48.0083 95.6249C48.0418 98.3426 48.0662 101.252 48.0022 104.125C47.9626 106.014 48.4593 107.556 49.5291 108.845L49.5626 108.885L49.6022 108.918L50.3123 109.527L50.3824 109.588L50.4678 109.625C50.5683 109.668 50.6689 109.713 50.7695 109.756C51.5101 110.082 52.275 110.417 53.1802 110.448H55.5452L55.6 110.438C55.8103 110.402 55.9962 110.381 56.1516 110.381C56.624 110.381 56.8709 110.509 56.9197 111.209L56.9288 111.322L56.9745 111.423C57.0781 111.648 57.1817 111.873 57.2854 112.099C57.5109 112.589 57.7425 113.098 57.9802 113.598L57.9894 113.619C58.3246 114.317 58.5654 114.823 58.5227 115.03C58.477 115.246 58.0168 115.648 57.4347 116.154C57.3433 116.236 57.2458 116.316 57.1513 116.398C56.3894 117.05 55.5238 117.79 55.2404 118.778C54.9417 119.823 54.7345 121.389 55.4598 122.894C55.4933 122.961 55.5208 123.04 55.5543 123.125C55.5726 123.174 55.5909 123.223 55.6092 123.272L55.6488 123.375L55.725 123.457C58.1905 126.166 60.8481 128.756 63.4203 131.26C63.8165 131.647 64.2158 132.034 64.6119 132.421C65.4226 133.213 66.4802 133.475 67.4128 133.704L67.4493 133.713L67.556 133.74L67.6657 133.728L69.9454 133.454L70.049 133.442L70.1404 133.396L70.5854 133.18L70.6463 133.149L70.6981 133.107L72.7523 131.461L72.7797 131.44L73.5142 130.706L73.5538 130.636C73.8281 130.157 74.0201 130.154 74.0932 130.154C74.1907 130.154 74.3645 130.188 74.6388 130.352C75.163 130.663 75.7207 130.898 76.2601 131.123C76.4856 131.218 76.7203 131.315 76.9458 131.419L76.9763 131.434L77.0098 131.443L77.0464 131.455C78.0918 131.79 78.7226 131.995 78.9207 132.26C79.1127 132.519 79.1066 133.152 79.0822 134.249C79.0396 136.117 79.1219 138.265 80.6152 140.099L80.6579 140.151L80.7097 140.19L81.8556 141.104L81.941 141.171L82.0446 141.205C82.7912 141.455 83.5349 141.485 84.2511 141.513H93.8695L96.3838 141.552H96.4631L96.5392 141.534C98.6025 141.022 99.4345 139.349 100.166 137.872L100.267 137.671L100.321 137.558L100.327 137.433L100.455 135.181C100.468 134.877 100.446 134.59 100.425 134.316C100.382 133.783 100.349 133.323 100.562 132.918L100.58 132.881L100.596 132.842C100.971 131.806 100.785 130.806 100.056 129.956L99.977 129.862L99.974 129.865Z" fill="white"/>
<path d="M137 130.34L136.909 127.848V127.799L136.896 127.75L136.884 127.692L136.433 125.462L136.424 125.42L135.513 122.866L135.501 122.83L135.482 122.796C133.702 119.283 131.1 116.566 127.741 114.722L127.714 114.707L127.683 114.695L125.114 113.619L125.062 113.598L125.007 113.586L124.736 113.528C123.337 113.229 121.887 112.925 120.405 112.833H120.338C118.793 112.912 117.132 113.043 115.468 113.443L115.441 113.449L115.413 113.458L113.094 114.253L113.055 114.268L113.018 114.287C111.006 115.304 109.321 116.462 107.864 117.824L107.828 117.86C106.322 119.521 105.21 121.136 104.427 122.796L104.414 122.818L104.405 122.842L104.302 123.122L103.454 125.386L103.439 125.426L103.43 125.465C103.083 127.01 102.878 128.652 102.83 130.346V130.407C102.939 132.028 103.235 133.673 103.707 135.3L103.716 135.331L103.729 135.361L104.689 137.68L104.701 137.71L104.716 137.738C106.551 141.107 109.266 143.716 112.795 145.495L112.829 145.51L115.371 146.43L115.413 146.445L115.459 146.455L117.745 146.915L117.797 146.924H117.848L120.354 147H120.427L122.706 146.787H122.749L122.789 146.775L123.142 146.692L125.276 146.19L125.324 146.177L125.37 146.159L125.675 146.031L127.26 145.37L127.36 145.449L127.723 145.212L128.448 144.733L130.289 143.524L130.323 143.502L130.353 143.478C131.447 142.536 132.496 141.488 133.471 140.358L133.498 140.328L133.52 140.294L135.202 137.723L135.446 137.351L135.369 137.259L136.141 135.361L136.159 135.319L136.171 135.273L136.768 132.793L136.778 132.75V132.707L136.89 131.568L137 130.428V130.34ZM132.054 130.425C132.121 131.01 131.993 131.601 131.856 132.229C131.828 132.36 131.798 132.488 131.773 132.619C131.609 133.378 131.435 134.173 131.017 134.834L130.993 134.874L130.975 134.916C129.744 137.741 127.708 139.776 124.922 140.967L124.873 140.992C123.554 141.702 122.121 142.049 120.491 142.049H120.311C120.049 142.073 119.781 142.086 119.519 142.086C118.272 142.086 117.041 141.839 115.761 141.327L115.73 141.315C113.887 140.696 112.418 139.733 111.247 138.378L111.205 138.329L111.153 138.289C110.744 137.981 110.437 137.616 110.214 137.165L110.174 137.083L110.114 137.016C109.586 136.458 109.187 135.782 108.891 134.947L108.882 134.919L108.894 134.859L108.806 134.679C107.77 132.576 107.493 130.316 107.98 127.964L107.986 127.936V127.906C108.16 126.315 108.727 124.838 109.72 123.393L109.742 123.363L109.76 123.329C110.114 122.65 110.577 122.074 111.138 121.614L111.162 121.596L111.601 121.157L111.637 121.114C112.122 120.532 112.698 120.072 113.35 119.743L113.387 119.725L113.42 119.704C114.865 118.717 116.343 118.15 117.934 117.973L117.98 117.967L118.022 117.955C118.553 117.815 119.071 117.745 119.564 117.745C119.811 117.745 120.061 117.763 120.302 117.796L120.348 117.803H120.424C121.945 117.803 123.453 118.159 124.91 118.86C128.29 120.572 130.326 122.754 131.304 125.721L131.31 125.742L131.319 125.764C131.929 127.226 132.182 128.756 132.066 130.307V130.422L132.054 130.425Z" fill="white"/>
<path d="M103.976 109.412L103.991 109.384L104.222 108.945L104.238 108.918L104.25 108.891L105.182 106.606L105.204 106.554L105.216 106.499L105.74 103.994L105.749 103.955V103.915L105.932 101.621V101.524L105.719 99.019V98.9794L105.707 98.9398L105.195 96.6517L105.182 96.5938L105.158 96.5389L104.152 94.2417L104.076 94.071L104.097 93.9918L103.948 93.7664L102.552 91.6641L102.525 91.6245L102.491 91.5879C101.464 90.4819 100.306 89.3881 99.0475 88.34L99.014 88.3126L98.9774 88.2913C97.4292 87.3346 95.7651 86.5576 94.0341 85.9879L93.9975 85.9757L93.9579 85.9696L91.6752 85.5339L91.6295 85.5248H91.5837L89.0969 85.4273H89.0511L89.0054 85.4303L87.7224 85.5735L86.7227 85.6832L86.6679 85.6893L86.6161 85.7045L84.12 86.4419L83.9189 86.5028L83.861 86.582C83.861 86.582 83.8488 86.582 83.8457 86.582L83.6873 86.5759L83.544 86.646L81.7154 87.557L81.6849 87.5722L81.6575 87.5905C79.064 89.2571 76.9885 91.4051 75.4951 93.9705L75.4769 94.001L75.4616 94.0345C74.8064 95.5518 74.1359 97.1818 73.8159 98.9581L73.8098 98.9855V99.0129L73.5843 101.533L73.5782 101.584V101.636L73.6147 102.014L73.7732 103.879V103.897L73.7763 103.915C74.0262 105.64 74.6327 107.245 75.2849 108.878L75.3001 108.918L75.3214 108.955C76.2997 110.676 77.5432 112.267 79.1219 113.817L79.1493 113.845L79.1798 113.869C80.8255 115.124 82.4103 116.072 84.0256 116.77L84.0621 116.785L84.1017 116.797L86.6191 117.507L86.6679 117.522L86.7197 117.528L88.9993 117.772H89.0359L89.0725 117.775L91.5868 117.729H91.6417L91.6935 117.717L93.9792 117.269L94.0188 117.26L94.0585 117.248C95.8901 116.62 97.5023 115.862 98.9896 114.926L99.014 114.911L99.0383 114.893C100.291 113.918 101.467 112.803 102.528 111.581L102.552 111.551L102.574 111.517L103.951 109.451L103.969 109.427L103.976 109.412ZM100.986 101.606C101.056 103.19 100.733 104.714 100.026 106.13L100.017 106.145L100.011 106.164C98.7823 109.052 96.7191 111.002 93.6988 112.117L93.6805 112.123L93.6623 112.132C92.879 112.483 92.2603 112.638 91.663 112.638H91.5929L91.4557 112.635L91.3308 112.69C91.0687 112.806 90.77 112.861 90.3708 112.861C90.1666 112.861 89.9563 112.848 89.7338 112.833C89.5174 112.821 89.295 112.806 89.0694 112.806H89.039C88.9628 112.809 88.8866 112.812 88.8134 112.812C88.1673 112.812 87.5822 112.693 87.0245 112.452L86.9483 112.419L86.866 112.407C85.1959 112.169 83.8975 111.173 82.5231 110.119L82.3585 109.994L82.328 109.969C81.6941 109.546 81.2156 109.028 80.8651 108.385L80.8346 108.327L80.792 108.278C79.7223 107.041 79.0548 105.564 78.7531 103.757V103.745L78.75 103.732L78.7165 103.574C78.5763 102.913 78.4453 102.285 78.5428 101.673L78.555 101.591L78.5459 101.508C78.4483 100.683 78.6281 99.8843 78.8201 99.214L78.8293 99.1836L78.8354 99.1531C79.1371 97.4743 79.8685 95.954 81.0145 94.6316L81.048 94.5951L81.0754 94.5524C81.4228 93.9888 81.8404 93.55 82.3493 93.2149L82.389 93.1905L82.4225 93.16C83.864 91.8591 85.333 91.0791 86.9086 90.7805L86.9665 90.7683L87.0214 90.747C87.6096 90.5093 88.2313 90.3936 88.917 90.3936C88.9689 90.3936 89.0207 90.3936 89.0725 90.3936H89.1395C89.4687 90.3661 89.8405 90.3326 90.1879 90.3326C90.6573 90.3326 91.0352 90.3905 91.3765 90.5185L91.4771 90.555H91.5837C92.2786 90.5611 92.9461 90.7317 93.6165 91.0699L93.6501 91.0882L93.6866 91.1004C96.6764 92.1759 98.7397 94.1106 99.9892 97.0112L100.014 97.066L100.047 97.1148C100.446 97.6937 100.587 98.431 100.715 99.08V99.1013L100.724 99.1226C100.928 99.8721 101.102 100.683 101.001 101.505L100.995 101.554V101.606H100.986Z" fill="white"/>
<path d="M122.463 122.129C122.463 120.717 121.318 119.573 119.906 119.573C118.493 119.573 117.349 120.717 117.349 122.129V137.363C117.349 138.775 118.493 139.919 119.906 139.919C121.318 139.919 122.463 138.775 122.463 137.363V122.129Z" fill="white"/>
<path d="M112.29 127.19C110.877 127.19 109.733 128.334 109.733 129.746C109.733 131.158 110.877 132.302 112.29 132.302H127.528C128.94 132.302 130.085 131.158 130.085 129.746C130.085 128.334 128.94 127.19 127.528 127.19H112.29Z" fill="white"/>
</svg>
