<svg width="80" height="90" viewBox="0 0 79 98" fill="none" xmlns="http://www.w3.org/2000/svg">
<path d="M70.3737 39.5567C70.0907 49.9576 66.2436 58.2255 58.4799 64.5468C55.2491 67.1769 53.1537 70.4254 52.6919 74.6666C52.6329 75.2165 52.7561 75.4976 53.2318 75.7857C55.7074 77.2879 56.8689 80.0251 56.3671 83.0382C55.9071 85.8035 53.9419 87.8679 51.1433 88.4705C50.6364 88.5794 50.3829 88.7551 50.2475 89.3121C48.9663 94.5529 44.6782 97.9788 39.4353 97.9999C34.4286 98.0192 30.0867 94.5459 28.7811 89.4473C28.6388 88.8886 28.4496 88.5742 27.8176 88.4459C25.0625 87.8802 23.1147 85.8685 22.6737 83.0645C22.2119 80.1393 23.0087 77.6392 25.5451 75.9632C26.2569 75.4923 26.3975 75.0513 26.2882 74.2572C25.7448 70.3165 23.9341 67.1857 20.797 64.7577C2.18818 50.3581 5.66031 21.0461 27.0954 11.42C45.5116 3.15031 67.0422 15.1728 69.964 35.37C70.181 36.8722 70.2626 38.3937 70.3737 39.5567ZM48.6816 74.8089C48.7319 74.6103 48.7719 74.5032 48.784 74.3907C49.3587 68.9918 51.9697 64.8174 56.0963 61.4231C63.3947 55.4198 66.9502 47.5981 66.3286 38.0757C65.2679 21.8226 50.2649 10.2025 34.4459 13.2261C22.7553 15.4609 13.6809 25.4278 12.7226 37.3694C11.9205 47.3679 15.542 55.5357 23.3299 61.7411C27.243 64.8578 29.5346 68.853 30.1474 73.825C30.2464 74.6262 30.4929 74.8229 31.2498 74.8194C36.7462 74.7913 42.2443 74.8054 47.7407 74.8071C48.0549 74.8071 48.3674 74.8071 48.6833 74.8071L48.6816 74.8089ZM39.4857 84.7143C42.812 84.7143 46.1383 84.716 49.4628 84.7143C51.435 84.7125 52.5565 83.639 52.5704 81.7521C52.5843 79.8635 51.4593 78.7478 49.5097 78.7478C42.8293 78.7426 36.1473 78.7426 29.4669 78.7478C27.5885 78.7478 26.4548 79.8705 26.4461 81.7082C26.4375 83.5969 27.5659 84.7107 29.5086 84.7143C32.8349 84.7195 36.1611 84.7143 39.4857 84.7143ZM32.6612 88.6884C33.314 91.9544 36.6004 94.2788 40.0985 94.0364C43.0464 93.8326 46.1261 91.1937 46.2858 88.6884H32.6612Z" fill="white"/>
<path d="M3.24544 42.3449C2.75588 42.3449 2.2611 42.3818 1.775 42.3379C0.721213 42.243 -0.0270285 41.3716 0.000748409 40.328C0.0285254 39.3283 0.787183 38.4921 1.80799 38.4394C2.78539 38.3902 3.76973 38.3866 4.74714 38.4394C5.84953 38.4973 6.58736 39.3055 6.59951 40.3614C6.61166 41.4507 5.84606 42.2729 4.71415 42.3502C4.22632 42.3836 3.73501 42.3555 3.24371 42.3555C3.24371 42.352 3.24371 42.3484 3.24371 42.3449H3.24544Z" fill="white"/>
<path d="M61.9225 14.9075C61.9104 13.5037 64.5231 10.8104 65.7714 10.8332C66.5439 10.8473 67.1689 11.1899 67.5074 11.926C67.8546 12.6797 67.7939 13.4334 67.2453 14.0519C66.5734 14.8091 65.8547 15.5312 65.1082 16.2146C64.5023 16.7715 63.768 16.8699 63.0162 16.508C62.301 16.1619 61.9451 15.5663 61.9225 14.9075Z" fill="white"/>
<path d="M41.0134 3.4279C41.0134 3.89524 41.0377 4.36257 41.0082 4.82815C40.9422 5.87175 40.1732 6.636 39.1732 6.68695C38.1958 6.73614 37.2653 6.01406 37.1906 4.99681C37.109 3.89524 37.1108 2.77785 37.1889 1.67628C37.2618 0.659033 38.1767 -0.041969 39.1784 0.00195345C40.1541 0.0458759 40.9197 0.764447 40.9978 1.76763C41.0412 2.31754 41.0047 2.87448 41.0047 3.42966C41.0065 3.42966 41.01 3.42966 41.0117 3.42966L41.0134 3.4279Z" fill="white"/>
<path d="M75.7016 37.5996C76.1912 37.5996 76.6842 37.5714 77.1721 37.6048C78.2085 37.6751 78.9602 38.4569 78.9984 39.4619C79.0383 40.5248 78.3214 41.4155 77.2571 41.4823C76.2242 41.5473 75.1808 41.542 74.1461 41.4841C73.1392 41.4278 72.3979 40.5511 72.3979 39.548C72.3979 38.5412 73.1409 37.6962 74.1461 37.6119C74.6617 37.5697 75.1825 37.6048 75.7016 37.6048C75.7016 37.6031 75.7016 37.6013 75.7016 37.5996Z" fill="white"/>
<path d="M12.4032 11.4429C13.8736 11.4218 16.5072 14.0589 16.5003 15.3449C16.4968 16.1127 16.1652 16.7065 15.4916 17.0614C14.825 17.411 14.0941 17.4497 13.5264 16.9525C12.6549 16.19 11.7608 15.4012 11.1081 14.4595C10.7817 13.9904 10.8077 13.1137 10.9674 12.4988C11.1532 11.7819 11.8494 11.4622 12.4032 11.4411V11.4429Z" fill="white"/>
<path d="M39.5291 21.1691C40.9301 19.7214 42.5273 18.8447 44.456 18.6795C48.0497 18.3721 51.2874 20.5735 52.3499 24.0837C52.5148 24.6284 52.7613 24.8849 53.2822 25.0746C56.2803 26.1674 58.2143 28.8607 58.2924 32.0882C58.308 32.6961 58.5216 32.9244 59.0337 33.1634C62.0406 34.5672 63.728 36.96 63.7454 40.3227C63.7645 43.7575 62.084 46.2101 58.9903 47.6262C58.5077 47.8475 58.308 48.083 58.2924 48.6469C58.2056 51.9358 56.2925 54.5659 53.2509 55.7536C52.9124 55.8853 52.5304 56.249 52.4211 56.5881C50.5913 62.2699 44.1349 63.9583 39.8069 59.8665C39.7253 59.7892 39.6263 59.7294 39.5065 59.6416C39.2097 59.8981 38.9319 60.1458 38.6472 60.3848C34.649 63.7334 28.5277 62.0538 26.8125 57.0958C26.5295 56.2771 26.1094 55.873 25.3281 55.5287C22.4063 54.2391 20.8786 51.8954 20.7206 48.6838C20.6911 48.0847 20.4949 47.8528 19.9776 47.6104C16.9742 46.2066 15.292 43.826 15.2694 40.4545C15.2451 37.0444 16.9152 34.6234 19.9429 33.1845C20.4845 32.928 20.6981 32.6767 20.7224 32.0442C20.8543 28.7342 22.7744 26.1657 25.842 24.9938C26.151 24.8761 26.4843 24.5177 26.5885 24.1997C28.42 18.5548 34.8348 16.826 39.142 20.8388C39.2461 20.9371 39.359 21.0267 39.5274 21.1708L39.5291 21.1691ZM37.5517 40.4159C37.5517 35.8497 37.5673 31.2835 37.5344 26.7191C37.5292 26.0357 37.418 25.303 37.1524 24.6811C36.4945 23.1473 34.8087 22.3339 33.2133 22.6536C31.4825 22.9997 30.3124 24.4035 30.2117 26.2482C30.1266 27.833 29.5902 28.3214 28.0833 28.5691C27.3176 28.6956 26.4826 28.9995 25.8923 29.4862C24.5972 30.5544 24.3212 32.0038 24.8472 33.6149C25.3038 35.0134 24.7222 36.2011 23.4914 36.4119C23.1511 36.4699 22.7987 36.4558 22.4567 36.5085C20.5088 36.8089 19.0453 38.5606 19.1165 40.4932C19.1929 42.547 20.7953 44.1914 22.8334 44.3109C24.6736 44.4181 25.3767 45.474 24.8108 47.2783C24.0573 49.6835 25.5625 51.9956 28.0312 52.2222C29.6214 52.368 30.1197 52.9004 30.2117 54.5571C30.3019 56.1612 31.3089 57.5351 32.7428 58.0042C35.1664 58.7983 37.5292 57.0414 37.5448 54.3762C37.5726 49.7221 37.5517 45.0681 37.5535 40.4159H37.5517ZM41.4579 40.3561C41.4579 45.0383 41.444 49.7204 41.4631 54.4025C41.4717 56.6531 43.2026 58.3028 45.3605 58.1834C47.2737 58.0779 48.699 56.5284 48.7892 54.4517C48.8448 53.1709 49.4802 52.2609 50.5808 52.2679C53.3186 52.2837 55.1745 49.492 54.1033 46.9058C53.5721 45.6251 54.487 44.3355 55.8602 44.3355C58.1883 44.3337 59.8879 42.4732 59.8879 40.379C59.8879 38.2004 58.3098 36.6385 55.9296 36.4576C54.4297 36.3434 53.678 35.226 54.1172 33.7607C54.9609 30.9479 53.5947 28.8379 50.7336 28.534C49.4698 28.3987 48.8743 27.7188 48.7806 26.4064C48.7406 25.8617 48.6521 25.2907 48.4455 24.7918C47.7927 23.2176 46.1035 22.3391 44.4803 22.6554C42.6974 23.0033 41.4752 24.4404 41.4665 26.3115C41.4457 30.9936 41.4596 35.6758 41.4579 40.3579V40.3561Z" fill="white"/>
<path d="M29.0225 40.133C27.5711 40.1172 26.6788 38.926 27.0104 37.6628C27.6857 35.0837 30.7412 32.7857 33.406 32.8524C34.432 32.8788 35.2341 33.6079 35.34 34.6181C35.4441 35.5949 34.7775 36.4664 33.7706 36.7352C33.1369 36.9038 32.4356 37.0163 31.9199 37.3799C31.4078 37.7401 31.0224 38.3427 30.7012 38.9084C30.2742 39.6586 29.7308 40.1225 29.0207 40.1348L29.0225 40.133Z" fill="white"/>
<path d="M50.6833 43.5361C50.6138 43.9613 50.5461 44.7519 50.3482 45.5073C50.0704 46.5668 49.0896 47.1342 48.0844 46.9129C47.0862 46.6933 46.3813 45.734 46.5966 44.6798C47.0028 42.6805 46.6087 41.015 45.0272 39.6323C44.2355 38.9401 44.3171 37.6909 45.0237 36.946C45.7251 36.2063 46.8622 36.1238 47.692 36.8212C49.6521 38.4657 50.6086 40.6091 50.6833 43.5361Z" fill="white"/>
</svg>
