<svg width="83" height="89" viewBox="0 0 83 83" fill="none" xmlns="http://www.w3.org/2000/svg"><path d="M41.25 82.998C18.34 82.739-.227 63.954.002 41.248.237 18.381 19.067-.216 41.762.001c22.864.223 41.477 19.073 41.236 41.756-.247 22.906-19.065 41.492-41.748 41.24m.353-6.898c19.04-.082 34.588-15.715 34.5-34.688-.089-19.05-15.694-34.565-34.688-34.495-19.03.07-34.553 15.68-34.494 34.683.064 19.025 15.7 34.582 34.682 34.5" fill="#fff"/><path d="M36.452 49.131c5.033-5.84 10.26-11.9 15.482-17.951 1.404-1.632 2.778-3.288 4.223-4.885 1.445-1.602 3.23-2.013 4.933-.61 1.839 1.514 1.692 3.422.2 5.16-7.383 8.606-14.765 17.218-22.213 25.77-1.844 2.114-3.759 2.079-5.78.036a875 875 0 0 1-11.035-11.365c-2.015-2.102-2.19-4.168-.476-5.606 2.003-1.68 3.712-.916 5.392.722 2.99 2.912 6.079 5.724 9.28 8.723z" fill="#fff"/></svg>