<svg width="38" height="32" viewBox="0 0 39 33" fill="none" xmlns="http://www.w3.org/2000/svg">
<path d="M35.0958 8.97608C35.0958 8.98236 35.0907 8.98745 35.0844 8.98747C34.327 8.98977 33.5792 9.22153 32.9873 9.72894C32.8201 9.87228 32.6514 10.0156 32.4616 10.1273L31.9548 10.4257C30.9822 10.9983 29.8741 11.3003 28.7454 11.3003H26.3401C25.0447 11.3003 23.9922 12.3411 23.9922 13.6131C23.9922 14.0211 23.7173 14.411 23.3093 14.411H22.0043C21.507 14.411 21.0374 14.182 20.7312 13.7901L15.9768 7.70383C15.8496 7.51881 15.6067 7.40315 15.4216 7.40315L5.18557 6.60522C4.87328 6.60522 4.57256 6.73244 4.44533 6.97529C4.3181 7.21813 4.31809 7.58819 4.50315 7.83104L4.56636 7.92207C6.46891 10.6622 4.50796 14.411 1.17209 14.411C0.744145 14.411 0.374023 14.7811 0.374023 15.2089C0.374023 15.6368 0.744145 16.0069 1.17209 16.0069C2.90959 16.0069 4.3181 17.4154 4.3181 19.1529V31.5491C4.3181 31.977 4.68821 32.347 5.11616 32.347C5.54411 32.347 5.91423 31.977 5.91423 31.5491V22.2295C5.91423 18.7545 8.73126 15.9375 12.2062 15.9375C15.6812 15.9375 18.4983 18.7545 18.4983 22.2295V31.4797C18.4983 31.9076 18.8684 32.2776 19.2963 32.2776C19.7243 32.2776 20.0944 31.9076 20.0944 31.4797V26.9138C20.0944 20.8518 25.0087 15.9375 31.0707 15.9375C31.4769 15.9375 31.8688 16.2146 31.8688 16.6207V18.1042C31.8688 19.0599 31.0941 19.8346 30.1384 19.8346H29.5209C28.9078 19.8346 28.2833 20.0775 27.8553 20.5053C27.7975 20.5631 28.1676 20.0775 21.9334 28.6812C21.6905 29.0512 21.7484 29.5369 22.1185 29.7798C22.4886 30.0226 22.9859 29.9648 23.2288 29.5947L28.7055 21.9879C28.9171 21.6939 29.1585 21.3611 29.5209 21.3611H32.6669C33.0948 21.3611 33.4649 20.991 33.4649 20.5632V14.4688C33.4649 14.1682 33.3377 13.9253 33.0948 13.7981C32.8519 13.6709 32.5396 13.6709 32.2967 13.7981L31.5565 14.226C31.4293 14.2838 31.3136 14.3532 31.1286 14.3532H26.4442C26.0163 14.3532 25.6462 13.9832 25.6462 13.5553C25.6462 13.1274 26.0163 12.7574 26.4442 12.7574H30.7006C30.8278 12.7574 31.0129 12.6995 31.1286 12.6302L33.4939 11.2365C33.6436 11.1483 33.7816 11.0415 33.9044 10.9187C34.2167 10.5486 34.6447 10.3751 35.142 10.3751C36.0095 10.433 36.6803 11.1037 36.6803 11.9016V21.2339C36.6803 22.0896 35.9979 22.7603 35.142 22.7603H30.2726C30.0298 22.7603 29.7753 22.8875 29.6596 23.061L24.2929 30.6818C24.05 31.0518 24.1079 31.5375 24.478 31.7804C24.8481 32.0232 25.3455 31.9654 25.5884 31.5953L28.2714 27.7623C29.8011 25.5768 32.3009 24.2752 34.9685 24.2752C36.6919 24.2752 38.1146 22.876 38.1146 21.1645V12.0751C38.1146 10.3675 36.8251 9.02828 35.1076 8.96474C35.1012 8.9645 35.0958 8.96965 35.0958 8.97608ZM6.70821 8.32082C6.71081 8.31822 6.7144 8.31689 6.71806 8.31716L13.6834 8.83775C14.4666 8.89629 15.1891 9.28146 15.6741 9.89908C17.1152 11.7339 15.8081 14.4226 13.475 14.4226H12.6293C11.5814 14.4226 10.5996 13.9108 9.99963 13.0517L6.70679 8.33695C6.70329 8.33194 6.70389 8.32514 6.70821 8.32082Z" fill="white"/>
<path d="M34.1706 8.18975C36.3335 8.18975 38.1147 6.42042 38.1147 4.29262C38.1147 2.16482 36.322 0.395508 34.1706 0.395508C32.0193 0.395508 30.2266 2.16482 30.2266 4.29262C30.2266 6.42042 32.0193 8.18975 34.1706 8.18975ZM34.1706 1.96823C35.4661 1.96823 36.5186 3.009 36.5186 4.28106C36.5186 5.55312 35.4661 6.59389 34.1706 6.59389C32.8752 6.59389 31.8227 5.55312 31.8227 4.28106C31.8227 3.009 32.8752 1.96823 34.1706 1.96823Z" fill="white"/>
</svg>
