<svg width="182" height="201" viewBox="0 0 182 201" fill="none" xmlns="http://www.w3.org/2000/svg">
<path d="M78.0109 3.52388L13.8396 40.5983C5.70415 45.2968 0.686035 53.99 0.686035 63.387V137.536C0.686035 146.933 5.70415 155.626 13.8396 160.325L78.0109 197.399C86.1463 202.098 96.1825 202.098 104.318 197.399L168.489 160.325C176.625 155.626 181.643 146.933 181.643 137.536V63.387C181.643 53.99 176.625 45.2968 168.489 40.5983L104.318 3.52388C96.1825 -1.17463 86.1463 -1.17463 78.0109 3.52388Z" fill="#F8F8F8"/>
<path d="M79.5695 14.9563L22.9635 47.6556C15.7785 51.8025 11.3686 59.4684 11.3686 67.7622V133.18C11.3686 141.474 15.7975 149.14 22.9635 153.286L79.5695 185.986C86.7546 190.133 95.5933 190.133 102.778 185.986L159.384 153.286C166.569 149.14 170.979 141.474 170.979 133.18V67.7622C170.979 59.4684 166.55 51.8025 159.384 47.6556L102.778 14.9563C95.5933 10.8094 86.7546 10.8094 79.5695 14.9563Z" fill="#072996"/>
<path d="M43 93.5896C43.9114 92.0226 44.579 90.2342 45.7771 88.927C50.7323 83.515 59.4489 85.0096 62.3715 91.7501C62.9107 92.9892 63.5868 93.1127 64.7378 93.2319C68.2595 93.5981 71.4774 92.7592 74.537 91.1412C74.9863 90.9027 75.4442 90.511 75.6752 90.0724C76.6295 88.267 77.4938 86.419 78.7006 83.9621C76.9932 82.4122 75.0676 80.5386 72.9794 78.8652C72.5301 78.5075 71.4432 78.6778 70.7543 78.9163C66.4623 80.3896 61.9821 79.1547 59.2392 75.6503C56.5476 72.2141 56.3636 67.5984 58.7728 63.9364C61.5157 59.7678 66.8218 58.2434 71.379 60.3128C76.0218 62.4248 78.3411 67.4876 76.8691 72.3461C76.6466 73.087 76.3428 73.8023 76.086 74.4922C78.3111 76.6936 80.532 78.8865 82.479 80.8154C86.0392 80.083 89.471 79.3762 93.2923 78.5884C93.2923 76.4594 93.3479 73.862 93.2367 71.2731C93.2195 70.8685 92.5049 70.3533 92.0086 70.1276C87.5326 68.0923 85.2946 63.8044 86.2446 58.9758C87.1133 54.5218 91.4052 51.043 96.0694 51.0004C100.896 50.9578 104.713 54.1216 105.723 59.0013C106.635 63.3956 104.183 68.1604 99.8693 69.9275C98.5684 70.4598 98.1619 71.0772 98.2175 72.4014C98.3159 74.7391 98.1919 77.0853 98.2817 79.423C98.3031 80.0276 98.6112 80.7771 99.052 81.1773C101.264 83.2084 103.566 85.1458 106.224 87.4537C108.214 85.3673 110.597 82.9487 112.839 80.4109C113.169 80.0362 112.972 79.01 112.749 78.3798C111.29 74.1898 112.595 69.3697 115.946 66.8617C119.682 64.0642 124.521 64.0386 128.261 66.7936C132.065 69.5996 133.306 75.1564 131.077 79.423C128.762 83.8429 123.362 86.0145 118.689 84.1835C117.225 83.6087 116.417 83.8216 115.428 84.9202C114.341 86.1252 113.028 87.1301 111.573 88.4373C116.626 91.2221 118.479 95.4418 118.65 100.581C120.109 100.994 120.97 100.896 121.641 99.2656C123.306 95.2161 127.465 92.8572 131.53 93.3298C136.374 93.8919 139.686 96.8938 140.623 101.561C140.718 102.033 140.872 102.493 141 102.962V103.813C140.893 104.141 140.752 104.456 140.679 104.793C139.609 109.668 136.575 112.713 132.296 113.202C127.474 113.756 123.605 111.516 121.423 107.028C121.154 106.479 120.358 105.81 119.836 105.832C118.903 105.874 117.546 106.134 117.153 106.781C115.248 109.906 112.411 111.618 109.065 112.64C107.674 113.066 106.198 113.223 104.991 113.458C107.272 115.719 109.617 118.039 111.68 120.083C114.204 119.977 116.874 119.368 119.314 119.862C124.949 121.003 128.094 126.819 126.498 132.342C124.919 137.81 119.121 140.867 113.657 139.113C108.312 137.397 105.244 131.32 107.341 126.087C107.944 124.575 107.623 123.843 106.617 122.877C104.362 120.709 101.902 118.665 100.049 116.187C97.5029 112.785 94.2166 113.534 90.7334 113.598C90.7334 116.702 90.7762 119.602 90.712 122.502C90.6863 123.694 90.973 124.316 92.2268 124.848C95.864 126.394 97.8966 129.302 98.1919 133.236C98.5727 138.312 95.0125 142.928 90.1899 143.818C85.0079 144.776 80.0356 141.876 78.5807 137.047C77.0702 132.04 79.4965 126.896 84.349 124.729C84.871 124.495 85.6883 124.047 85.6969 123.681C85.7996 120.241 85.7568 116.796 85.7568 113.206C84.503 113.206 83.5616 113.334 82.6673 113.185C78.2684 112.444 74.8665 113.858 72.145 117.405C71.2464 118.576 70.6986 119.3 71.3362 120.858C72.8467 124.546 71.67 128.902 68.7559 131.554C65.7178 134.318 61.2546 135.029 57.6217 133.322C52.7221 131.018 50.4841 125.41 52.4782 120.42C54.4808 115.404 60.095 112.938 65.3669 114.701C66.0644 114.935 67.0742 115.101 67.6091 114.769C68.9699 113.93 70.1466 112.789 71.456 111.72C66.856 107.875 65.3198 103.656 66.5094 98.5289C63.4926 97.9583 63.4498 97.9754 62.119 100.462C59.9324 104.546 55.2725 106.645 50.7323 105.572C46.5645 104.588 44.318 101.68 43.0171 97.8476C43.0171 96.4297 43.0171 95.0075 43.0171 93.5896H43ZM101.418 88.6545C98.4529 84.324 94.285 82.4888 89.2485 83.1318C84.0451 83.796 80.4635 86.8363 79.1926 91.9715C78.7348 93.828 77.9004 94.4156 76.2101 94.7989C71.7128 95.8251 69.4791 98.8312 70.0054 102.825C70.5275 106.807 73.5571 109.268 77.956 109.268C86.9421 109.272 95.9282 109.332 104.91 109.217C106.626 109.195 108.419 108.697 110.024 108.041C115.522 105.797 115.475 99.1208 113.55 95.4631C111.393 91.3583 106.575 90.3109 102.099 92.9338C101.02 93.5683 99.9934 94.2922 98.8508 95.0331C98.0121 94.0069 97.2719 93.1084 96.4075 92.0482C98.1491 90.8687 99.6682 89.8382 101.418 88.6502V88.6545ZM82.7957 134.05C82.7871 137.179 85.1791 139.581 88.3029 139.585C91.3881 139.585 93.8871 137.09 93.8443 134.041C93.8058 131.082 91.1527 128.535 88.1402 128.565C85.1834 128.591 82.7999 131.039 82.7914 134.054L82.7957 134.05ZM122.245 69.3186C119.112 69.276 116.635 71.635 116.605 74.688C116.575 77.7155 119.07 80.2661 122.086 80.2831C125.06 80.3002 127.666 77.7027 127.658 74.7349C127.645 71.7883 125.219 69.3569 122.249 69.3186H122.245ZM67.3738 124.226C67.4166 121.254 65.016 118.789 62.0206 118.729C58.9268 118.665 56.3422 121.118 56.3208 124.141C56.2994 127.032 58.7942 129.613 61.7125 129.711C64.695 129.813 67.3353 127.258 67.378 124.226H67.3738ZM122.27 129.425C122.249 126.436 119.836 123.992 116.862 123.95C113.841 123.907 111.299 126.466 111.333 129.523C111.363 132.564 113.721 134.91 116.75 134.914C119.93 134.918 122.292 132.568 122.275 129.425H122.27ZM72.6627 69.5698C72.6927 66.4615 70.245 63.979 67.1555 63.996C64.1388 64.0131 61.7553 66.3848 61.7211 69.4123C61.6911 72.4568 64.0018 74.8882 66.9972 74.9605C70.1423 75.0329 72.6285 72.6697 72.6627 69.5741V69.5698ZM47.7284 95.395C47.5915 98.3969 49.9963 100.986 53.0987 101.169C55.9571 101.339 58.5845 98.8525 58.6915 95.8804C58.7942 93.002 56.3294 90.3577 53.4153 90.2214C50.4328 90.0852 47.8653 92.4186 47.7284 95.395ZM95.7485 66.2996C98.8123 66.2911 101.234 63.8002 101.204 60.6918C101.174 57.6856 98.7225 55.284 95.7357 55.3351C92.8387 55.3862 90.3654 57.9283 90.3568 60.8664C90.3483 63.8938 92.7446 66.3039 95.7485 66.2954V66.2996ZM130.897 97.8391C127.816 97.7838 125.377 100.041 125.283 103.03C125.189 106.1 127.795 108.676 130.983 108.667C133.807 108.659 136.246 106.189 136.254 103.328C136.263 100.364 133.845 97.8945 130.893 97.8391H130.897Z" fill="white"/>
</svg>
