<svg width="45" height="45" viewBox="0 0 62 62" fill="none" xmlns="http://www.w3.org/2000/svg">
<path d="M61.7933 33.5518C61.7161 33.8584 61.6026 34.1625 61.5688 34.4739C60.2654 46.637 51.3246 57.2481 39.5212 60.5405C37.566 61.0861 35.5432 61.383 33.5518 61.7933H28.2415C27.976 61.7209 27.7153 61.6195 27.4473 61.5809C14.7411 59.744 6.10692 52.8164 1.68483 40.7788C0.837589 38.4736 0.547933 35.9656 0 33.5518C0 31.7825 0 30.0108 0 28.2415C0.0748278 27.9325 0.183449 27.6284 0.219656 27.317C1.72828 14.4611 10.9466 4.00208 23.5394 0.910003C25.0866 0.528622 26.6725 0.299311 28.2415 0C30.0108 0 31.7825 0 33.5518 0C33.8584 0.0748278 34.1625 0.173794 34.4763 0.219656C47.0257 2.07104 55.5826 8.94796 60.0433 20.7877C60.9364 23.1556 61.2261 25.7504 61.7933 28.2391V33.5518ZM3.6907 30.8701C3.64725 45.8067 15.8321 58.0229 30.8387 58.0905C45.7729 58.1581 57.9867 46.0022 58.0905 30.9739C58.1943 16.0228 45.8888 3.68346 30.8822 3.69553C15.9045 3.70518 3.73415 15.8683 3.6907 30.8701Z" fill="white"/>
<path d="M26.1815 18.8409C26.1815 20.5811 24.6432 21.9918 22.7459 21.9918C20.8485 21.9918 19.3103 20.5811 19.3103 18.8409C19.3103 17.1006 20.8485 15.6899 22.7459 15.6899C24.6432 15.6899 26.1815 17.1006 26.1815 18.8409Z" fill="white"/>
<path d="M19.7801 24.3078H25.6529V41.759H19.7801V24.3078Z" fill="white"/>
<path d="M35.108 24.3078H29.2352V41.759H35.108C35.108 41.759 35.108 36.2651 35.108 32.8301C35.108 30.7683 35.826 28.6975 38.6904 28.6975C41.9276 28.6975 41.9082 31.3956 41.893 33.486C41.8733 36.2182 41.9204 39.0066 41.9204 41.759H47.7932V32.5486C47.7434 26.6676 46.1806 23.9577 41.0395 23.9577C37.9863 23.9577 36.0937 25.317 35.108 26.5468V24.3078Z" fill="white"/>
</svg>
