<svg width="38" height="38" viewBox="0 0 38 38" fill="none" xmlns="http://www.w3.org/2000/svg">
<path d="M38 19C38 8.50659 29.4934 0 19 0C8.50659 0 0 8.50659 0 19C0 29.4934 8.50659 38 19 38C29.4934 38 38 29.4934 38 19Z" fill="#1275B1"/>
<path d="M14.411 10.4393C14.411 11.7077 13.3115 12.7358 11.9555 12.7358C10.5993 12.7358 9.5 11.7077 9.5 10.4393C9.5 9.17103 10.5993 8.14286 11.9555 8.14286C13.3115 8.14286 14.411 9.17103 14.411 10.4393Z" fill="white"/>
<path d="M9.83579 14.4239H14.0331V27.1429H9.83579V14.4239Z" fill="white"/>
<path d="M20.7909 14.4238H16.5935V27.1429H20.7909C20.7909 27.1429 20.7909 23.1387 20.7909 20.6352C20.7909 19.1325 21.304 17.6232 23.3513 17.6232C25.6649 17.6232 25.6511 19.5897 25.6402 21.1132C25.6261 23.1045 25.6598 25.1369 25.6598 27.1429H29.8571V20.43C29.8216 16.1438 28.7047 14.1687 25.0302 14.1687C22.848 14.1687 21.4954 15.1594 20.7909 16.0557V14.4238Z" fill="white"/>
</svg>
