<svg width="16" height="16" viewBox="0 0 16 16" fill="none" xmlns="http://www.w3.org/2000/svg">
<mask id="mask0_486_5715" style="mask-type:alpha" maskUnits="userSpaceOnUse" x="2" y="0" width="12" height="16">
<path fill-rule="evenodd" clip-rule="evenodd" d="M8 15.3334C8 15.3334 14 11.3334 14 6.66675C14 3.35304 11.3137 0.666748 8 0.666748C4.68629 0.666748 2 3.35304 2 6.66675C2 11.3334 8 15.3334 8 15.3334ZM8 8.66675C9.10457 8.66675 10 7.77132 10 6.66675C10 5.56218 9.10457 4.66675 8 4.66675C6.89543 4.66675 6 5.56218 6 6.66675C6 7.77132 6.89543 8.66675 8 8.66675Z" fill="white"/>
</mask>
<g mask="url(#mask0_486_5715)">
<rect width="16" height="16" fill="#00538F"/>
</g>
</svg>
