<svg width="13" height="13" viewBox="0 0 13 13" fill="none" xmlns="http://www.w3.org/2000/svg">
<path fill-rule="evenodd" clip-rule="evenodd" d="M8.84846 7.68958L12.7572 11.6016C13.0745 11.919 13.0745 12.4342 12.7572 12.7516C12.5989 12.9103 12.3909 12.9899 12.1828 12.9899C11.9748 12.9899 11.7668 12.9103 11.6081 12.7516L7.69939 8.83964C6.90393 9.40592 5.93389 9.7424 4.8835 9.7424C2.1957 9.7424 0.0166016 7.56132 0.0166016 4.8712C0.0166016 2.18109 2.1957 0 4.8835 0C7.57128 0 9.75038 2.18109 9.75036 4.8712C9.75036 5.92258 9.41424 6.89355 8.84846 7.68958ZM7.20781 7.19719L7.52681 6.74825C7.92045 6.19454 8.12847 5.54545 8.12811 4.8712C8.12811 3.08062 6.67264 1.62373 4.8835 1.62373C3.09436 1.62373 1.63891 3.08062 1.63891 4.8712C1.63891 6.66176 3.09436 8.11867 4.8835 8.11867C5.55736 8.11867 6.20596 7.91042 6.75911 7.51666L7.20781 7.19719Z" fill="#7D86A9"/>
</svg>
