<svg width="92" height="104" viewBox="0 0 94 106" fill="none" xmlns="http://www.w3.org/2000/svg">
<path d="M52.776 78.0736H41.2276C39.2675 78.0736 37.6743 76.473 37.6743 74.5039V62.364H25.59C23.6335 62.364 22.0402 60.7635 22.0402 58.798V47.1965C22.0402 45.231 23.6335 43.6304 25.59 43.6304H37.6743V31.4905C37.6743 29.5214 39.2675 27.9208 41.2276 27.9208H52.776C54.7325 27.9208 56.3258 29.5214 56.3258 31.4905V43.6304H68.4101C70.3666 43.6304 71.9598 45.231 71.9598 47.1965V58.798C71.9598 60.7635 70.3666 62.364 68.4101 62.364H56.3258V74.5039C56.3258 76.473 54.7325 78.0736 52.776 78.0736ZM25.59 46.5172C25.2195 46.5172 24.9174 46.8207 24.9174 47.1929V58.7944C24.9174 59.1665 25.2195 59.47 25.59 59.47H40.5515V74.5003C40.5515 74.8724 40.8536 75.1795 41.2276 75.1795H52.776C53.1465 75.1795 53.4486 74.876 53.4486 74.5003V59.47H68.4101C68.7805 59.47 69.0826 59.1665 69.0826 58.7944V47.1929C69.0826 46.8207 68.7805 46.5172 68.4101 46.5172H53.4486V31.4869C53.4486 31.1148 53.1465 30.8077 52.776 30.8077H41.2276C40.8572 30.8077 40.5515 31.1112 40.5515 31.4869V46.5172H25.59Z" fill="#D51F27"/>
<path d="M7.80522 52.9015C7.80522 48.8874 7.77645 44.8697 7.8268 40.8556C7.83759 39.9487 7.57504 39.526 6.70828 39.2008C2.92116 37.77 0.651756 34.2654 1.04378 30.6234C1.50053 26.3925 4.20871 23.4551 8.37707 22.812C10.927 22.4182 13.1856 23.2275 15.0846 24.9292C15.7104 25.4929 16.1311 25.4748 16.8145 25.0738C23.914 20.926 31.0279 16.8071 38.1562 12.7027C38.7604 12.3522 38.8971 12.0632 38.746 11.337C37.775 6.65445 40.5551 2.24653 45.0399 1.23126C49.719 0.172637 53.9952 2.82823 55.2109 7.56493C55.531 8.80782 55.5489 10.0796 55.2109 11.3117C55.0167 12.0234 55.2037 12.345 55.8151 12.6955C62.9793 16.8216 70.1328 20.9693 77.2683 25.146C77.93 25.5326 78.3077 25.482 78.8867 24.9798C81.7028 22.5266 84.8929 21.9629 88.2628 23.6069C91.4673 25.1677 93.1145 27.9028 92.9922 31.4689C92.8628 35.2698 90.8811 37.9254 87.2954 39.2008C86.3387 39.5404 86.1049 39.992 86.1121 40.9314C86.1445 48.9632 86.1445 56.9951 86.1121 65.0269C86.1085 65.9663 86.3387 66.4143 87.299 66.7503C91.2227 68.1377 93.449 71.776 92.9239 75.6998C92.3628 79.8729 89.3166 82.8898 85.159 83.2186C82.8249 83.4028 80.7173 82.6332 78.9694 81.058C78.3904 80.5377 77.9912 80.3859 77.2503 80.8195C70.1184 84.9998 62.9649 89.144 55.8007 93.2701C55.1749 93.6314 55.0706 93.9674 55.2217 94.6647C56.2898 99.6218 52.9666 104.286 47.9567 104.933C43.1302 105.558 38.7244 101.732 38.5266 96.735C38.5087 96.2436 38.4799 95.7053 38.6453 95.2609C39.0913 94.0541 38.6237 93.4868 37.5592 92.8799C30.6467 88.9489 23.7701 84.9528 16.9116 80.9279C16.106 80.4546 15.6672 80.5449 14.9623 81.1338C12.1894 83.4534 9.05681 83.952 5.79477 82.355C2.59028 80.7906 0.928687 78.0664 1.04378 74.5003C1.16246 70.8294 3.02545 68.1558 6.47811 66.8515C7.59303 66.4287 7.84119 65.8904 7.8268 64.8137C7.77285 60.843 7.80522 56.8722 7.80522 52.9015ZM82.8788 53.0388C82.8788 49.0211 82.8429 45.007 82.904 40.9893C82.9184 39.9957 82.6738 39.526 81.6848 39.1502C77.5992 37.5966 75.5132 33.7812 76.3476 29.5467C76.5058 28.741 76.2864 28.3291 75.5995 27.9317C68.4748 23.8237 61.3609 19.6939 54.2578 15.5498C53.6032 15.1668 53.1896 15.2499 52.6142 15.7449C49.1184 18.7509 44.6947 18.704 41.2456 15.6365C40.7601 15.2065 40.4508 15.1162 39.8717 15.4558C32.6931 19.6506 25.5001 23.82 18.2962 27.9714C17.6741 28.3291 17.5446 28.7157 17.6597 29.3914C18.4581 34.0161 16.4476 37.6436 12.1174 39.2405C11.2471 39.5621 11.0924 39.9848 11.096 40.8014C11.1212 48.9235 11.114 57.0456 11.1032 65.1714C11.1032 65.8832 11.1428 66.3492 12.0095 66.6672C16.4476 68.2967 18.4473 71.8664 17.6525 76.5778C17.5374 77.2606 17.6956 77.6364 18.307 77.9905C25.5109 82.1419 32.7003 86.3186 39.8861 90.5025C40.3788 90.7879 40.6774 90.8204 41.1593 90.4013C44.8673 87.2074 48.9457 87.1785 52.7221 90.3074C53.2256 90.7265 53.5996 90.7735 54.1463 90.4555C61.3285 86.2716 68.518 82.0913 75.7182 77.9363C76.3296 77.5858 76.4806 77.2064 76.362 76.5236C75.5707 71.9928 77.5848 68.3256 81.8143 66.7431C82.7206 66.4034 82.9004 65.9518 82.8896 65.0847C82.8501 61.067 82.8717 57.0529 82.8717 53.0352L82.8788 53.0388ZM9.43444 36.4296C12.2973 36.4513 14.671 34.0811 14.6602 31.2123C14.6494 28.3508 12.2649 25.959 9.42725 25.9517C6.6939 25.9481 4.25546 28.405 4.27704 31.1437C4.29862 34.1028 6.54284 36.4043 9.43444 36.426V36.4296ZM84.5332 36.426C87.4752 36.4404 89.7949 34.0666 89.759 31.0787C89.7266 28.3725 87.3817 26.0095 84.6771 25.9517C81.8143 25.8939 79.3543 28.3653 79.3794 31.2774C79.4046 34.0919 81.728 36.4151 84.5368 36.426H84.5332ZM14.6566 74.7496C14.6782 71.9386 12.38 69.5757 9.5783 69.5251C6.62916 69.4709 4.30581 71.7796 4.27704 74.7929C4.24827 77.5316 6.67592 79.9885 9.41646 79.9993C12.2433 80.0102 14.6386 77.6147 14.6566 74.7496ZM84.598 69.5215C81.7352 69.5034 79.3615 71.8772 79.3758 74.7423C79.3902 77.6039 81.7783 79.9993 84.6124 79.9993C87.3457 79.9993 89.7841 77.5388 89.759 74.8002C89.7338 71.8447 87.4824 69.5396 84.598 69.5215ZM41.8282 96.417C41.7923 99.3472 44.0833 101.714 46.9605 101.721C49.7729 101.725 52.1322 99.3942 52.1538 96.5869C52.179 93.6097 49.9671 91.3588 47 91.3443C44.0833 91.3299 41.8642 93.5085 41.8246 96.417H41.8282ZM52.1574 9.48708C52.1754 6.65806 49.8808 4.28067 47.0827 4.2337C44.1947 4.18673 41.8354 6.51354 41.8246 9.41481C41.8174 12.345 43.9825 14.5706 46.8777 14.6104C49.8521 14.6501 52.1322 12.4353 52.1538 9.48708H52.1574Z" fill="#D51F27"/>
<path d="M52.776 78.0736H41.2276C39.2675 78.0736 37.6743 76.473 37.6743 74.5039V62.364H25.59C23.6335 62.364 22.0402 60.7635 22.0402 58.798V47.1965C22.0402 45.231 23.6335 43.6304 25.59 43.6304H37.6743V31.4905C37.6743 29.5214 39.2675 27.9208 41.2276 27.9208H52.776C54.7325 27.9208 56.3258 29.5214 56.3258 31.4905V43.6304H68.4101C70.3666 43.6304 71.9598 45.231 71.9598 47.1965V58.798C71.9598 60.7635 70.3666 62.364 68.4101 62.364H56.3258V74.5039C56.3258 76.473 54.7325 78.0736 52.776 78.0736ZM25.59 46.5172C25.2195 46.5172 24.9174 46.8207 24.9174 47.1929V58.7944C24.9174 59.1665 25.2195 59.47 25.59 59.47H40.5515V74.5003C40.5515 74.8724 40.8536 75.1795 41.2276 75.1795H52.776C53.1465 75.1795 53.4486 74.876 53.4486 74.5003V59.47H68.4101C68.7805 59.47 69.0826 59.1665 69.0826 58.7944V47.1929C69.0826 46.8207 68.7805 46.5172 68.4101 46.5172H53.4486V31.4869C53.4486 31.1148 53.1465 30.8077 52.776 30.8077H41.2276C40.8572 30.8077 40.5515 31.1112 40.5515 31.4869V46.5172H25.59Z" stroke="#D51F27"/>
<path d="M7.80522 52.9015C7.80522 48.8874 7.77645 44.8697 7.8268 40.8556C7.83759 39.9487 7.57504 39.526 6.70828 39.2008C2.92116 37.77 0.651756 34.2654 1.04378 30.6234C1.50053 26.3925 4.20871 23.4551 8.37707 22.812C10.927 22.4182 13.1856 23.2275 15.0846 24.9292C15.7104 25.4929 16.1311 25.4748 16.8145 25.0738C23.914 20.926 31.0279 16.8071 38.1562 12.7027C38.7604 12.3522 38.8971 12.0632 38.746 11.337C37.775 6.65445 40.5551 2.24653 45.0399 1.23126C49.719 0.172637 53.9952 2.82823 55.2109 7.56493C55.531 8.80782 55.5489 10.0796 55.2109 11.3117C55.0167 12.0234 55.2037 12.345 55.8151 12.6955C62.9793 16.8216 70.1328 20.9693 77.2683 25.146C77.93 25.5326 78.3077 25.482 78.8867 24.9798C81.7028 22.5266 84.8929 21.9629 88.2628 23.6069C91.4673 25.1677 93.1145 27.9028 92.9922 31.4689C92.8628 35.2698 90.8811 37.9254 87.2954 39.2008C86.3387 39.5404 86.1049 39.992 86.1121 40.9314C86.1445 48.9632 86.1445 56.9951 86.1121 65.0269C86.1085 65.9663 86.3387 66.4143 87.299 66.7503C91.2227 68.1377 93.449 71.776 92.9239 75.6998C92.3628 79.8729 89.3166 82.8898 85.159 83.2186C82.8249 83.4028 80.7173 82.6332 78.9694 81.058C78.3904 80.5377 77.9912 80.3859 77.2503 80.8195C70.1184 84.9998 62.9649 89.144 55.8007 93.2701C55.1749 93.6314 55.0706 93.9674 55.2217 94.6647C56.2898 99.6218 52.9666 104.286 47.9567 104.933C43.1302 105.558 38.7244 101.732 38.5266 96.735C38.5087 96.2436 38.4799 95.7053 38.6453 95.2609C39.0913 94.0541 38.6237 93.4868 37.5592 92.8799C30.6467 88.9489 23.7701 84.9528 16.9116 80.9279C16.106 80.4546 15.6672 80.5449 14.9623 81.1338C12.1894 83.4534 9.05681 83.952 5.79477 82.355C2.59028 80.7906 0.928687 78.0664 1.04378 74.5003C1.16246 70.8294 3.02545 68.1558 6.47811 66.8515C7.59303 66.4287 7.84119 65.8904 7.8268 64.8137C7.77285 60.843 7.80522 56.8722 7.80522 52.9015ZM82.8788 53.0388C82.8788 49.0211 82.8429 45.007 82.904 40.9893C82.9184 39.9957 82.6738 39.526 81.6848 39.1502C77.5992 37.5966 75.5132 33.7812 76.3476 29.5467C76.5058 28.741 76.2864 28.3291 75.5995 27.9317C68.4748 23.8237 61.3609 19.6939 54.2578 15.5498C53.6032 15.1668 53.1896 15.2499 52.6142 15.7449C49.1184 18.7509 44.6947 18.704 41.2456 15.6365C40.7601 15.2065 40.4508 15.1162 39.8717 15.4558C32.6931 19.6506 25.5001 23.82 18.2962 27.9714C17.6741 28.3291 17.5446 28.7157 17.6597 29.3914C18.4581 34.0161 16.4476 37.6436 12.1174 39.2405C11.2471 39.5621 11.0924 39.9848 11.096 40.8014C11.1212 48.9235 11.114 57.0456 11.1032 65.1714C11.1032 65.8832 11.1428 66.3492 12.0095 66.6672C16.4476 68.2967 18.4473 71.8664 17.6525 76.5778C17.5374 77.2606 17.6956 77.6364 18.307 77.9905C25.5109 82.1419 32.7003 86.3186 39.8861 90.5025C40.3788 90.7879 40.6774 90.8204 41.1593 90.4013C44.8673 87.2074 48.9457 87.1785 52.7221 90.3074C53.2256 90.7265 53.5996 90.7735 54.1463 90.4555C61.3285 86.2716 68.518 82.0913 75.7182 77.9363C76.3296 77.5858 76.4806 77.2064 76.362 76.5236C75.5707 71.9928 77.5848 68.3256 81.8143 66.7431C82.7206 66.4034 82.9004 65.9518 82.8896 65.0847C82.8501 61.067 82.8717 57.0529 82.8717 53.0352L82.8788 53.0388ZM9.43444 36.4296C12.2973 36.4513 14.671 34.0811 14.6602 31.2123C14.6494 28.3508 12.2649 25.959 9.42725 25.9517C6.6939 25.9481 4.25546 28.405 4.27704 31.1437C4.29862 34.1028 6.54284 36.4043 9.43444 36.426V36.4296ZM84.5332 36.426C87.4752 36.4404 89.7949 34.0666 89.759 31.0787C89.7266 28.3725 87.3817 26.0095 84.6771 25.9517C81.8143 25.8939 79.3543 28.3653 79.3794 31.2774C79.4046 34.0919 81.728 36.4151 84.5368 36.426H84.5332ZM14.6566 74.7496C14.6782 71.9386 12.38 69.5757 9.5783 69.5251C6.62916 69.4709 4.30581 71.7796 4.27704 74.7929C4.24827 77.5316 6.67592 79.9885 9.41646 79.9993C12.2433 80.0102 14.6386 77.6147 14.6566 74.7496ZM84.598 69.5215C81.7352 69.5034 79.3615 71.8772 79.3758 74.7423C79.3902 77.6039 81.7783 79.9993 84.6124 79.9993C87.3457 79.9993 89.7841 77.5388 89.759 74.8002C89.7338 71.8447 87.4824 69.5396 84.598 69.5215ZM41.8282 96.417C41.7923 99.3472 44.0833 101.714 46.9605 101.721C49.7729 101.725 52.1322 99.3942 52.1538 96.5869C52.179 93.6097 49.9671 91.3588 47 91.3443C44.0833 91.3299 41.8642 93.5085 41.8246 96.417H41.8282ZM52.1574 9.48708C52.1754 6.65806 49.8808 4.28067 47.0827 4.2337C44.1947 4.18673 41.8354 6.51354 41.8246 9.41481C41.8174 12.345 43.9825 14.5706 46.8777 14.6104C49.8521 14.6501 52.1322 12.4353 52.1538 9.48708H52.1574Z" stroke="#D51F27"/>
</svg>
