<svg width="80" height="80" viewBox="0 0 80 80" fill="none" xmlns="http://www.w3.org/2000/svg">
<circle cx="40" cy="40" r="40" fill="#D62027"/>
<path d="M36.6309 53.1212V50.3438C36.4884 50.338 36.3514 50.3274 36.2146 50.3274C32.9317 50.3264 29.6488 50.3269 26.3659 50.3258C26.2246 50.3258 26.0808 50.3283 25.9427 50.3037C25.6061 50.2438 25.4046 50.008 25.3822 49.6664C25.376 49.5717 25.38 49.4762 25.38 49.3811C25.38 42.4139 25.38 35.4467 25.38 28.4795C25.38 28.4082 25.3787 28.3368 25.3805 28.2655C25.3913 27.7981 25.6389 27.5423 26.1021 27.5216C26.1963 27.5174 26.291 27.5203 26.3854 27.5203C35.7028 27.5203 45.0199 27.5243 54.3373 27.5125C55.0757 27.5116 55.3627 27.7651 55.3611 28.5491C55.3469 35.4688 55.3464 42.3883 55.3611 49.308C55.3629 50.1652 54.996 50.3365 54.3245 50.3335C51.0653 50.3183 47.806 50.3266 44.5467 50.3266C44.4068 50.3266 44.2671 50.3266 44.1007 50.3266V53.1042C44.2255 53.1101 44.3401 53.1203 44.4548 53.1204C45.246 53.1219 46.0372 53.1212 46.8284 53.1212C46.8875 53.1212 46.9465 53.1201 47.0056 53.1217C47.4544 53.1336 47.7532 53.4102 47.7473 53.8073C47.7416 54.1895 47.4475 54.4599 47.0203 54.4749C46.9496 54.4773 46.8785 54.4756 46.8078 54.4756C42.5094 54.4756 38.2109 54.4756 33.9124 54.4756C33.818 54.4756 33.7229 54.4802 33.629 54.4725C33.2532 54.4421 32.9781 54.1597 32.9735 53.8048C32.9687 53.4337 33.2516 53.132 33.6485 53.1261C34.4159 53.1143 35.1836 53.1217 35.9512 53.1212C36.1631 53.1212 36.3748 53.1212 36.6311 53.1212H36.6309ZM26.7458 28.9042V44.9424C27.1776 45.022 53.7328 45.0023 53.9803 44.9255V28.9042H26.7458ZM26.7462 48.9458H53.975V46.3665H26.7462V48.9458ZM42.7092 50.3602C42.1399 50.2857 38.2685 50.3135 38.0221 50.3902V53.0976H42.7092V50.3602Z" fill="white"/>
<path d="M47.8268 64.3589C47.7276 64.3729 47.6496 64.384 47.5507 64.398C47.4332 63.996 47.3211 63.6121 47.204 63.2112C47.3241 63.1555 47.4276 63.1075 47.555 63.0485C47.4332 60.5032 48.3657 58.4516 50.5816 57.1523C52.7974 55.8531 55.0266 56.0486 57.1922 57.4165C57.2792 57.3495 57.3709 57.2786 57.5029 57.1768C57.7903 57.4551 58.0669 57.7545 58.3623 58.0652C58.3007 58.1501 58.2475 58.2234 58.1869 58.3068C58.4282 58.637 58.6712 58.9697 58.9351 59.3308C59.2043 59.2063 59.4867 59.0923 59.7504 58.944C59.8365 58.8955 59.896 58.765 59.9285 58.6599C60.1343 57.9902 60.3381 57.3197 60.5232 56.6441C60.6053 56.3443 60.7659 56.1535 61.0492 56.0238C62.0696 55.5566 63.0821 55.0716 64.0977 54.5936C64.1511 54.5685 64.2037 54.5406 64.2593 54.5211C64.7154 54.3614 65.1202 54.7028 65.0129 55.1778C64.9213 55.5825 64.7871 55.9773 64.6714 56.3765C64.5759 56.7062 64.4801 57.0357 64.3778 57.388C64.4781 57.4403 64.5673 57.4936 64.6617 57.5349C65.2028 57.7716 65.7455 58.0045 66.2868 58.2409C66.3837 58.2833 66.485 58.3237 66.5698 58.3854C66.8721 58.6057 66.8834 59.0412 66.5929 59.2761C66.5116 59.3418 66.4113 59.3857 66.3156 59.4308C65.3007 59.9103 64.2823 60.3822 63.2716 60.8704C63.0144 60.9945 62.7842 60.9995 62.5272 60.8839C61.8917 60.5982 61.2471 60.3326 60.6127 60.0446C60.4231 59.9586 60.2619 59.9509 60.0787 60.0517C59.8637 60.1699 59.6367 60.2664 59.4192 60.3703C60.5962 64.0751 58.4343 67.3006 55.6176 68.2486C52.5077 69.2953 49.0076 67.7442 47.8272 64.3589H47.8268ZM57.8543 59.8391C56.6986 57.7623 53.7925 56.7024 51.3112 58.0267C48.8486 59.3411 47.9432 62.4739 49.3241 64.9062C50.72 67.3645 53.8634 68.1855 56.2379 66.7012C57.4283 65.9571 58.1915 64.8923 58.4963 63.5096C58.6907 62.6275 58.6584 61.757 58.3467 60.8689C58.0554 61.0115 57.8067 61.1332 57.5664 61.2508C58.2175 64.0316 56.5157 65.7929 54.9768 66.3167C53.0579 66.9698 50.9641 66.1317 50.0268 64.3233C49.0948 62.5252 49.6289 60.2925 51.2739 59.1089C52.0848 58.5255 52.9926 58.2678 53.98 58.3537C55.2942 58.468 56.3155 59.1156 57.0795 60.2104C57.3501 60.0807 57.6013 59.9604 57.8543 59.8393V59.8391ZM55.7078 62.1168C55.6605 63.4412 55.0858 64.2466 54.0643 64.4573C53.1565 64.6444 52.2216 64.1866 51.8137 63.355C51.3945 62.5004 51.6049 61.4743 52.3293 60.8655C52.6843 60.5671 53.0934 60.4051 53.5592 60.3866C54.2126 60.3606 54.7506 60.6159 55.2096 61.0936C55.485 60.9591 55.7422 60.8333 56.0059 60.7043C55.1045 59.4213 53.3411 59.1063 52.0385 59.9627C50.7181 60.8309 50.3118 62.5901 51.1179 63.9504C51.9325 65.3251 53.6894 65.8049 55.0688 65.0295C56.2411 64.3706 56.9413 62.7338 56.4498 61.7652C56.1973 61.8847 55.9446 62.0045 55.7078 62.1168ZM61.7189 59.2849C62.0692 59.4389 62.3528 59.5528 62.6263 59.6879C62.8008 59.7741 62.95 59.7726 63.1256 59.6847C63.5783 59.4582 64.0404 59.2513 64.4977 59.0342C64.597 58.987 64.6919 58.9304 64.8353 58.8531C64.4626 58.6906 64.1426 58.5452 63.817 58.4134C63.749 58.3859 63.6492 58.3819 63.584 58.4117C62.9861 58.6848 62.3925 58.9678 61.7189 59.2849ZM61.2672 58.1477C61.2852 58.1691 61.3031 58.1905 61.321 58.2119C61.9162 57.932 62.5119 57.6532 63.1053 57.3699C63.154 57.3467 63.209 57.2981 63.2244 57.2495C63.337 56.8926 63.4404 56.5326 63.5684 56.0998C62.896 56.4165 62.2996 56.694 61.7076 56.9811C61.6428 57.0126 61.5813 57.0929 61.5586 57.1636C61.4536 57.4891 61.3629 57.8193 61.2671 58.1479L61.2672 58.1477ZM54.0373 61.6341C53.3744 61.3424 52.8582 61.786 52.7544 62.2262C52.6379 62.72 52.9621 63.2391 53.451 63.3344C53.9417 63.4301 54.3922 63.1576 54.4557 62.7113C54.2659 62.7968 54.0891 62.8933 53.9016 62.9575C53.5024 63.0946 53.127 62.8351 53.1313 62.4341C53.1339 62.1989 53.2483 62.0274 53.4545 61.921C53.6301 61.8304 53.8086 61.7462 54.0374 61.6339L54.0373 61.6341Z" fill="white"/>
<path d="M40.7911 16.1035C40.7911 16.2813 40.7911 16.41 40.7911 16.5389C40.7911 17.6088 40.7956 18.6787 40.7874 19.7486C40.7857 19.9718 40.77 20.2047 40.705 20.4158C40.4847 21.1318 39.7983 21.5611 39.0225 21.4964C38.2466 21.4316 37.6754 20.9293 37.5505 20.1892C37.521 20.0147 37.5157 19.8344 37.5153 19.6569C37.5122 18.6109 37.5137 17.5646 37.5137 16.5186C37.5137 16.3897 37.5137 16.2607 37.5137 16.1222C37.3853 16.0911 37.2847 16.0639 37.1829 16.0426C36.3244 15.864 35.6824 15.3839 35.2282 14.6342C35.1711 14.54 35.07 14.4739 35.0036 14.3841C34.9573 14.3216 34.9232 14.2439 34.9053 14.1678C34.8477 13.9252 34.7986 13.6804 34.7496 13.4359C34.7268 13.3212 34.7023 13.214 34.7991 13.1035C34.8532 13.0417 34.8554 12.9278 34.8671 12.8357C35.0536 11.3673 36.2407 10.2776 37.7079 10.2562C38.8175 10.2401 39.9282 10.2296 41.0374 10.2587C41.7708 10.2779 42.4657 10.1389 43.1551 9.91906C44.6185 9.45248 45.9127 8.69277 47.0483 7.65539C47.2668 7.45568 47.4856 7.25613 47.7051 7.05739C47.9163 6.86605 48.1585 6.79905 48.4249 6.91259C48.694 7.02711 48.8097 7.25758 48.8148 7.53959C48.8232 8.00312 48.8193 8.4668 48.8196 8.93049C48.8201 9.71452 48.8196 10.4987 48.8196 11.3035C49.6089 11.6764 50.1116 12.2666 50.11 13.1755C50.1084 14.0678 49.6368 14.6656 48.8196 15.0401V15.4237C48.8196 16.458 48.8203 17.4922 48.8188 18.5265C48.8187 18.6569 48.8216 18.7896 48.7998 18.9174C48.7126 19.4284 48.1859 19.6465 47.7758 19.3314C47.5326 19.1446 47.314 18.9246 47.0875 18.7162C45.6607 17.4039 44.007 16.5374 42.1116 16.1444C42.0311 16.1277 41.9494 16.1067 41.8681 16.1056C41.5265 16.1013 41.1847 16.1038 40.7908 16.1038L40.7911 16.1035ZM42.8233 11.3539V14.9792C44.5531 15.4181 46.0919 16.2087 47.4633 17.3264C47.4972 17.2755 47.5208 17.2565 47.5209 17.2375C47.526 14.6965 47.5297 12.1554 47.5321 9.61434C47.5323 9.43669 47.5232 9.25889 47.5169 9.08124C47.5166 9.07222 47.5033 9.06272 47.4945 9.05515C47.4864 9.04822 47.4763 9.04355 47.4417 9.02229C46.0878 10.13 44.5556 10.9138 42.8233 11.3539ZM41.4879 11.5385C41.2529 11.5385 41.0422 11.5385 40.8316 11.5385C39.8047 11.5387 38.7775 11.5271 37.7508 11.5428C36.8561 11.5565 36.1713 12.2341 36.1325 13.1078C36.0944 13.9668 36.7215 14.7624 37.5738 14.7941C38.8689 14.8423 40.167 14.8067 41.4879 14.8067V11.5385ZM38.8193 16.1154C38.8108 16.2142 38.7997 16.2831 38.7996 16.3522C38.7985 17.491 38.7986 18.63 38.7991 19.7689C38.7991 19.828 38.7994 19.8881 38.809 19.946C38.8333 20.0908 38.9193 20.1746 39.0649 20.2012C39.3612 20.2554 39.5049 20.1248 39.5058 19.776C39.5089 18.6371 39.5076 17.4983 39.5055 16.3593C39.5055 16.281 39.4857 16.2027 39.4737 16.1153H38.8193V16.1154ZM48.8369 12.5308C48.8161 12.9883 48.7859 13.3734 48.856 13.7888C49.2044 13.3775 49.2059 12.9964 48.8369 12.5308Z" fill="white"/>
<path d="M15.3867 30.047C15.459 29.9063 15.5068 29.8133 15.5679 29.6942C15.7956 29.7778 16.011 29.8704 16.2343 29.9345C16.4243 29.989 16.623 30.0384 16.8187 30.042C17.5385 30.0547 18.259 30.0362 18.9787 30.0505C19.9656 30.0703 20.7547 30.662 21.016 31.5746C21.0772 31.7885 21.1076 32.0188 21.1081 32.2415C21.114 35.1771 21.1096 38.1127 21.1132 41.0483C21.1148 42.3965 20.0179 43.2632 18.938 43.2365C17.8179 43.2088 16.6966 43.2303 15.5516 43.2303C15.5308 43.3112 15.5116 43.3853 15.4817 43.5016C15.1068 43.5702 14.7066 43.6435 14.2935 43.7192C14.2439 43.5462 14.2025 43.4017 14.1532 43.2305C14.0202 43.2305 13.8919 43.2305 13.7636 43.2305C12.5359 43.2305 11.3082 43.2381 10.0807 43.2276C9.11398 43.2194 8.30165 42.5705 8.06645 41.6323C8.02373 41.4619 8.01029 41.2801 8.01013 41.1034C8.00677 38.1322 8.02165 35.1609 8.00005 32.1898C7.99285 31.2024 8.76725 30.118 10.001 30.0544C10.1306 30.0476 10.2605 30.0473 10.3903 30.0473C11.913 30.0468 13.4359 30.047 14.9587 30.047C15.0991 30.047 15.2398 30.047 15.387 30.047H15.3867ZM9.28246 36.6109C9.28246 38.0256 9.28246 39.4402 9.28246 40.8549C9.28246 40.9618 9.27798 41.0694 9.28694 41.1757C9.3207 41.5798 9.6095 41.8842 10.0066 41.9359C10.0882 41.9466 10.1716 41.9474 10.254 41.9474C13.1233 41.9478 15.9924 41.948 18.8617 41.9469C18.9675 41.9469 19.0758 41.9438 19.1788 41.9224C19.5243 41.8506 19.8012 41.5302 19.8083 41.1986C19.8179 40.7481 19.8284 40.2975 19.8289 39.847C19.831 37.731 19.8312 35.6149 19.8289 33.4989C19.8284 33.0721 19.7788 32.6422 19.8156 32.2195C19.8497 31.8284 19.5147 31.3804 19.1019 31.3518C18.9843 31.3436 18.866 31.3422 18.7481 31.3422C15.9497 31.3417 13.1513 31.3417 10.353 31.3422C10.2351 31.3422 10.1159 31.338 9.99942 31.3523C9.61926 31.3992 9.32934 31.6981 9.28934 32.0819C9.2783 32.1879 9.28278 32.2956 9.28262 32.4026C9.2823 33.8054 9.28246 35.2082 9.28246 36.6109Z" fill="white"/>
<path d="M64.6708 29.5771C64.7289 29.6717 64.7828 29.7596 64.8468 29.8638C64.973 29.8638 65.1018 29.8638 65.2308 29.8638C67.1669 29.8638 69.1031 29.8638 71.0393 29.8638C71.1455 29.8638 71.2521 29.8603 71.358 29.8672C71.7191 29.8904 71.9491 30.1059 71.9915 30.4649C72.0039 30.5705 71.999 30.6786 71.999 30.7854C71.9993 33.4955 71.9993 36.2055 71.999 38.9156C71.999 39.0106 72.0033 39.1065 71.9942 39.2007C71.9599 39.5534 71.7639 39.7658 71.4164 39.8177C71.2889 39.8367 71.1577 39.8352 71.0281 39.8354C69.7884 39.8365 68.5489 39.8399 67.3092 39.833C67.0633 39.8317 66.8506 39.8504 66.6893 40.0762C66.5609 40.2559 66.3607 40.3874 66.3887 40.6518C66.3956 40.7167 66.3617 40.7858 66.341 40.8778C66.0154 40.7971 65.8338 40.9916 65.6583 41.2086C65.5428 41.3513 65.4129 41.4822 65.2378 41.6752C65.4783 41.6984 65.6386 41.7111 65.7983 41.7303C65.9487 41.7483 66.0985 41.7729 66.2901 41.8006C66.2457 42.1764 66.2033 42.536 66.1562 42.9338C65.7327 42.8726 65.3409 42.8159 64.9093 42.7535C64.9269 42.5173 64.9433 42.2981 64.9629 42.0343C64.886 42.0936 64.8228 42.1298 64.7751 42.1809C64.5005 42.4756 64.2306 42.7747 63.957 43.0704C63.8848 43.1484 63.8128 43.23 63.7277 43.2919C63.3183 43.5889 62.773 43.3447 62.7245 42.8375C62.7031 42.6137 62.7159 42.3862 62.7156 42.1604C62.7148 41.5186 62.716 40.8766 62.7146 40.2348C62.7143 40.1185 62.705 40.0023 62.6986 39.8544C62.5551 39.8478 62.4295 39.8372 62.3039 39.8369C61.6428 39.8351 60.9815 39.8425 60.3205 39.8314C60.1482 39.8285 59.9621 39.8022 59.8083 39.7304C59.5599 39.6139 59.4765 39.3748 59.4762 39.1071C59.4754 38.6555 59.4752 38.2037 59.4752 37.7521C59.4752 35.458 59.4752 33.1641 59.4752 30.87C59.4752 30.7749 59.4725 30.6796 59.4763 30.5847C59.4959 30.1051 59.7303 29.8685 60.2122 29.8659C61.2511 29.8604 62.2901 29.8561 63.3288 29.868C63.7007 29.8722 64.0562 29.841 64.3932 29.672C64.4759 29.6305 64.5697 29.611 64.6708 29.5773V29.5771ZM60.7764 31.1735V38.539C60.9208 38.539 61.0471 38.539 61.1733 38.539C61.8226 38.539 62.4727 38.5574 63.1212 38.5341C63.8111 38.5093 64.029 38.8976 64.0013 39.4083C63.9768 39.8586 63.9948 40.3113 63.9975 40.7631C63.998 40.8499 64.0145 40.9367 64.0333 41.1184C64.1613 40.9625 64.2317 40.8688 64.3101 40.7826C64.869 40.1696 65.4413 39.5687 65.9842 38.9417C66.2405 38.6455 66.5279 38.5287 66.9116 38.5337C68.0447 38.5486 69.1783 38.5395 70.3116 38.5382C70.438 38.5382 70.5644 38.5275 70.7018 38.5212V31.1735H60.7764Z" fill="white"/>
<path d="M31.1288 62.4837C31.2317 62.5413 31.3119 62.5863 31.3893 62.6296C31.3893 62.6765 31.401 62.7164 31.3875 62.7435C31.1359 63.2487 31.117 63.7874 31.1243 64.3394C31.1394 65.4803 31.1291 66.6216 31.1285 67.7628C31.1285 67.8698 31.1331 67.9782 31.1178 68.0832C31.0807 68.3373 30.9071 68.5132 30.6533 68.5494C30.5255 68.5676 30.3943 68.5654 30.2647 68.5654C27.372 68.5662 24.4795 68.5662 21.5868 68.5659C20.8593 68.5659 20.7152 68.4212 20.715 67.6931C20.7145 64.0675 20.7145 60.4421 20.7142 56.8165C20.7142 56.7096 20.7142 56.6025 20.715 56.4956C20.7198 55.9114 20.8992 55.7286 21.4811 55.7281C23.5709 55.7267 25.6606 55.7313 27.7502 55.7233C28.0552 55.7222 28.2893 55.8109 28.5048 56.0325C29.2726 56.8227 30.0504 57.6031 30.8336 58.3778C31.0424 58.5843 31.1359 58.8083 31.133 59.1045C31.1221 60.2215 31.1287 61.3386 31.1287 62.4837H31.1288ZM21.8692 56.8736V67.3789C22.2419 67.4612 29.7083 67.4473 29.9687 67.3684C30.0351 66.7942 30.0093 59.6539 29.933 59.3787C29.8109 59.3787 29.6819 59.3787 29.5528 59.3787C29.0688 59.3787 28.5846 59.3836 28.1008 59.3769C27.5896 59.37 27.392 59.172 27.3851 58.6619C27.3789 58.1867 27.3848 57.7111 27.3826 57.2356C27.3821 57.1206 27.371 57.0056 27.3638 56.8736H21.8691H21.8692ZM28.5405 57.7959C28.4965 57.9142 28.5062 58.0593 28.5522 58.2147H29.0344C28.8384 58.0485 28.6941 57.9262 28.5403 57.7959H28.5405Z" fill="white"/>
<path d="M50.8129 12.1755C50.4817 12.1568 50.2808 12.0499 50.1662 11.8162C50.0532 11.5855 50.0675 11.3539 50.223 11.1465C50.2854 11.0631 50.371 10.9946 50.4545 10.9303C50.9408 10.5567 51.4401 10.1995 51.9141 9.81067C52.3238 9.47439 52.7285 9.60291 52.9157 9.84579C53.1579 10.16 53.0688 10.5472 52.6766 10.8498C52.1912 11.2244 51.7053 11.5987 51.2115 11.9622C51.0741 12.0634 50.9083 12.1257 50.8131 12.1756L50.8129 12.1755Z" fill="white"/>
<path d="M52.3321 16.3918C52.2835 16.3741 52.1581 16.3577 52.0689 16.2916C51.4822 15.856 50.9 15.414 50.3238 14.9642C50.1068 14.7948 50.0521 14.5517 50.1245 14.2908C50.1896 14.0558 50.3521 13.892 50.5899 13.8564C50.7317 13.8352 50.9193 13.84 51.0265 13.9172C51.6475 14.3652 52.2574 14.8297 52.8563 15.3074C53.0643 15.4733 53.0985 15.789 52.9933 16.0261C52.8889 16.2606 52.6657 16.3986 52.3321 16.3917V16.3918Z" fill="white"/>
<path d="M51.9929 12.3557C52.2881 12.3557 52.5833 12.3538 52.8785 12.357C52.9843 12.3581 53.0923 12.3615 53.1954 12.3824C53.4774 12.4401 53.6685 12.6703 53.6867 12.959C53.7058 13.2626 53.5307 13.5245 53.2406 13.6068C53.1398 13.6355 53.0313 13.6472 52.9262 13.6479C52.3123 13.6516 51.6982 13.6511 51.0841 13.6485C50.9905 13.6482 50.8947 13.6397 50.8037 13.6184C50.4857 13.5437 50.2993 13.2939 50.3121 12.9714C50.3248 12.6548 50.535 12.4201 50.8603 12.3729C50.9765 12.356 51.0957 12.3575 51.2136 12.3564C51.4734 12.3541 51.7331 12.3557 51.9929 12.3557Z" fill="white"/>
<path d="M58.2754 21.7013C58.5919 21.4012 58.8888 21.1195 59.2047 20.8199C59.4712 21.1132 59.7154 21.3817 59.9901 21.6839C59.6682 21.9662 59.3626 22.2342 59.029 22.5268C58.7749 22.2484 58.5333 21.9837 58.2754 21.7011V21.7013Z" fill="white"/>
<path d="M62.5735 50.193C62.7343 49.8487 62.8784 49.5401 63.0391 49.1961C63.4252 49.3657 63.796 49.5285 64.2055 49.7083C64.0437 50.061 63.8935 50.3886 63.7229 50.7601C63.3392 50.5707 62.976 50.3915 62.5735 50.1929V50.193Z" fill="white"/>
<path d="M63.4751 26.8293C63.0882 27.0337 62.7298 27.2231 62.348 27.4249C62.1623 27.089 61.9935 26.7839 61.8076 26.4478C62.1778 26.2323 62.5298 26.0273 62.9125 25.8045C63.102 26.1495 63.2808 26.4753 63.4752 26.8295L63.4751 26.8293Z" fill="white"/>
<path d="M63.8791 27.6424C64.0461 28.0146 64.1954 28.3471 64.3591 28.7119C63.9672 28.8793 63.592 29.0395 63.1874 29.2124C63.033 28.8738 62.8879 28.5559 62.7263 28.2017C63.1146 28.0133 63.4869 27.8327 63.8792 27.6425L63.8791 27.6424Z" fill="white"/>
<path d="M59.576 23.1904C59.921 22.9087 60.2295 22.6566 60.5701 22.3785C60.8087 22.6881 61.0344 22.9812 61.2847 23.3059C60.9351 23.5669 60.6104 23.8093 60.261 24.0703C60.0288 23.7721 59.8141 23.4962 59.576 23.1904Z" fill="white"/>
<path d="M55.4083 17.4959C55.149 17.8615 54.9187 18.1862 54.6682 18.5394C54.3672 18.336 54.0797 18.1416 53.7574 17.9238C53.9672 17.5489 54.2029 17.209 54.4467 16.8384C54.7744 17.0625 55.0718 17.2659 55.4083 17.496V17.4959Z" fill="white"/>
<path d="M56.2216 19.757C55.917 19.5105 55.6446 19.2904 55.3552 19.0562C55.6146 18.7154 55.8618 18.3905 56.1309 18.0367C56.4426 18.2873 56.7237 18.5134 57.0403 18.7682C56.7662 19.099 56.5072 19.412 56.2214 19.757H56.2216Z" fill="white"/>
<path d="M57.6096 21.0258C57.3925 20.8187 57.1458 20.5832 56.8706 20.3207C57.1517 20.005 57.4237 19.6995 57.7197 19.3672C58.0059 19.6362 58.2759 19.8897 58.5629 20.1593C58.2375 20.4551 57.9352 20.7298 57.6096 21.0258Z" fill="white"/>
<path d="M61.809 24.0445C62.033 24.3871 62.2271 24.6836 62.4492 25.0231C62.093 25.2486 61.7495 25.466 61.3719 25.7052C61.1655 25.3943 60.9722 25.1033 60.7549 24.776C61.1048 24.5331 61.4386 24.3015 61.809 24.0445Z" fill="white"/>
<path d="M65.2421 46.9456C64.822 46.8134 64.4354 46.6916 64.0255 46.5626C64.1274 46.2027 64.2197 45.877 64.3242 45.5083C64.7293 45.6132 65.1199 45.7143 65.5581 45.8277C65.4516 46.2046 65.3514 46.5589 65.2421 46.9456Z" fill="white"/>
<path d="M59.0047 57.4685C58.6973 57.1375 58.4258 56.8451 58.1317 56.5284C58.3504 56.2894 58.5859 56.0322 58.8442 55.7502C59.1653 56.0377 59.4685 56.3091 59.7986 56.6046C59.5333 56.8932 59.2885 57.1598 59.0047 57.4685Z" fill="white"/>
<path d="M60.3791 55.9244C60.0309 55.6331 59.7232 55.3759 59.3981 55.1037C59.6304 54.8101 59.8475 54.5355 60.0815 54.2398C60.4296 54.5052 60.7552 54.7536 61.0996 55.0161C60.8531 55.3268 60.6266 55.6125 60.3792 55.9244H60.3791Z" fill="white"/>
<path d="M62.1856 50.9498C62.5684 51.1576 62.918 51.3473 63.3064 51.5582C63.1157 51.899 62.9354 52.2212 62.741 52.5683C62.3605 52.3401 62.0117 52.1311 61.644 51.9106C61.8276 51.5851 61.994 51.2898 62.1856 50.9498Z" fill="white"/>
<path d="M62.2698 53.3322C62.0492 53.6616 61.8474 53.9626 61.6253 54.2939C61.2727 54.0422 60.9405 53.8051 60.5839 53.5504C60.7922 53.2404 60.9868 52.9508 61.1984 52.6358C61.5596 52.8705 61.9007 53.0922 62.27 53.3322H62.2698Z" fill="white"/>
<path d="M66.0082 43.82C65.9281 44.2151 65.858 44.5594 65.7777 44.9553C65.3591 44.8606 64.9657 44.7715 64.5377 44.6747C64.6074 44.3152 64.6717 43.9831 64.7463 43.5992C65.1601 43.6715 65.5575 43.7411 66.0082 43.8198V43.82Z" fill="white"/>
<path d="M64.5561 48.8843C64.1372 48.7153 63.7607 48.5633 63.3688 48.4053C63.5012 48.0532 63.6204 47.7364 63.7562 47.3748C64.1554 47.5153 64.5361 47.649 64.961 47.7984C64.826 48.1603 64.7005 48.4966 64.5561 48.8843Z" fill="white"/>
<path d="M43.4804 63.9794C43.8507 63.9216 44.1718 63.8715 44.5375 63.8143C44.6121 64.2383 44.6825 64.6375 44.7595 65.0743C44.3833 65.1353 44.0425 65.1906 43.6499 65.2542C43.5931 64.8266 43.5396 64.4248 43.4806 63.9794H43.4804Z" fill="white"/>
<path d="M45.3521 63.6547C45.722 63.5673 46.0387 63.4924 46.3911 63.409C46.4982 63.8176 46.6012 64.211 46.7148 64.6448C46.3567 64.7337 46.0211 64.8169 45.6414 64.911C45.5047 64.5045 45.4535 64.0912 45.3521 63.6547Z" fill="white"/>
<path d="M19.9348 53.87C19.5843 54.1282 19.2543 54.371 18.9049 54.6284C18.6846 54.3102 18.4849 54.022 18.2662 53.706C18.6297 53.4615 18.9684 53.2338 19.3263 52.993C19.5364 53.2957 19.7299 53.5744 19.9348 53.8698V53.87Z" fill="white"/>
<path d="M36.7959 65.2737C36.414 65.2146 36.0716 65.1616 35.6898 65.1026C35.7615 64.6692 35.828 64.2674 35.8986 63.8411C36.2498 63.8928 36.5714 63.9401 36.9301 63.9928C36.9429 64.4095 36.8471 64.8089 36.7959 65.2737Z" fill="white"/>
<path d="M33.7285 64.6921C33.8349 64.2637 33.9306 63.8786 34.0378 63.4467C34.3924 63.5275 34.7258 63.6035 35.0824 63.6847C34.9946 64.1157 34.9152 64.5045 34.8266 64.9397C34.4498 64.8548 34.1031 64.7765 33.7285 64.6921Z" fill="white"/>
<path d="M31.8079 64.1279C31.9509 63.6982 32.0773 63.3185 32.213 62.9107C32.5555 63.0168 32.8767 63.1165 33.2336 63.2271C33.1164 63.6412 33.0048 64.0345 32.8842 64.4602C32.5181 64.3471 32.1848 64.2442 31.8079 64.1278V64.1279Z" fill="white"/>
<path d="M41.5908 64.1542C41.9662 64.1284 42.2903 64.1062 42.6534 64.0812C42.6948 64.4977 42.7342 64.8923 42.7764 65.3178C42.4065 65.4328 42.0471 65.3901 41.6554 65.4376C41.6335 65.0033 41.6135 64.6061 41.5908 64.1542Z" fill="white"/>
<path d="M37.6682 65.371C37.7082 64.9345 37.7444 64.5385 37.7852 64.0933C38.1431 64.1165 38.4773 64.1382 38.8537 64.1627C38.8305 64.6005 38.8089 65.0071 38.7855 65.4455C38.3975 65.4196 38.0524 65.3966 37.6682 65.3708V65.371Z" fill="white"/>
<path d="M20.4308 54.529C20.6576 54.807 20.864 55.0602 21.0944 55.3427C20.8049 55.646 20.4726 55.8813 20.1372 56.1941C19.8944 55.8964 19.6683 55.6194 19.4244 55.3208C19.771 55.0481 20.0907 54.7966 20.4307 54.529H20.4308Z" fill="white"/>
<path d="M17.1414 48.9363C16.7411 49.109 16.3756 49.2665 15.9663 49.443C15.8295 49.1035 15.6988 48.7793 15.5537 48.4195C15.9401 48.2239 16.3318 48.1165 16.7404 47.9431C16.879 48.2864 17.0047 48.5978 17.1414 48.9363Z" fill="white"/>
<path d="M15.9257 45.3492C15.502 45.4599 15.1198 45.5597 14.6945 45.6709C14.6058 45.3086 14.5231 44.9703 14.4292 44.5863C14.851 44.4937 15.2444 44.4072 15.6747 44.3127C15.7593 44.6622 15.8358 44.9781 15.9255 45.3491L15.9257 45.3492Z" fill="white"/>
<path d="M17.2257 52.0094C17.6147 51.7885 17.9606 51.5921 18.3369 51.3784C18.5211 51.6878 18.6934 51.9772 18.8819 52.294C18.5175 52.5232 18.1745 52.739 17.7977 52.9761C17.6011 52.6437 17.4227 52.3424 17.2257 52.0094Z" fill="white"/>
<path d="M20.3755 23.6164C20.1628 23.9048 19.9675 24.1696 19.7507 24.4637C19.4041 24.217 19.0716 23.9801 18.7091 23.7219C18.9304 23.4217 19.1371 23.1416 19.3664 22.8304C19.7137 23.101 20.0358 23.3519 20.3753 23.6164H20.3755Z" fill="white"/>
<path d="M28.3584 15.3817C28.5574 15.7817 28.7355 16.1396 28.9299 16.5302C28.6293 16.694 28.3429 16.85 28.0094 17.0315C27.8077 16.669 27.6093 16.3127 27.3869 15.9132C27.7061 15.7386 28.0104 15.572 28.3584 15.3817Z" fill="white"/>
<path d="M16.4657 47.1655C16.058 47.3058 15.675 47.4375 15.2585 47.5807C15.1434 47.2209 15.037 46.888 14.9183 46.5171C15.335 46.3916 15.7225 46.2748 16.1387 46.1495C16.25 46.4956 16.3532 46.8163 16.4655 47.1655H16.4657Z" fill="white"/>
<path d="M16.815 51.2454C16.6387 50.8866 16.4847 50.573 16.3195 50.2368C16.7153 50.0503 17.075 49.8811 17.4719 49.6941C17.6292 50.0069 17.7799 50.3064 17.9511 50.6469C17.5767 50.844 17.2177 51.0333 16.8148 51.2454H16.815Z" fill="white"/>
<path d="M25.7421 18.4572C25.4589 18.6689 25.1966 18.8647 24.8987 19.0873C24.6438 18.7542 24.3953 18.4297 24.1187 18.0684C24.4161 17.8471 24.6952 17.6397 25.007 17.4076C25.2563 17.7636 25.4907 18.0986 25.7419 18.4572H25.7421Z" fill="white"/>
<path d="M26.6454 16.335C26.8698 16.7099 27.075 17.0528 27.3029 17.4337C27.013 17.6189 26.7314 17.7988 26.4149 18.0009C26.1771 17.6374 25.9536 17.2957 25.7123 16.9267C26.0296 16.7254 26.3232 16.5393 26.6454 16.335Z" fill="white"/>
<path d="M17.6316 25.3647C17.8393 25.0374 18.0214 24.7506 18.2244 24.4305C18.5804 24.667 18.918 24.891 19.2854 25.135C19.0988 25.4352 18.922 25.7197 18.7273 26.0332C18.3599 25.809 18.0139 25.5979 17.6316 25.3645V25.3647Z" fill="white"/>
<path d="M23.4494 18.6011C23.7339 18.9481 23.9873 19.2574 24.2629 19.5933C24.0006 19.8207 23.7534 20.0351 23.4683 20.2822C23.1873 19.9686 22.9145 19.6642 22.6131 19.3277C22.8894 19.0876 23.1537 18.8578 23.4493 18.6009L23.4494 18.6011Z" fill="white"/>
<path d="M31.9728 13.8888C32.1085 14.3077 32.2341 14.6951 32.368 15.1085C32.0259 15.2306 31.7207 15.3393 31.3839 15.4595C31.2325 15.0579 31.0887 14.6761 30.9315 14.2593C31.2851 14.1335 31.6114 14.0173 31.9728 13.8888Z" fill="white"/>
<path d="M33.8519 13.3557C33.9572 13.7837 34.052 14.1692 34.1568 14.5946C33.8183 14.6864 33.4968 14.7737 33.1456 14.8689C33.0237 14.4488 32.9103 14.0581 32.7875 13.6358C33.1588 13.538 33.492 13.4504 33.8517 13.3557H33.8519Z" fill="white"/>
<path d="M17.0427 29.3713C16.6478 29.2064 16.2739 29.0503 15.8618 28.8783C16.0134 28.5333 16.1529 28.2152 16.3071 27.8641C16.6975 28.0466 17.0641 28.218 17.4643 28.4051C17.3222 28.7308 17.1883 29.0378 17.0427 29.3713Z" fill="white"/>
<path d="M16.682 27.089C16.8587 26.7552 17.0171 26.4562 17.2003 26.1101C17.5748 26.3206 17.9278 26.519 18.315 26.7366C18.1486 27.0513 17.9918 27.3475 17.8215 27.6696C17.4372 27.4739 17.0755 27.2895 16.682 27.0891V27.089Z" fill="white"/>
<path d="M40.746 65.4594H39.6841V64.2162H40.746V65.4594Z" fill="white"/>
<path d="M29.1282 15.0156C29.4694 14.8647 29.7864 14.7247 30.1343 14.5709C30.3008 14.9716 30.4539 15.34 30.6242 15.7495C30.3087 15.8925 30.004 16.0306 29.6656 16.1839C29.4862 15.7941 29.3155 15.4226 29.1282 15.0154V15.0156Z" fill="white"/>
<path d="M21.5673 22.1878C21.3345 22.4568 21.119 22.7058 20.8825 22.9789C20.5528 22.7034 20.2396 22.4416 19.902 22.1593C20.1425 21.8789 20.3633 21.6215 20.611 21.3328C20.9582 21.5979 21.2537 21.8926 21.5673 22.1878Z" fill="white"/>
<path d="M21.9857 19.9066C22.2915 20.2284 22.5662 20.5176 22.8525 20.8188C22.6061 21.0689 22.3718 21.3067 22.1153 21.5669C21.8166 21.2812 21.5291 21.0061 21.2046 20.6958C21.4603 20.4376 21.704 20.1912 21.9857 19.9066Z" fill="white"/>
<path d="M53.0181 17.4585C52.8499 17.3582 52.7211 17.2813 52.5665 17.1892C52.7825 16.8099 52.9846 16.4551 53.2001 16.0768C53.3661 16.1755 53.5048 16.2581 53.6755 16.3598C53.4566 16.7255 53.2472 17.0757 53.0179 17.4587L53.0181 17.4585Z" fill="white"/>
<path d="M45.2697 40.7472C45.1046 40.7386 44.9372 40.7447 44.7751 40.7185C44.5155 40.6764 44.3356 40.7721 44.1548 40.9593C43.9915 41.1284 43.923 41.2939 43.9436 41.5249C43.9764 41.8916 43.9891 42.2601 44.006 42.6282C44.0262 43.0654 43.9254 43.2315 43.5305 43.4003C43.1396 43.5673 42.7468 43.7296 42.3527 43.8891C41.9447 44.0542 41.7828 44.015 41.4777 43.6802C41.2143 43.3912 40.9572 43.0963 40.6934 42.8079C40.4524 42.5444 39.8999 42.5465 39.6602 42.8103C39.3893 43.1086 39.125 43.4128 38.8521 43.709C38.5764 44.0081 38.4028 44.05 38.0332 43.9015C37.6169 43.7343 37.2065 43.5523 36.7901 43.3853C36.4745 43.2585 36.3321 43.0353 36.3545 42.6932C36.3815 42.2782 36.3986 41.8625 36.4177 41.4469C36.4335 41.1039 36.0586 40.7066 35.72 40.7186C35.3072 40.7333 34.8952 40.7678 34.4824 40.7813C34.0621 40.795 33.9146 40.6948 33.7506 40.3049C33.585 39.9111 33.4221 39.5162 33.2628 39.1198C33.1053 38.7281 33.1448 38.5461 33.4492 38.2635C33.7442 37.9895 34.0461 37.7231 34.3412 37.4493C34.61 37.1999 34.6077 36.664 34.3376 36.4145C34.042 36.1414 33.7397 35.8752 33.445 35.6009C33.1527 35.3288 33.1077 35.1414 33.2527 34.7758C33.4188 34.3565 33.596 33.9417 33.7653 33.5237C33.892 33.2111 34.114 33.0589 34.4541 33.0818C34.8309 33.1072 35.208 33.1294 35.5855 33.1454C36.1156 33.1679 36.4413 32.8331 36.4121 32.3092C36.3908 31.9296 36.3789 31.5493 36.3546 31.1698C36.3327 30.8271 36.4786 30.6071 36.7948 30.4813C37.2116 30.3156 37.6212 30.1318 38.0373 29.9648C38.4047 29.8174 38.5801 29.8616 38.8559 30.1624C39.1281 30.4594 39.3921 30.764 39.6633 31.0618C39.9089 31.3315 40.4463 31.3299 40.6946 31.0584C40.9585 30.7699 41.2153 30.4749 41.4796 30.1866C41.7871 29.8513 41.9457 29.8137 42.3554 29.9798C42.7494 30.1392 43.142 30.3019 43.5329 30.4686C43.9231 30.635 44.0262 30.8065 44.0055 31.2422C43.9865 31.6458 43.9585 32.0491 43.9451 32.4527C43.934 32.7877 44.3009 33.1591 44.6345 33.1481C45.0473 33.1344 45.4595 33.1001 45.8721 33.0848C46.2846 33.0695 46.442 33.174 46.6047 33.5603C46.7707 33.9539 46.9324 34.3493 47.0913 34.746C47.2563 35.1578 47.2172 35.3218 46.8852 35.627C46.5887 35.8995 46.2867 36.1655 45.9918 36.4397C45.7588 36.6563 45.7588 37.211 45.9926 37.4289C46.2958 37.7114 46.6076 37.9847 46.9119 38.2659C47.2084 38.5397 47.2523 38.7186 47.1048 39.0902C46.9384 39.5093 46.7567 39.9222 46.591 40.3416C46.4655 40.6591 46.2447 40.804 45.9055 40.7856C45.694 40.7742 45.4814 40.7836 45.2692 40.7836C45.2692 40.7713 45.2692 40.7592 45.2692 40.747L45.2697 40.7472ZM37.5396 31.4551C37.5581 31.8878 37.5689 32.3145 37.5973 32.74C37.6153 33.0091 37.5378 33.2264 37.3425 33.4113C37.1361 33.6067 36.9297 33.8039 36.7425 34.0175C36.5103 34.2823 36.2372 34.3749 35.8896 34.338C35.5053 34.2973 35.1167 34.2968 34.721 34.2784C34.624 34.5112 34.5388 34.7155 34.4488 34.9315C34.7525 35.2085 35.03 35.4841 35.3312 35.73C35.6044 35.9529 35.7215 36.2193 35.696 36.5693C35.6789 36.8059 35.6786 37.0457 35.6957 37.2823C35.722 37.6445 35.6039 37.9217 35.3173 38.1515C35.0149 38.3941 34.7389 38.67 34.4472 38.9349C34.545 39.168 34.6308 39.3724 34.7237 39.5937C35.1573 39.5708 35.5692 39.556 35.9799 39.5252C36.2588 39.5043 36.4869 39.5817 36.6789 39.791C36.8631 39.9916 37.0503 40.1925 37.2565 40.369C37.5354 40.6077 37.6234 40.8916 37.5937 41.255C37.562 41.641 37.5865 42.0317 37.5865 42.4466C37.7733 42.5225 37.9777 42.6054 38.1927 42.6926C38.4756 42.379 38.7548 42.0889 39.0106 41.7794C39.218 41.5288 39.4653 41.4201 39.7853 41.4386C40.0207 41.4523 40.2591 41.4582 40.4935 41.4373C40.8839 41.4023 41.1718 41.5478 41.414 41.853C41.6474 42.1471 41.9138 42.4146 42.1703 42.6989C42.4049 42.5971 42.6078 42.509 42.8239 42.4151C42.8004 41.9693 42.7831 41.5423 42.7534 41.1161C42.7354 40.8601 42.8134 40.6528 42.9982 40.4766C43.1953 40.2886 43.3983 40.1036 43.5719 39.8947C43.8342 39.5792 44.1491 39.4898 44.5484 39.5329C44.9068 39.5718 45.2726 39.5411 45.6607 39.5411C45.7359 39.3485 45.8164 39.1419 45.8998 38.9282C45.5659 38.6236 45.2545 38.3334 44.9358 38.0514C44.7452 37.8827 44.6516 37.6822 44.6587 37.425C44.6668 37.128 44.6734 36.8297 44.6569 36.5334C44.639 36.2089 44.7508 35.9641 44.9991 35.756C45.306 35.4989 45.5931 35.2179 45.9023 34.9346C45.8123 34.7115 45.7291 34.5052 45.6374 34.2784C45.2476 34.2961 44.8687 34.2916 44.4958 34.3366C44.1191 34.382 43.8289 34.276 43.5849 33.9871C43.4324 33.8065 43.2626 33.6379 43.0844 33.4826C42.8201 33.2526 42.7198 32.9792 42.7569 32.6279C42.7978 32.2404 42.8014 31.849 42.8218 31.4461C42.595 31.3515 42.3906 31.2665 42.1642 31.1721C41.9018 31.4638 41.633 31.7313 41.4018 32.0286C41.1585 32.3414 40.8601 32.4638 40.4758 32.4337C40.2644 32.4171 40.0498 32.4179 39.8385 32.4337C39.4781 32.4604 39.2029 32.3346 38.974 32.05C38.7303 31.7474 38.4575 31.4684 38.1937 31.1752C38.0469 31.233 37.9263 31.2781 37.8079 31.3282C37.722 31.3646 37.6389 31.4077 37.5389 31.4552L37.5396 31.4551Z" fill="white"/>
<path d="M12.4367 36.6469C12.4367 36.053 12.4361 35.4588 12.4373 34.8648C12.4375 34.7582 12.4367 34.6501 12.4516 34.545C12.5217 34.0492 12.9431 33.817 13.3897 34.0246C13.4217 34.0394 13.4519 34.0584 13.4825 34.0763C14.6062 34.7289 15.7313 35.3793 16.8518 36.0375C16.9699 36.1069 17.0846 36.2061 17.1606 36.319C17.3311 36.5719 17.27 36.9215 17.0358 37.1245C16.9563 37.1934 16.8609 37.2449 16.7692 37.2983C15.7175 37.9104 14.6652 38.5215 13.613 39.1329C13.562 39.1625 13.5082 39.1881 13.4593 39.221C13.0156 39.5176 12.4471 39.2306 12.4394 38.6429C12.4353 38.3223 12.437 38.0014 12.4367 37.6806C12.4364 37.3361 12.4367 36.9916 12.4367 36.6469ZM13.7697 35.7445C13.693 36.2211 13.7098 37.2599 13.801 37.5339C14.2982 37.2424 14.7967 36.9678 15.3281 36.6384C14.87 36.372 14.4734 36.1406 14.0759 35.9107C13.9852 35.8582 13.8918 35.8107 13.7695 35.7445H13.7697Z" fill="white"/>
<path d="M13.0063 41.1392H11.9401V40.174H13.0063V41.1392Z" fill="white"/>
<path d="M18.9148 41.1377H17.8412C17.8051 40.8232 17.8131 40.5123 17.8417 40.1751H18.9148V41.1377Z" fill="white"/>
<path d="M9.95446 41.1347V40.177H11.0268V41.1347H9.95446Z" fill="white"/>
<path d="M16.9649 41.1406H15.8734V40.169H16.9179C17.0089 40.4803 16.9347 40.7934 16.9649 41.1406Z" fill="white"/>
<path d="M18.9084 33.189H17.8468V32.2175H18.9084V33.189Z" fill="white"/>
<path d="M15.8689 33.2011V32.2216H16.9391V33.1924C16.5953 33.2188 16.251 33.2048 15.8689 33.2011Z" fill="white"/>
<path d="M13.0063 32.2245V33.1863H11.9519C11.8761 32.8746 11.9174 32.5628 11.9255 32.2245H13.0063Z" fill="white"/>
<path d="M11.0402 32.2228V33.1927C10.686 33.2179 10.3404 33.2063 9.97878 33.2001C9.88902 32.8719 9.96006 32.5595 9.92934 32.223H11.0402V32.2228Z" fill="white"/>
<path d="M14.9852 41.1366H13.9033V40.1688H14.9489C15.0265 40.4859 14.9681 40.7972 14.985 41.1366H14.9852Z" fill="white"/>
<path d="M14.9668 32.2232V33.1811H13.9217C13.8438 32.8735 13.8846 32.5609 13.8974 32.2232H14.9668Z" fill="white"/>
<path d="M66.2196 37.2611C66.2186 37.5482 66.1124 37.775 65.8485 37.9003C65.5201 38.0562 65.1578 37.9135 64.9938 37.5629C64.9338 37.4345 64.8937 37.2967 64.8428 37.1638C64.7967 37.0433 64.7482 36.9236 64.6961 36.7914C64.5047 36.7914 64.3284 36.7914 64.1521 36.7914C63.8341 36.7914 63.5164 36.7914 63.1788 36.7914C63.0832 37.0443 62.9951 37.2873 62.8997 37.5274C62.7994 37.7798 62.62 37.9352 62.3423 37.9538C61.9317 37.9813 61.6128 37.6431 61.6679 37.2319C61.6818 37.1275 61.7199 37.0251 61.7559 36.9251C62.2591 35.5302 62.7636 34.1359 63.2688 32.7418C63.3052 32.6416 63.3378 32.5372 63.3922 32.4472C63.6522 32.0165 64.2541 32.0297 64.4973 32.4714C64.554 32.5743 64.5909 32.6891 64.6311 32.8004C65.014 33.8602 65.3954 34.9206 65.7781 35.9805C65.8204 36.0976 65.8689 36.2124 65.9329 36.3197C65.9929 34.9716 67.0253 34.2105 68.3023 34.4638C68.3119 34.3726 68.3289 34.2837 68.3295 34.1948C68.3329 33.7315 68.3215 33.2678 68.3359 32.8049C68.349 32.3836 68.6244 32.124 69.0073 32.1396C69.3065 32.1518 69.5486 32.358 69.5982 32.6548C69.6156 32.7593 69.6122 32.8679 69.6122 32.9747C69.613 34.3528 69.6129 35.7312 69.6124 37.1093C69.6124 37.2044 69.6158 37.3004 69.6039 37.3941C69.5516 37.8077 69.1863 38.0435 68.7718 37.9224C68.646 37.8856 68.5423 37.8526 68.4022 37.8998C67.6029 38.1688 66.9169 37.9836 66.361 37.3393C66.3309 37.3044 66.3178 37.2546 66.2969 37.2116C66.2711 37.2282 66.2452 37.2446 66.2194 37.2612L66.2196 37.2611ZM67.7794 36.7249C68.0684 36.7181 68.2825 36.4864 68.2706 36.1929C68.2594 35.9146 68.0465 35.7086 67.7687 35.7077C67.4777 35.7065 67.2543 35.9309 67.2573 36.2211C67.2604 36.5099 67.4903 36.7317 67.7794 36.7249ZM63.9778 34.7745C63.9505 34.7771 63.9229 34.7795 63.8956 34.7821C63.8133 35.0111 63.7312 35.2401 63.6423 35.488H64.2313C64.1397 35.2306 64.0588 35.0025 63.9778 34.7745Z" fill="white"/>
<path d="M25.9125 66.6876C25.0993 66.6876 24.2862 66.6876 23.4731 66.6876C23.4024 66.6876 23.3317 66.6896 23.2609 66.687C22.9089 66.6736 22.6819 66.4742 22.6629 66.1629C22.6427 65.8348 22.8635 65.59 23.2184 65.5522C23.3001 65.5435 23.3832 65.5468 23.4656 65.5468C25.1037 65.5465 26.7416 65.5465 28.3797 65.5472C28.4856 65.5472 28.5934 65.5428 28.697 65.5604C29.0046 65.6126 29.212 65.8659 29.1954 66.1556C29.1784 66.4513 28.9534 66.6773 28.6344 66.6839C28.1162 66.6949 27.5974 66.6873 27.0789 66.6875C26.6899 66.6875 26.3011 66.6875 25.9121 66.6875L25.9125 66.6876Z" fill="white"/>
<path d="M25.941 59.7663C26.7894 59.7663 27.6378 59.765 28.4862 59.7666C28.9334 59.7674 29.1947 59.9754 29.1954 60.3286C29.196 60.6455 28.9294 60.9105 28.4918 60.9066C26.7834 60.8918 25.0747 60.9007 23.3661 60.9005C23.3189 60.9005 23.2717 60.9021 23.2248 60.8984C22.8838 60.8715 22.6637 60.65 22.6621 60.3345C22.6605 60.0055 22.8926 59.7715 23.2542 59.7686C24.1497 59.7616 25.0453 59.7663 25.941 59.7662V59.7663Z" fill="white"/>
<path d="M25.9155 64.762C25.0905 64.762 24.2656 64.7622 23.4408 64.7617C23.3465 64.7617 23.2512 64.7664 23.1584 64.7541C22.8776 64.7166 22.6824 64.5079 22.6637 64.2355C22.644 63.9461 22.8229 63.7008 23.1105 63.6388C23.2014 63.6191 23.2979 63.622 23.3918 63.622C25.0771 63.6211 26.7622 63.6204 28.4475 63.6233C28.5749 63.6235 28.709 63.6322 28.8283 63.6721C29.0664 63.752 29.209 63.9828 29.196 64.222C29.1823 64.4757 28.9974 64.6966 28.7429 64.7456C28.64 64.7654 28.5317 64.7614 28.4259 64.7615C27.5893 64.7627 26.7525 64.7622 25.9158 64.7622L25.9155 64.762Z" fill="white"/>
<path d="M25.9408 61.6916C26.7893 61.6916 27.6378 61.6898 28.4862 61.6924C28.9286 61.6937 29.1936 61.9092 29.1963 62.259C29.1984 62.5294 28.9754 62.8422 28.4923 62.838C26.7837 62.8232 25.0749 62.8322 23.3661 62.8321C23.3189 62.8321 23.2717 62.8335 23.2248 62.8298C22.8859 62.8026 22.6632 62.5787 22.6616 62.2651C22.66 61.9507 22.8821 61.7113 23.2187 61.6968C23.5598 61.6819 23.9021 61.6918 24.2438 61.6916C24.8094 61.6913 25.3752 61.6916 25.9408 61.6916Z" fill="white"/>
<path d="M40.1327 40.1551C38.3626 40.128 36.957 38.6768 36.9767 36.8964C36.9964 35.1024 38.4436 33.6925 40.2423 33.7149C42.0137 33.7371 43.4143 35.2142 43.3807 37.0245C43.3482 38.769 41.8825 40.1818 40.1329 40.1551H40.1327ZM38.1383 36.9291C38.1372 38.0618 39.0717 39.0003 40.1911 38.9905C41.3036 38.9808 42.215 38.0585 42.2186 36.9388C42.2223 35.8053 41.2918 34.8724 40.1652 34.8801C39.0516 34.8879 38.1394 35.8099 38.1381 36.9291H38.1383Z" fill="white"/>
</svg>
