<svg width="15" height="16" viewBox="0 0 15 16" fill="none" xmlns="http://www.w3.org/2000/svg">
<path d="M12.549 1.6H11.7647V0H10.1961V1.6H3.92157V0H2.35294V1.6H1.56863C0.698039 1.6 0.00784313 2.32 0.00784313 3.2L0 14.4C0 15.28 0.698039 16 1.56863 16H12.549C13.4118 16 14.1176 15.28 14.1176 14.4V3.2C14.1176 2.32 13.4118 1.6 12.549 1.6ZM12.549 14.4H1.56863V6.4H12.549V14.4ZM12.549 4.8H1.56863V3.2H12.549V4.8ZM4.70588 9.6H3.13725V8H4.70588V9.6ZM7.84314 9.6H6.27451V8H7.84314V9.6ZM10.9804 9.6H9.41177V8H10.9804V9.6ZM4.70588 12.8H3.13725V11.2H4.70588V12.8ZM7.84314 12.8H6.27451V11.2H7.84314V12.8ZM10.9804 12.8H9.41177V11.2H10.9804V12.8Z" fill="#46494F"/>
</svg>
