<svg width="17" height="18" viewBox="0 0 17 18" fill="none" xmlns="http://www.w3.org/2000/svg">
<path fill-rule="evenodd" clip-rule="evenodd" d="M5 9.5H4V10.5H5V9.5ZM4 8.5C3.4477 8.5 3 8.9477 3 9.5V10.5C3 11.0523 3.4477 11.5 4 11.5H5C5.5523 11.5 6 11.0523 6 10.5V9.5C6 8.9477 5.5523 8.5 5 8.5H4Z" fill="#979797"/>
<path fill-rule="evenodd" clip-rule="evenodd" d="M9 9.5H8V10.5H9V9.5ZM8 8.5C7.4477 8.5 7 8.9477 7 9.5V10.5C7 11.0523 7.4477 11.5 8 11.5H9C9.5523 11.5 10 11.0523 10 10.5V9.5C10 8.9477 9.5523 8.5 9 8.5H8Z" fill="#979797"/>
<path fill-rule="evenodd" clip-rule="evenodd" d="M13 9.5H12V10.5H13V9.5ZM12 8.5C11.4477 8.5 11 8.9477 11 9.5V10.5C11 11.0523 11.4477 11.5 12 11.5H13C13.5523 11.5 14 11.0523 14 10.5V9.5C14 8.9477 13.5523 8.5 13 8.5H12Z" fill="#979797"/>
<path fill-rule="evenodd" clip-rule="evenodd" d="M5 13.5H4V14.5H5V13.5ZM4 12.5C3.4477 12.5 3 12.9477 3 13.5V14.5C3 15.0523 3.4477 15.5 4 15.5H5C5.5523 15.5 6 15.0523 6 14.5V13.5C6 12.9477 5.5523 12.5 5 12.5H4Z" fill="#979797"/>
<path fill-rule="evenodd" clip-rule="evenodd" d="M9 13.5H8V14.5H9V13.5ZM8 12.5C7.4477 12.5 7 12.9477 7 13.5V14.5C7 15.0523 7.4477 15.5 8 15.5H9C9.5523 15.5 10 15.0523 10 14.5V13.5C10 12.9477 9.5523 12.5 9 12.5H8Z" fill="#979797"/>
<path fill-rule="evenodd" clip-rule="evenodd" d="M13 13.5H12V14.5H13V13.5ZM12 12.5C11.4477 12.5 11 12.9477 11 13.5V14.5C11 15.0523 11.4477 15.5 12 15.5H13C13.5523 15.5 14 15.0523 14 14.5V13.5C14 12.9477 13.5523 12.5 13 12.5H12Z" fill="#979797"/>
<path fill-rule="evenodd" clip-rule="evenodd" d="M1.5 2.5C1.22386 2.5 1 2.72385 1 3V16.5C1 16.7761 1.22386 17 1.5 17H15.5C15.7754 17 16 16.7757 16 16.4989V3.0011C16 2.72425 15.7754 2.5 15.5 2.5H14V1.5H15.5C16.3291 1.5 17 2.17335 17 3.0011V16.4989C17 17.3266 16.3291 18 15.5 18H1.5C0.671575 18 0 17.3284 0 16.5V3C0 2.17155 0.671575 1.5 1.5 1.5H4V2.5H1.5ZM12 2.5H6V1.5H12V2.5Z" fill="#979797"/>
<path fill-rule="evenodd" clip-rule="evenodd" d="M16 7H1V6H16V7Z" fill="#979797"/>
<path d="M4 0.5C4 0.22386 4.22385 0 4.5 0C4.77615 0 5 0.22386 5 0.5V4C5 4.27615 4.77615 4.5 4.5 4.5C4.22385 4.5 4 4.27615 4 4V0.5Z" fill="#979797"/>
<path d="M12 0.5C12 0.22386 12.2239 0 12.5 0C12.7761 0 13 0.22386 13 0.5V4C13 4.27615 12.7761 4.5 12.5 4.5C12.2239 4.5 12 4.27615 12 4V0.5Z" fill="#979797"/>
</svg>
