<svg width="36" height="36" viewBox="0 0 36 36" fill="none" xmlns="http://www.w3.org/2000/svg">
<path d="M9.93696 34.6973C9.84175 33.8433 9.75767 33.0543 9.6655 32.2664C9.5561 31.3234 9.43151 30.3834 9.32819 29.4395C9.05165 26.9095 10.878 24.5046 13.2483 24.2876C13.5076 24.2636 13.7872 24.3056 14.0384 24.3786C16.5586 25.1136 19.101 25.2096 21.6212 24.4716C22.9877 24.0716 24.0969 24.4396 25.0653 25.3066C26.3031 26.4156 26.8166 27.8565 26.6586 29.4955C26.5127 31.0024 26.3041 32.5044 26.1268 34.0083C26.1025 34.2173 26.0974 34.4293 26.0802 34.6973C26.6687 34.6973 27.2046 34.6943 27.7404 34.6973C28.2854 34.7013 28.5903 34.9293 28.5984 35.3333C28.6075 35.7563 28.2945 35.9992 27.7222 35.9992C21.0925 36.0002 14.4628 36.0002 7.8341 35.9992C7.25267 35.9992 6.95284 35.7653 6.96297 35.3343C6.97208 34.9123 7.24659 34.7023 7.81283 34.6983C8.4996 34.6943 9.18739 34.6973 9.93899 34.6973H9.93696ZM13.7456 34.6783C13.7456 34.4363 13.7456 34.2413 13.7456 34.0453C13.7456 32.7963 13.7416 31.5474 13.7456 30.2984C13.7477 29.7494 13.9756 29.4765 14.4071 29.4765C14.8285 29.4765 15.0614 29.7624 15.0625 30.3024C15.0665 31.5844 15.0625 32.8673 15.0655 34.1493C15.0655 34.3243 15.0827 34.4983 15.0908 34.6553H20.9345C20.9345 33.1653 20.9314 31.7184 20.9355 30.2714C20.9365 29.7604 21.1634 29.4865 21.5696 29.4775C22.0092 29.4675 22.2493 29.7374 22.2513 30.2774C22.2564 31.5434 22.2523 32.8083 22.2523 34.0743C22.2523 34.2673 22.2523 34.4603 22.2523 34.6963C23.0323 34.6963 23.7383 34.7143 24.4423 34.6783C24.5578 34.6723 24.7411 34.4413 24.7593 34.2973C24.9731 32.6294 25.1888 30.9614 25.3458 29.2875C25.4573 28.0935 25.048 27.0445 24.1414 26.2366C23.556 25.7146 22.8884 25.4706 22.0497 25.7126C19.3077 26.5015 16.5586 26.4415 13.8135 25.6796C13.538 25.6026 13.2057 25.6006 12.9292 25.6726C11.502 26.0396 10.4728 27.7015 10.6481 29.3225C10.7676 30.4314 10.9033 31.5384 11.035 32.6464C11.115 33.3193 11.2011 33.9923 11.2862 34.6783H13.7456Z" fill="#F9E9B3"/>
<path d="M22.5552 17.7418C22.5602 20.2357 20.506 22.2727 17.9959 22.2647C15.493 22.2567 13.458 20.2527 13.4448 17.7838C13.4316 15.2929 15.4676 13.278 18.004 13.272C20.5019 13.266 22.5501 15.2779 22.5542 17.7418H22.5552ZM18.0283 14.5819C16.2456 14.5679 14.7839 15.9759 14.7657 17.7228C14.7484 19.4978 16.1969 20.9457 17.9969 20.9507C19.7666 20.9567 21.2252 19.5258 21.2333 17.7778C21.2414 16.0239 19.8081 14.5949 18.0273 14.5819H18.0283Z" fill="#F9E9B3"/>
<path d="M17.3365 8.35112C17.3365 7.86814 17.3203 7.38515 17.3416 6.90417C17.3547 6.59218 17.2565 6.45218 16.9344 6.34419C15.5203 5.8692 14.6117 4.53224 14.6958 3.12429C14.7849 1.62634 15.7999 0.419374 17.2504 0.0863848C18.9613 -0.305603 20.6539 0.669366 21.1674 2.34331C21.6658 3.96726 20.7977 5.71021 19.1507 6.30519C18.7678 6.44318 18.6391 6.61118 18.6523 7.00817C18.6827 7.97214 18.6705 8.9381 18.6574 9.90307C18.6503 10.4161 18.3565 10.728 17.9453 10.677C17.5229 10.6241 17.3406 10.3491 17.3365 9.94807C17.3314 9.41609 17.3355 8.88311 17.3345 8.35112H17.3365ZM17.998 5.21022C19.0899 5.21022 19.9661 4.36125 19.9803 3.28928C19.9935 2.20232 19.1021 1.30935 18 1.30635C16.9263 1.30435 16.0308 2.17432 16.0146 3.23629C15.9974 4.32125 16.8898 5.20922 17.998 5.20922V5.21022Z" fill="#F9E9B3"/>
<path d="M9.45278 11.311C7.4897 12.171 5.85886 11.828 4.86111 10.3581C3.97378 9.0511 4.16826 7.31016 5.32707 6.19719C6.45042 5.11823 8.23522 4.98323 9.51558 5.8822C10.9509 6.88917 11.2801 8.51112 10.3806 10.4091C11.1657 11.168 11.977 11.942 12.7732 12.731C12.9211 12.877 13.1095 13.096 13.0933 13.263C13.071 13.49 12.9089 13.832 12.7337 13.8849C12.5007 13.9549 12.1178 13.8779 11.9365 13.715C11.1758 13.031 10.4677 12.291 9.73944 11.573C9.64524 11.48 9.54394 11.394 9.45278 11.311ZM7.61935 10.5031C8.72447 10.4991 9.60776 9.61108 9.59256 8.51912C9.57737 7.45215 8.68902 6.59218 7.60821 6.59618C6.50309 6.60018 5.62285 7.48715 5.63703 8.58112C5.65121 9.65008 6.53652 10.5081 7.62037 10.5031H7.61935Z" fill="#F9E9B3"/>
<path d="M26.5006 11.285C25.826 11.967 25.1321 12.67 24.4372 13.372C24.3076 13.503 24.1779 13.635 24.0432 13.761C23.7423 14.0409 23.4182 14.0859 23.0951 13.808C22.7922 13.548 22.7902 13.166 23.1123 12.84C23.8072 12.136 24.5142 11.444 25.2243 10.754C25.355 10.6271 25.5231 10.5371 25.6355 10.4571C24.7209 8.45912 25.0592 6.84717 26.5208 5.8552C27.8387 4.96123 29.6053 5.13223 30.7398 6.26319C31.8641 7.38415 32.01 9.1451 31.0842 10.4341C30.0722 11.843 28.4373 12.163 26.5006 11.284V11.285ZM28.3715 6.59718C27.2674 6.60518 26.3892 7.49615 26.4074 8.58912C26.4246 9.65608 27.318 10.5141 28.3988 10.5031C29.509 10.4911 30.3802 9.60808 30.3619 8.51212C30.3437 7.44315 29.4564 6.58918 28.3715 6.59818V6.59718Z" fill="#F9E9B3"/>
<path d="M6.58919 19.1958C7.73382 19.1958 8.87844 19.1988 10.0231 19.1938C10.4475 19.1918 10.7564 19.3328 10.8121 19.7848C10.8648 20.2077 10.5599 20.4907 10.0433 20.4957C9.0314 20.5047 8.01947 20.5097 7.00754 20.4917C6.69353 20.4857 6.54462 20.5657 6.4332 20.8817C5.88722 22.4337 4.35363 23.3347 2.78053 23.0667C1.17401 22.7927 0.00304465 21.4387 5.82068e-06 19.8518C-0.003033 18.2688 1.18413 16.8839 2.76736 16.6249C4.37997 16.3609 5.89431 17.2698 6.4565 18.8408C6.496 18.9498 6.53753 19.0578 6.58818 19.1968L6.58919 19.1958ZM3.34474 17.8948C2.25481 17.8778 1.36646 18.7128 1.33304 19.7858C1.29961 20.8727 2.17783 21.7817 3.27789 21.7987C4.35971 21.8147 5.2592 20.9687 5.29263 19.9028C5.32707 18.8178 4.44885 17.9118 3.34474 17.8948Z" fill="#F9E9B3"/>
<path d="M29.3875 20.4977C28.2408 20.4977 27.079 20.5077 25.9171 20.4937C25.3225 20.4867 24.965 19.9468 25.2881 19.5258C25.4238 19.3488 25.7318 19.2178 25.9658 19.2118C27.1104 19.1798 28.257 19.1978 29.3905 19.1978C30.293 17.1508 31.6099 16.3009 33.3197 16.6429C34.8766 16.9548 35.9919 18.2848 36 19.8408C36.0081 21.3657 34.905 22.7097 33.3785 23.0337C31.6362 23.4036 30.3528 22.5957 29.3875 20.4987V20.4977ZM34.6649 19.8548C34.671 18.7818 33.8069 17.9098 32.7231 17.8948C31.6149 17.8798 30.7185 18.7418 30.7053 19.8358C30.6932 20.8917 31.5775 21.7837 32.6522 21.7987C33.7593 21.8147 34.6588 20.9457 34.6649 19.8548Z" fill="#F9E9B3"/>
</svg>
