<svg width="32" height="32" viewBox="0 0 32 32" fill="none" xmlns="http://www.w3.org/2000/svg"><mask id="a" maskUnits="userSpaceOnUse" x="0" y="0" width="32" height="32" fill="#000"><path fill="#fff" d="M0 0h32v32H0z"/><path d="m19.967 13.84.785-.139c4.816-.835 9.318 2.336 10.126 7.134.818 4.856-2.569 9.494-7.43 10.087-3.435.418-6.189-.853-8.234-3.625-1.574-2.132-1.9-4.523-1.346-7.071.023-.108.101-.228-.003-.322-.107-.095-.214.009-.318.04-2.118.645-4.217.552-6.244-.308-3.266-1.386-5.293-3.823-5.928-7.338a9.1 9.1 0 0 1 .62-5.352c1.41-3.216 3.856-5.2 7.314-5.796 2.953-.508 5.618.281 7.866 2.263 2.26 1.993 3.336 4.547 3.295 7.56-.01.784-.149 1.554-.361 2.31-.048.172-.089.346-.142.557M30.3 22.283a9 9 0 0 0-.1-1.31c-.404-2.496-1.737-4.37-3.9-5.632-1.99-1.162-4.115-1.43-6.337-.73-.216.068-.404.162-.513.377-.98 1.935-2.437 3.393-4.38 4.361a.7.7 0 0 0-.371.448c-.368 1.152-.496 2.325-.34 3.528.564 4.322 4.49 7.412 8.832 6.945 4-.429 7.132-3.948 7.108-7.986M10.89 1.705c-4.785-.063-8.885 3.927-8.96 8.722-.08 5.09 3.795 9.163 8.857 9.21 4.895.047 8.932-3.87 8.995-8.88.061-4.95-3.907-8.985-8.892-9.052m1.08 28.786c-2.89-.067-5.368-.96-7.333-3.069-.848-.91-1.48-1.958-1.964-3.1q-.202-.476-.715-.436c-.252.02-.498.015-.706-.157-.32-.264-.34-.674-.034-1.07.367-.475.749-.94 1.124-1.408l1.411-1.765c.467-.581.808-.619 1.365-.131 1.018.89 2.032 1.79 3.045 2.687.253.224.396.492.284.838-.111.349-.387.475-.723.508-.17.017-.341.047-.512.047-.243 0-.304.108-.236.325.27.855.66 1.642 1.287 2.298 1.245 1.302 2.78 2.15 4.425 2.825.159.065.322.12.474.2.324.171.447.434.384.783-.058.318-.277.518-.637.555-.332.034-.666.05-.94.07m.711-.808-.756-.338c-1.589-.727-3.078-1.596-4.254-2.926-.79-.895-1.314-1.911-1.483-3.1-.038-.264.075-.427.339-.509.261-.08.53-.048.795-.06.094-.005.207.019.256-.083.062-.129-.057-.187-.131-.254-.858-.784-1.72-1.565-2.576-2.351-.346-.318-.42-.311-.718.06-.68.848-1.366 1.69-2.047 2.534-.102.125-.33.216-.218.416.1.181.312.068.475.078l.029-.005c.415-.066.634.065.752.463.359 1.2.994 2.252 1.816 3.178 2.054 2.314 4.704 3.108 7.721 2.896"/><path d="M19.444 1.474c2.413.083 4.563.743 6.401 2.266 1.484 1.229 2.436 2.81 3.051 4.615l.112.324c.062.178.186.252.374.24.133-.008.268-.011.4.002.317.033.559.175.676.491.115.311 0 .56-.208.78q-.625.67-1.257 1.333c-.554.579-1.107 1.158-1.67 1.73-.419.426-.759.429-1.174-.003-.978-1.018-1.946-2.046-2.922-3.067-.218-.228-.3-.482-.195-.783.107-.307.347-.447.653-.48.17-.017.343-.01.514-.004.335.013.418-.065.356-.403-.162-.892-.561-1.675-1.133-2.373-1.038-1.27-2.337-2.207-3.79-2.944q-.345-.175-.681-.364-.536-.3-.396-.826c.095-.36.327-.526.745-.535.067-.002.134 0 .142 0zm.041.734c.032.117.108.124.162.155.583.325 1.164.653 1.72 1.023 1.3.865 2.44 1.891 3.233 3.257.458.788.715 1.635.696 2.558-.006.25-.098.405-.36.418-.294.013-.59.013-.885.022-.073.003-.174-.035-.211.04-.047.096.063.145.117.203q1.226 1.318 2.452 2.64c.328.355.346.346.672-.007.744-.805 1.502-1.596 2.246-2.401.113-.122.391-.178.293-.4-.092-.21-.326-.068-.495-.07-.49-.008-.564-.055-.71-.522-.1-.317-.19-.64-.304-.952-1.05-2.876-3.023-4.774-5.987-5.6-.853-.238-1.723-.4-2.639-.364m1.056 21.577c.003-.23.075-.387.323-.401s.328.138.364.349c.107.628.372.937.871 1.025.615.108 1.17-.274 1.263-.871a1.06 1.06 0 0 0-.963-1.244c-.525-.053-1.007-.176-1.386-.583-.796-.851-.545-2.286.503-2.79.237-.115.469-.2.489-.524.009-.157.166-.191.31-.186.16.005.297.07.305.239.01.244.152.337.355.42.663.271.998.798 1.096 1.489.039.267-.07.434-.298.47-.265.04-.352-.13-.39-.347-.044-.246-.1-.485-.268-.683a1.06 1.06 0 0 0-1.221-.299c-.398.166-.687.623-.662 1.05.028.482.349.882.808.995.138.033.282.048.424.062.83.08 1.45.666 1.592 1.514.125.738-.3 1.519-1.018 1.841-.227.103-.429.19-.433.493-.002.163-.163.198-.297.209-.147.011-.284-.053-.3-.205-.03-.287-.224-.394-.447-.5-.648-.304-.97-.83-1.02-1.522zm-8.205-12.776c-.38-.035-.7.057-.99.335-.302.29-.854.21-1.157-.124-.31-.341-.343-.872-.019-1.163.288-.258.377-.548.35-.913-.018-.246-.005-.495-.002-.742.002-.217.087-.383.325-.388.233-.005.345.144.345.367 0 .274.023.547-.032.824-.096.485.45 1.126.944 1.131.21.003.42-.003.63.007.199.01.315.113.315.327 0 .21-.11.32-.31.336-.132.01-.266.002-.4.002zm-4.624 4.543c.117-.411.335-.797.65-1.123.1-.103.233-.06.345.006.105.063.173.16.142.286-.104.426-.33.786-.622 1.106-.095.104-.225.08-.345.025-.116-.052-.172-.144-.17-.3m-.926-6.876c-.384-.153-.792-.337-1.104-.668-.088-.093-.054-.235.03-.343.092-.116.221-.177.354-.123.362.148.714.315 1 .593.1.097.142.198.073.33-.067.129-.167.204-.353.213zm8.914 5.151c-.128-.01-.25-.088-.373-.16-.222-.13-.442-.261-.655-.405-.147-.1-.172-.24-.09-.4.083-.162.212-.225.378-.164.369.137.712.318 1.003.59.102.096.13.208.072.336-.062.133-.163.208-.336.203m-.744-5.144c-.23-.022-.346-.108-.406-.264-.056-.14.019-.242.12-.322q.431-.336.935-.548c.13-.055.269-.038.362.086.082.109.154.24.056.366-.285.371-.743.464-1.067.682m-8.95 5.171c-.177-.023-.289-.11-.346-.25-.056-.135-.02-.259.108-.349.293-.21.594-.406.929-.545.144-.06.282-.055.381.083.081.112.137.242.038.367-.289.364-.74.463-1.11.694m6.864.908c-.012-.21.073-.305.2-.369.133-.067.244-.016.33.084.262.306.464.645.582 1.032.04.133.007.246-.109.325-.112.077-.234.087-.343-.001a1.98 1.98 0 0 1-.66-1.07zm-7.145-3.753c-.161 0-.323.004-.485-.001-.215-.008-.334-.12-.334-.34-.002-.21.115-.316.318-.32q.483-.01.968-.002c.213.004.341.118.339.337-.002.223-.142.32-.35.328-.153.005-.305 0-.457 0zm7.134-4.359a.42.42 0 0 1 .06-.249c.16-.269.314-.54.482-.804.1-.156.247-.2.418-.107.155.085.202.203.147.38-.12.378-.308.71-.58.997-.101.107-.213.115-.336.064s-.201-.141-.191-.28m-4.006-.083c0 .202-.07.324-.22.375-.147.049-.288.025-.375-.121-.17-.286-.34-.571-.5-.863-.102-.186-.062-.35.127-.463.183-.11.337-.052.44.114.2.32.438.622.528.958m7.153 3.775c.162 0 .325-.007.486.001.187.01.3.115.313.306.014.206-.094.34-.293.35a11 11 0 0 1-1.028.002c-.197-.01-.314-.143-.305-.346.008-.187.123-.298.312-.309.171-.01.343-.002.514-.002zm-5.485 5.496c0-.162-.007-.324 0-.486.01-.2.11-.319.32-.33.198-.01.323.1.333.28q.03.542 0 1.083c-.009.186-.146.287-.337.274-.184-.013-.303-.116-.313-.307-.009-.171-.001-.343-.001-.514zm.663-10.309c0 .16.012.323-.003.483-.017.194-.12.319-.332.315-.21-.004-.316-.12-.321-.322q-.013-.485-.002-.969c.004-.195.098-.32.317-.321.226-.002.333.117.344.329.008.161.001.323.001.484z"/></mask><path d="m19.967 13.84.785-.139c4.816-.835 9.318 2.336 10.126 7.134.818 4.856-2.569 9.494-7.43 10.087-3.435.418-6.189-.853-8.234-3.625-1.574-2.132-1.9-4.523-1.346-7.071.023-.108.101-.228-.003-.322-.107-.095-.214.009-.318.04-2.118.645-4.217.552-6.244-.308-3.266-1.386-5.293-3.823-5.928-7.338a9.1 9.1 0 0 1 .62-5.352c1.41-3.216 3.856-5.2 7.314-5.796 2.953-.508 5.618.281 7.866 2.263 2.26 1.993 3.336 4.547 3.295 7.56-.01.784-.149 1.554-.361 2.31-.048.172-.089.346-.142.557M30.3 22.283a9 9 0 0 0-.1-1.31c-.404-2.496-1.737-4.37-3.9-5.632-1.99-1.162-4.115-1.43-6.337-.73-.216.068-.404.162-.513.377-.98 1.935-2.437 3.393-4.38 4.361a.7.7 0 0 0-.371.448c-.368 1.152-.496 2.325-.34 3.528.564 4.322 4.49 7.412 8.832 6.945 4-.429 7.132-3.948 7.108-7.986M10.89 1.705c-4.785-.063-8.885 3.927-8.96 8.722-.08 5.09 3.795 9.163 8.857 9.21 4.895.047 8.932-3.87 8.995-8.88.061-4.95-3.907-8.985-8.892-9.052m1.08 28.786c-2.89-.067-5.368-.96-7.333-3.069-.848-.91-1.48-1.958-1.964-3.1q-.202-.476-.715-.436c-.252.02-.498.015-.706-.157-.32-.264-.34-.674-.034-1.07.367-.475.749-.94 1.124-1.408l1.411-1.765c.467-.581.808-.619 1.365-.131 1.018.89 2.032 1.79 3.045 2.687.253.224.396.492.284.838-.111.349-.387.475-.723.508-.17.017-.341.047-.512.047-.243 0-.304.108-.236.325.27.855.66 1.642 1.287 2.298 1.245 1.302 2.78 2.15 4.425 2.825.159.065.322.12.474.2.324.171.447.434.384.783-.058.318-.277.518-.637.555-.332.034-.666.05-.94.07m.711-.808-.756-.338c-1.589-.727-3.078-1.596-4.254-2.926-.79-.895-1.314-1.911-1.483-3.1-.038-.264.075-.427.339-.509.261-.08.53-.048.795-.06.094-.005.207.019.256-.083.062-.129-.057-.187-.131-.254-.858-.784-1.72-1.565-2.576-2.351-.346-.318-.42-.311-.718.06-.68.848-1.366 1.69-2.047 2.534-.102.125-.33.216-.218.416.1.181.312.068.475.078l.029-.005c.415-.066.634.065.752.463.359 1.2.994 2.252 1.816 3.178 2.054 2.314 4.704 3.108 7.721 2.896" fill="#F9E9B3"/><path d="M19.444 1.474c2.413.083 4.563.743 6.401 2.266 1.484 1.229 2.436 2.81 3.051 4.615l.112.324c.062.178.186.252.374.24.133-.008.268-.011.4.002.317.033.559.175.676.491.115.311 0 .56-.208.78q-.625.67-1.257 1.333c-.554.579-1.107 1.158-1.67 1.73-.419.426-.759.429-1.174-.003-.978-1.018-1.946-2.046-2.922-3.067-.218-.228-.3-.482-.195-.783.107-.307.347-.447.653-.48.17-.017.343-.01.514-.004.335.013.418-.065.356-.403-.162-.892-.561-1.675-1.133-2.373-1.038-1.27-2.337-2.207-3.79-2.944q-.345-.175-.681-.364-.536-.3-.396-.826c.095-.36.327-.526.745-.535.067-.002.134 0 .142 0zm.041.734c.032.117.108.124.162.155.583.325 1.164.653 1.72 1.023 1.3.865 2.44 1.891 3.233 3.257.458.788.715 1.635.696 2.558-.006.25-.098.405-.36.418-.294.013-.59.013-.885.022-.073.003-.174-.035-.211.04-.047.096.063.145.117.203q1.226 1.318 2.452 2.64c.328.355.346.346.672-.007.744-.805 1.502-1.596 2.246-2.401.113-.122.391-.178.293-.4-.092-.21-.326-.068-.495-.07-.49-.008-.564-.055-.71-.522-.1-.317-.19-.64-.304-.952-1.05-2.876-3.023-4.774-5.987-5.6-.853-.238-1.723-.4-2.639-.364m1.056 21.577c.003-.23.075-.387.323-.401s.328.138.364.349c.107.628.372.937.871 1.025.615.108 1.17-.274 1.263-.871a1.06 1.06 0 0 0-.963-1.244c-.525-.053-1.007-.176-1.386-.583-.796-.851-.545-2.286.503-2.79.237-.115.469-.2.489-.524.009-.157.166-.191.31-.186.16.005.297.07.305.239.01.244.152.337.355.42.663.271.998.798 1.096 1.489.039.267-.07.434-.298.47-.265.04-.352-.13-.39-.347-.044-.246-.1-.485-.268-.683a1.06 1.06 0 0 0-1.221-.299c-.398.166-.687.623-.662 1.05.028.482.349.882.808.995.138.033.282.048.424.062.83.08 1.45.666 1.592 1.514.125.738-.3 1.519-1.018 1.841-.227.103-.429.19-.433.493-.002.163-.163.198-.297.209-.147.011-.284-.053-.3-.205-.03-.287-.224-.394-.447-.5-.648-.304-.97-.83-1.02-1.522zm-8.205-12.776c-.38-.035-.7.057-.99.335-.302.29-.854.21-1.157-.124-.31-.341-.343-.872-.019-1.163.288-.258.377-.548.35-.913-.018-.246-.005-.495-.002-.742.002-.217.087-.383.325-.388.233-.005.345.144.345.367 0 .274.023.547-.032.824-.096.485.45 1.126.944 1.131.21.003.42-.003.63.007.199.01.315.113.315.327 0 .21-.11.32-.31.336-.132.01-.266.002-.4.002zm-4.624 4.543c.117-.411.335-.797.65-1.123.1-.103.233-.06.345.006.105.063.173.16.142.286-.104.426-.33.786-.622 1.106-.095.104-.225.08-.345.025-.116-.052-.172-.144-.17-.3m-.926-6.876c-.384-.153-.792-.337-1.104-.668-.088-.093-.054-.235.03-.343.092-.116.221-.177.354-.123.362.148.714.315 1 .593.1.097.142.198.073.33-.067.129-.167.204-.353.213zm8.914 5.151c-.128-.01-.25-.088-.373-.16-.222-.13-.442-.261-.655-.405-.147-.1-.172-.24-.09-.4.083-.162.212-.225.378-.164.369.137.712.318 1.003.59.102.096.13.208.072.336-.062.133-.163.208-.336.203m-.744-5.144c-.23-.022-.346-.108-.406-.264-.056-.14.019-.242.12-.322q.431-.336.935-.548c.13-.055.269-.038.362.086.082.109.154.24.056.366-.285.371-.743.464-1.067.682m-8.95 5.171c-.177-.023-.289-.11-.346-.25-.056-.135-.02-.259.108-.349.293-.21.594-.406.929-.545.144-.06.282-.055.381.083.081.112.137.242.038.367-.289.364-.74.463-1.11.694m6.864.908c-.012-.21.073-.305.2-.369.133-.067.244-.016.33.084.262.306.464.645.582 1.032.04.133.007.246-.109.325-.112.077-.234.087-.343-.001a1.98 1.98 0 0 1-.66-1.07zm-7.145-3.753c-.161 0-.323.004-.485-.001-.215-.008-.334-.12-.334-.34-.002-.21.115-.316.318-.32q.483-.01.968-.002c.213.004.341.118.339.337-.002.223-.142.32-.35.328-.153.005-.305 0-.457 0zm7.134-4.359a.42.42 0 0 1 .06-.249c.16-.269.314-.54.482-.804.1-.156.247-.2.418-.107.155.085.202.203.147.38-.12.378-.308.71-.58.997-.101.107-.213.115-.336.064s-.201-.141-.191-.28m-4.006-.083c0 .202-.07.324-.22.375-.147.049-.288.025-.375-.121-.17-.286-.34-.571-.5-.863-.102-.186-.062-.35.127-.463.183-.11.337-.052.44.114.2.32.438.622.528.958m7.153 3.775c.162 0 .325-.007.486.001.187.01.3.115.313.306.014.206-.094.34-.293.35a11 11 0 0 1-1.028.002c-.197-.01-.314-.143-.305-.346.008-.187.123-.298.312-.309.171-.01.343-.002.514-.002zm-5.485 5.496c0-.162-.007-.324 0-.486.01-.2.11-.319.32-.33.198-.01.323.1.333.28q.03.542 0 1.083c-.009.186-.146.287-.337.274-.184-.013-.303-.116-.313-.307-.009-.171-.001-.343-.001-.514zm.663-10.309c0 .16.012.323-.003.483-.017.194-.12.319-.332.315-.21-.004-.316-.12-.321-.322q-.013-.485-.002-.969c.004-.195.098-.32.317-.321.226-.002.333.117.344.329.008.161.001.323.001.484z" fill="#F9E9B3"/><path d="m19.967 13.84.785-.139c4.816-.835 9.318 2.336 10.126 7.134.818 4.856-2.569 9.494-7.43 10.087-3.435.418-6.189-.853-8.234-3.625-1.574-2.132-1.9-4.523-1.346-7.071.023-.108.101-.228-.003-.322-.107-.095-.214.009-.318.04-2.118.645-4.217.552-6.244-.308-3.266-1.386-5.293-3.823-5.928-7.338a9.1 9.1 0 0 1 .62-5.352c1.41-3.216 3.856-5.2 7.314-5.796 2.953-.508 5.618.281 7.866 2.263 2.26 1.993 3.336 4.547 3.295 7.56-.01.784-.149 1.554-.361 2.31-.048.172-.089.346-.142.557ZM30.3 22.283a9 9 0 0 0-.1-1.31c-.404-2.496-1.737-4.37-3.9-5.632-1.99-1.162-4.115-1.43-6.337-.73-.216.068-.404.162-.513.377-.98 1.935-2.437 3.393-4.38 4.361a.7.7 0 0 0-.371.448c-.368 1.152-.496 2.325-.34 3.528.564 4.322 4.49 7.412 8.832 6.945 4-.429 7.132-3.948 7.108-7.986ZM10.89 1.705c-4.785-.063-8.885 3.927-8.96 8.722-.08 5.09 3.795 9.163 8.857 9.21 4.895.047 8.932-3.87 8.995-8.88.061-4.95-3.907-8.985-8.892-9.052Zm1.08 28.786c-2.89-.067-5.368-.96-7.333-3.069-.848-.91-1.48-1.958-1.964-3.1q-.202-.476-.715-.436c-.252.02-.498.015-.706-.157-.32-.264-.34-.674-.034-1.07.367-.475.749-.94 1.124-1.408l1.411-1.765c.467-.581.808-.619 1.365-.131 1.018.89 2.032 1.79 3.045 2.687.253.224.396.492.284.838-.111.349-.387.475-.723.508-.17.017-.341.047-.512.047-.243 0-.304.108-.236.325.27.855.66 1.642 1.287 2.298 1.245 1.302 2.78 2.15 4.425 2.825.159.065.322.12.474.2.324.171.447.434.384.783-.058.318-.277.518-.637.555-.332.034-.666.05-.94.07Zm.711-.808-.756-.338c-1.589-.727-3.078-1.596-4.254-2.926-.79-.895-1.314-1.911-1.483-3.1-.038-.264.075-.427.339-.509.261-.08.53-.048.795-.06.094-.005.207.019.256-.083.062-.129-.057-.187-.131-.254-.858-.784-1.72-1.565-2.576-2.351-.346-.318-.42-.311-.718.06-.68.848-1.366 1.69-2.047 2.534-.102.125-.33.216-.218.416.1.181.312.068.475.078l.029-.005c.415-.066.634.065.752.463.359 1.2.994 2.252 1.816 3.178 2.054 2.314 4.704 3.108 7.721 2.896Z" stroke="#F9E9B3" stroke-width=".5" mask="url(#a)"/><path d="M19.444 1.474c2.413.083 4.563.743 6.401 2.266 1.484 1.229 2.436 2.81 3.051 4.615l.112.324c.062.178.186.252.374.24.133-.008.268-.011.4.002.317.033.559.175.676.491.115.311 0 .56-.208.78q-.625.67-1.257 1.333c-.554.579-1.107 1.158-1.67 1.73-.419.426-.759.429-1.174-.003-.978-1.018-1.946-2.046-2.922-3.067-.218-.228-.3-.482-.195-.783.107-.307.347-.447.653-.48.17-.017.343-.01.514-.004.335.013.418-.065.356-.403-.162-.892-.561-1.675-1.133-2.373-1.038-1.27-2.337-2.207-3.79-2.944q-.345-.175-.681-.364-.536-.3-.396-.826c.095-.36.327-.526.745-.535.067-.002.134 0 .142 0zm.041.734c.032.117.108.124.162.155.583.325 1.164.653 1.72 1.023 1.3.865 2.44 1.891 3.233 3.257.458.788.715 1.635.696 2.558-.006.25-.098.405-.36.418-.294.013-.59.013-.885.022-.073.003-.174-.035-.211.04-.047.096.063.145.117.203q1.226 1.318 2.452 2.64c.328.355.346.346.672-.007.744-.805 1.502-1.596 2.246-2.401.113-.122.391-.178.293-.4-.092-.21-.326-.068-.495-.07-.49-.008-.564-.055-.71-.522-.1-.317-.19-.64-.304-.952-1.05-2.876-3.023-4.774-5.987-5.6-.853-.238-1.723-.4-2.639-.364Zm1.056 21.577c.003-.23.075-.387.323-.401s.328.138.364.349c.107.628.372.937.871 1.025.615.108 1.17-.274 1.263-.871a1.06 1.06 0 0 0-.963-1.244c-.525-.053-1.007-.176-1.386-.583-.796-.851-.545-2.286.503-2.79.237-.115.469-.2.489-.524.009-.157.166-.191.31-.186.16.005.297.07.305.239.01.244.152.337.355.42.663.271.998.798 1.096 1.489.039.267-.07.434-.298.47-.265.04-.352-.13-.39-.347-.044-.246-.1-.485-.268-.683a1.06 1.06 0 0 0-1.221-.299c-.398.166-.687.623-.662 1.05.028.482.349.882.808.995.138.033.282.048.424.062.83.08 1.45.666 1.592 1.514.125.738-.3 1.519-1.018 1.841-.227.103-.429.19-.433.493-.002.163-.163.198-.297.209-.147.011-.284-.053-.3-.205-.03-.287-.224-.394-.447-.5-.648-.304-.97-.83-1.02-1.522zm-8.205-12.776c-.38-.035-.7.057-.99.335-.302.29-.854.21-1.157-.124-.31-.341-.343-.872-.019-1.163.288-.258.377-.548.35-.913-.018-.246-.005-.495-.002-.742.002-.217.087-.383.325-.388.233-.005.345.144.345.367 0 .274.023.547-.032.824-.096.485.45 1.126.944 1.131.21.003.42-.003.63.007.199.01.315.113.315.327 0 .21-.11.32-.31.336-.132.01-.266.002-.4.002zm-4.624 4.543c.117-.411.335-.797.65-1.123.1-.103.233-.06.345.006.105.063.173.16.142.286-.104.426-.33.786-.622 1.106-.095.104-.225.08-.345.025-.116-.052-.172-.144-.17-.3Zm-.926-6.876c-.384-.153-.792-.337-1.104-.668-.088-.093-.054-.235.03-.343.092-.116.221-.177.354-.123.362.148.714.315 1 .593.1.097.142.198.073.33-.067.129-.167.204-.353.213zm8.914 5.151c-.128-.01-.25-.088-.373-.16-.222-.13-.442-.261-.655-.405-.147-.1-.172-.24-.09-.4.083-.162.212-.225.378-.164.369.137.712.318 1.003.59.102.096.13.208.072.336-.062.133-.163.208-.336.203Zm-.745-5.144c-.23-.022-.346-.108-.406-.264-.056-.14.019-.242.12-.322q.431-.336.935-.548c.13-.055.269-.038.362.086.082.109.154.24.056.366-.285.371-.743.464-1.067.682Zm-8.95 5.171c-.177-.023-.289-.11-.346-.25-.056-.135-.02-.259.108-.349.293-.21.594-.406.929-.545.144-.06.282-.055.381.083.081.112.137.242.038.367-.289.364-.74.463-1.11.694Zm6.864.908c-.012-.21.073-.305.2-.369.133-.067.244-.016.33.084.262.306.464.645.582 1.032.04.133.007.246-.109.325-.112.077-.234.087-.343-.001a1.98 1.98 0 0 1-.66-1.07zm-7.145-3.753c-.161 0-.323.004-.485-.001-.215-.008-.334-.12-.334-.34-.002-.21.115-.316.318-.32q.483-.01.968-.002c.213.004.341.118.339.337-.002.223-.142.32-.35.328-.153.005-.305 0-.457 0zm7.134-4.359a.42.42 0 0 1 .06-.249c.16-.269.314-.54.482-.804.1-.156.247-.2.418-.107.155.085.202.203.147.38-.12.378-.308.71-.58.997-.101.107-.213.115-.336.064s-.201-.141-.191-.28Zm-4.006-.082c0 .202-.07.324-.22.375-.147.049-.288.025-.375-.121-.17-.286-.34-.571-.5-.863-.102-.186-.062-.35.127-.463.183-.11.337-.052.44.114.2.32.438.622.528.958Zm7.153 3.775c.162 0 .325-.007.486.001.187.01.3.115.313.306.014.206-.094.34-.293.35a11 11 0 0 1-1.028.002c-.197-.01-.314-.143-.305-.346.008-.187.123-.298.312-.309.171-.01.343-.002.514-.002v-.003Zm-5.485 5.496c0-.162-.007-.324 0-.486.01-.2.11-.319.32-.33.198-.01.323.1.333.28q.03.542 0 1.083c-.009.186-.146.287-.337.274-.184-.013-.303-.116-.313-.307-.009-.171-.001-.343-.001-.514zm.663-10.309c0 .16.012.323-.003.483-.017.194-.12.319-.332.315-.21-.004-.316-.12-.321-.322q-.013-.485-.002-.969c.004-.195.098-.32.317-.321.226-.002.333.117.344.329.008.161.001.323.001.484z" stroke="#F9E9B3" stroke-width=".5" mask="url(#a)"/></svg>