<svg width="32" height="32" viewBox="0 0 32 32" fill="none" xmlns="http://www.w3.org/2000/svg">
<path d="M26.32 27.3656C26.32 27.2236 26.2033 27.1064 26.0619 27.1064C24.1485 27.1064 22.3418 27.1047 20.5336 27.108C20.4234 27.108 20.3133 27.1229 20.167 27.1411C20.0388 27.1576 19.9401 27.2682 19.9401 27.3987C19.9401 28.5396 19.9401 29.6658 19.9401 30.7935C19.9401 31.0693 19.9878 31.3582 19.9171 31.6142C19.8843 31.7298 19.7971 31.8288 19.7001 31.9246C19.5966 32.0286 19.4289 32.0237 19.3286 31.918C19.2284 31.8123 19.1379 31.705 19.1297 31.5927C19.082 30.9636 19.1116 30.3279 19.1133 29.6938C19.1149 28.8946 19.1626 28.0938 19.11 27.2996C19.0623 26.5995 19.2119 26.1471 19.9484 26.1685C20.0914 26.1735 20.2097 26.0562 20.2114 25.9126C20.2196 25.3148 20.2443 24.7518 20.2015 24.1937C20.0503 22.2089 20.7588 20.6188 22.3665 19.4812C23.6832 18.5499 25.0378 17.6698 26.4154 16.831C26.8165 16.5866 27.3885 16.3884 27.8143 16.4826C28.3075 16.5915 28.8993 16.9581 29.1162 17.3825C29.2741 17.6945 29.0275 18.4029 28.7316 18.7232C27.954 19.5687 27.0696 20.3216 26.1852 21.0597C26.0685 21.1571 25.8827 21.1703 25.6904 21.1753C25.5244 21.1802 25.3978 21.0267 25.4307 20.8632C25.4636 20.6997 25.5047 20.5445 25.6033 20.4471C26.3874 19.6793 27.2258 18.9676 28.0214 18.2097C28.1217 18.114 28.1743 17.9653 28.2253 17.8167C28.2664 17.6962 28.2138 17.5625 28.102 17.5047C27.9031 17.4006 27.7009 17.2834 27.5348 17.3247C27.0384 17.4469 26.5304 17.6417 26.1063 17.9257C24.8783 18.7497 23.6569 19.5885 22.4964 20.5032C21.4969 21.2909 21.0021 22.3724 21.053 23.6851C21.081 24.405 21.0629 25.1266 21.0596 25.9506C21.0596 26.0926 21.1747 26.2098 21.3177 26.2098C22.5062 26.2114 23.6438 26.2197 24.7814 26.1933C24.9112 26.19 25.0904 25.9852 25.1578 25.8333C25.674 24.661 26.4893 23.7165 27.5579 23.0725C29.7278 21.7648 30.6171 19.7718 30.7667 17.3627C30.9163 14.9453 31.0083 12.523 31.1201 10.104C31.1201 10.1023 31.1201 10.1023 31.1201 10.1007C31.1283 9.90088 30.8998 9.77704 30.7289 9.88107C30.1453 10.2394 29.9316 10.8338 29.7869 11.4398C29.4812 12.7228 29.2642 14.0289 28.9502 15.3102C28.9108 15.472 28.7727 15.6107 28.6247 15.7461C28.4916 15.8667 28.2812 15.8221 28.2121 15.6553C28.1431 15.4918 28.0872 15.33 28.1118 15.1831C28.3288 13.9083 28.5836 12.6402 28.8746 11.3804C29.1031 10.3896 29.5354 9.49964 30.4987 9.01418C31.3601 8.57992 32.0423 8.95144 31.998 9.90253C31.8615 12.8417 31.7284 15.7858 31.4555 18.715C31.2648 20.7641 30.2045 22.3741 28.4571 23.5117C27.5365 24.1111 26.7096 24.8178 26.1737 25.8168C26.0932 25.9687 26.1803 26.157 26.348 26.1933C27.2077 26.3815 27.2061 26.4905 27.2011 27.572C27.1946 28.8666 27.2077 30.1611 27.165 31.454C27.16 31.5911 27.0811 31.7248 26.9891 31.8586C26.8904 32.0022 26.685 32.0088 26.5748 31.8734C26.4548 31.7265 26.3447 31.5779 26.3397 31.4259C26.3003 30.1099 26.3184 28.7906 26.32 27.3656Z" fill="#F9E9B3"/>
<path d="M11.5991 8.63111C13.5093 5.28412 18.3407 4.90104 20.4695 8.57992C20.5632 8.74008 20.7506 8.82099 20.9314 8.77971C21.6794 8.61294 22.401 8.38012 23.1128 8.40489C25.1397 8.47424 26.6603 10.1552 26.6981 12.2043C26.7145 13.0844 26.7293 13.9678 26.6833 14.8462C26.6817 14.8793 26.6735 14.9123 26.6587 14.9453C26.5206 15.2739 26.0274 15.2706 25.8926 14.942C25.8795 14.909 25.8696 14.8759 25.868 14.8413C25.8219 13.9628 25.8795 13.0778 25.8384 12.1994C25.7299 9.93886 23.3479 8.53864 21.4542 9.63669C21.1977 9.7853 20.9709 10.213 20.961 10.5201C20.9166 11.922 20.9495 13.3271 20.9643 14.7323C20.9725 15.4109 20.7029 15.8881 19.9928 15.9013C19.2793 15.9146 18.9883 15.4374 18.9851 14.7637C18.9818 13.91 18.9275 13.0514 19.0081 12.2043C19.064 11.6165 19.1692 10.9444 19.4979 10.492C20.0486 9.73246 19.7889 9.18426 19.3401 8.58157C17.5467 6.17577 13.8562 6.43336 12.4375 9.05546C12.2107 9.47652 12.2139 9.80016 12.454 10.2625C12.7712 10.8767 12.9636 11.5917 13.0425 12.2819C13.1394 13.124 13.0688 13.986 13.0638 14.8396C13.0605 15.4985 12.7301 15.9063 12.0709 15.8997C11.4101 15.8931 11.0928 15.4605 11.0912 14.8165C11.0895 13.3849 11.1306 11.9533 11.0961 10.5217C11.0895 10.2361 10.9021 9.83318 10.672 9.69448C8.84566 8.60138 6.44067 9.85795 6.26642 11.9963C6.19738 12.845 6.27793 13.7052 6.2171 14.554C6.21546 14.5853 6.21053 14.6151 6.20395 14.6448C6.10861 15.0691 5.48558 15.0857 5.38037 14.6629C5.3738 14.6382 5.36886 14.6118 5.36558 14.5853C5.29653 13.9876 5.39188 13.3717 5.33763 12.7707C5.05488 9.67136 8.02207 7.35142 11.0386 8.80118C11.2441 8.90355 11.4874 8.82925 11.5991 8.63111ZM11.9723 14.866C12.0068 14.8644 12.0413 14.8611 12.0775 14.8594C12.0775 13.763 12.0775 12.665 12.0775 11.5686C12.043 11.5702 12.0085 11.5735 11.9723 11.5752C11.9723 12.6732 11.9723 13.7696 11.9723 14.866ZM19.9549 14.9156C20.0026 14.9205 20.0486 14.9238 20.0963 14.9288C20.0963 13.7928 20.0963 12.6584 20.0963 11.5224C20.0486 11.5224 20.0026 11.5207 19.9549 11.5207C19.9549 12.6518 19.9549 13.7845 19.9549 14.9156Z" fill="#F9E9B3"/>
<path d="M18.8174 2.7842C18.8322 4.43375 17.6141 5.69362 16.0047 5.69197C14.42 5.69197 13.2151 4.48329 13.1904 2.87006C13.1658 1.28821 14.3888 0.0217409 15.962 0.000275236C17.5352 -0.0211904 18.8042 1.21556 18.8174 2.7842ZM15.9653 0.898529C14.9165 0.918343 14.0321 1.8166 14.037 2.85355C14.0419 3.8872 14.9411 4.75904 16.0031 4.75739C17.1012 4.75739 18.0086 3.83602 17.9659 2.76934C17.9231 1.71257 17.0289 0.877063 15.9653 0.898529Z" fill="#F9E9B3"/>
<path d="M9.15635 8.05153C7.91851 8.03667 6.9289 7.01953 6.93712 5.76957C6.94369 4.50475 7.9481 3.52724 9.20731 3.56027C10.4238 3.59329 11.4134 4.64841 11.392 5.89011C11.3674 7.11035 10.3794 8.06639 9.15635 8.05153ZM9.19251 4.49154C8.44126 4.51136 7.84289 5.12726 7.85604 5.86699C7.86919 6.61334 8.50702 7.20942 9.25005 7.16649C9.97335 7.12521 10.5849 6.45317 10.552 5.73985C10.5191 5.03149 9.90924 4.47173 9.19251 4.49154Z" fill="#F9E9B3"/>
<path d="M25.0674 5.82571C25.0559 7.06246 24.0301 8.06805 22.7972 8.05649C21.5807 8.04493 20.6141 7.06246 20.6174 5.84057C20.6207 4.59887 21.6317 3.56687 22.8498 3.56027C24.086 3.55366 25.0805 4.56915 25.0674 5.82571ZM24.1912 5.90993C24.2159 5.19991 23.5879 4.53778 22.8646 4.51301C22.1544 4.48989 21.5314 5.0513 21.492 5.74976C21.4509 6.47794 22.0377 7.13677 22.7693 7.183C23.5074 7.22924 24.1665 6.63976 24.1912 5.90993Z" fill="#F9E9B3"/>
<path d="M11.7964 26.1768C11.7964 25.2604 11.7898 24.4116 11.798 23.5629C11.8112 22.2915 11.4841 21.0911 10.4994 20.2952C9.01333 19.0948 7.42535 18.0165 5.84066 16.9466C5.4264 16.6675 4.87735 16.542 4.37268 16.4595C3.67403 16.3472 3.14799 16.6939 2.84716 17.3296C2.56277 17.9307 2.84881 18.3897 3.28443 18.786C4.11623 19.5439 4.93324 20.3216 5.79627 21.0415C5.81271 21.0564 5.83244 21.068 5.85216 21.0795C6.22861 21.2975 6.66095 20.8137 6.40122 20.4636C6.38806 20.4471 6.37491 20.4306 6.36012 20.4157C5.57928 19.6446 4.73762 18.9363 3.94527 18.1751C3.8039 18.0397 3.68061 17.6946 3.75458 17.5707C3.85321 17.4072 4.15569 17.29 4.36775 17.295C4.62912 17.2999 4.92173 17.399 5.13872 17.5476C6.73657 18.644 8.36893 19.7024 9.87965 20.9111C10.3827 21.314 10.7525 22.0983 10.8479 22.7555C11.0057 23.8535 10.8906 24.9896 10.8906 26.2181C9.66923 26.2181 8.49715 26.2313 7.32836 26.2015C7.16726 26.1966 6.93712 26.0084 6.86479 25.8482C6.2582 24.4843 5.21434 23.5216 4.00609 22.734C2.41483 21.6971 1.5485 20.1961 1.38905 18.3616C1.14576 15.5711 1.04877 12.7641 0.895888 9.96197C0.8926 9.89923 0.963286 9.83153 0.999452 9.76713C1.68823 10.1073 2.01372 10.525 2.234 11.4943C2.52661 12.7822 2.75346 14.0834 3.06251 15.3664C3.06909 15.3911 3.07731 15.4142 3.08717 15.439C3.268 15.8419 3.90746 15.7148 3.90417 15.2722C3.90417 15.2508 3.90253 15.231 3.89924 15.2095C3.68389 13.9348 3.42581 12.6683 3.13649 11.4084C2.90963 10.4177 2.48716 9.52275 1.53207 9.02409C0.647663 8.56341 -0.0378319 8.95804 0.00162108 9.96032C0.108473 12.6832 0.207105 15.4076 0.43396 18.1222C0.62958 20.462 1.66686 22.3641 3.72006 23.6504C4.3135 24.022 4.81817 24.5569 5.30968 25.0688C5.59079 25.3611 5.76339 25.7574 6.07409 26.2478C4.88557 26.0744 4.7557 26.649 4.79022 27.4598C4.84118 28.6701 4.79351 29.8821 4.83132 31.0941C4.83132 31.1089 4.83132 31.1238 4.83132 31.1386C4.83132 31.1386 4.84611 31.5184 5.15845 31.6224C5.65161 31.7876 5.65161 31.1452 5.65325 31.1386C5.65654 31.1056 5.65983 31.0726 5.66147 31.0429C5.71079 29.7615 5.6812 28.4769 5.6812 27.1526H12.0676C12.0676 28.5743 12.0446 29.9184 12.0857 31.2608C12.0874 31.2889 12.089 31.3153 12.0939 31.3434C12.1696 31.7909 12.8551 31.7545 12.8764 31.3021C12.8764 31.2988 12.8764 31.2971 12.8764 31.2938C12.9159 30.001 12.8518 28.7048 12.8945 27.4119C12.9225 26.616 12.8485 26.0084 11.7964 26.1768Z" fill="#F9E9B3"/>
</svg>
