<svg width="30" height="32" viewBox="0 0 30 32" fill="none" xmlns="http://www.w3.org/2000/svg">
<path d="M16.8835 23.7149H13.1177C12.4785 23.7149 11.959 23.2225 11.959 22.6166V18.8812H8.01847C7.38048 18.8812 6.86094 18.3888 6.86094 17.784V14.2143C6.86094 13.6095 7.38048 13.117 8.01847 13.117H11.959V9.38171C11.959 8.77583 12.4785 8.28334 13.1177 8.28334H16.8835C17.5215 8.28334 18.041 8.77583 18.041 9.38171V13.117H21.9815C22.6195 13.117 23.1391 13.6095 23.1391 14.2143V17.784C23.1391 18.3888 22.6195 18.8812 21.9815 18.8812H18.041V22.6166C18.041 23.2225 17.5215 23.7149 16.8835 23.7149ZM8.01847 14.0053C7.89768 14.0053 7.79916 14.0987 7.79916 14.2132V17.7829C7.79916 17.8974 7.89768 17.9908 8.01847 17.9908H12.8972V22.6155C12.8972 22.73 12.9957 22.8245 13.1177 22.8245H16.8835C17.0043 22.8245 17.1028 22.7311 17.1028 22.6155V17.9908H21.9815C22.1023 17.9908 22.2009 17.8974 22.2009 17.7829V14.2132C22.2009 14.0987 22.1023 14.0053 21.9815 14.0053H17.1028V9.38059C17.1028 9.26609 17.0043 9.17159 16.8835 9.17159H13.1177C12.9969 9.17159 12.8972 9.26498 12.8972 9.38059V14.0053H8.01847Z" fill="#F9E9B3"/>
<path d="M2.21909 15.9697C2.21909 14.7346 2.20971 13.4984 2.22613 12.2633C2.22965 11.9842 2.14404 11.8541 1.8614 11.7541C0.626464 11.3139 -0.113558 10.2355 0.0142747 9.1149C0.163217 7.81309 1.04632 6.90927 2.40557 6.71138C3.23706 6.59021 3.97357 6.83923 4.59279 7.36284C4.79686 7.53627 4.93407 7.53071 5.1569 7.40731C7.47196 6.13107 9.79171 4.86373 12.1162 3.60083C12.3132 3.49299 12.3577 3.40406 12.3085 3.1806C11.9918 1.73983 12.8984 0.383547 14.3608 0.0711569C15.8866 -0.254573 17.2811 0.562532 17.6775 2.01998C17.7818 2.40241 17.7877 2.79373 17.6775 3.17282C17.6141 3.39183 17.6751 3.49077 17.8745 3.5986C20.2107 4.86817 22.5433 6.14441 24.8701 7.42955C25.0859 7.5485 25.209 7.53294 25.3978 7.37841C26.3161 6.62356 27.3564 6.45013 28.4553 6.95596C29.5002 7.43622 30.0373 8.27778 29.9975 9.37503C29.9552 10.5446 29.309 11.3617 28.1398 11.7541C27.8278 11.8586 27.7516 11.9976 27.7539 12.2866C27.7645 14.7579 27.7645 17.2292 27.7539 19.7006C27.7528 19.9896 27.8278 20.1275 28.141 20.2309C29.4205 20.6578 30.1464 21.7772 29.9752 22.9846C29.7922 24.2686 28.7989 25.1969 27.4432 25.298C26.682 25.3547 25.9948 25.1179 25.4248 24.6332C25.236 24.4731 25.1058 24.4264 24.8642 24.5598C22.5386 25.8461 20.206 27.1212 17.8698 28.3908C17.6657 28.502 17.6317 28.6054 17.681 28.8199C18.0293 30.3452 16.9456 31.7804 15.312 31.9794C13.7381 32.1717 12.3014 30.9944 12.2369 29.4569C12.2311 29.3057 12.2217 29.1401 12.2756 29.0033C12.4211 28.632 12.2686 28.4575 11.9215 28.2707C9.66739 27.0612 7.42505 25.8316 5.18856 24.5932C4.92586 24.4476 4.78278 24.4754 4.55292 24.6566C3.64871 25.3703 2.62722 25.5237 1.56351 25.0323C0.518568 24.551 -0.0232542 23.7127 0.0142747 22.6155C0.0529763 21.486 0.660474 20.6633 1.78634 20.262C2.1499 20.1319 2.23082 19.9663 2.22613 19.635C2.20854 18.4132 2.21909 17.1915 2.21909 15.9697ZM26.6996 16.0119C26.6996 14.7757 26.6879 13.5406 26.7078 12.3044C26.7125 11.9987 26.6328 11.8541 26.3103 11.7385C24.978 11.2605 24.2978 10.0865 24.5699 8.78361C24.6215 8.5357 24.5499 8.40896 24.3259 8.28667C22.0027 7.02266 19.6829 5.75198 17.3667 4.47685C17.1532 4.35901 17.0184 4.38458 16.8307 4.53689C15.6908 5.46183 14.2483 5.44737 13.1236 4.50353C12.9652 4.37124 12.8644 4.34345 12.6756 4.44795C10.3347 5.73864 7.98915 7.02155 5.64008 8.2989C5.43719 8.40896 5.39497 8.52791 5.4325 8.7358C5.69286 10.1588 5.03727 11.2749 3.62525 11.7663C3.34144 11.8653 3.29101 11.9953 3.29218 12.2466C3.30039 14.7457 3.29805 17.2448 3.29453 19.745C3.29453 19.964 3.30743 20.1075 3.59007 20.2053C5.03727 20.7067 5.68934 21.805 5.43015 23.2547C5.39263 23.4648 5.44423 23.5804 5.6436 23.6894C7.99267 24.9667 10.3371 26.2519 12.6803 27.5392C12.8409 27.627 12.9383 27.6371 13.0954 27.5081C14.3046 26.5253 15.6345 26.5165 16.8659 27.4792C17.0301 27.6081 17.1521 27.6226 17.3303 27.5248C19.6723 26.2374 22.0167 24.9512 24.3646 23.6727C24.564 23.5649 24.6133 23.4481 24.5746 23.238C24.3165 21.8439 24.9733 20.7156 26.3525 20.2286C26.648 20.1241 26.7067 19.9852 26.7031 19.7184C26.6902 18.4821 26.6973 17.247 26.6973 16.0108L26.6996 16.0119ZM2.75036 10.9014C3.68389 10.9081 4.45792 10.1788 4.4544 9.2961C4.45089 8.41563 3.67334 7.67968 2.74802 7.67746C1.85671 7.67635 1.06156 8.43231 1.0686 9.27498C1.07564 10.1855 1.80745 10.8936 2.75036 10.9003V10.9014ZM27.2391 10.9003C28.1984 10.9047 28.9549 10.1744 28.9431 9.25497C28.9326 8.4223 28.1679 7.69525 27.286 7.67746C26.3525 7.65967 25.5503 8.42008 25.5585 9.31611C25.5667 10.1821 26.3243 10.897 27.2403 10.9003H27.2391ZM4.45323 22.6922C4.46027 21.8273 3.71086 21.1002 2.79727 21.0846C1.8356 21.068 1.07798 21.7784 1.0686 22.7055C1.05922 23.5482 1.85084 24.3042 2.7445 24.3075C3.6663 24.3108 4.44737 23.5738 4.45323 22.6922ZM27.2602 21.0835C26.3267 21.078 25.5526 21.8084 25.5573 22.69C25.562 23.5704 26.3408 24.3075 27.2649 24.3075C28.1562 24.3075 28.9514 23.5504 28.9431 22.7077C28.9349 21.7984 28.2008 21.0891 27.2602 21.0835ZM13.3136 29.3591C13.3018 30.2607 14.0489 30.9888 14.9871 30.9911C15.9042 30.9922 16.6736 30.2751 16.6806 29.4113C16.6888 28.4953 15.9675 27.8027 15 27.7982C14.0489 27.7938 13.3253 28.4642 13.3124 29.3591H13.3136ZM16.6818 2.61141C16.6876 1.74094 15.9394 1.00944 15.027 0.994986C14.0852 0.980533 13.3159 1.69647 13.3124 2.58917C13.31 3.49077 14.016 4.17558 14.9601 4.18781C15.93 4.20004 16.6736 3.51856 16.6806 2.61141H16.6818Z" fill="#F9E9B3"/>
</svg>
