<svg width="33" height="24" viewBox="0 0 33 24" fill="none" xmlns="http://www.w3.org/2000/svg">
<path d="M32.7754 17.4955C32.6386 17.2684 32.6534 17.1059 32.7823 16.8825C33.2339 16.1003 32.9026 15.0962 32.0713 14.7591C31.8041 14.6506 31.4935 14.6188 31.2008 14.6077C30.632 14.586 30.0615 14.6061 29.4916 14.6045C29.3723 14.6045 29.2531 14.5833 29.0818 14.5675C29.3368 14.3801 29.5468 14.2324 29.7503 14.0763C30.9808 13.1331 31.9743 12.0009 32.5352 10.5348C33.147 8.93638 33.1094 7.31095 32.6863 5.68128C31.8163 2.32984 29.1046 0.356661 25.8294 0.00468644C25.5431 -0.0260121 25.374 0.094665 25.3125 0.35031C25.2483 0.61707 25.3628 0.835136 25.6353 0.925114C25.7976 0.978572 25.9688 1.00874 26.1374 1.03732C28.5808 1.4507 30.3669 2.72098 31.3699 5.02232C31.907 6.25449 32.1604 7.5269 31.933 8.8681C31.292 12.6446 27.6722 15.1708 23.8901 14.4849C21.1566 13.9889 19.1235 12.0788 18.4592 9.62498H18.4773C18.4683 9.61546 18.4598 9.6054 18.4513 9.59587C18.208 8.67915 18.1544 7.6878 18.3272 6.66628C18.8049 3.83989 20.5316 2.0435 23.264 1.20034C23.5158 1.12254 23.7761 1.07173 24.0269 0.990746C24.267 0.91347 24.3805 0.714988 24.3434 0.484219C24.3009 0.221694 24.153 0.0877843 23.8864 0.0803743C23.7809 0.0777279 23.6717 0.0740229 23.5699 0.0967822C20.5046 0.789617 18.4645 2.60348 17.5808 5.63417C17.2998 6.598 17.1864 7.59411 17.2791 8.59394C16.6339 8.59394 16.0895 8.59394 15.7857 8.59394C15.7603 8.59394 15.7231 8.60717 15.7115 8.58176C15.6993 8.55583 15.7348 8.53783 15.7512 8.51825C16.1711 8.00802 16.4145 7.42527 16.4585 6.76631C16.5184 5.86864 16.2411 5.08318 15.624 4.42793C15.1061 3.878 14.4625 3.56255 13.7091 3.4768C13.6863 3.47415 13.6614 3.47839 13.645 3.45563H13.0925C13.0756 3.4768 13.0507 3.47363 13.0279 3.47574C12.0985 3.56307 11.2863 3.91664 10.5966 4.54596C10.2854 4.82966 10.0235 5.15358 9.81411 5.51931C9.78336 5.5733 9.77965 5.5733 9.7489 5.51984C9.37939 4.8847 8.87734 4.38029 8.24116 4.01138C7.70889 3.70281 7.13527 3.52338 6.52083 3.47468C6.49962 3.4731 6.47629 3.47574 6.46092 3.45563H5.91858C5.90373 3.47627 5.88041 3.47415 5.8592 3.47627C4.46809 3.61865 3.32986 4.70104 3.13 6.08089C3.00859 6.91928 3.20157 7.68409 3.69726 8.37164C3.74126 8.4325 3.79109 8.48914 3.83828 8.54789C3.84623 8.55794 3.86054 8.56694 3.85365 8.58176C3.84676 8.59658 3.83032 8.59235 3.8176 8.59341C3.79745 8.59446 3.77731 8.59341 3.75716 8.59341C2.70217 8.59341 1.6477 8.59341 0.592706 8.59341C0.532269 8.59341 0.471832 8.59446 0.412986 8.60823C0.218421 8.65374 0.0938363 8.77495 0.0296883 8.96179C0.0222662 8.98296 0.0238567 9.00942 0 9.02266V13.2961C0.0201456 13.3078 0.0206758 13.3295 0.0259773 13.3485C0.0917157 13.5819 0.28681 13.7296 0.530679 13.7301C0.661095 13.7301 0.792042 13.7301 0.922458 13.7301C0.998093 13.7301 1.03591 13.767 1.03591 13.8407C1.03591 14.2419 1.03591 14.6431 1.03591 15.0443C1.03591 17.1625 1.03644 19.2807 1.03591 21.3989C1.03591 21.9653 1.19124 22.4829 1.52789 22.9392C1.94618 23.506 2.50601 23.8506 3.20263 23.9702C3.23762 23.976 3.27791 23.9681 3.30548 23.9999H18.6819C18.6655 23.9808 18.6506 23.9602 18.6353 23.94C18.8293 23.9782 19.027 23.9993 19.22 23.9993C23.2619 24.003 27.3037 23.9909 31.3456 23.9782C32.6598 23.9739 33.3628 22.8016 32.7462 21.644C32.6476 21.4593 32.6444 21.3137 32.7526 21.1306C33.0648 20.604 33.0707 20.063 32.7436 19.5401C32.6275 19.3543 32.6407 19.2146 32.7526 19.0341C33.0643 18.5307 33.0802 18.002 32.7748 17.4949L32.7754 17.4955ZM10.2992 7.5486C10.3003 7.01719 10.4291 6.51755 10.6963 6.05866C11.1957 5.20121 11.9389 4.68781 12.9192 4.52637C13.2945 4.46445 13.6715 4.46709 14.0357 4.59783C14.7503 4.85453 15.2078 5.351 15.3833 6.08883C15.6028 7.00872 15.1458 7.96356 14.3002 8.3801C14.0214 8.51772 13.7255 8.59129 13.4138 8.59288C12.9197 8.59499 12.4262 8.59288 11.9321 8.59288C11.4162 8.59288 10.9009 8.59341 10.3851 8.59288C10.2992 8.59288 10.2992 8.59288 10.2992 8.50554C10.2992 8.18639 10.2992 7.86723 10.2992 7.54754V7.5486ZM4.5826 5.25732C4.94788 4.79419 5.43826 4.53696 6.02885 4.49991C6.71115 4.45704 7.33885 4.63488 7.90557 5.01914C8.50305 5.42404 8.91074 5.97291 9.12916 6.65993C9.21769 6.93886 9.26328 7.22573 9.26435 7.51843C9.2654 7.85082 9.26435 8.18374 9.26435 8.51613C9.26435 8.5897 9.26169 8.59288 9.188 8.59288C8.66899 8.59288 8.14997 8.59288 7.63096 8.59288C7.13368 8.59235 6.6364 8.59605 6.13912 8.59129C5.31368 8.58388 4.54867 8.05248 4.26504 7.27866C3.99732 6.5493 4.10123 5.86653 4.5826 5.25626V5.25732ZM9.2654 22.8709C9.2654 22.94 9.23024 22.9746 9.15991 22.9746C7.33301 22.9746 5.50665 22.9746 3.67976 22.9746C3.36644 22.9746 3.07062 22.9138 2.80396 22.7433C2.34591 22.4501 2.09992 22.032 2.07023 21.4884C2.06811 21.4482 2.06864 21.4079 2.06864 21.3682C2.06864 18.8605 2.06864 16.3533 2.06864 13.846C2.06864 13.7296 2.05539 13.7301 2.18209 13.7301C4.50626 13.7301 6.8299 13.7301 9.15407 13.7301C9.22794 13.7301 9.26487 13.7663 9.26487 13.8386V22.8709H9.2654ZM1.15148 12.7054C1.0762 12.7054 1.03838 12.6686 1.03803 12.5948C1.03803 11.6384 1.03803 10.682 1.03803 9.72608C1.03803 9.65868 1.07231 9.62498 1.14088 9.62498C4.06783 9.62498 6.99531 9.62604 9.92226 9.62604C11.7481 9.62604 14.7721 9.62604 17.4482 9.62604C17.7229 10.7952 18.2583 11.8162 19.0164 12.7065C16.002 12.7065 12.0211 12.7065 9.78124 12.7065C6.90412 12.7065 4.02754 12.7065 1.15042 12.7065L1.15148 12.7054ZM10.4058 22.9752C10.334 22.9752 10.2981 22.9397 10.2981 22.8688V13.837C10.2981 13.7665 10.3342 13.7312 10.4063 13.7312C12.6647 13.7312 17.6354 13.7312 20.0539 13.7312C20.0841 13.7566 20.1144 13.7825 20.1451 13.8074C20.4547 14.062 20.768 14.3118 21.1248 14.6008C21.0193 14.6082 20.9806 14.613 20.9425 14.613C20.2533 14.6161 19.5641 14.6151 18.8754 14.622C18.3479 14.6273 17.8793 14.7739 17.558 15.2259C17.1588 15.7875 17.1185 16.3723 17.4705 16.9725C17.5479 17.1043 17.5999 17.2292 17.506 17.378C17.1264 17.9792 17.1609 18.5773 17.532 19.168C17.5887 19.2585 17.6041 19.3247 17.5373 19.4326C17.1747 20.0175 17.1127 20.623 17.4551 21.2449C17.4811 21.2926 17.4795 21.3661 17.4663 21.4217C17.3979 21.7091 17.2945 21.9912 17.2532 22.2823C17.2182 22.5263 17.242 22.7619 17.3162 22.9752C15.1861 22.9752 11.8329 22.9752 10.4052 22.9752H10.4058ZM31.5322 22.9699C31.344 23.0016 31.1494 23.0037 30.958 23.0037C29.0103 23.0059 27.0625 23.0053 25.1153 23.0053C23.141 23.0059 21.1667 23.0074 19.193 23.0037C18.9958 23.0037 18.7943 22.9905 18.6029 22.9487C18.34 22.8915 18.2228 22.7142 18.2244 22.4422C18.2254 22.168 18.3601 21.9785 18.614 21.9145C18.7153 21.8891 18.8229 21.8779 18.9279 21.8779C23.0021 21.8764 27.0763 21.8764 31.1505 21.8779C31.2756 21.8779 31.4023 21.8891 31.5253 21.9108C31.828 21.9642 31.9854 22.1489 31.9881 22.4379C31.9907 22.7248 31.8365 22.9196 31.5327 22.9704L31.5322 22.9699ZM23.5524 19.765C23.6695 19.7825 23.7899 19.782 23.9092 19.782C26.2805 19.782 28.6519 19.7809 31.0232 19.782C31.1881 19.782 31.3551 19.7899 31.5179 19.8143C31.8089 19.8582 31.9764 20.0466 31.9876 20.3171C31.9992 20.5976 31.8423 20.8077 31.5534 20.8728C31.4256 20.9019 31.291 20.9099 31.1589 20.9104C30.0658 20.9141 28.9731 20.9146 27.88 20.9146C24.9817 20.9146 22.0839 20.9146 19.1855 20.912C19.0138 20.912 18.8399 20.9051 18.6713 20.8765C18.3622 20.8247 18.209 20.6156 18.2244 20.298C18.2376 20.0159 18.4174 19.8206 18.7238 19.8132C19.571 19.7931 20.4187 19.7942 21.2658 19.7804C21.4297 19.7777 21.5977 19.764 21.7557 19.7248C21.9815 19.6687 22.0839 19.5062 22.068 19.2834C22.0499 19.0262 21.9285 18.8822 21.6894 18.852C21.5452 18.834 21.3989 18.8271 21.2537 18.8256C20.4457 18.8187 19.6378 18.8197 18.8298 18.8086C18.4513 18.8033 18.2355 18.6101 18.2228 18.2936C18.2085 17.9417 18.3935 17.7294 18.7471 17.7056C18.9316 17.6934 19.1166 17.6924 19.3016 17.6924C21.2293 17.6913 23.1569 17.6918 25.084 17.6918C27.0381 17.6918 28.9922 17.6918 30.9458 17.6924C31.1181 17.6924 31.291 17.6924 31.4617 17.7098C31.7601 17.7411 31.9727 17.9522 31.9881 18.2132C32.0045 18.4979 31.8291 18.7208 31.5216 18.7869C31.4129 18.8107 31.2984 18.8171 31.187 18.8171C28.7494 18.8187 26.3118 18.8181 23.8742 18.8192C23.7623 18.8192 23.6483 18.8234 23.5386 18.8425C23.2513 18.8933 23.1341 19.0373 23.1394 19.3157C23.1442 19.5724 23.2772 19.7227 23.5513 19.7635L23.5524 19.765ZM31.5926 16.6703C31.4723 16.7015 31.3445 16.7169 31.2199 16.7174C29.1407 16.719 27.0614 16.7174 24.9822 16.7169C23.0021 16.7169 21.022 16.7169 19.0424 16.7158C18.9305 16.7158 18.8166 16.7126 18.7063 16.6941C18.3516 16.6338 18.1968 16.4342 18.227 16.0892C18.253 15.7938 18.4645 15.6064 18.7996 15.6059C20.8921 15.6033 22.9846 15.6043 25.0771 15.6043V15.6017C27.0837 15.6017 29.0903 15.6006 31.0964 15.6038C31.2671 15.6038 31.4426 15.6128 31.6064 15.6546C31.8635 15.7197 31.9961 15.915 31.9907 16.1643C31.986 16.4035 31.8328 16.6079 31.5915 16.6708L31.5926 16.6703Z" fill="#F9E9B3"/>
<path d="M24.3237 4.59941C24.1292 4.65975 23.9304 4.71903 23.7501 4.81166C23.1044 5.14299 22.7524 5.67492 22.764 6.40534C22.7757 7.12887 23.0768 7.70685 23.7676 8.00166C24.0481 8.12128 24.363 8.17156 24.6678 8.21761C25.0002 8.26789 25.3427 8.25413 25.6735 8.31077C26.0372 8.37269 26.272 8.75431 26.2492 9.17403C26.227 9.57735 26.0197 9.80335 25.6094 9.84834C25.3597 9.87586 25.1057 9.86581 24.8576 9.90127C24.3858 9.96849 24.0004 9.88116 23.8015 9.39421C23.7989 9.38839 23.7941 9.3831 23.7899 9.37833C23.6165 9.15392 23.2783 9.05917 23.062 9.17456C22.8584 9.28359 22.8043 9.54294 22.9252 9.84622C23.1696 10.4586 23.6356 10.7995 24.2723 10.9133C24.4754 10.9493 24.5326 11.0509 24.5247 11.2393C24.5157 11.45 24.5151 11.6627 24.5316 11.8729C24.556 12.1841 24.741 12.3529 25.0288 12.3519C25.2918 12.3508 25.4752 12.1687 25.5012 11.8654C25.5192 11.6553 25.5256 11.4436 25.5245 11.2324C25.5235 11.0382 25.6115 10.945 25.7954 10.8762C26.0589 10.7778 26.3298 10.6682 26.5551 10.5052C27.5375 9.79277 27.5015 8.31553 26.5021 7.62375C26.0685 7.32365 25.5844 7.23261 25.0686 7.26066C24.9037 7.25113 24.7383 7.2432 24.5734 7.23155C24.1822 7.20403 23.8721 6.95156 23.7994 6.60382C23.7146 6.1968 23.8911 5.82894 24.2644 5.6474C24.5485 5.50873 24.8497 5.48544 25.1555 5.54631C25.5595 5.62676 25.8553 5.86388 26.0966 6.19203C26.2763 6.43656 26.5095 6.4752 26.7587 6.33547C26.9665 6.21903 27.0636 5.98614 26.9501 5.7342C26.8409 5.49232 26.7137 5.23244 26.5223 5.05989C26.3092 4.86776 26.0218 4.75079 25.7541 4.62905C25.6083 4.56236 25.5298 4.49144 25.5304 4.32577C25.5314 4.10136 25.5166 3.87694 25.5033 3.65252C25.4853 3.34501 25.3178 3.16558 25.0447 3.15552C24.7436 3.14441 24.5554 3.31113 24.531 3.63558C24.5135 3.86582 24.5157 4.09818 24.5226 4.32948C24.5273 4.48085 24.4658 4.5576 24.3237 4.60206V4.59941Z" fill="#F9E9B3"/>
</svg>
