<svg width="35" height="37" viewBox="0 0 35 37" fill="none" xmlns="http://www.w3.org/2000/svg">
<path d="M15.449 11.6786C15.7622 11.307 15.7875 10.9521 15.8552 10.6242C15.9375 10.2191 16.1392 9.98249 16.5799 9.98506C16.876 9.98763 17.0021 9.89762 16.9981 9.56843C16.9768 8.04335 16.9822 6.51698 16.9954 4.9919C16.9981 4.74629 16.9052 4.6357 16.6928 4.52125C16.0105 4.14963 15.7105 3.42309 15.9096 2.71199C16.0967 2.0446 16.7751 1.5521 17.5038 1.55596C18.2326 1.55853 18.907 2.05617 19.0875 2.72485C19.2813 3.43981 18.98 4.15349 18.2897 4.5264C18.0707 4.6447 17.999 4.76815 18.0016 5.00604C18.0136 6.53112 18.0162 8.05749 18.0003 9.58258C17.9977 9.87705 18.0839 9.98892 18.3813 9.98249C18.8393 9.9722 19.0649 10.2062 19.1459 10.6383C19.2056 10.9611 19.2561 11.2967 19.4552 11.6014C19.6663 11.4793 19.5733 11.3018 19.5733 11.1642C19.58 9.25338 19.5893 7.34253 19.5707 5.43167C19.5654 4.93403 19.6344 4.48396 19.949 4.07505C20.1163 3.85773 20.2105 3.59026 20.3738 3.37037C20.6778 2.96017 20.7999 2.60268 20.4986 2.08832C20.1654 1.51738 20.4627 0.757412 21.0216 0.333063C21.5632 -0.0784265 22.357 -0.11186 22.9318 0.250765C23.5318 0.630107 23.8092 1.33993 23.6221 2.02146C23.4455 2.66569 22.8415 3.17491 22.1366 3.16977C21.753 3.1672 21.6203 3.34208 21.4251 3.60569C20.7667 4.49168 20.5503 5.44582 20.5981 6.53627C20.6725 8.23495 20.6167 9.94006 20.618 11.6426C20.618 12.2045 20.7017 12.247 21.2088 11.9589C21.961 11.5337 22.6539 11.6182 23.2875 12.2122C23.3712 12.2907 23.4521 12.3704 23.5318 12.4527C24.3946 13.3323 24.4026 13.3374 23.7429 14.3559C23.5769 14.613 23.5849 14.8149 23.6778 15.1055C23.9274 15.8887 24.3402 16.412 25.2601 16.4493C25.5747 16.4622 25.7274 16.7065 25.7526 17.0215C25.803 17.6632 25.8044 18.3036 25.7526 18.9465C25.7261 19.2834 25.5628 19.5368 25.223 19.5368C24.1331 19.5355 23.9075 20.3456 23.5902 21.0863C23.4946 21.31 23.6486 21.4528 23.7468 21.6109C24.1743 22.3053 24.1044 22.9423 23.5371 23.5218C23.4681 23.5912 23.4004 23.6619 23.3274 23.7275C22.0968 24.8424 22.2813 24.6289 21.1623 23.9899C20.938 23.8625 20.7773 23.8818 20.5318 23.9564C19.6981 24.2097 19.1114 24.6174 19.0769 25.5509C19.0676 25.7927 18.8539 25.9226 18.5924 25.9599C17.8649 26.0653 17.1401 26.0653 16.414 25.9624C16.1087 25.9187 15.8923 25.7554 15.899 25.4686C15.9282 24.3885 15.0361 24.2175 14.2941 23.8844C14.0764 23.7867 13.9503 23.9307 13.8029 24.0156C13.0463 24.4511 12.3485 24.3692 11.7095 23.77C11.6259 23.6915 11.5449 23.6118 11.4653 23.5295C10.6024 22.6499 10.5931 22.6448 11.2489 21.6251C11.4135 21.3679 11.4082 21.1673 11.3193 20.8754C11.0724 20.0588 10.6064 19.5638 9.69048 19.5136C9.40641 19.4982 9.27765 19.2744 9.2511 19.007C9.18473 18.3332 9.18871 17.6606 9.24712 16.9868C9.27499 16.6615 9.47278 16.4364 9.77013 16.439C10.8387 16.4493 11.0763 15.6765 11.3883 14.9397C11.4932 14.6915 11.3617 14.541 11.2542 14.3687C10.6051 13.331 10.5985 13.3258 11.4586 12.463C11.7454 12.175 12.0746 11.9281 12.3759 11.6529C12.6348 11.4163 12.8936 11.4137 13.1817 11.6002C13.4153 11.7506 13.6662 11.8779 13.9051 12.0232C14.2596 12.2405 14.379 12.1068 14.3777 11.7468C14.375 9.56329 14.375 7.37853 14.3777 5.19507C14.3777 5.00733 14.306 4.85559 14.2118 4.70128C13.9675 4.30136 13.7193 3.90273 13.495 3.49253C13.3755 3.27393 13.2494 3.17491 12.9666 3.17363C12.0587 3.17234 11.375 2.52553 11.3339 1.68583C11.2927 0.853854 11.8728 0.174897 12.7463 0.0321614C13.548 -0.0990009 14.3485 0.442365 14.5675 1.26406C14.6777 1.67941 14.5914 2.07161 14.3551 2.41366C14.2184 2.61169 14.2264 2.76214 14.3618 2.92287C15.368 4.12005 15.514 5.50883 15.433 6.99148C15.3574 8.36868 15.4158 9.75231 15.4184 11.1334C15.4184 11.2813 15.4344 11.4304 15.449 11.6786ZM23.0446 13.5072C23.0207 13.4506 23.0154 13.4146 22.9942 13.394C22.738 13.1445 22.5123 12.8462 22.211 12.6662C21.9813 12.5299 21.7543 12.8063 21.5725 12.9362C21.0946 13.277 20.6605 13.3168 20.1667 12.9709C19.9437 12.8153 19.6649 12.6829 19.3968 12.6507C18.6242 12.5607 18.3454 12.0965 18.2565 11.4253C18.2379 11.28 18.2671 11.0498 18.0879 11.0022C17.7176 10.9045 17.3246 10.9096 16.9556 11.0022C16.7021 11.0652 16.7591 11.352 16.7273 11.5371C16.6264 12.1364 16.3596 12.5222 15.6839 12.6327C15.3215 12.6919 14.9724 12.8925 14.6458 13.0751C14.2861 13.2757 13.9675 13.2796 13.629 13.0481C13.4405 12.9182 13.2321 12.8179 13.0357 12.6983C12.9281 12.6327 12.8418 12.6212 12.7197 12.6919C12.0494 13.0802 11.9339 13.4634 12.3148 14.0974C12.348 14.1527 12.3772 14.2118 12.4171 14.262C12.6812 14.586 12.6494 14.8946 12.4237 15.2341C12.2007 15.571 12.0188 15.9401 11.9405 16.3361C11.8396 16.8467 11.5383 17.0768 11.0179 17.19C10.0582 17.3996 10.2719 17.2363 10.2414 18.1351C10.2387 18.2149 10.248 18.2959 10.2454 18.3756C10.2387 18.5222 10.2878 18.6405 10.4498 18.6508C11.4839 18.7151 11.983 19.3092 12.1609 20.2389C12.1781 20.3302 12.2272 20.4253 12.2883 20.4973C12.7423 21.0413 12.6321 21.5531 12.2153 22.0571C12.1436 22.1446 12.0932 22.2474 12.0321 22.3426C11.9604 22.4519 11.9883 22.5406 12.0613 22.6474C12.5272 23.3276 12.8153 23.3983 13.5268 22.9946C13.5839 22.9624 13.6476 22.9367 13.6981 22.8981C14.002 22.6628 14.2981 22.6988 14.6127 22.8917C14.9923 23.1231 15.4038 23.3122 15.8406 23.3983C16.3357 23.4961 16.5852 23.7622 16.6662 24.2239C16.6994 24.4129 16.7605 24.5981 16.803 24.7858C16.8255 24.8836 16.8481 24.9787 16.9702 24.9941C17.3326 25.0417 17.7136 25.097 18.0547 24.9826C18.3096 24.8964 18.2578 24.5724 18.303 24.3486C18.4065 23.833 18.6255 23.4742 19.2242 23.3739C19.5733 23.3147 19.9291 23.163 20.2264 22.9714C20.6804 22.6782 21.0734 22.6795 21.4942 23.001C21.6362 23.109 21.8048 23.1836 21.9601 23.2762C22.065 23.3379 22.1605 23.3559 22.2827 23.2929C22.9278 22.9573 23.0698 22.4969 22.7021 21.8925C22.6689 21.8372 22.6384 21.7794 22.5986 21.7279C22.3437 21.4065 22.357 21.0991 22.58 20.7532C22.7619 20.4703 22.9437 20.1566 22.9995 19.8364C23.1189 19.1368 23.5358 18.8167 24.2194 18.7382C24.3336 18.7254 24.4464 18.6932 24.5579 18.6623C24.6535 18.6366 24.757 18.6058 24.757 18.4823C24.7544 18.13 24.8234 17.7545 24.7172 17.433C24.6415 17.2003 24.2566 17.2286 24.0083 17.1913C23.484 17.1154 23.1667 16.8749 23.0751 16.3541C23.0114 15.9864 22.8574 15.634 22.6437 15.337C22.3265 14.8946 22.3636 14.5179 22.6835 14.1115C22.8322 13.9238 22.9344 13.7013 23.0486 13.5097L23.0446 13.5072ZM12.9772 2.16805C13.3383 2.12947 13.5441 1.93659 13.5348 1.57139C13.5268 1.22805 13.3224 1.03131 12.9772 1.02231C12.5976 1.01202 12.3799 1.24991 12.3772 1.58939C12.3746 1.92887 12.591 2.15005 12.9772 2.16933V2.16805ZM22.0079 2.16805C22.3902 2.1539 22.6172 1.9443 22.6225 1.60354C22.6291 1.26149 22.4114 1.02745 22.0344 1.02488C21.684 1.02359 21.4809 1.21905 21.4663 1.55982C21.449 1.92116 21.6388 2.12819 22.0079 2.16805ZM17.5065 3.71885C17.8689 3.67384 18.1012 3.48353 18.0839 3.12605C18.0667 2.77628 17.8384 2.56925 17.4667 2.5834C17.1162 2.59754 16.9184 2.81743 16.9171 3.14148C16.9158 3.49639 17.1441 3.6867 17.5065 3.71756V3.71885Z" fill="#F9E9B3"/>
<path d="M5.92583 32.923C5.6683 32.0988 5.34175 31.3375 4.66874 30.728C3.49527 29.6658 2.3311 28.5921 1.35012 27.3486C0.560284 26.3469 0.143466 25.2166 0.0770932 23.968C-0.0622889 21.3537 0.0916951 18.7356 0.00142862 16.1201C-0.0118459 15.7511 0.067801 15.3859 0.223112 15.0425C0.560284 14.2967 1.10056 13.7913 1.97667 13.7566C2.88332 13.7206 3.52846 14.1643 3.93466 14.9191C4.34882 15.688 4.3621 16.5599 4.52272 17.3906C4.81741 18.9182 5.08688 20.451 5.35104 21.9851C5.3922 22.2269 5.45857 22.3143 5.72538 22.268C6.53646 22.1266 7.2546 22.3645 7.93293 22.7901C9.43427 23.7301 10.929 24.6804 12.4582 25.5779C13.5441 26.2145 14.1374 27.1352 14.3936 28.3015C14.5622 29.0692 14.7334 29.8369 14.8821 30.6084C14.9273 30.845 14.9764 30.9222 15.2551 30.8669C15.8671 30.746 16.0038 30.8592 16.1445 31.4571C16.3317 32.2531 16.5295 33.0478 16.71 33.845C16.8521 34.4738 16.7366 34.641 16.0835 34.7863C14.2463 35.1939 12.4064 35.5977 10.5679 36.0028C9.11701 36.323 7.66479 36.6419 6.21389 36.9608C5.70547 37.0726 5.50105 36.9556 5.38556 36.4747C5.19441 35.6787 5.00458 34.8827 4.82405 34.0855C4.65015 33.3152 4.70989 33.2329 5.51963 33.0413C5.64839 33.0105 5.77317 32.968 5.92317 32.9256L5.92583 32.923ZM1.47224 15.0412C1.10056 15.3589 1.05144 15.7935 1.05277 16.2268C1.05675 18.6521 1.06073 21.0773 1.09126 23.5025C1.10852 24.809 1.52401 25.9869 2.39614 27.0092C3.23244 27.9903 4.1497 28.8969 5.12405 29.7417C5.94309 30.4515 6.50991 31.2951 6.82053 32.2968C6.94133 32.6851 7.10195 32.7597 7.44177 32.5694C9.50861 32.1206 11.5754 31.6706 13.6423 31.2282C13.8826 31.1768 13.9064 31.0803 13.856 30.8579C13.6887 30.1223 13.5706 29.3752 13.4033 28.6397C13.2215 27.8437 12.944 27.0915 12.1794 26.6221C10.4869 25.5805 8.79444 24.5415 7.10328 23.4986C6.61876 23.199 6.09707 23.1733 5.57406 23.343C4.986 23.5346 4.5798 23.9217 4.48688 24.5415C4.39926 25.1202 4.74307 25.4648 5.21033 25.7477C6.24973 26.3778 7.2785 27.0233 8.31524 27.6585C8.6325 27.8527 8.84223 28.1009 8.61126 28.4494C8.38161 28.7953 8.067 28.7181 7.74841 28.5188C6.66389 27.8386 5.56344 27.1815 4.48555 26.4909C3.24969 25.7001 3.05456 24.1673 4.082 23.1231C4.3621 22.839 4.40988 22.5946 4.34484 22.2397C3.97581 20.2504 3.62403 18.2573 3.26961 16.2654C3.21253 15.9478 3.14748 15.6328 2.98553 15.3486C2.65367 14.7661 1.86649 14.5333 1.47357 15.0425L1.47224 15.0412ZM15.5897 33.6367C15.4821 33.1841 15.3573 32.7353 15.275 32.2788C15.2206 31.9792 15.0865 31.9252 14.8011 31.9946C14.0644 32.1746 13.3224 32.3328 12.5817 32.4987C10.4737 32.9732 8.36701 33.4528 6.25636 33.9145C5.98158 33.9749 5.8953 34.0688 5.96432 34.3311C6.07849 34.7657 6.18203 35.2029 6.27097 35.6414C6.3161 35.8652 6.44221 35.8742 6.6307 35.8317C9.52985 35.1888 12.429 34.5484 15.3281 33.9042C15.4662 33.8733 15.6441 33.8553 15.591 33.6354L15.5897 33.6367Z" fill="#F9E9B3"/>
<path d="M34.9983 20.0846C34.9611 21.2895 34.989 22.4931 34.9412 23.6979C34.8788 25.2693 34.3199 26.6311 33.2633 27.8206C32.342 28.8583 31.3425 29.8189 30.3084 30.7447C29.6964 31.2925 29.3911 31.9856 29.1243 32.716C29.05 32.9205 29.1416 32.9385 29.3088 32.9886C30.3734 33.3088 30.3748 33.3217 30.1093 34.3941C29.9407 35.0795 29.7774 35.7675 29.6128 36.4541C29.4947 36.9415 29.2902 37.0726 28.7977 36.9633C25.4897 36.2342 22.1817 35.5064 18.8737 34.7747C18.2618 34.6397 18.1437 34.4597 18.2817 33.8515C18.4702 33.022 18.6852 32.1978 18.8645 31.3658C18.964 30.9054 19.2268 30.7241 19.6808 30.8489C19.9755 30.9299 20.0565 30.8579 20.1255 30.566C20.3738 29.5205 20.4733 28.4417 20.8742 27.4309C21.1503 26.734 21.595 26.1707 22.2455 25.7683C23.9061 24.7395 25.5681 23.7134 27.2314 22.6885C27.8407 22.313 28.5031 22.1394 29.2212 22.2616C29.5318 22.3143 29.6022 22.2179 29.6513 21.9324C30.0071 19.8762 30.3841 17.8227 30.7584 15.7703C30.8845 15.0798 31.1964 14.487 31.8071 14.0858C33.0403 13.2783 34.5788 13.9649 34.9133 15.4643C34.9943 15.8282 35.0022 16.196 34.9996 16.5663C34.9943 17.7391 34.9983 18.9118 34.9983 20.0846ZM27.5526 32.5668C27.8884 32.752 28.0504 32.6851 28.1738 32.2955C28.4752 31.3491 28.9796 30.521 29.7641 29.8433C30.6907 29.0422 31.5695 28.187 32.3752 27.2676C33.1504 26.3829 33.7345 25.4121 33.8274 24.2187C34.0372 21.4926 33.854 18.7614 33.927 16.034C33.9363 15.67 33.8434 15.301 33.5235 15.0412C33.0761 14.6709 32.6712 14.6722 32.2571 15.0412C31.9319 15.3319 31.8217 15.7189 31.75 16.115C31.373 18.1994 31.0106 20.2852 30.631 22.3683C30.5805 22.6435 30.6256 22.8261 30.842 23.037C31.8429 24.0066 31.8389 25.5291 30.7544 26.298C29.5809 27.13 28.3225 27.8488 27.088 28.5972C26.7482 28.8043 26.3433 28.6011 26.2982 28.2423C26.2597 27.9363 26.4667 27.7833 26.7017 27.6392C27.7783 26.9783 28.8575 26.3212 29.9221 25.6435C30.619 25.1999 30.7186 24.4991 30.2075 23.8638C29.6778 23.2029 28.6663 23.028 27.8778 23.5051C26.1787 24.5325 24.4942 25.5818 22.8056 26.626C22.2959 26.941 21.9707 27.3988 21.7915 27.9504C21.4782 28.9162 21.3534 29.923 21.1211 30.9054C21.0654 31.1395 21.1755 31.1845 21.3587 31.2218C21.7463 31.3028 22.1326 31.3902 22.5202 31.4751C24.1968 31.8377 25.8747 32.2004 27.5513 32.563L27.5526 32.5668ZM19.9835 31.9547C19.8667 31.911 19.7977 31.9985 19.7592 32.1746C19.6609 32.6286 19.5614 33.0838 19.4313 33.5313C19.353 33.8026 19.4923 33.8643 19.7114 33.9132C22.5972 34.5497 25.4818 35.1862 28.365 35.8305C28.6039 35.8832 28.6902 35.8176 28.7354 35.5951C28.819 35.1862 28.9185 34.7812 29.0301 34.3787C29.1097 34.0919 29.0513 33.9672 28.7128 33.8952C26.711 33.4683 24.7158 33.0118 22.7194 32.5643C21.834 32.3662 20.9472 32.1695 19.9835 31.9535V31.9547Z" fill="#F9E9B3"/>
<path d="M11.7441 4.50711C11.752 4.68071 11.6657 4.8183 11.5821 4.95718C11.1958 5.60142 11.4188 6.18136 12.1529 6.3511C12.6175 6.45783 12.8379 6.69572 12.8246 7.1535C12.818 7.39397 12.8352 7.63572 12.8299 7.87618C12.81 8.64773 12.7742 8.68887 12.0069 8.88948C11.5104 9.01935 11.2051 9.72146 11.5038 10.1329C11.829 10.5792 11.8025 10.9546 11.3976 11.3237C11.241 11.4664 11.1002 11.6259 10.9436 11.7673C10.333 12.3138 10.2759 12.319 9.575 11.9294C9.15686 11.6966 8.47057 11.9846 8.35242 12.4411C8.17056 13.1458 8.12012 13.1883 7.39268 13.2204C7.19489 13.2294 6.99444 13.2333 6.79666 13.2268C6.20461 13.2071 5.82762 12.9152 5.66567 12.3511C5.56744 12.0104 4.83734 11.7223 4.51212 11.8959C3.7183 12.3203 3.69441 12.319 3.02936 11.7095C2.87272 11.5667 2.73997 11.4008 2.58333 11.2581C2.21696 10.9251 2.22492 10.5894 2.49174 10.1895C2.85413 9.64816 2.56873 8.99621 1.91032 8.87533C1.43376 8.78789 1.21872 8.54742 1.22005 8.09221C1.22005 7.8839 1.19881 7.67558 1.20279 7.46726C1.22137 6.56585 1.22668 6.56199 2.10014 6.2958C2.52625 6.16593 2.79307 5.51783 2.57272 5.14363C2.15855 4.44282 2.15988 4.41324 2.72139 3.8153C2.86608 3.66099 3.03068 3.52468 3.17803 3.37423C3.55104 2.99232 3.92273 2.92674 4.39796 3.25593C4.87451 3.58512 5.59664 3.27393 5.69753 2.70556C5.78779 2.19763 6.0639 1.98288 6.57497 1.99317C6.80595 1.99703 7.03958 1.96616 7.26923 1.98031C8.13074 2.03175 8.13074 2.03689 8.36835 2.85087C8.46659 3.18777 9.15951 3.50025 9.48341 3.35366C10.4219 2.93059 10.4286 2.92416 11.152 3.6507C11.3989 3.89888 11.7056 4.12005 11.7454 4.50583L11.7441 4.50711ZM10.5467 4.60613C10.5467 4.44282 10.4047 4.36695 10.3078 4.26408C10.1697 4.11877 10.0303 4.19464 9.9135 4.28594C9.5073 4.60613 9.10907 4.5907 8.68429 4.31165C8.53827 4.21521 8.35375 4.15992 8.17853 4.11877C7.75109 4.01975 7.46569 3.8153 7.42321 3.35366C7.4033 3.14277 7.32232 2.97174 7.01834 2.98331C6.7263 2.9936 6.65329 3.13505 6.62409 3.36651C6.57232 3.78829 6.31745 4.01461 5.89399 4.10462C5.70284 4.14577 5.50372 4.21135 5.3431 4.31423C4.91699 4.58684 4.52008 4.60998 4.11787 4.27822C3.95193 4.14063 3.79928 4.16635 3.64795 4.33094C3.51255 4.47625 3.42228 4.5997 3.57892 4.78358C3.91609 5.17964 3.93335 5.58213 3.61609 6.00648C3.51255 6.14535 3.43556 6.32281 3.40635 6.49126C3.32936 6.93747 3.05989 7.16251 2.61652 7.22551C2.37227 7.26023 2.24616 7.36825 2.25147 7.63829C2.25678 7.90576 2.4174 7.96362 2.62316 7.9932C3.04794 8.05364 3.30812 8.26324 3.39308 8.68887C3.4329 8.88947 3.52051 9.09522 3.64131 9.26239C3.92937 9.6623 3.91477 10.0326 3.60149 10.4017C3.44485 10.5869 3.486 10.7257 3.65193 10.8968C3.83645 11.0871 3.98379 11.0498 4.15902 10.9135C4.5307 10.6242 4.90371 10.628 5.29929 10.8826C5.46124 10.9868 5.65505 11.0704 5.8462 11.1025C6.32408 11.1822 6.57895 11.4459 6.63338 11.8998C6.65993 12.1235 6.74754 12.2315 7.00506 12.2483C7.30241 12.2688 7.39666 12.1081 7.41923 11.8908C7.46702 11.4176 7.73649 11.1835 8.20375 11.1012C8.37765 11.0704 8.55685 10.9945 8.70287 10.8968C9.11172 10.6267 9.49934 10.6267 9.88961 10.9212C10.0449 11.0382 10.1843 11.0999 10.3569 10.9186C10.5069 10.7618 10.6263 10.6254 10.4551 10.4274C10.1033 10.0211 10.1325 9.62373 10.4352 9.20066C10.5454 9.04764 10.6051 8.8509 10.6476 8.66444C10.7378 8.26967 10.9741 8.05107 11.3856 7.99834C11.6073 7.97005 11.7945 7.92762 11.8025 7.63057C11.8104 7.31681 11.6179 7.27052 11.3777 7.21008C11.16 7.15479 10.844 7.14707 10.7963 6.90275C10.6555 6.17622 9.75952 5.53326 10.5082 4.69871C10.5281 4.67557 10.5321 4.63956 10.5454 4.60484L10.5467 4.60613Z" fill="#F9E9B3"/>
<path d="M23.2477 10.6949C23.2477 10.5367 23.3074 10.3978 23.4043 10.2898C23.6764 9.98248 23.6592 9.69573 23.4906 9.32796C23.3539 9.03091 23.1707 8.90361 22.8773 8.87018C22.3716 8.8136 22.1565 8.53198 22.1711 8.05491C22.1778 7.8466 22.1605 7.63699 22.1645 7.42868C22.1804 6.57098 22.195 6.55555 23.0472 6.29708C23.4959 6.16078 23.7548 5.50368 23.5145 5.10762C23.1362 4.48138 23.1415 4.39266 23.6459 3.85001C23.8012 3.68284 23.9765 3.53496 24.1357 3.37293C24.5101 2.99231 24.8831 2.92801 25.3583 3.25592C25.8229 3.57611 26.5371 3.28035 26.6446 2.74284C26.7442 2.24134 26.9911 1.96487 27.5446 1.99059C27.7915 2.00216 28.0424 1.96744 28.288 1.98416C29.1084 2.03945 29.1177 2.0536 29.3194 2.81099C29.4323 3.23534 30.1278 3.51953 30.5301 3.30478C31.2721 2.91001 31.3079 2.91258 31.9372 3.48224C32.0699 3.60311 32.1973 3.72913 32.3195 3.86029C32.8305 4.4158 32.8345 4.46724 32.4442 5.11276C32.1907 5.53197 32.4655 6.17364 32.9593 6.31508C33.7332 6.53755 33.7571 6.56455 33.7929 7.33609C33.8022 7.52769 33.8022 7.72186 33.7929 7.91346C33.7544 8.65415 33.7173 8.69529 32.9766 8.88818C32.4615 9.02191 32.1827 9.68158 32.4549 10.1278C32.8319 10.7489 32.8279 10.8067 32.3394 11.3404C32.208 11.4844 32.0686 11.622 31.9226 11.7532C31.2907 12.319 31.2522 12.3228 30.5155 11.9152C30.1398 11.7069 29.4283 12.0065 29.3221 12.4167C29.127 13.1702 29.0991 13.1921 28.2867 13.2255C28.1048 13.2333 27.9216 13.2345 27.7398 13.2281C27.1557 13.2075 26.7871 12.9251 26.634 12.3807C26.5252 11.9911 25.8216 11.7133 25.4512 11.9126C24.6906 12.3228 24.6521 12.328 24.0096 11.7223C23.6964 11.4278 23.318 11.1642 23.2517 10.6962L23.2477 10.6949ZM24.83 9.78446C24.8207 10.0185 24.7026 10.1767 24.5964 10.3387C24.4769 10.52 24.3827 10.6756 24.5964 10.8865C24.8035 11.0896 24.9535 11.0434 25.1446 10.9006C25.5017 10.6344 25.8614 10.6229 26.2411 10.8775C26.3871 10.9765 26.565 11.0588 26.7389 11.0871C27.246 11.1707 27.5433 11.424 27.5951 11.9319C27.6176 12.1531 27.7424 12.2495 27.9933 12.2495C28.2535 12.2495 28.3504 12.1454 28.369 11.9165C28.4088 11.4278 28.6955 11.1758 29.1854 11.0948C29.3433 11.0691 29.5039 10.9958 29.6393 10.9096C30.0601 10.6409 30.4663 10.6049 30.8659 10.9341C31.061 11.0935 31.2018 11.0395 31.3677 10.8775C31.5243 10.7245 31.5628 10.5933 31.4168 10.4261C31.065 10.0236 31.0942 9.62372 31.3956 9.20451C31.4978 9.06306 31.5774 8.88818 31.604 8.71844C31.6743 8.26452 31.9478 8.04591 32.3951 7.99319C32.6142 7.96747 32.7562 7.89418 32.7522 7.63314C32.7496 7.40039 32.6779 7.26537 32.435 7.23579C31.9491 7.17793 31.6584 6.94132 31.5814 6.45139C31.5535 6.26751 31.458 6.07976 31.3464 5.92546C31.081 5.56026 31.0796 5.22078 31.3703 4.8723C31.515 4.6987 31.5721 4.53925 31.3624 4.33608C31.154 4.13419 30.9933 4.1792 30.8075 4.32322C30.4464 4.60226 30.092 4.58426 29.711 4.34508C29.5345 4.23449 29.3221 4.15862 29.115 4.11233C28.6756 4.01332 28.4128 3.77928 28.373 3.33307C28.3544 3.1209 28.2854 2.98716 28.0106 2.98459C27.7345 2.98202 27.6044 3.09775 27.5845 3.33179C27.542 3.81143 27.242 4.02232 26.796 4.12905C26.5902 4.17791 26.3805 4.25635 26.2026 4.36694C25.8521 4.58426 25.5269 4.59197 25.1911 4.34894C24.9999 4.21134 24.8247 4.10333 24.5937 4.33993C24.3614 4.57654 24.4942 4.75142 24.6296 4.92888C24.8658 5.24007 24.8778 5.5384 24.6521 5.85987C24.5605 5.98975 24.4928 6.14535 24.4517 6.29708C24.3136 6.81273 24.0787 7.21265 23.4534 7.25894C23.2556 7.27308 23.2052 7.43254 23.2065 7.61513C23.2079 7.79645 23.2543 7.93661 23.4587 7.96619C23.8955 8.03177 24.226 8.18222 24.3574 8.658C24.4663 9.05535 24.676 9.42569 24.83 9.78317V9.78446Z" fill="#F9E9B3"/>
<path d="M17.4507 22.2063C14.9976 22.169 13.0901 20.2646 13.1325 17.8947C13.1737 15.571 15.1662 13.7258 17.5914 13.7631C19.9875 13.8003 21.9017 15.7331 21.8618 18.0773C21.822 20.3777 19.8309 22.241 17.4507 22.205V22.2063ZM14.1905 17.986C14.1905 19.7579 15.6826 21.2097 17.4972 21.2059C19.3211 21.202 20.8025 19.7644 20.8105 17.9885C20.8198 16.2243 19.3304 14.7763 17.5012 14.7686C15.6866 14.7609 14.1892 16.2166 14.1905 17.986Z" fill="#F9E9B3"/>
<path d="M4.22271 7.62028C4.21342 6.12606 5.43467 4.9186 6.97186 4.90317C8.53559 4.88773 9.81392 6.08491 9.82985 7.57785C9.84578 9.07978 8.59002 10.313 7.04089 10.3168C5.46653 10.3207 4.23201 9.14022 4.22271 7.62028ZM8.75462 7.60228C8.75197 6.64428 7.96612 5.8946 6.98381 5.91003C6.03734 5.92546 5.25812 6.69957 5.26742 7.619C5.27538 8.53842 6.06521 9.31253 7.00372 9.32282C7.96877 9.33311 8.7586 8.55771 8.75462 7.60228Z" fill="#F9E9B3"/>
<path d="M27.9548 10.3168C26.4031 10.3065 25.1539 9.0785 25.1659 7.57657C25.1791 6.08749 26.4668 4.88388 28.0252 4.90317C29.5624 4.92246 30.7823 6.12864 30.7757 7.62286C30.769 9.13765 29.5226 10.3284 27.9548 10.3181V10.3168ZM27.9694 5.91003C27.0123 5.91003 26.2504 6.65843 26.2477 7.59843C26.2451 8.56028 27.0323 9.33697 27.9947 9.32282C28.9398 9.30868 29.7257 8.53971 29.7336 7.62286C29.7416 6.68286 28.9451 5.90875 27.9694 5.91003Z" fill="#F9E9B3"/>
</svg>
