<svg width="15" height="15" viewBox="0 0 15 15" fill="none" xmlns="http://www.w3.org/2000/svg">
<path d="M14.9229 5.22918C15.0761 5.61926 15.0059 5.95802 14.6974 6.25295C13.8784 7.03548 13.073 7.83224 12.2416 8.60174C11.8958 8.92194 11.7679 9.26228 11.8569 9.72462C12.0703 10.8309 12.2568 11.9423 12.4489 13.0526C12.5115 13.4142 12.4317 13.7364 12.1124 13.9611C11.798 14.1826 11.4675 14.1735 11.1325 13.9997C10.1062 13.4679 9.07856 12.9385 8.05337 12.4039C7.86165 12.304 7.66511 12.2325 7.44852 12.2163C7.44692 11.6656 7.44491 11.1152 7.44331 10.5644C7.66351 10.5486 7.83999 10.6596 8.02289 10.7551C8.67827 11.0962 9.33405 11.4358 9.99104 11.7733C10.123 11.8413 10.2602 11.8803 10.4146 11.8326C10.7607 11.7256 10.9107 11.4725 10.8426 11.0737C10.7174 10.3417 10.5995 9.60775 10.4543 8.8793C10.3917 8.56581 10.4691 8.33761 10.7014 8.12164C11.2641 7.59771 11.8136 7.06075 12.3659 6.52616C12.5444 6.35363 12.6362 6.14477 12.55 5.89958C12.4638 5.6544 12.2761 5.51937 12.0149 5.48226C11.2553 5.37447 10.4968 5.25958 9.73635 5.16048C9.43272 5.12099 9.22014 4.99939 9.08457 4.71551C8.76049 4.03721 8.41475 3.36956 8.08265 2.69521C7.95149 2.4291 7.76178 2.26248 7.44572 2.27433C7.44652 1.51785 7.44732 0.761369 7.44812 0.00449578C7.83157 -0.0322227 8.08666 0.159266 8.28079 0.458541C8.29723 0.472755 8.31368 0.486968 8.33012 0.501182L8.32651 0.498813C8.32972 0.524476 8.32571 0.553298 8.33654 0.575014C8.87601 1.65209 9.41467 2.72956 9.95975 3.80426C10.0737 4.02892 10.2762 4.16592 10.5245 4.20461C11.1161 4.29661 11.7101 4.37281 12.3033 4.45532C12.9086 4.54416 13.513 4.63852 14.1195 4.72025C14.472 4.76763 14.7584 4.90147 14.9229 5.22918Z" fill="#D5001C"/>
<path d="M7.44812 0.00449578C7.44732 0.761369 7.44652 1.51785 7.44572 2.27433C7.18501 2.32013 7.03099 2.47999 6.91868 2.71017C6.58538 3.39124 6.23603 4.06441 5.90152 4.74469C5.77918 4.99343 5.59187 5.12253 5.31552 5.15965C4.55505 5.26112 3.79619 5.37404 3.03612 5.47985C2.76739 5.51696 2.53997 5.6129 2.45534 5.88967C2.37312 6.15776 2.4758 6.37017 2.67755 6.55969C3.21862 7.06782 3.74284 7.59412 4.28953 8.09594C4.53861 8.32454 4.60599 8.57446 4.54623 8.89348C4.40946 9.6235 4.29194 10.3571 4.15918 11.0879C4.11145 11.3512 4.15797 11.5767 4.387 11.7338C4.61562 11.8906 4.85066 11.8535 5.0861 11.7307C5.76474 11.3769 6.44539 11.0275 7.12565 10.6765C7.22592 10.6248 7.32459 10.5648 7.44331 10.5644C7.44491 11.1152 7.44692 11.6656 7.44852 12.2163C7.28809 12.2381 7.14089 12.2961 6.9977 12.3703C5.97251 12.9029 4.94331 13.4276 3.92093 13.9654C3.61089 14.1284 3.30846 14.1719 2.98518 14.0273C2.5873 13.7719 2.48823 13.4154 2.57086 12.9669C2.78023 11.829 2.96874 10.6876 3.16928 9.54809C3.22664 9.22158 3.12757 8.95428 2.89012 8.72686C2.03339 7.90564 1.17947 7.08164 0.321538 6.26199C0.102944 6.05353 -0.0302183 5.81387 0.0058799 5.50867C0.0536097 5.10674 0.328357 4.81892 0.739074 4.75811C1.92069 4.58321 3.1023 4.41067 4.28592 4.24998C4.68541 4.19589 4.95655 4.01309 5.13383 3.65103C5.64121 2.61502 6.16784 1.58848 6.68084 0.555235C6.84007 0.234245 7.07591 0.031701 7.44692 0.00406348L7.44812 0.00449578Z" fill="#D5001C"/>
<path d="M7.44331 10.5644C7.32419 10.5648 7.22672 10.6252 7.12685 10.6765C6.4466 11.0271 5.76555 11.3766 5.0873 11.7307C4.85186 11.8535 4.61642 11.891 4.3882 11.7339C4.15918 11.5763 4.11225 11.3509 4.16038 11.0879C4.29314 10.3571 4.41066 9.62354 4.54743 8.89352C4.60719 8.57489 4.53981 8.32458 4.29073 8.09598C3.74365 7.59416 3.21982 7.06786 2.67875 6.55972C2.4766 6.37021 2.37432 6.1574 2.45655 5.88971C2.54118 5.61294 2.769 5.517 3.03733 5.47989C3.79739 5.37447 4.55626 5.26155 5.31673 5.15968C5.59308 5.12297 5.78039 4.99346 5.90272 4.74473C6.23723 4.06445 6.58658 3.39128 6.91989 2.71021C7.03219 2.48042 7.18621 2.32052 7.44692 2.27433C7.76298 2.26248 7.9531 2.4291 8.08385 2.69521C8.41596 3.36956 8.7621 4.0376 9.08578 4.71551C9.22134 4.99939 9.43432 5.12099 9.73755 5.16047C10.4984 5.25957 11.2569 5.37447 12.0161 5.48225C12.2773 5.51937 12.465 5.6544 12.5512 5.89958C12.6374 6.14437 12.5456 6.35323 12.3671 6.52616C11.8148 7.06075 11.2653 7.59811 10.7026 8.12164C10.4703 8.33761 10.3929 8.56621 10.4555 8.8793C10.6007 9.60775 10.7186 10.3413 10.8438 11.0737C10.9119 11.4725 10.7619 11.7256 10.4158 11.8326C10.261 11.8803 10.1242 11.8413 9.99224 11.7733C9.33525 11.4358 8.67947 11.0958 8.02409 10.7551C7.84079 10.6599 7.66471 10.5486 7.44451 10.5644L7.44331 10.5644Z" fill="#D5001C"/>
</svg>
