<svg width="20" height="20" viewBox="0 0 20 20" fill="none" xmlns="http://www.w3.org/2000/svg">
<path d="M15.3125 12.8125C15.1399 12.6399 14.8601 12.6399 14.6875 12.8125C14.5149 12.9851 14.2351 12.9851 14.0625 12.8125L13.8531 12.6031C13.5878 12.3378 13.5674 11.9177 13.7739 11.6045C14.5743 10.3906 15.0034 8.96369 15 7.5C15 6.01664 14.5601 4.56659 13.736 3.33323C12.9119 2.09986 11.7406 1.13856 10.3701 0.570907C8.99968 0.00324965 7.49168 -0.145275 6.03683 0.144114C4.58197 0.433503 3.2456 1.14781 2.1967 2.1967C1.14781 3.2456 0.433503 4.58197 0.144114 6.03683C-0.145275 7.49168 0.00324965 8.99968 0.570907 10.3701C1.13856 11.7406 2.09986 12.9119 3.33323 13.736C4.56659 14.5601 6.01664 15 7.5 15C8.96369 15.0034 10.3906 14.5743 11.6045 13.7739C11.9177 13.5674 12.3378 13.5878 12.6031 13.8531L12.8125 14.0625C12.9851 14.2351 12.9851 14.5149 12.8125 14.6875C12.6399 14.8601 12.6399 15.1399 12.8125 15.3125L16.25 18.75C16.9404 19.4404 18.0596 19.4404 18.75 18.75C19.4404 18.0596 19.4404 16.9404 18.75 16.25L15.3125 12.8125ZM7.5 12.5C6.5111 12.5 5.5444 12.2068 4.72215 11.6574C3.89991 11.1079 3.25904 10.3271 2.88061 9.41342C2.50217 8.49979 2.40315 7.49446 2.59608 6.52455C2.789 5.55465 3.26521 4.66373 3.96447 3.96447C4.66373 3.26521 5.55465 2.789 6.52455 2.59608C7.49446 2.40315 8.49979 2.50217 9.41342 2.88061C10.3271 3.25904 11.1079 3.89991 11.6574 4.72215C12.2068 5.5444 12.5 6.5111 12.5 7.5C12.5 8.82609 11.9732 10.0979 11.0355 11.0355C10.0979 11.9732 8.82609 12.5 7.5 12.5Z" fill="#46494F"/>
</svg>
