<svg width="17" height="16" viewBox="0 0 17 16" fill="none" xmlns="http://www.w3.org/2000/svg">
<g id="settings" clip-path="url(#clip0_1379_2812)">
<path id="Vector " fill-rule="evenodd" clip-rule="evenodd" d="M8.91292 1.1665C8.69191 1.1665 8.47995 1.2543 8.32367 1.41058C8.16739 1.56686 8.07959 1.77882 8.07959 1.99984V2.11317L8.07959 2.11516C8.07834 2.4272 7.98588 2.73206 7.81359 2.99222C7.6413 3.25238 7.3967 3.45649 7.10989 3.57941C7.06253 3.5997 7.01242 3.61252 6.96133 3.61749C6.69592 3.71382 6.40907 3.73842 6.12999 3.68782C5.81543 3.63078 5.52516 3.48082 5.29662 3.25727L5.29268 3.25341L5.2527 3.21339C5.17531 3.13591 5.08321 3.07425 4.98204 3.03231C4.88088 2.99037 4.77244 2.96879 4.66292 2.96879C4.55341 2.96879 4.44497 2.99037 4.34381 3.03231C4.24264 3.07425 4.15073 3.13571 4.07334 3.21319C3.99586 3.29059 3.934 3.38289 3.89206 3.48405C3.85013 3.58522 3.82854 3.69366 3.82854 3.80317C3.82854 3.91268 3.85013 4.02112 3.89206 4.12229C3.934 4.22345 3.99547 4.31536 4.07295 4.39275L4.11704 4.43685C4.34059 4.66539 4.49053 4.95568 4.54757 5.27024C4.60367 5.57962 4.56735 5.89855 4.44333 6.18723C4.33149 6.48229 4.13485 6.73782 3.878 6.92153C3.61686 7.1083 3.30558 7.21219 2.98462 7.2197L2.97292 7.21984H2.91292C2.69191 7.21984 2.47995 7.30763 2.32367 7.46391C2.16739 7.6202 2.07959 7.83216 2.07959 8.05317C2.07959 8.27418 2.16739 8.48615 2.32367 8.64243C2.47995 8.79871 2.69191 8.8865 2.91292 8.8865H3.02825C3.34029 8.88775 3.64515 8.98021 3.90531 9.1525C4.16473 9.3243 4.36841 9.568 4.49144 9.85375C4.61965 10.1456 4.65778 10.4691 4.6009 10.7828C4.54387 11.0973 4.39391 11.3876 4.17035 11.6161L4.1665 11.6201L4.12648 11.6601C4.049 11.7375 3.98733 11.8296 3.9454 11.9307C3.90346 12.0319 3.88187 12.1403 3.88187 12.2498C3.88187 12.3594 3.90346 12.4678 3.9454 12.569C3.98733 12.6701 4.0488 12.762 4.12628 12.8394C4.20367 12.9169 4.29597 12.9788 4.39714 13.0207C4.49831 13.0626 4.60674 13.0842 4.71626 13.0842C4.82577 13.0842 4.93421 13.0626 5.03537 13.0207C5.13654 12.9788 5.22845 12.9173 5.30584 12.8398L5.34994 12.7957C5.57847 12.5722 5.86876 12.4222 6.18333 12.3652C6.49271 12.3091 6.81165 12.3454 7.10034 12.4694C7.39539 12.5813 7.65091 12.7779 7.83462 13.0348C8.02139 13.2959 8.12528 13.6072 8.13279 13.9281L8.13292 13.9398V13.9998C8.13292 14.2209 8.22072 14.4328 8.377 14.5891C8.53328 14.7454 8.74524 14.8332 8.96626 14.8332C9.18727 14.8332 9.39923 14.7454 9.55551 14.5891C9.71179 14.4328 9.79959 14.2209 9.79959 13.9998V13.8865L9.79959 13.8845C9.80084 13.5725 9.8933 13.2676 10.0656 13.0075C10.2374 12.7481 10.481 12.5444 10.7667 12.4214C11.0586 12.2931 11.3821 12.255 11.6959 12.3119C12.0104 12.3689 12.3007 12.5189 12.5292 12.7424L12.5332 12.7463L12.5731 12.7863C12.6505 12.8638 12.7426 12.9254 12.8438 12.9674C12.945 13.0093 13.0534 13.0309 13.1629 13.0309C13.2724 13.0309 13.3809 13.0093 13.482 12.9674C13.5832 12.9254 13.6751 12.864 13.7525 12.7865C13.83 12.7091 13.8918 12.6168 13.9338 12.5156C13.9757 12.4145 13.9973 12.306 13.9973 12.1965C13.9973 12.087 13.9757 11.9786 13.9338 11.8774C13.8918 11.7762 13.8304 11.6843 13.7529 11.6069L13.7088 11.5628C13.4853 11.3343 13.3353 11.044 13.2783 10.7294C13.2214 10.4157 13.2595 10.0921 13.3878 9.80027C13.5108 9.51459 13.7145 9.27094 13.9739 9.09917C14.234 8.92688 14.5389 8.83442 14.8509 8.83317L14.8529 8.83317L14.9129 8.83317C15.1339 8.83317 15.3459 8.74537 15.5022 8.58909C15.6585 8.43281 15.7463 8.22085 15.7463 7.99984C15.7463 7.77882 15.6585 7.56686 15.5022 7.41058C15.3459 7.2543 15.1339 7.1665 14.9129 7.1665H14.7996L14.7976 7.1665C14.4856 7.16526 14.1807 7.0728 13.9205 6.90051C13.6604 6.72821 13.4563 6.48361 13.3334 6.1968C13.3131 6.14945 13.3002 6.09933 13.2953 6.04825C13.1989 5.78284 13.1743 5.49599 13.2249 5.21691C13.282 4.90234 13.4319 4.61208 13.6555 4.38354L13.6593 4.3796L13.6994 4.33962C13.7768 4.26222 13.8385 4.17012 13.8805 4.06895C13.9224 3.96779 13.944 3.85935 13.944 3.74984C13.944 3.64033 13.9224 3.53189 13.8805 3.43072C13.8385 3.32956 13.777 3.23765 13.6996 3.16025C13.6222 3.08277 13.5299 3.02091 13.4287 2.97898C13.3275 2.93704 13.2191 2.91545 13.1096 2.91545C13.0001 2.91545 12.8916 2.93704 12.7905 2.97898C12.6893 3.02091 12.5974 3.08238 12.52 3.15986L12.4759 3.20396C12.2474 3.42751 11.9571 3.57745 11.6425 3.63449C11.3288 3.69136 11.0053 3.65323 10.7135 3.52502C10.4278 3.40199 10.1841 3.19831 10.0123 2.93889C9.83996 2.67873 9.74751 2.37387 9.74626 2.06183L9.74626 2.05984V1.99984C9.74626 1.77882 9.65846 1.56686 9.50218 1.41058C9.3459 1.2543 9.13394 1.1665 8.91292 1.1665ZM7.61656 0.703475C7.96038 0.359658 8.42669 0.166504 8.91292 0.166504C9.39915 0.166504 9.86547 0.359658 10.2093 0.703475C10.5531 1.04729 10.7463 1.51361 10.7463 1.99984V2.05866C10.7469 2.17539 10.7815 2.28941 10.846 2.38674C10.9106 2.4843 11.0023 2.56084 11.1099 2.60693L11.1148 2.60905C11.2245 2.65745 11.3461 2.67192 11.4641 2.65053C11.5813 2.62928 11.6895 2.57364 11.7749 2.49073L11.8125 2.45315C11.8124 2.45321 11.8126 2.45308 11.8125 2.45315C11.9827 2.28278 12.1851 2.14743 12.4075 2.0552C12.6301 1.96294 12.8687 1.91546 13.1096 1.91546C13.3505 1.91546 13.5891 1.96294 13.8116 2.0552C14.034 2.14739 14.2361 2.28248 14.4063 2.45275C14.5767 2.62302 14.712 2.82522 14.8042 3.04778C14.8965 3.27034 14.944 3.50891 14.944 3.74984C14.944 3.99077 14.8965 4.22933 14.8042 4.45189C14.712 4.67437 14.5768 4.8765 14.4065 5.04672C14.4064 5.04679 14.4065 5.04666 14.4065 5.04672L14.3687 5.0845C14.2858 5.16994 14.2301 5.27813 14.2089 5.39532C14.1875 5.51328 14.2019 5.63494 14.2504 5.74462C14.2683 5.78519 14.2806 5.82786 14.2873 5.87148C14.3333 5.94949 14.3966 6.01637 14.4727 6.06676C14.57 6.13122 14.684 6.16588 14.8008 6.1665H14.9129C15.3992 6.1665 15.8655 6.35966 16.2093 6.70348C16.5531 7.04729 16.7463 7.51361 16.7463 7.99984C16.7463 8.48607 16.5531 8.95238 16.2093 9.2962C15.8655 9.64002 15.3992 9.83317 14.9129 9.83317H14.8541C14.7374 9.8338 14.6234 9.86846 14.526 9.93291C14.4285 9.99752 14.3519 10.0893 14.3058 10.1968L14.3037 10.2017C14.2553 10.3114 14.2408 10.4331 14.2622 10.551C14.2835 10.6682 14.3391 10.7764 14.422 10.8619L14.4596 10.8994C14.6301 11.0697 14.7653 11.2719 14.8576 11.4944C14.9498 11.717 14.9973 11.9556 14.9973 12.1965C14.9973 12.4374 14.9498 12.676 14.8576 12.8986C14.7653 13.121 14.6302 13.3232 14.4598 13.4934C14.2896 13.6638 14.0875 13.7989 13.865 13.8911C13.6424 13.9834 13.4039 14.0309 13.1629 14.0309C12.922 14.0309 12.6834 13.9834 12.4609 13.8911C12.2383 13.7989 12.0361 13.6637 11.8658 13.4932L11.8283 13.4556C11.7428 13.3727 11.6346 13.3171 11.5174 13.2958C11.3995 13.2744 11.2778 13.2889 11.1681 13.3373L11.1632 13.3394C11.0557 13.3855 10.9639 13.462 10.8993 13.5596C10.8349 13.6569 10.8002 13.771 10.7996 13.8877V13.9998C10.7996 14.4861 10.6064 14.9524 10.2626 15.2962C9.9188 15.64 9.45249 15.8332 8.96626 15.8332C8.48003 15.8332 8.01371 15.64 7.66989 15.2962C7.32608 14.9524 7.13292 14.4861 7.13292 13.9998V13.9466C7.12917 13.828 7.09032 13.7131 7.02125 13.6165C6.95121 13.5186 6.85333 13.444 6.74033 13.4024C6.73045 13.3988 6.72068 13.3949 6.71104 13.3906C6.60136 13.3422 6.4797 13.3278 6.36174 13.3491C6.24454 13.3704 6.13634 13.426 6.0509 13.509L6.01334 13.5465C5.84307 13.717 5.64088 13.8522 5.41831 13.9445C5.19575 14.0367 4.95719 14.0842 4.71626 14.0842C4.47533 14.0842 4.23676 14.0367 4.0142 13.9445C3.79164 13.8522 3.58944 13.717 3.41917 13.5465C3.2489 13.3763 3.11381 13.1743 3.02162 12.9519C2.92936 12.7293 2.88187 12.4908 2.88187 12.2498C2.88187 12.0089 2.92936 11.7703 3.02162 11.5478C3.11385 11.3253 3.24901 11.1232 3.41937 10.9529L3.45715 10.9152C3.54006 10.8297 3.5957 10.7215 3.61695 10.6044C3.63834 10.4864 3.6239 10.3647 3.57549 10.2551L3.57333 10.2501C3.52723 10.1426 3.45072 10.0509 3.35316 9.98625C3.25583 9.92179 3.14181 9.88713 3.02508 9.8865H2.91292C2.42669 9.8865 1.96038 9.69335 1.61656 9.34953C1.27274 9.00572 1.07959 8.5394 1.07959 8.05317C1.07959 7.56694 1.27274 7.10063 1.61656 6.75681C1.96038 6.41299 2.42669 6.21984 2.91292 6.21984H2.9662C3.0848 6.21608 3.19967 6.17724 3.29625 6.10816C3.39417 6.03812 3.46876 5.94024 3.51032 5.82725C3.51396 5.81736 3.51791 5.80759 3.52216 5.79795C3.57056 5.68828 3.585 5.56661 3.56361 5.44865C3.54237 5.33146 3.48672 5.22326 3.4038 5.13782L3.36623 5.10025C3.36617 5.10019 3.3663 5.10032 3.36623 5.10025C3.19587 4.93003 3.06052 4.72771 2.96829 4.50523C2.87603 4.28266 2.82854 4.0441 2.82854 3.80317C2.82854 3.56224 2.87603 3.32368 2.96829 3.10111C3.06052 2.87864 3.19567 2.67651 3.36604 2.50628C3.53626 2.33592 3.73839 2.20076 3.96087 2.10854C4.18343 2.01628 4.42199 1.96879 4.66292 1.96879C4.90385 1.96879 5.14242 2.01628 5.36498 2.10854C5.58746 2.20076 5.78958 2.33592 5.95981 2.50628C5.95974 2.50622 5.95988 2.50635 5.95981 2.50628L5.99757 2.54404C6.08301 2.62697 6.19121 2.68261 6.3084 2.70386C6.42636 2.72525 6.54803 2.71081 6.65771 2.66241C6.69828 2.6445 6.74094 2.63212 6.78457 2.6255C6.86258 2.57945 6.92946 2.51616 6.97985 2.44007C7.0443 2.34274 7.07897 2.22872 7.07959 2.11199V1.99984C7.07959 1.51361 7.27274 1.04729 7.61656 0.703475ZM8.91293 6.49985C8.08451 6.49985 7.41293 7.17142 7.41293 7.99985C7.41293 8.82828 8.08451 9.49985 8.91293 9.49985C9.74136 9.49985 10.4129 8.82828 10.4129 7.99985C10.4129 7.17142 9.74136 6.49985 8.91293 6.49985ZM6.41293 7.99985C6.41293 6.61914 7.53222 5.49985 8.91293 5.49985C10.2936 5.49985 11.4129 6.61914 11.4129 7.99985C11.4129 9.38056 10.2936 10.4998 8.91293 10.4998C7.53222 10.4998 6.41293 9.38056 6.41293 7.99985Z" fill="#00538F"/>
</g>
<defs>
<clipPath id="clip0_1379_2812">
<rect width="16" height="16" fill="white" transform="translate(0.913086)"/>
</clipPath>
</defs>
</svg>
