<svg width="93" height="50" viewBox="0 0 93 50" fill="none" xmlns="http://www.w3.org/2000/svg">
<path d="M0 24.9663C6.03644 18.2677 12.7502 12.5529 20.4179 7.97385C25.9942 4.64387 31.9014 2.12256 38.2997 0.829714C47.2497 -0.97821 55.8713 0.245101 64.1983 3.75278C75.3896 8.46575 84.6705 15.8005 92.757 24.7319C92.8113 24.7911 92.8371 24.8787 93 25.1981C90.906 27.2764 88.8197 29.4861 86.5835 31.5387C79.5285 38.0106 71.7393 43.3649 62.7454 46.8623C50.0107 51.8121 37.6121 50.7434 25.5004 44.7994C15.9895 40.1328 7.89003 33.617 0.744538 25.8754C0.514455 25.6256 0.312809 25.35 0 24.9663ZM46.5026 7.69313C36.8494 7.70858 29.1068 15.4476 29.1145 25.0719C29.1223 34.5854 36.9167 42.3244 46.5 42.3321C56.0704 42.3399 63.8932 34.5725 63.8803 25.077C63.8674 15.4219 56.1273 7.67768 46.5052 7.69313H46.5026ZM6.36735 25.0358C13.624 33.4419 31.2421 44.2019 37.6845 44.1941C21.1702 36.298 21.5528 13.2843 37.6896 5.81567C30.464 6.26894 12.7967 17.0907 6.36735 25.0384V25.0358ZM55.3776 5.74098C71.822 13.7298 71.4472 36.7332 55.3569 44.2869C67.7995 41.1114 77.7473 33.9209 86.7774 25.0049C77.6827 16.0966 67.7995 8.87008 55.3776 5.74356V5.74098Z" fill="#D62027"/>
<path d="M57.9783 19.5914C55.4319 18.9733 53.7696 19.5477 52.8518 21.2886C52.0375 22.8313 52.402 24.7036 53.7411 25.8419C55.2897 27.1605 56.983 27.0575 59.0977 25.5174C59.6483 30.7094 54.7545 36.4139 48.7879 37.5342C42.281 38.7549 35.8154 34.6394 34.1272 28.2061C32.4598 21.8526 36.0299 15.1849 42.2706 12.9984C48.3794 10.8583 55.4267 13.7736 57.9783 19.5889V19.5914Z" fill="#D62027"/>
</svg>
