<svg width="93" height="74" viewBox="0 0 93 74" fill="none" xmlns="http://www.w3.org/2000/svg">
<path d="M62.2502 9.84666C60.7143 11.6493 59.2349 13.3825 57.6592 15.2315C50.4975 8.98006 42.4601 6.29427 33.2882 7.42879C26.2957 8.29539 20.3647 11.3847 15.4752 16.4354C6.05786 26.1665 4.58173 41.7917 11.9889 53.0508C19.8173 64.9516 34.4559 69.7576 47.7609 64.7697C59.2979 60.4434 69.4384 47.8579 66.38 30.5524C68.7152 30.1852 71.0406 29.8214 73.3327 29.4609C76.965 45.139 68.9474 63.9627 51.2207 71.1799C33.5005 78.3938 13.7735 71.3982 4.45237 54.4169C-4.1357 38.7718 -0.151819 18.4465 15.1236 7.15756C29.7488 -3.65175 50.0033 -1.78625 62.2502 9.84666Z" fill="#D62027"/>
<path d="M59.3344 34.7531C60.7243 42.989 55.6756 53.6859 45.5484 57.7576C35.5638 61.773 23.977 58.1181 18.1123 48.9394C12.3173 39.8699 13.9228 27.7574 21.8906 20.441C29.7356 13.2403 41.946 12.5225 50.4809 18.936C48.1125 20.2624 45.8569 21.5788 43.5349 22.7762C43.1633 22.968 42.4966 22.667 41.9891 22.5149C36.005 20.7122 30.6577 21.9062 26.2924 26.3219C21.9801 30.688 20.8058 36.0099 22.7265 41.8644C24.9191 48.5491 31.3941 52.6208 38.7383 52.0718C45.0939 51.5955 50.8757 46.2801 52.1097 39.8964C52.2424 39.2084 52.8295 38.4278 53.4332 38.0508C55.324 36.8699 57.3209 35.8611 59.3344 34.7564V34.7531Z" fill="#D62027"/>
<path d="M84.6242 0.806929C83.6755 4.49162 82.7401 8.13662 81.7416 12.0198C85.4336 13.0782 89.036 14.1102 93 15.2447C89.4009 17.259 86.107 19.1047 82.8098 20.947C82.4714 21.1356 82.1264 21.3076 81.8014 21.516C78.7728 23.4807 75.7177 24.7806 71.84 24.2514C67.3784 23.6428 63.5306 25.9217 59.7656 28.0683C55.314 30.6086 50.8226 33.0794 46.3345 35.5634C45.5318 36.0066 45.0641 36.4499 44.9845 37.5281C44.7357 40.8622 42.072 43.7696 38.9738 44.3948C35.4775 45.0993 31.9282 43.5844 30.2862 40.6836C28.5547 37.6274 28.9063 33.9394 31.1653 31.462C33.6 28.7927 37.1096 27.936 40.3338 29.5171C41.5877 30.1323 42.3805 29.8809 43.442 29.2723C48.4675 26.398 53.5161 23.57 58.5947 20.7916C62.8307 18.4762 65.8791 15.1587 67.6571 10.667C67.8395 10.2039 68.2409 9.71766 68.6721 9.4729C73.7971 6.55888 78.9486 3.68787 84.0968 0.810237C84.1797 0.76393 84.3124 0.803622 84.6242 0.803622V0.806929Z" fill="#D62027"/>
</svg>
