<svg width="33" height="35" viewBox="0 0 33 35" fill="none" xmlns="http://www.w3.org/2000/svg">
<path d="M6.12006 22.6054C6.33494 20.8636 7.06462 19.8884 8.43962 18.8888C10.4071 17.5348 12.8646 18.3006 12.8646 18.3006V13.7573C13.4622 13.7422 14.0599 13.7769 14.6508 13.8608V19.7078C14.6508 19.7078 12.1939 18.942 10.2266 20.2966C8.85225 21.2956 8.12107 22.2715 7.90694 24.0133C7.90023 24.9591 8.08152 26.1954 8.91646 27.2644C8.70994 27.1607 8.49957 27.0427 8.2852 26.9102C6.4461 25.7011 6.11111 23.8873 6.12006 22.6054ZM24.7984 5.3563C23.445 3.90436 22.9331 2.4384 22.7481 1.40859H24.4507C24.4507 1.40859 24.1112 4.10877 26.5852 6.76416L26.6196 6.79986C25.9527 6.38923 25.3412 5.90454 24.7984 5.3563ZM33 9.47272V15.2021C33 15.2021 30.8275 15.1189 29.2197 14.7184C26.9746 14.1583 25.5317 13.2993 25.5317 13.2993C25.5317 13.2993 24.535 12.6868 24.4544 12.6441V24.4753C24.4544 25.1341 24.2701 26.7792 23.7083 28.1514C22.9749 29.9465 21.8431 31.1246 21.6349 31.3654C21.6349 31.3654 20.2584 32.9581 17.8299 34.0307C15.6409 34.9982 13.7189 34.9737 13.1445 34.9982C13.1445 34.9982 9.82218 35.127 6.83258 33.2249C6.1861 32.8056 5.58265 32.3308 5.03003 31.8064L5.04496 31.8169C8.03527 33.7191 11.3568 33.5902 11.3568 33.5902C11.9321 33.5657 13.854 33.5902 16.0423 32.6227C18.4686 31.5503 19.8473 29.9576 19.8473 29.9576C20.0533 29.7168 21.1903 28.5385 21.9207 26.7429C22.481 25.3714 22.6667 23.7255 22.6667 23.0668V11.237C22.7473 11.2803 23.7434 11.8928 23.7434 11.8928C23.7434 11.8928 25.1871 12.7526 27.4321 13.3119C29.0405 13.7124 31.2125 13.7958 31.2125 13.7958V9.30613C31.9555 9.46922 32.589 9.51338 33 9.47272Z" fill="#EE1D52"/>
<path d="M31.2137 9.30613V13.7943C31.2137 13.7943 29.0418 13.7109 27.4333 13.3106C25.1883 12.7505 23.7446 11.8915 23.7446 11.8915C23.7446 11.8915 22.7485 11.279 22.668 11.2355V23.0682C22.668 23.727 22.4837 25.3728 21.9219 26.7442C21.1885 28.54 20.0567 29.7182 19.8485 29.959C19.8485 29.959 18.4713 31.5516 16.0435 32.6242C13.8552 33.5917 11.9333 33.5672 11.358 33.5917C11.358 33.5917 8.0365 33.7205 5.04618 31.8184L5.03126 31.8079C4.71554 31.5085 4.41837 31.1926 4.14118 30.8614C3.18693 29.7223 2.602 28.3754 2.45502 27.991V27.9862C2.21852 27.3184 1.72162 25.7144 1.78952 24.161C1.90964 21.4202 2.89447 19.7379 3.15485 19.3165C3.84445 18.1672 4.74138 17.1389 5.8057 16.2775C6.74489 15.534 7.80944 14.9425 8.95564 14.5273C10.1948 14.0397 11.5217 13.7783 12.8652 13.7573V18.3006C12.8652 18.3006 10.4075 17.5376 8.44084 18.8888C7.06583 19.8884 6.33616 20.8636 6.12129 22.6054C6.11234 23.8873 6.44733 25.7011 8.28492 26.9109C8.49928 27.0439 8.70966 27.162 8.91618 27.2651C9.23711 27.6736 9.62788 28.0297 10.0726 28.3187C11.8676 29.4312 13.3717 29.5088 15.2952 28.7864C16.5777 28.3034 17.5431 27.2147 17.9908 26.0084C18.2721 25.2553 18.2684 24.497 18.2684 23.713V1.40859H22.7448C22.9299 2.4384 23.4417 3.90436 24.7951 5.3563C25.3379 5.90454 25.9495 6.38923 26.6163 6.79986C26.8133 6.99937 27.8205 7.98578 29.1134 8.59135C29.7819 8.90437 30.4868 9.1442 31.2137 9.30613Z" fill="black"/>
<path d="M0.672729 26.5956V26.5991L0.783802 26.8939C0.771042 26.8596 0.729764 26.7553 0.672729 26.5956Z" fill="#69C9D0"/>
<path d="M8.9551 14.5271C7.80889 14.9425 6.74435 15.534 5.80514 16.2774C4.74049 17.1408 3.84379 18.1713 3.15505 19.3226C2.89467 19.7428 1.90984 21.4264 1.78972 24.1672C1.72182 25.7206 2.21872 27.3246 2.45522 27.9924V27.9972C2.60443 28.3782 3.18713 29.725 4.14138 30.8676C4.41857 31.1988 4.71574 31.5149 5.03146 31.8141C4.01991 31.1576 3.11776 30.364 2.3545 29.459C1.40846 28.3299 0.825017 26.9969 0.672818 26.6034C0.672639 26.6006 0.672639 26.5978 0.672818 26.5951V26.5901C0.435562 25.923 -0.0628204 24.3183 0.00656205 22.7629C0.126682 20.0221 1.11153 18.3398 1.37191 17.9183C2.06044 16.7667 2.95717 15.7362 4.022 14.8731C4.961 14.1293 6.0256 13.5378 7.17197 13.1228C7.88703 12.8444 8.63198 12.6391 9.39386 12.5103C10.542 12.3223 11.7147 12.3058 12.8684 12.462V13.7571C11.5236 13.7777 10.1954 14.0391 8.9551 14.5271Z" fill="#69C9D0"/>
<path d="M22.7477 1.40855H18.2711V23.7137C18.2711 24.4977 18.2711 25.2538 17.9937 26.0091C17.5416 27.2147 16.5797 28.3032 15.298 28.7864C13.3739 29.5117 11.8698 29.4312 10.0754 28.3187C9.62994 28.0309 9.2382 27.6761 8.91604 27.2686C10.4448 28.0337 11.813 28.0204 13.5081 27.3821C14.7892 26.8989 15.7524 25.8103 16.203 24.6041C16.485 23.8508 16.4813 23.0927 16.4813 22.3092V0H22.6626C22.6626 0 22.5933 0.554453 22.7477 1.40855ZM31.2128 8.06485V9.30608C30.4872 9.14391 29.7837 8.90408 29.1163 8.59131C27.8234 7.98574 26.8161 6.99934 26.6192 6.79981C26.8477 6.94062 27.0849 7.06872 27.3293 7.18345C28.9014 7.91993 30.4495 8.13976 31.2128 8.06485Z" fill="#69C9D0"/>
</svg>
