<svg width="45" height="45" viewBox="0 0 62 62" fill="none" xmlns="http://www.w3.org/2000/svg">
<path d="M30.9603 5.70315e-05C47.8856 -0.0324427 61.7284 13.8294 61.792 30.7928C61.8555 47.5641 48.4167 61.6676 31.2584 61.7934C13.9022 61.9191 0.038221 48.1534 7.87053e-05 30.9511C-0.0380636 13.8577 13.792 0.0325568 30.9603 5.70315e-05ZM30.8755 57.2928C45.3625 57.3451 57.1895 45.552 57.2601 30.9822C57.3307 16.4718 45.5702 4.61078 31.0267 4.52176C16.5326 4.43274 4.57291 16.2612 4.52912 30.7264C4.48533 45.4008 16.2275 57.2406 30.8755 57.2943V57.2928Z" fill="white"/>
<path d="M32.6131 13.7672C34.177 13.7672 35.5986 13.7353 37.0168 13.7958C37.2864 13.8076 37.6246 14.1337 37.7904 14.4027C39.2153 16.7024 40.8864 18.7954 42.9526 20.5438C43.6308 21.117 44.4211 21.5575 45.1311 22.0971C45.342 22.2568 45.5882 22.5426 45.5949 22.7746C45.6351 24.4524 45.6167 26.1318 45.6167 27.9592C42.5809 27.2598 40.2953 25.4879 37.9696 23.3143C37.9696 23.7917 37.9696 24.0775 37.9696 24.3616C37.9696 28.2836 37.9779 32.2073 37.9696 36.1294C37.9595 42.1142 33.2058 46.7708 27.3152 46.5809C21.4865 46.3909 17.0443 41.4283 17.3993 35.5007C17.7074 30.3581 22.1061 26.0696 27.2265 25.9217C27.3319 25.9183 27.4391 25.9402 27.6049 25.957V31.2222C27.3688 31.2743 27.1076 31.3399 26.8447 31.3886C24.246 31.8661 22.4862 34.2045 22.7708 36.8035C23.0555 39.3958 25.3126 41.3173 27.9264 41.1963C30.5083 41.0752 32.5913 38.9469 32.6014 36.2941C32.6282 29.1494 32.6114 22.003 32.6114 14.8583C32.6114 14.5288 32.6114 14.1993 32.6114 13.7672H32.6131Z" fill="white"/>
</svg>
