<svg width="14" height="14" viewBox="0 0 14 14" fill="none" xmlns="http://www.w3.org/2000/svg">
<path d="M13.3561 10.2074C13.413 9.82187 13.413 9.42812 13.3561 9.04258L13.9205 8.63516C13.9862 8.58867 14.0146 8.49297 13.9927 8.40273C13.8461 7.81211 13.5946 7.27617 13.2664 6.8332C13.2161 6.76484 13.1351 6.74844 13.0695 6.79492L12.5051 7.20234C12.2666 6.94805 11.9931 6.75117 11.6978 6.61992V5.80508C11.6978 5.71211 11.6453 5.63008 11.5731 5.61094C11.0852 5.47422 10.5886 5.47969 10.1248 5.61094C10.0526 5.63008 10.0001 5.71211 10.0001 5.80508V6.61992C9.70477 6.75117 9.43131 6.94805 9.19284 7.20234L8.62841 6.79492C8.56497 6.74844 8.48183 6.76484 8.43151 6.8332C8.10335 7.27617 7.85177 7.81211 7.70519 8.40273C7.68331 8.49297 7.71394 8.58867 7.77738 8.63516L8.34182 9.04258C8.28494 9.42812 8.28494 9.82187 8.34182 10.2074L7.77738 10.6148C7.71175 10.6613 7.68331 10.757 7.70519 10.8473C7.85177 11.4379 8.10335 11.9711 8.43151 12.4168C8.48183 12.4852 8.56278 12.5016 8.62841 12.4551L9.19284 12.0477C9.43131 12.302 9.70477 12.4988 10.0001 12.6301V13.4449C10.0001 13.5379 10.0526 13.6199 10.1248 13.6391C10.6127 13.7758 11.1093 13.7703 11.5731 13.6391C11.6453 13.6199 11.6978 13.5379 11.6978 13.4449V12.6301C11.9931 12.4988 12.2666 12.302 12.5051 12.0477L13.0695 12.4551C13.1329 12.5016 13.2161 12.4852 13.2664 12.4168C13.5946 11.9738 13.8461 11.4379 13.9927 10.8473C14.0146 10.757 13.984 10.6613 13.9205 10.6148L13.3561 10.2074ZM10.8511 10.9512C10.2648 10.9512 9.7901 10.3551 9.7901 9.625C9.7901 8.89492 10.267 8.29883 10.8511 8.29883C11.4353 8.29883 11.9122 8.89492 11.9122 9.625C11.9122 10.3551 11.4375 10.9512 10.8511 10.9512ZM4.90052 7C6.44724 7 7.70081 5.4332 7.70081 3.5C7.70081 1.5668 6.44724 0 4.90052 0C3.35379 0 2.10022 1.5668 2.10022 3.5C2.10022 5.4332 3.35379 7 4.90052 7ZM9.30223 13.1934C9.25191 13.1605 9.2016 13.1223 9.15347 13.0867L8.98063 13.2125C8.84937 13.3055 8.70061 13.3574 8.55184 13.3574C8.31338 13.3574 8.08366 13.2316 7.91959 13.0129C7.51923 12.4715 7.21295 11.8125 7.04012 11.1098C6.91979 10.6258 7.08168 10.1145 7.43172 9.86016L7.60455 9.73438C7.60236 9.66328 7.60236 9.59219 7.60455 9.52109L7.43172 9.39531C7.08168 9.14375 6.91979 8.62969 7.04012 8.1457C7.05981 8.06641 7.08825 7.98711 7.11013 7.90781C7.02699 7.89961 6.94604 7.875 6.86072 7.875H6.49537C6.0097 8.15391 5.46933 8.3125 4.90052 8.3125C4.33171 8.3125 3.79353 8.15391 3.30566 7.875H2.94031C1.31701 7.875 0 9.52109 0 11.55V12.6875C0 13.4121 0.470362 14 1.05011 14H8.75092C8.97188 14 9.17753 13.9125 9.34599 13.7676C9.31973 13.6637 9.30223 13.557 9.30223 13.4449V13.1934Z" fill="black"/>
</svg>
