<svg width="80" height="80" viewBox="0 0 80 80" fill="none" xmlns="http://www.w3.org/2000/svg">
<circle cx="40" cy="40" r="40" fill="#D62027"/>
<path d="M25.254 67.4286C22.726 67.4286 20.6704 65.3343 20.6704 62.7588C20.6704 60.1834 22.726 58.0891 25.254 58.0891C27.7819 58.0891 29.8376 60.1834 29.8376 62.7588C29.8376 65.3343 27.7819 67.4286 25.254 67.4286ZM25.254 60.1397C23.8354 60.1397 22.6831 61.3154 22.6831 62.7588C22.6831 64.2023 23.8372 65.378 25.254 65.378C26.6708 65.378 27.8248 64.2023 27.8248 62.7588C27.8248 61.3154 26.6708 60.1397 25.254 60.1397Z" fill="white"/>
<path d="M48.1788 67.4286C45.6509 67.4286 43.5952 65.3343 43.5952 62.7588C43.5952 60.1834 45.6509 58.0891 48.1788 58.0891C50.7067 58.0891 52.7624 60.1834 52.7624 62.7588C52.7624 65.3343 50.7067 67.4286 48.1788 67.4286ZM48.1788 60.1397C46.7603 60.1397 45.6079 61.3154 45.6079 62.7588C45.6079 64.2023 46.762 65.378 48.1788 65.378C49.5956 65.378 50.7497 64.2023 50.7497 62.7588C50.7497 61.3154 49.5956 60.1397 48.1788 60.1397Z" fill="white"/>
<path d="M62.0738 20.9955C62.0738 15.7116 57.8698 11.4286 52.6834 11.4286C47.497 11.4286 43.293 15.7116 43.293 20.9955C43.293 23.2542 44.0658 25.3275 45.352 26.9634C45.352 26.9634 45.352 26.9652 45.3503 26.9669C45.3641 26.9844 45.3795 27.0037 45.3933 27.0194C45.4276 27.0614 45.462 27.1034 45.4963 27.1454C47.6138 29.7541 52.6851 36.9782 52.6851 36.9782C56.5234 31.5877 60.2758 26.6275 60.2758 26.6275L60.2672 26.624C61.4006 25.0423 62.0773 23.102 62.0773 20.9937L62.0738 20.9955ZM52.6817 26.9477C49.4548 26.9477 46.8393 24.283 46.8393 20.9955C46.8393 17.708 49.4548 15.0433 52.6817 15.0433C55.9086 15.0433 58.5241 17.708 58.5241 20.9955C58.5241 24.283 55.9086 26.9477 52.6817 26.9477Z" fill="white"/>
<path d="M69.7126 47.0875C69.7126 44.4264 67.5951 42.2673 64.9813 42.2673C62.3675 42.2673 60.25 44.4246 60.25 47.0875C60.25 48.2248 60.6398 49.2693 61.2873 50.0951C61.2942 50.1039 61.3027 50.1126 61.3096 50.1214C61.3268 50.1424 61.344 50.1634 61.3611 50.1844C62.4276 51.4983 64.983 55.1375 64.983 55.1375C66.9167 52.4221 68.8075 49.9237 68.8075 49.9237H68.8024C69.3725 49.1258 69.7143 48.1478 69.7143 47.0858L69.7126 47.0875ZM64.9813 50.0864C63.3567 50.0864 62.0378 48.7444 62.0378 47.0875C62.0378 45.4306 63.355 44.0887 64.9813 44.0887C66.6076 44.0887 67.9248 45.4306 67.9248 47.0875C67.9248 48.7444 66.6076 50.0864 64.9813 50.0864Z" fill="white"/>
<path d="M30.6189 21.9595C30.6189 19.2983 28.5014 17.1393 25.8876 17.1393C23.2738 17.1393 21.1564 19.2966 21.1564 21.9595C21.1564 23.0968 21.5462 24.1413 22.1936 24.9671C22.2005 24.9758 22.2091 24.9846 22.216 24.9933C22.2331 25.0143 22.2503 25.0353 22.2675 25.0563C23.3339 26.3703 25.8894 30.0095 25.8894 30.0095C27.8231 27.2941 29.7139 24.7956 29.7139 24.7956H29.7087C30.2789 23.9978 30.6206 23.0198 30.6206 21.9578L30.6189 21.9595ZM25.8876 24.9583C24.263 24.9583 22.9441 23.6164 22.9441 21.9595C22.9441 20.3026 24.2613 18.9607 25.8876 18.9607C27.514 18.9607 28.8312 20.3026 28.8312 21.9595C28.8312 23.6164 27.514 24.9583 25.8876 24.9583Z" fill="white"/>
<path d="M16.7943 40.7014V59.76H19.1041C19.1041 59.76 20.4059 55.7062 25.5888 55.8881C29.9217 56.0403 31.2526 59.76 31.2526 59.76H41.1652V40.7014H33.8613V48.0673L28.8312 45.5619L24.0346 48.2195V40.7014H16.7943Z" fill="white"/>
<path d="M25.8876 44.8778V40.7014H31.7094V44.8778L28.7985 42.7887L25.8876 44.8778Z" fill="white"/>
<path d="M47.2051 53.0782C47.2051 53.0782 47.0557 52.0145 46.841 50.2299C46.6263 48.4453 48.0998 48.4453 48.8451 48.4453H53.1917L52.6834 46.3947H43.293V57.8599C50.6346 53.3792 53.9147 59.7583 53.9147 59.7583H56.0013L54.6446 54.2907H48.6219C47.6533 54.2907 47.2051 53.0765 47.2051 53.0765V53.0782Z" fill="white"/>
<path d="M49.1422 50.0601C48.4896 50.0321 48.4707 52.0914 49.1422 52.0914H54.095L53.5918 50.0671C51.9432 50.0724 49.5595 50.0776 49.1405 50.0601H49.1422Z" fill="white"/>
<path d="M18.5099 61.8858H14.8571V63.7089H18.5099V61.8858Z" fill="white"/>
<path d="M56.671 61.8858H54.5089V63.7089H56.671V61.8858Z" fill="white"/>
<path d="M37.5192 34.8542H35.3571V36.6773H37.5192V34.8542Z" fill="white"/>
<path d="M41.4863 34.8542H39.3242V36.6773H41.4863V34.8542Z" fill="white"/>
<path d="M45.4534 34.8542H43.2912V36.6773H45.4534V34.8542Z" fill="white"/>
<path d="M41.1668 61.8858H31.7094V63.7089H41.1668V61.8858Z" fill="white"/>
<path d="M17.0141 38.5721C16.6312 38.5424 16.3272 38.2204 16.3203 37.8215C16.3169 37.6203 16.2705 32.8421 20.2238 27.4411C20.4729 27.0999 20.9451 27.0299 21.28 27.2836C21.6149 27.5373 21.6836 28.0184 21.4346 28.3596C17.8092 33.3128 17.8281 37.7481 17.8299 37.7935C17.835 38.2169 17.5036 38.5669 17.088 38.5739C17.0639 38.5739 17.0382 38.5739 17.0141 38.5721Z" fill="white"/>
<path d="M32.3517 19.6815C32.1182 19.657 31.9018 19.5223 31.7764 19.3001C31.5703 18.9327 31.6923 18.4638 32.0529 18.2521C32.2092 18.1611 35.9375 16.0196 41.8864 16.8227C42.3003 16.8786 42.5905 17.2653 42.5356 17.6852C42.4806 18.1051 42.0994 18.3991 41.6889 18.3466C36.2724 17.617 32.8395 19.5661 32.8051 19.5853C32.6626 19.6675 32.5046 19.699 32.3517 19.6815Z" fill="white"/>
<path d="M64.983 41.4695C64.983 41.4695 64.9658 41.4695 64.9573 41.4695C64.5399 41.4555 64.2136 41.1004 64.2274 40.6752C64.4764 32.9769 61.4813 29.0717 61.4504 29.0332C61.1911 28.7026 61.2409 28.2197 61.5655 27.9537C61.8884 27.6895 62.3623 27.7385 62.6251 28.0675C62.7625 28.2407 66.0048 32.41 65.7352 40.7277C65.7215 41.1423 65.3866 41.4713 64.9813 41.4713L64.983 41.4695Z" fill="white"/>
<path d="M57.5658 57.3403C57.3425 57.3403 57.1227 57.2406 56.9733 57.0481C56.714 56.7157 56.7707 56.231 57.0969 55.9686C58.9448 54.4779 60.2139 52.6548 60.2277 52.6356C60.4681 52.2892 60.9369 52.2052 61.2787 52.4484C61.6204 52.6916 61.7011 53.171 61.4624 53.5191C61.4058 53.6014 60.0611 55.5399 58.0329 57.1741C57.8938 57.2861 57.7289 57.3403 57.5658 57.3403Z" fill="white"/>
</svg>
