<svg xmlns="http://www.w3.org/2000/svg" width="21" height="20" viewBox="0 0 21 20" fill="none">
  <path fill-rule="evenodd" clip-rule="evenodd" d="M5.05806 4.55806C5.30214 4.31398 5.69786 4.31398 5.94194 4.55806L10.5 9.11612L15.0581 4.55806C15.3021 4.31398 15.6979 4.31398 15.9419 4.55806C16.186 4.80214 16.186 5.19786 15.9419 5.44194L11.3839 10L15.9419 14.5581C16.186 14.8021 16.186 15.1979 15.9419 15.4419C15.6979 15.686 15.3021 15.686 15.0581 15.4419L10.5 10.8839L5.94194 15.4419C5.69786 15.686 5.30214 15.686 5.05806 15.4419C4.81398 15.1979 4.81398 14.8021 5.05806 14.5581L9.61612 10L5.05806 5.44194C4.81398 5.19786 4.81398 4.80214 5.05806 4.55806Z" fill="#00538F"/>
</svg>