<svg width="36" height="35" viewBox="0 0 36 35" fill="none" xmlns="http://www.w3.org/2000/svg">
<path d="M5.14174 0.0609087H30.8975C33.7157 0.0609087 36 2.39505 36 5.27463V29.5786C36 32.4582 33.7157 34.7923 30.8975 34.7923H5.14174C2.3236 34.7923 0.039255 32.4582 0.039255 29.5786V5.27463C0.039255 2.39505 2.3236 0.0609087 5.14174 0.0609087Z" fill="white"/>
<path d="M6.44483 30.5331C6.30353 30.469 6.20148 30.3968 6.36633 30.2524C6.46838 30.1722 6.57828 30.1 6.68818 30.0278C7.71653 29.346 8.68208 28.6 9.31792 27.5011C9.85172 26.5867 9.76537 26.0493 9.09813 25.3756C5.37724 21.5735 3.74444 17.0256 4.56084 11.6514C5.02399 8.61944 6.38203 5.99653 8.36023 3.71854C9.55342 2.33891 10.9743 1.22397 12.5286 0.293521C12.6228 0.237373 12.7562 0.221331 12.7719 0.0769512C12.7405 -0.00325999 12.6856 0.0208033 12.6385 0.0208033C9.99302 0.0208033 7.34758 -0.0353445 4.70999 0.0368456C2.1823 0.117057 2.3744e-06 2.11431 0.00785235 4.97785C0.0235523 13.3439 0.00785235 21.7099 0.00785235 30.0839C0.00785235 32.6828 1.9468 34.8565 4.48234 34.9528C6.62538 35.041 8.76843 34.9688 10.9193 34.9608C11.0763 34.9688 11.2333 34.9768 11.3903 34.9768H22.7257C25.5517 34.9768 28.3777 34.9929 31.2037 34.9768C33.8256 34.9768 35.9529 32.8111 35.9529 30.1401V25.3996C35.9529 25.2873 35.9921 25.167 35.9215 25.0467C35.7802 25.0547 35.7252 25.175 35.6467 25.2552C34.1239 26.8194 32.3262 28.0787 30.3559 28.969C25.5281 31.1427 20.614 31.2951 15.6293 29.5465C15.1976 29.3861 14.7266 29.3701 14.2791 29.4824C13.6197 29.6508 12.9682 29.8513 12.3166 30.0519C10.4012 30.6615 8.44658 30.9342 6.44483 30.5331ZM12.1361 17.0175C12.2695 16.8411 12.3402 16.7368 12.4187 16.6325C13.447 15.301 14.4754 13.9695 15.5037 12.63C15.802 12.245 16.1003 11.8519 16.2887 11.3867C16.5085 10.8573 16.273 10.36 15.7392 10.1675C15.5037 10.0953 15.2525 10.0632 15.0013 10.0793C13.604 10.0713 12.1989 10.0713 10.8016 10.0793C10.6053 10.0793 10.4091 10.1033 10.2207 10.1515C9.78107 10.2638 9.51417 10.721 9.62407 11.1782C9.70257 11.483 9.93807 11.7236 10.2364 11.7958C10.4248 11.8439 10.621 11.868 10.8173 11.86C11.6651 11.868 12.5207 11.86 13.3685 11.868C13.4627 11.868 13.5805 11.8038 13.6511 11.9482C13.5805 12.0445 13.5098 12.1407 13.4392 12.2289C12.2224 13.8011 11.0135 15.3812 9.79677 16.9534C9.49848 17.3464 9.34148 17.7796 9.56127 18.2608C9.78107 18.7421 10.2285 18.8303 10.6838 18.8624C11.0449 18.8865 11.4139 18.8704 11.7828 18.8704C13.0545 18.8704 14.3184 18.8784 15.5901 18.8624C16.2652 18.8544 16.6263 18.4373 16.5556 17.7956C16.5007 17.2903 16.1631 17.0256 15.5351 17.0175C14.4283 17.0095 13.3214 17.0175 12.1361 17.0175ZM21.242 12.7984C20.2608 11.9241 19.1775 11.868 18.1177 12.5097C16.8304 13.2797 16.3594 14.539 16.5164 15.9989C16.6655 17.3625 17.2464 18.4774 18.6437 18.9346C19.515 19.2234 20.3236 19.1191 21.0379 18.5255C21.2263 18.3731 21.2813 18.4052 21.4147 18.5736C21.6738 18.9105 22.1212 19.0389 22.5137 18.8865C22.9062 18.7661 23.1653 18.3972 23.1653 17.9801C23.1731 16.3759 23.181 14.7716 23.1653 13.1674C23.1574 12.5257 22.5687 12.1166 21.9564 12.245C21.6188 12.3172 21.4304 12.5498 21.242 12.7984ZM26.6821 15.7743C26.6507 17.7796 28.2756 19.2955 30.3166 19.087C32.1928 18.8945 33.4095 17.4587 33.3467 15.4294C33.2839 13.4241 31.8238 12.0525 29.8221 12.1166C27.9459 12.1728 26.6193 13.7128 26.6821 15.7743ZM25.9913 14.1781C25.9913 12.9188 25.9991 11.6675 25.9913 10.4081C25.9913 9.76646 25.5909 9.3654 24.9943 9.37342C24.4134 9.38144 24.0288 9.7825 24.0209 10.4001C24.0131 10.7771 24.0209 11.1461 24.0209 11.5231V17.8999C24.0209 18.3972 24.3192 18.8303 24.7117 18.9346C25.2534 19.087 25.8107 18.7581 25.952 18.2047C25.9756 18.1084 25.9913 18.0122 25.9834 17.9079C25.9991 16.6646 25.9913 15.4213 25.9913 14.1781Z" fill="#FDFEFE"/>
<path d="M10.9115 34.9688C8.76842 34.9688 6.61753 35.041 4.47449 34.9608C1.93894 34.8565 0 32.6828 0 30.092C0 21.7259 0.0157 13.3599 0 4.98587C0 2.12233 2.19014 0.125076 4.70999 0.0528856C7.34758 -0.0193045 9.99302 0.0368433 12.6385 0.0368433C12.6856 0.0368433 12.7484 0.01278 12.7719 0.0929911C12.7562 0.237371 12.6149 0.253413 12.5286 0.309561C10.9743 1.24001 9.55342 2.35495 8.36023 3.73458C6.38988 6.01257 5.02399 8.62746 4.56084 11.6675C3.74444 17.0336 5.38508 21.5896 9.09812 25.3916C9.75752 26.0734 9.84387 26.6028 9.31792 27.5172C8.68207 28.6161 7.71653 29.362 6.68818 30.0438C6.57828 30.108 6.46838 30.1882 6.35848 30.2604C6.19363 30.4048 6.29568 30.477 6.43698 30.5411C6.46838 30.6133 6.50763 30.6775 6.55473 30.7417C7.45748 31.5598 8.31313 32.4341 9.20017 33.2683C9.61622 33.6614 10.0323 34.0704 10.4326 34.4795C10.5975 34.6319 10.8722 34.68 10.9115 34.9688Z" fill="#0180C7"/>
<path d="M10.9115 34.9688C10.8722 34.6881 10.5975 34.6399 10.4326 34.4715C10.0323 34.0544 9.61622 33.6533 9.20017 33.2603C8.31313 32.4261 7.45748 31.5518 6.55473 30.7337C6.50763 30.6695 6.46838 30.6053 6.43698 30.5331C8.43873 30.9342 10.3934 30.6615 12.3166 30.0599C12.9682 29.8594 13.6197 29.6588 14.2791 29.4904C14.7266 29.3701 15.1976 29.3941 15.6293 29.5546C20.6062 31.3032 25.5203 31.1427 30.3559 28.977C32.3262 28.0867 34.1239 26.8354 35.6467 25.2713C35.7252 25.1911 35.7802 25.0708 35.9215 25.0627C35.9921 25.175 35.9529 25.2953 35.9529 25.4157V30.108C35.9686 32.7871 33.8648 34.9688 31.2429 34.9929H31.2037C28.3777 35.0089 25.5517 34.9929 22.7257 34.9929H11.3825C11.2255 34.9768 11.0685 34.9688 10.9115 34.9688Z" fill="#0172B1"/>
<path d="M12.1361 17.0175C13.3214 17.0175 14.4361 17.0095 15.543 17.0175C16.1631 17.0256 16.5007 17.2903 16.5635 17.7956C16.6341 18.4293 16.273 18.8544 15.5979 18.8624C14.3262 18.8784 13.0624 18.8704 11.7907 18.8704C11.4217 18.8704 11.0606 18.8865 10.6917 18.8624C10.2364 18.8383 9.78892 18.7421 9.56912 18.2608C9.34932 17.7795 9.50632 17.3464 9.80462 16.9534C11.0135 15.3812 12.2303 13.8011 13.447 12.2289C13.5177 12.1327 13.5883 12.0364 13.659 11.9482C13.5805 11.8118 13.4706 11.876 13.3764 11.868C12.5286 11.86 11.6729 11.868 10.8251 11.86C10.6289 11.86 10.4326 11.8359 10.2442 11.7958C9.79677 11.6915 9.52202 11.2343 9.62407 10.7851C9.69472 10.4803 9.93022 10.2317 10.2285 10.1595C10.4169 10.1114 10.6132 10.0873 10.8094 10.0873C12.2067 10.0793 13.6119 10.0793 15.0092 10.0873C15.2604 10.0793 15.5037 10.1114 15.7471 10.1755C16.2809 10.36 16.5085 10.8653 16.2966 11.3947C16.1082 11.8519 15.8099 12.245 15.5116 12.638C14.4832 13.9775 13.4549 15.309 12.4265 16.6325C12.3402 16.7368 12.2617 16.8411 12.1361 17.0175Z" fill="#0180C7"/>
<path d="M21.242 12.7984C21.4304 12.5498 21.6267 12.3172 21.9485 12.253C22.5687 12.1247 23.1496 12.5337 23.1574 13.1754C23.181 14.7796 23.1731 16.3839 23.1574 17.9881C23.1574 18.4052 22.8905 18.7742 22.5059 18.8945C22.1134 19.0469 21.6659 18.9266 21.4069 18.5817C21.2734 18.4132 21.2185 18.3811 21.0301 18.5335C20.3157 19.1271 19.5072 19.2314 18.6358 18.9426C17.2386 18.4774 16.6655 17.3624 16.5085 16.0069C16.3437 14.539 16.8225 13.2877 18.1099 12.5177C19.1775 11.868 20.2608 11.9241 21.242 12.7984ZM18.4631 15.7261C18.4788 16.0791 18.5887 16.416 18.7928 16.6967C19.2167 17.2742 20.0253 17.3945 20.5983 16.9614C20.6925 16.8892 20.7789 16.801 20.8574 16.6967C21.297 16.0871 21.297 15.0845 20.8574 14.4748C20.6376 14.162 20.2922 13.9775 19.9232 13.9695C19.0597 13.9134 18.4553 14.5952 18.4631 15.7261ZM26.6821 15.7743C26.6193 13.7128 27.9459 12.1728 29.8299 12.1166C31.8317 12.0525 33.2918 13.4241 33.3546 15.4294C33.4174 17.4587 32.2006 18.8945 30.3245 19.087C28.2756 19.2955 26.6507 17.7796 26.6821 15.7743ZM28.6524 15.5818C28.6367 15.9828 28.7545 16.3759 28.99 16.7047C29.4217 17.2822 30.2303 17.3945 30.7955 16.9454C30.8818 16.8812 30.9525 16.801 31.0231 16.7208C31.4784 16.1112 31.4784 15.0845 31.031 14.4748C30.8112 14.17 30.4658 13.9775 30.0968 13.9695C29.249 13.9214 28.6524 14.5791 28.6524 15.5818ZM25.9913 14.1781C25.9913 15.4213 25.9991 16.6646 25.9913 17.9079C25.9991 18.4774 25.5595 18.9506 25.0022 18.9667C24.908 18.9667 24.8059 18.9587 24.7117 18.9346C24.3192 18.8303 24.0209 18.4052 24.0209 17.8999V11.5231C24.0209 11.1461 24.0131 10.7771 24.0209 10.4001C24.0288 9.7825 24.4134 9.38144 24.9943 9.38144C25.5909 9.37342 25.9913 9.77448 25.9913 10.4162C25.9991 11.6675 25.9913 12.9268 25.9913 14.1781Z" fill="#0180C7"/>
<path d="M18.4631 15.7261C18.4553 14.5952 19.0597 13.9134 19.9154 13.9615C20.2843 13.9775 20.6297 14.162 20.8495 14.4749C21.2891 15.0764 21.2891 16.0871 20.8495 16.6967C20.4256 17.2742 19.6171 17.3945 19.044 16.9614C18.9498 16.8892 18.8635 16.801 18.785 16.6967C18.5887 16.416 18.4788 16.0791 18.4631 15.7261ZM28.6524 15.5818C28.6524 14.5871 29.249 13.9214 30.0968 13.9695C30.4658 13.9775 30.8112 14.17 31.031 14.4748C31.4784 15.0845 31.4784 16.1192 31.0231 16.7208C30.5835 17.2903 29.7671 17.3865 29.2098 16.9373C29.1234 16.8732 29.0528 16.7929 28.99 16.7047C28.7545 16.3759 28.6446 15.9828 28.6524 15.5818Z" fill="#FDFEFE"/>
</svg>
