<svg width="45" height="45" viewBox="0 0 62 62" fill="none" xmlns="http://www.w3.org/2000/svg">
<path d="M61.7897 7.95588C61.7848 3.20293 58.6062 0.0083944 53.8788 0.0051578C39.3501 -0.00131542 24.2631 -0.00131542 7.7535 0.0067761C3.26721 0.0083944 0.00930598 3.24986 0.00606912 7.71476C-0.00202304 22.7617 -0.00202304 38.2797 0.00606912 53.8364C0.00930598 58.5926 3.21865 61.7904 7.99464 61.7904C16.1046 61.792 23.9054 61.7936 31.504 61.7936C39.1025 61.7936 46.4971 61.7936 53.7962 61.7904C58.6515 61.7904 61.7897 58.6347 61.7913 53.7539C61.7929 48.4475 61.7913 43.141 61.7913 37.8346V30.9358V23.9253C61.7913 18.6027 61.7929 13.2785 61.788 7.95588H61.7897ZM8.0966 58.5424C6.52025 58.5424 5.30481 58.1298 4.48427 57.3141C3.66372 56.4985 3.24779 55.2913 3.2494 53.7264V33.852C3.2494 25.2394 3.2494 16.6284 3.25102 8.01576C3.25102 4.94907 4.93419 3.25957 7.98979 3.25633C9.95133 3.25633 11.9129 3.25471 13.8728 3.25471H16.1612H16.5853C16.2519 3.70136 15.9152 4.1383 15.5867 4.56392C14.7354 5.67246 13.931 6.71788 13.2141 7.84746C6.48141 18.4587 7.53825 31.9618 15.8424 41.4483C15.9282 41.547 16.014 41.6473 16.0981 41.7493C16.3441 42.0422 16.5982 42.3464 16.8976 42.5973C17.4689 43.0763 17.6729 43.6815 17.5579 44.5603C17.2035 47.2952 16.1353 48.8747 14.0961 49.6822C13.4164 49.9509 13.0992 50.5771 13.2303 51.396C13.3452 52.1194 13.8226 52.5806 14.6108 52.7295C17.1614 53.2101 19.6716 52.9544 22.075 51.9656C22.8583 51.6436 23.6432 51.294 24.4023 50.9558C24.6402 50.849 24.8781 50.7438 25.116 50.6386C26.3444 50.0949 27.5599 50.0706 28.8336 50.5658C33.6969 52.4544 38.8387 53.249 44.118 52.9269C48.9992 52.6291 53.6603 51.3733 57.9734 49.1935C58.1255 49.1174 58.2841 49.0478 58.4508 48.975C58.4606 48.9718 58.4686 48.9669 58.4784 48.9637C58.48 49.5398 58.4913 50.1127 58.501 50.671C58.5269 52.1566 58.5512 53.5597 58.4444 54.9757C58.3084 56.7639 56.8583 58.2026 54.9178 58.4745C54.4404 58.5408 53.9419 58.5424 53.4564 58.5408H53.3269C41.548 58.544 29.7706 58.544 17.9917 58.5457H8.09822L8.0966 58.5424ZM58.0511 45.4471C52.0888 48.8617 45.4969 50.247 38.4584 49.5673C35.4707 49.2776 32.8942 48.6772 30.5798 47.7289C29.455 47.2677 28.327 47.0363 27.1811 47.0363C25.8492 47.0363 24.4929 47.3486 23.093 47.9733C22.1737 48.3843 21.2156 48.7533 20.2899 49.111C19.9047 49.2598 19.5211 49.4071 19.1375 49.5592L19.1133 49.5204C20.2219 47.9328 20.8013 46.0944 20.8337 44.0586C20.8563 42.6766 20.4096 41.5583 19.4305 40.5372C14.1253 35.0091 11.6636 28.5391 12.1152 21.3069C12.5441 14.4356 15.5835 8.45756 21.1509 3.53791C21.3289 3.38094 21.6493 3.26604 21.9099 3.26442C33.459 3.24824 43.8655 3.23529 54.2737 3.2628C56.8243 3.26928 58.5382 5.0753 58.5415 7.75521C58.5479 13.1636 58.5463 18.661 58.5463 23.9787V33.5348C58.5431 37.1242 58.5431 40.8366 58.5544 44.4875C58.5544 44.9309 58.4784 45.2011 58.0511 45.4455V45.4471Z" fill="white"/>
<path d="M28.1295 29.2964C27.644 29.2608 27.1487 29.2656 26.6713 29.2721C26.4787 29.2737 26.2861 29.2753 26.0951 29.2753C25.4882 29.2753 24.8813 29.2753 24.2259 29.2753H23.5963L23.8374 28.8837C24.0964 28.4613 24.3311 28.0794 24.569 27.6991C25.0836 26.8754 25.5983 26.0517 26.1146 25.228C27.1407 23.5886 28.2023 21.8943 29.2365 20.2226C29.6168 19.6076 29.6719 18.8939 29.3822 18.3567C29.1362 17.9019 28.6749 17.6333 28.1182 17.6203C25.4996 17.5588 22.8162 17.5831 20.5083 17.6122C19.6748 17.6236 19.055 18.2676 19.0339 19.1448C19.0145 19.9717 19.5826 20.666 20.3853 20.7971C20.6248 20.8359 20.8676 20.8327 21.1023 20.831C21.1686 20.831 21.2334 20.831 21.2997 20.831C22.2384 20.8327 23.1771 20.831 24.1611 20.831H24.9978C24.9865 20.8521 24.9752 20.8731 24.9655 20.8925C24.8781 21.0576 24.8085 21.1887 24.7324 21.3117C24.187 22.1888 23.6384 23.0643 23.0913 23.9398C22.7531 24.4803 22.4148 25.0224 22.0766 25.5646C21.8225 25.9724 21.5652 26.3802 21.3094 26.788C20.6588 27.8237 19.9856 28.895 19.3431 29.9631C18.9983 30.536 18.9643 31.2205 19.2557 31.7514C19.5017 32.1996 19.9386 32.465 20.4581 32.4796C21.6639 32.5136 22.8712 32.5249 24.0624 32.5249C25.4542 32.5249 26.8267 32.5087 28.1506 32.4893C28.9517 32.478 29.591 31.7918 29.6071 30.926C29.6233 30.0602 28.9889 29.3595 28.1327 29.2964H28.1295Z" fill="white"/>
<path d="M38.9438 22.1013C38.4307 21.844 37.8432 21.891 37.3707 22.2276C36.9871 22.5011 36.7476 22.459 36.2896 22.2988C34.3571 21.6191 32.606 21.9557 31.0831 23.2989C29.6038 24.6032 29.0309 26.2701 29.3805 28.2509C29.6491 29.777 30.7141 31.1849 32.1577 31.9261C33.6289 32.6802 35.3153 32.685 36.9207 31.9439C37.361 32.3533 37.7834 32.5572 38.1847 32.5572C38.4146 32.5572 38.6363 32.4909 38.8499 32.3565C39.282 32.0879 39.7578 31.4907 39.7724 30.9939C39.842 28.7558 39.8501 26.3656 39.7951 23.472C39.7837 22.8765 39.4649 22.3635 38.9422 22.0997L38.9438 22.1013ZM36.5728 27.2265C36.5776 27.7784 36.3689 28.2946 35.9837 28.6814C35.605 29.0633 35.0984 29.272 34.5562 29.272H34.5497C33.4557 29.2688 32.5461 28.3804 32.5235 27.2929C32.5105 26.7426 32.7112 26.2264 33.0851 25.838C33.4605 25.4496 33.9703 25.2311 34.5222 25.2231C34.5336 25.2231 34.5433 25.2231 34.5546 25.2231C35.1032 25.2231 35.6066 25.4221 35.9788 25.7846C36.3575 26.1552 36.5679 26.6666 36.5728 27.2249V27.2265Z" fill="white"/>
<path d="M50.705 21.9832C50.6953 21.9832 50.6856 21.9832 50.6743 21.9832C47.74 21.9832 45.416 24.252 45.3771 27.1617C45.3593 28.5842 45.8999 29.9274 46.9001 30.9421C47.8954 31.9519 49.2193 32.5086 50.6306 32.5102H50.6387C53.5324 32.5102 55.9034 30.1637 55.9244 27.2766C55.9342 25.8736 55.3952 24.5482 54.4047 23.5464C53.4175 22.5463 52.1033 21.9912 50.7034 21.9832H50.705ZM50.6856 29.2688C50.1418 29.2801 49.632 29.081 49.25 28.7088C48.8616 28.3318 48.6464 27.8155 48.6431 27.2572C48.6399 26.6924 48.8438 26.1729 49.2193 25.7959C49.5883 25.4253 50.0949 25.2214 50.6451 25.2214H50.65C51.2035 25.2214 51.7165 25.4334 52.0936 25.8137C52.4707 26.194 52.6763 26.707 52.673 27.2588C52.6649 28.3625 51.7926 29.2461 50.6872 29.2688H50.6856Z" fill="white"/>
<path d="M44.2151 19.2756C44.2151 19.1397 44.2151 19.0021 44.2167 18.8662C44.22 18.4406 44.2248 18.002 44.1892 17.5683C44.1245 16.764 43.5419 16.1782 42.7407 16.1102C41.9137 16.0406 41.2129 16.5601 41.0284 17.3757C40.9686 17.6395 40.9686 17.9114 40.9686 18.1736V18.214C40.9653 19.6915 40.9653 21.169 40.9653 22.6466V25.888C40.9653 27.5031 40.9637 29.1182 40.9653 30.7316C40.9669 31.6233 41.3262 32.2026 41.9752 32.3629C42.1452 32.4049 42.3377 32.426 42.5336 32.426C42.9398 32.426 43.3574 32.3305 43.5936 32.1185C43.9934 31.7576 44.1828 31.0294 44.1892 30.5034C44.2232 27.5905 44.2184 24.6274 44.2151 21.763C44.2151 20.9344 44.2119 20.1042 44.2119 19.2756H44.2151Z" fill="white"/>
</svg>
